%TF.GenerationSoftware,KiCad,Pcbnew,(6.0.8)*%
%TF.CreationDate,2023-04-17T13:42:39+02:00*%
%TF.ProjectId,Group22_Power,47726f75-7032-4325-9f50-6f7765722e6b,rev?*%
%TF.SameCoordinates,Original*%
%TF.FileFunction,Legend,Top*%
%TF.FilePolarity,Positive*%
%FSLAX46Y46*%
G04 Gerber Fmt 4.6, Leading zero omitted, Abs format (unit mm)*
G04 Created by KiCad (PCBNEW (6.0.8)) date 2023-04-17 13:42:39*
%MOMM*%
%LPD*%
G01*
G04 APERTURE LIST*
G04 Aperture macros list*
%AMRoundRect*
0 Rectangle with rounded corners*
0 $1 Rounding radius*
0 $2 $3 $4 $5 $6 $7 $8 $9 X,Y pos of 4 corners*
0 Add a 4 corners polygon primitive as box body*
4,1,4,$2,$3,$4,$5,$6,$7,$8,$9,$2,$3,0*
0 Add four circle primitives for the rounded corners*
1,1,$1+$1,$2,$3*
1,1,$1+$1,$4,$5*
1,1,$1+$1,$6,$7*
1,1,$1+$1,$8,$9*
0 Add four rect primitives between the rounded corners*
20,1,$1+$1,$2,$3,$4,$5,0*
20,1,$1+$1,$4,$5,$6,$7,0*
20,1,$1+$1,$6,$7,$8,$9,0*
20,1,$1+$1,$8,$9,$2,$3,0*%
%AMFreePoly0*
4,1,6,0.500000,-0.850000,-0.500000,-0.850000,-0.500000,0.550000,-0.200000,0.850000,0.500000,0.850000,0.500000,-0.850000,0.500000,-0.850000,$1*%
G04 Aperture macros list end*
%ADD10C,0.150000*%
%ADD11C,0.120000*%
%ADD12R,0.550000X0.250000*%
%ADD13FreePoly0,0.000000*%
%ADD14RoundRect,0.150000X-0.587500X-0.150000X0.587500X-0.150000X0.587500X0.150000X-0.587500X0.150000X0*%
%ADD15R,2.200000X1.200000*%
%ADD16R,6.400000X5.800000*%
%ADD17C,2.000000*%
%ADD18RoundRect,0.135000X-0.135000X-0.185000X0.135000X-0.185000X0.135000X0.185000X-0.135000X0.185000X0*%
%ADD19RoundRect,0.250000X-0.262500X-0.450000X0.262500X-0.450000X0.262500X0.450000X-0.262500X0.450000X0*%
%ADD20R,1.700000X1.700000*%
%ADD21O,1.700000X1.700000*%
%ADD22RoundRect,0.250000X-0.325000X-0.650000X0.325000X-0.650000X0.325000X0.650000X-0.325000X0.650000X0*%
%ADD23RoundRect,0.225000X-0.225000X-0.250000X0.225000X-0.250000X0.225000X0.250000X-0.225000X0.250000X0*%
%ADD24C,3.450000*%
%ADD25C,2.390000*%
%ADD26R,7.340000X6.350000*%
G04 APERTURE END LIST*
D10*
%TO.C,U4*%
X196503095Y-61622380D02*
X196503095Y-62431904D01*
X196550714Y-62527142D01*
X196598333Y-62574761D01*
X196693571Y-62622380D01*
X196884047Y-62622380D01*
X196979285Y-62574761D01*
X197026904Y-62527142D01*
X197074523Y-62431904D01*
X197074523Y-61622380D01*
X197979285Y-61955714D02*
X197979285Y-62622380D01*
X197741190Y-61574761D02*
X197503095Y-62289047D01*
X198122142Y-62289047D01*
%TO.C,U3*%
X99423095Y-107092380D02*
X99423095Y-107901904D01*
X99470714Y-107997142D01*
X99518333Y-108044761D01*
X99613571Y-108092380D01*
X99804047Y-108092380D01*
X99899285Y-108044761D01*
X99946904Y-107997142D01*
X99994523Y-107901904D01*
X99994523Y-107092380D01*
X100375476Y-107092380D02*
X100994523Y-107092380D01*
X100661190Y-107473333D01*
X100804047Y-107473333D01*
X100899285Y-107520952D01*
X100946904Y-107568571D01*
X100994523Y-107663809D01*
X100994523Y-107901904D01*
X100946904Y-107997142D01*
X100899285Y-108044761D01*
X100804047Y-108092380D01*
X100518333Y-108092380D01*
X100423095Y-108044761D01*
X100375476Y-107997142D01*
%TO.C,U2*%
X183393095Y-61672380D02*
X183393095Y-62481904D01*
X183440714Y-62577142D01*
X183488333Y-62624761D01*
X183583571Y-62672380D01*
X183774047Y-62672380D01*
X183869285Y-62624761D01*
X183916904Y-62577142D01*
X183964523Y-62481904D01*
X183964523Y-61672380D01*
X184393095Y-61767619D02*
X184440714Y-61720000D01*
X184535952Y-61672380D01*
X184774047Y-61672380D01*
X184869285Y-61720000D01*
X184916904Y-61767619D01*
X184964523Y-61862857D01*
X184964523Y-61958095D01*
X184916904Y-62100952D01*
X184345476Y-62672380D01*
X184964523Y-62672380D01*
%TO.C,U1*%
X174873095Y-61372380D02*
X174873095Y-62181904D01*
X174920714Y-62277142D01*
X174968333Y-62324761D01*
X175063571Y-62372380D01*
X175254047Y-62372380D01*
X175349285Y-62324761D01*
X175396904Y-62277142D01*
X175444523Y-62181904D01*
X175444523Y-61372380D01*
X176444523Y-62372380D02*
X175873095Y-62372380D01*
X176158809Y-62372380D02*
X176158809Y-61372380D01*
X176063571Y-61515238D01*
X175968333Y-61610476D01*
X175873095Y-61658095D01*
%TO.C,TP6*%
X85753095Y-124754380D02*
X86324523Y-124754380D01*
X86038809Y-125754380D02*
X86038809Y-124754380D01*
X86657857Y-125754380D02*
X86657857Y-124754380D01*
X87038809Y-124754380D01*
X87134047Y-124802000D01*
X87181666Y-124849619D01*
X87229285Y-124944857D01*
X87229285Y-125087714D01*
X87181666Y-125182952D01*
X87134047Y-125230571D01*
X87038809Y-125278190D01*
X86657857Y-125278190D01*
X88086428Y-124754380D02*
X87895952Y-124754380D01*
X87800714Y-124802000D01*
X87753095Y-124849619D01*
X87657857Y-124992476D01*
X87610238Y-125182952D01*
X87610238Y-125563904D01*
X87657857Y-125659142D01*
X87705476Y-125706761D01*
X87800714Y-125754380D01*
X87991190Y-125754380D01*
X88086428Y-125706761D01*
X88134047Y-125659142D01*
X88181666Y-125563904D01*
X88181666Y-125325809D01*
X88134047Y-125230571D01*
X88086428Y-125182952D01*
X87991190Y-125135333D01*
X87800714Y-125135333D01*
X87705476Y-125182952D01*
X87657857Y-125230571D01*
X87610238Y-125325809D01*
%TO.C,TP5*%
X85753095Y-128804380D02*
X86324523Y-128804380D01*
X86038809Y-129804380D02*
X86038809Y-128804380D01*
X86657857Y-129804380D02*
X86657857Y-128804380D01*
X87038809Y-128804380D01*
X87134047Y-128852000D01*
X87181666Y-128899619D01*
X87229285Y-128994857D01*
X87229285Y-129137714D01*
X87181666Y-129232952D01*
X87134047Y-129280571D01*
X87038809Y-129328190D01*
X86657857Y-129328190D01*
X88134047Y-128804380D02*
X87657857Y-128804380D01*
X87610238Y-129280571D01*
X87657857Y-129232952D01*
X87753095Y-129185333D01*
X87991190Y-129185333D01*
X88086428Y-129232952D01*
X88134047Y-129280571D01*
X88181666Y-129375809D01*
X88181666Y-129613904D01*
X88134047Y-129709142D01*
X88086428Y-129756761D01*
X87991190Y-129804380D01*
X87753095Y-129804380D01*
X87657857Y-129756761D01*
X87610238Y-129709142D01*
%TO.C,TP4*%
X89803095Y-124754380D02*
X90374523Y-124754380D01*
X90088809Y-125754380D02*
X90088809Y-124754380D01*
X90707857Y-125754380D02*
X90707857Y-124754380D01*
X91088809Y-124754380D01*
X91184047Y-124802000D01*
X91231666Y-124849619D01*
X91279285Y-124944857D01*
X91279285Y-125087714D01*
X91231666Y-125182952D01*
X91184047Y-125230571D01*
X91088809Y-125278190D01*
X90707857Y-125278190D01*
X92136428Y-125087714D02*
X92136428Y-125754380D01*
X91898333Y-124706761D02*
X91660238Y-125421047D01*
X92279285Y-125421047D01*
%TO.C,TP3*%
X89803095Y-128804380D02*
X90374523Y-128804380D01*
X90088809Y-129804380D02*
X90088809Y-128804380D01*
X90707857Y-129804380D02*
X90707857Y-128804380D01*
X91088809Y-128804380D01*
X91184047Y-128852000D01*
X91231666Y-128899619D01*
X91279285Y-128994857D01*
X91279285Y-129137714D01*
X91231666Y-129232952D01*
X91184047Y-129280571D01*
X91088809Y-129328190D01*
X90707857Y-129328190D01*
X91612619Y-128804380D02*
X92231666Y-128804380D01*
X91898333Y-129185333D01*
X92041190Y-129185333D01*
X92136428Y-129232952D01*
X92184047Y-129280571D01*
X92231666Y-129375809D01*
X92231666Y-129613904D01*
X92184047Y-129709142D01*
X92136428Y-129756761D01*
X92041190Y-129804380D01*
X91755476Y-129804380D01*
X91660238Y-129756761D01*
X91612619Y-129709142D01*
%TO.C,TP2*%
X81703095Y-124754380D02*
X82274523Y-124754380D01*
X81988809Y-125754380D02*
X81988809Y-124754380D01*
X82607857Y-125754380D02*
X82607857Y-124754380D01*
X82988809Y-124754380D01*
X83084047Y-124802000D01*
X83131666Y-124849619D01*
X83179285Y-124944857D01*
X83179285Y-125087714D01*
X83131666Y-125182952D01*
X83084047Y-125230571D01*
X82988809Y-125278190D01*
X82607857Y-125278190D01*
X83560238Y-124849619D02*
X83607857Y-124802000D01*
X83703095Y-124754380D01*
X83941190Y-124754380D01*
X84036428Y-124802000D01*
X84084047Y-124849619D01*
X84131666Y-124944857D01*
X84131666Y-125040095D01*
X84084047Y-125182952D01*
X83512619Y-125754380D01*
X84131666Y-125754380D01*
%TO.C,TP1*%
X81703095Y-128804380D02*
X82274523Y-128804380D01*
X81988809Y-129804380D02*
X81988809Y-128804380D01*
X82607857Y-129804380D02*
X82607857Y-128804380D01*
X82988809Y-128804380D01*
X83084047Y-128852000D01*
X83131666Y-128899619D01*
X83179285Y-128994857D01*
X83179285Y-129137714D01*
X83131666Y-129232952D01*
X83084047Y-129280571D01*
X82988809Y-129328190D01*
X82607857Y-129328190D01*
X84131666Y-129804380D02*
X83560238Y-129804380D01*
X83845952Y-129804380D02*
X83845952Y-128804380D01*
X83750714Y-128947238D01*
X83655476Y-129042476D01*
X83560238Y-129090095D01*
%TO.C,R5*%
X200778333Y-62672380D02*
X200445000Y-62196190D01*
X200206904Y-62672380D02*
X200206904Y-61672380D01*
X200587857Y-61672380D01*
X200683095Y-61720000D01*
X200730714Y-61767619D01*
X200778333Y-61862857D01*
X200778333Y-62005714D01*
X200730714Y-62100952D01*
X200683095Y-62148571D01*
X200587857Y-62196190D01*
X200206904Y-62196190D01*
X201683095Y-61672380D02*
X201206904Y-61672380D01*
X201159285Y-62148571D01*
X201206904Y-62100952D01*
X201302142Y-62053333D01*
X201540238Y-62053333D01*
X201635476Y-62100952D01*
X201683095Y-62148571D01*
X201730714Y-62243809D01*
X201730714Y-62481904D01*
X201683095Y-62577142D01*
X201635476Y-62624761D01*
X201540238Y-62672380D01*
X201302142Y-62672380D01*
X201206904Y-62624761D01*
X201159285Y-62577142D01*
%TO.C,R4*%
X196328333Y-66722380D02*
X195995000Y-66246190D01*
X195756904Y-66722380D02*
X195756904Y-65722380D01*
X196137857Y-65722380D01*
X196233095Y-65770000D01*
X196280714Y-65817619D01*
X196328333Y-65912857D01*
X196328333Y-66055714D01*
X196280714Y-66150952D01*
X196233095Y-66198571D01*
X196137857Y-66246190D01*
X195756904Y-66246190D01*
X197185476Y-66055714D02*
X197185476Y-66722380D01*
X196947380Y-65674761D02*
X196709285Y-66389047D01*
X197328333Y-66389047D01*
%TO.C,R3*%
X82978333Y-119492380D02*
X82645000Y-119016190D01*
X82406904Y-119492380D02*
X82406904Y-118492380D01*
X82787857Y-118492380D01*
X82883095Y-118540000D01*
X82930714Y-118587619D01*
X82978333Y-118682857D01*
X82978333Y-118825714D01*
X82930714Y-118920952D01*
X82883095Y-118968571D01*
X82787857Y-119016190D01*
X82406904Y-119016190D01*
X83311666Y-118492380D02*
X83930714Y-118492380D01*
X83597380Y-118873333D01*
X83740238Y-118873333D01*
X83835476Y-118920952D01*
X83883095Y-118968571D01*
X83930714Y-119063809D01*
X83930714Y-119301904D01*
X83883095Y-119397142D01*
X83835476Y-119444761D01*
X83740238Y-119492380D01*
X83454523Y-119492380D01*
X83359285Y-119444761D01*
X83311666Y-119397142D01*
%TO.C,R2*%
X106408333Y-108092380D02*
X106075000Y-107616190D01*
X105836904Y-108092380D02*
X105836904Y-107092380D01*
X106217857Y-107092380D01*
X106313095Y-107140000D01*
X106360714Y-107187619D01*
X106408333Y-107282857D01*
X106408333Y-107425714D01*
X106360714Y-107520952D01*
X106313095Y-107568571D01*
X106217857Y-107616190D01*
X105836904Y-107616190D01*
X106789285Y-107187619D02*
X106836904Y-107140000D01*
X106932142Y-107092380D01*
X107170238Y-107092380D01*
X107265476Y-107140000D01*
X107313095Y-107187619D01*
X107360714Y-107282857D01*
X107360714Y-107378095D01*
X107313095Y-107520952D01*
X106741666Y-108092380D01*
X107360714Y-108092380D01*
%TO.C,R1*%
X109318333Y-108092380D02*
X108985000Y-107616190D01*
X108746904Y-108092380D02*
X108746904Y-107092380D01*
X109127857Y-107092380D01*
X109223095Y-107140000D01*
X109270714Y-107187619D01*
X109318333Y-107282857D01*
X109318333Y-107425714D01*
X109270714Y-107520952D01*
X109223095Y-107568571D01*
X109127857Y-107616190D01*
X108746904Y-107616190D01*
X110270714Y-108092380D02*
X109699285Y-108092380D01*
X109985000Y-108092380D02*
X109985000Y-107092380D01*
X109889761Y-107235238D01*
X109794523Y-107330476D01*
X109699285Y-107378095D01*
%TO.C,Q2*%
X86919761Y-107887619D02*
X86824523Y-107840000D01*
X86729285Y-107744761D01*
X86586428Y-107601904D01*
X86491190Y-107554285D01*
X86395952Y-107554285D01*
X86443571Y-107792380D02*
X86348333Y-107744761D01*
X86253095Y-107649523D01*
X86205476Y-107459047D01*
X86205476Y-107125714D01*
X86253095Y-106935238D01*
X86348333Y-106840000D01*
X86443571Y-106792380D01*
X86634047Y-106792380D01*
X86729285Y-106840000D01*
X86824523Y-106935238D01*
X86872142Y-107125714D01*
X86872142Y-107459047D01*
X86824523Y-107649523D01*
X86729285Y-107744761D01*
X86634047Y-107792380D01*
X86443571Y-107792380D01*
X87253095Y-106887619D02*
X87300714Y-106840000D01*
X87395952Y-106792380D01*
X87634047Y-106792380D01*
X87729285Y-106840000D01*
X87776904Y-106887619D01*
X87824523Y-106982857D01*
X87824523Y-107078095D01*
X87776904Y-107220952D01*
X87205476Y-107792380D01*
X87824523Y-107792380D01*
%TO.C,Q1*%
X88939761Y-116237619D02*
X88844523Y-116190000D01*
X88749285Y-116094761D01*
X88606428Y-115951904D01*
X88511190Y-115904285D01*
X88415952Y-115904285D01*
X88463571Y-116142380D02*
X88368333Y-116094761D01*
X88273095Y-115999523D01*
X88225476Y-115809047D01*
X88225476Y-115475714D01*
X88273095Y-115285238D01*
X88368333Y-115190000D01*
X88463571Y-115142380D01*
X88654047Y-115142380D01*
X88749285Y-115190000D01*
X88844523Y-115285238D01*
X88892142Y-115475714D01*
X88892142Y-115809047D01*
X88844523Y-115999523D01*
X88749285Y-116094761D01*
X88654047Y-116142380D01*
X88463571Y-116142380D01*
X89844523Y-116142380D02*
X89273095Y-116142380D01*
X89558809Y-116142380D02*
X89558809Y-115142380D01*
X89463571Y-115285238D01*
X89368333Y-115380476D01*
X89273095Y-115428095D01*
%TO.C,J3*%
X192381666Y-61842380D02*
X192381666Y-62556666D01*
X192334047Y-62699523D01*
X192238809Y-62794761D01*
X192095952Y-62842380D01*
X192000714Y-62842380D01*
X192762619Y-61842380D02*
X193381666Y-61842380D01*
X193048333Y-62223333D01*
X193191190Y-62223333D01*
X193286428Y-62270952D01*
X193334047Y-62318571D01*
X193381666Y-62413809D01*
X193381666Y-62651904D01*
X193334047Y-62747142D01*
X193286428Y-62794761D01*
X193191190Y-62842380D01*
X192905476Y-62842380D01*
X192810238Y-62794761D01*
X192762619Y-62747142D01*
%TO.C,J2*%
X171551666Y-69892380D02*
X171551666Y-70606666D01*
X171504047Y-70749523D01*
X171408809Y-70844761D01*
X171265952Y-70892380D01*
X171170714Y-70892380D01*
X171980238Y-69987619D02*
X172027857Y-69940000D01*
X172123095Y-69892380D01*
X172361190Y-69892380D01*
X172456428Y-69940000D01*
X172504047Y-69987619D01*
X172551666Y-70082857D01*
X172551666Y-70178095D01*
X172504047Y-70320952D01*
X171932619Y-70892380D01*
X172551666Y-70892380D01*
%TO.C,J1*%
X95081666Y-107262380D02*
X95081666Y-107976666D01*
X95034047Y-108119523D01*
X94938809Y-108214761D01*
X94795952Y-108262380D01*
X94700714Y-108262380D01*
X96081666Y-108262380D02*
X95510238Y-108262380D01*
X95795952Y-108262380D02*
X95795952Y-107262380D01*
X95700714Y-107405238D01*
X95605476Y-107500476D01*
X95510238Y-107548095D01*
%TO.C,C4*%
X83598333Y-116047142D02*
X83550714Y-116094761D01*
X83407857Y-116142380D01*
X83312619Y-116142380D01*
X83169761Y-116094761D01*
X83074523Y-115999523D01*
X83026904Y-115904285D01*
X82979285Y-115713809D01*
X82979285Y-115570952D01*
X83026904Y-115380476D01*
X83074523Y-115285238D01*
X83169761Y-115190000D01*
X83312619Y-115142380D01*
X83407857Y-115142380D01*
X83550714Y-115190000D01*
X83598333Y-115237619D01*
X84455476Y-115475714D02*
X84455476Y-116142380D01*
X84217380Y-115094761D02*
X83979285Y-115809047D01*
X84598333Y-115809047D01*
%TO.C,C3*%
X102948333Y-112447142D02*
X102900714Y-112494761D01*
X102757857Y-112542380D01*
X102662619Y-112542380D01*
X102519761Y-112494761D01*
X102424523Y-112399523D01*
X102376904Y-112304285D01*
X102329285Y-112113809D01*
X102329285Y-111970952D01*
X102376904Y-111780476D01*
X102424523Y-111685238D01*
X102519761Y-111590000D01*
X102662619Y-111542380D01*
X102757857Y-111542380D01*
X102900714Y-111590000D01*
X102948333Y-111637619D01*
X103281666Y-111542380D02*
X103900714Y-111542380D01*
X103567380Y-111923333D01*
X103710238Y-111923333D01*
X103805476Y-111970952D01*
X103853095Y-112018571D01*
X103900714Y-112113809D01*
X103900714Y-112351904D01*
X103853095Y-112447142D01*
X103805476Y-112494761D01*
X103710238Y-112542380D01*
X103424523Y-112542380D01*
X103329285Y-112494761D01*
X103281666Y-112447142D01*
%TO.C,C2*%
X94928333Y-115197142D02*
X94880714Y-115244761D01*
X94737857Y-115292380D01*
X94642619Y-115292380D01*
X94499761Y-115244761D01*
X94404523Y-115149523D01*
X94356904Y-115054285D01*
X94309285Y-114863809D01*
X94309285Y-114720952D01*
X94356904Y-114530476D01*
X94404523Y-114435238D01*
X94499761Y-114340000D01*
X94642619Y-114292380D01*
X94737857Y-114292380D01*
X94880714Y-114340000D01*
X94928333Y-114387619D01*
X95309285Y-114387619D02*
X95356904Y-114340000D01*
X95452142Y-114292380D01*
X95690238Y-114292380D01*
X95785476Y-114340000D01*
X95833095Y-114387619D01*
X95880714Y-114482857D01*
X95880714Y-114578095D01*
X95833095Y-114720952D01*
X95261666Y-115292380D01*
X95880714Y-115292380D01*
%TO.C,C1*%
X98938333Y-115197142D02*
X98890714Y-115244761D01*
X98747857Y-115292380D01*
X98652619Y-115292380D01*
X98509761Y-115244761D01*
X98414523Y-115149523D01*
X98366904Y-115054285D01*
X98319285Y-114863809D01*
X98319285Y-114720952D01*
X98366904Y-114530476D01*
X98414523Y-114435238D01*
X98509761Y-114340000D01*
X98652619Y-114292380D01*
X98747857Y-114292380D01*
X98890714Y-114340000D01*
X98938333Y-114387619D01*
X99890714Y-115292380D02*
X99319285Y-115292380D01*
X99605000Y-115292380D02*
X99605000Y-114292380D01*
X99509761Y-114435238D01*
X99414523Y-114530476D01*
X99319285Y-114578095D01*
%TO.C,BT2*%
X124464285Y-84888571D02*
X124607142Y-84936190D01*
X124654761Y-84983809D01*
X124702380Y-85079047D01*
X124702380Y-85221904D01*
X124654761Y-85317142D01*
X124607142Y-85364761D01*
X124511904Y-85412380D01*
X124130952Y-85412380D01*
X124130952Y-84412380D01*
X124464285Y-84412380D01*
X124559523Y-84460000D01*
X124607142Y-84507619D01*
X124654761Y-84602857D01*
X124654761Y-84698095D01*
X124607142Y-84793333D01*
X124559523Y-84840952D01*
X124464285Y-84888571D01*
X124130952Y-84888571D01*
X124988095Y-84412380D02*
X125559523Y-84412380D01*
X125273809Y-85412380D02*
X125273809Y-84412380D01*
X125845238Y-84507619D02*
X125892857Y-84460000D01*
X125988095Y-84412380D01*
X126226190Y-84412380D01*
X126321428Y-84460000D01*
X126369047Y-84507619D01*
X126416666Y-84602857D01*
X126416666Y-84698095D01*
X126369047Y-84840952D01*
X125797619Y-85412380D01*
X126416666Y-85412380D01*
%TO.C,BT1*%
X124464285Y-62178571D02*
X124607142Y-62226190D01*
X124654761Y-62273809D01*
X124702380Y-62369047D01*
X124702380Y-62511904D01*
X124654761Y-62607142D01*
X124607142Y-62654761D01*
X124511904Y-62702380D01*
X124130952Y-62702380D01*
X124130952Y-61702380D01*
X124464285Y-61702380D01*
X124559523Y-61750000D01*
X124607142Y-61797619D01*
X124654761Y-61892857D01*
X124654761Y-61988095D01*
X124607142Y-62083333D01*
X124559523Y-62130952D01*
X124464285Y-62178571D01*
X124130952Y-62178571D01*
X124988095Y-61702380D02*
X125559523Y-61702380D01*
X125273809Y-62702380D02*
X125273809Y-61702380D01*
X126416666Y-62702380D02*
X125845238Y-62702380D01*
X126130952Y-62702380D02*
X126130952Y-61702380D01*
X126035714Y-61845238D01*
X125940476Y-61940476D01*
X125845238Y-61988095D01*
D11*
%TO.C,U4*%
X196615000Y-65830000D02*
X197915000Y-65830000D01*
X196175000Y-63010000D02*
X197915000Y-63010000D01*
%TO.C,U3*%
X100185000Y-108480000D02*
X100835000Y-108480000D01*
X100185000Y-111600000D02*
X100835000Y-111600000D01*
X100185000Y-108480000D02*
X98510000Y-108480000D01*
X100185000Y-111600000D02*
X99535000Y-111600000D01*
%TO.C,U2*%
X184155000Y-63060000D02*
X184805000Y-63060000D01*
X184155000Y-66180000D02*
X184805000Y-66180000D01*
X184155000Y-63060000D02*
X182480000Y-63060000D01*
X184155000Y-66180000D02*
X183505000Y-66180000D01*
%TO.C,U1*%
X174665000Y-62970000D02*
X173165000Y-62970000D01*
X173165000Y-63240000D02*
X170335000Y-63240000D01*
X173165000Y-69600000D02*
X172065000Y-69600000D01*
X174665000Y-69870000D02*
X173165000Y-69870000D01*
X173165000Y-62970000D02*
X173165000Y-63240000D01*
X173165000Y-69870000D02*
X173165000Y-69600000D01*
%TO.C,TP6*%
X88215000Y-127300000D02*
G75*
G03*
X88215000Y-127300000I-1200000J0D01*
G01*
%TO.C,TP5*%
X88215000Y-131350000D02*
G75*
G03*
X88215000Y-131350000I-1200000J0D01*
G01*
%TO.C,TP4*%
X92265000Y-127300000D02*
G75*
G03*
X92265000Y-127300000I-1200000J0D01*
G01*
%TO.C,TP3*%
X92265000Y-131350000D02*
G75*
G03*
X92265000Y-131350000I-1200000J0D01*
G01*
%TO.C,TP2*%
X84165000Y-127300000D02*
G75*
G03*
X84165000Y-127300000I-1200000J0D01*
G01*
%TO.C,TP1*%
X84165000Y-131350000D02*
G75*
G03*
X84165000Y-131350000I-1200000J0D01*
G01*
%TO.C,R5*%
X200791359Y-63010000D02*
X201098641Y-63010000D01*
X200791359Y-63770000D02*
X201098641Y-63770000D01*
%TO.C,R4*%
X196341359Y-67060000D02*
X196648641Y-67060000D01*
X196341359Y-67820000D02*
X196648641Y-67820000D01*
%TO.C,R3*%
X82917936Y-119955000D02*
X83372064Y-119955000D01*
X82917936Y-121425000D02*
X83372064Y-121425000D01*
%TO.C,R2*%
X106421359Y-108430000D02*
X106728641Y-108430000D01*
X106421359Y-109190000D02*
X106728641Y-109190000D01*
%TO.C,R1*%
X109331359Y-108430000D02*
X109638641Y-108430000D01*
X109331359Y-109190000D02*
X109638641Y-109190000D01*
%TO.C,Q2*%
X86045000Y-108390000D02*
X84545000Y-108390000D01*
X84545000Y-108660000D02*
X81715000Y-108660000D01*
X84545000Y-115020000D02*
X83445000Y-115020000D01*
X86045000Y-115290000D02*
X84545000Y-115290000D01*
X84545000Y-108390000D02*
X84545000Y-108660000D01*
X84545000Y-115290000D02*
X84545000Y-115020000D01*
%TO.C,Q1*%
X89035000Y-116530000D02*
X89685000Y-116530000D01*
X89035000Y-119650000D02*
X89685000Y-119650000D01*
X89035000Y-116530000D02*
X87360000Y-116530000D01*
X89035000Y-119650000D02*
X88385000Y-119650000D01*
%TO.C,J3*%
X191385000Y-64720000D02*
X191385000Y-63390000D01*
X191385000Y-68590000D02*
X194045000Y-68590000D01*
X191385000Y-65990000D02*
X191385000Y-68590000D01*
X191385000Y-65990000D02*
X194045000Y-65990000D01*
X191385000Y-63390000D02*
X192715000Y-63390000D01*
X194045000Y-65990000D02*
X194045000Y-68590000D01*
%TO.C,J2*%
X170555000Y-72770000D02*
X170555000Y-71440000D01*
X170555000Y-76640000D02*
X173215000Y-76640000D01*
X170555000Y-74040000D02*
X170555000Y-76640000D01*
X170555000Y-74040000D02*
X173215000Y-74040000D01*
X170555000Y-71440000D02*
X171885000Y-71440000D01*
X173215000Y-74040000D02*
X173215000Y-76640000D01*
%TO.C,J1*%
X94085000Y-110140000D02*
X94085000Y-108810000D01*
X94085000Y-114010000D02*
X96745000Y-114010000D01*
X94085000Y-111410000D02*
X94085000Y-114010000D01*
X94085000Y-111410000D02*
X96745000Y-111410000D01*
X94085000Y-108810000D02*
X95415000Y-108810000D01*
X96745000Y-111410000D02*
X96745000Y-114010000D01*
%TO.C,C4*%
X83053748Y-116630000D02*
X84476252Y-116630000D01*
X83053748Y-118450000D02*
X84476252Y-118450000D01*
%TO.C,C3*%
X102974420Y-114030000D02*
X103255580Y-114030000D01*
X102974420Y-113010000D02*
X103255580Y-113010000D01*
%TO.C,C2*%
X94954420Y-116780000D02*
X95235580Y-116780000D01*
X94954420Y-115760000D02*
X95235580Y-115760000D01*
%TO.C,C1*%
X98964420Y-116780000D02*
X99245580Y-116780000D01*
X98964420Y-115760000D02*
X99245580Y-115760000D01*
%TO.C,BT2*%
X86610000Y-86020000D02*
X86610000Y-93020000D01*
X163890000Y-106900000D02*
X86610000Y-106900000D01*
X82750000Y-91710000D02*
X82750000Y-89210000D01*
X163890000Y-86020000D02*
X86610000Y-86020000D01*
X86610000Y-93020000D02*
X82250000Y-93020000D01*
X86610000Y-106900000D02*
X86610000Y-99900000D01*
X169000000Y-90460000D02*
X166500000Y-90460000D01*
X81500000Y-90460000D02*
X84000000Y-90460000D01*
X163890000Y-93020000D02*
X163890000Y-86040000D01*
X163890000Y-99900000D02*
X163890000Y-106900000D01*
%TO.C,BT1*%
X86610000Y-63310000D02*
X86610000Y-70310000D01*
X163890000Y-84190000D02*
X86610000Y-84190000D01*
X82750000Y-69000000D02*
X82750000Y-66500000D01*
X163890000Y-63310000D02*
X86610000Y-63310000D01*
X86610000Y-70310000D02*
X82250000Y-70310000D01*
X86610000Y-84190000D02*
X86610000Y-77190000D01*
X169000000Y-67750000D02*
X166500000Y-67750000D01*
X81500000Y-67750000D02*
X84000000Y-67750000D01*
X163890000Y-70310000D02*
X163890000Y-63330000D01*
X163890000Y-77190000D02*
X163890000Y-84190000D01*
%TD*%
%LPC*%
D12*
%TO.C,U4*%
X196090000Y-63670000D03*
X196090000Y-64170000D03*
X196090000Y-64670000D03*
X196090000Y-65170000D03*
X198440000Y-65170000D03*
X198440000Y-64670000D03*
X198440000Y-64170000D03*
X198440000Y-63670000D03*
D13*
X197265000Y-64420000D03*
%TD*%
D14*
%TO.C,U3*%
X99247500Y-109090000D03*
X99247500Y-110990000D03*
X101122500Y-110040000D03*
%TD*%
%TO.C,U2*%
X183217500Y-63670000D03*
X183217500Y-65570000D03*
X185092500Y-64620000D03*
%TD*%
D15*
%TO.C,U1*%
X171435000Y-64140000D03*
D16*
X177735000Y-66420000D03*
D15*
X171435000Y-68700000D03*
%TD*%
D17*
%TO.C,TP6*%
X87015000Y-127300000D03*
%TD*%
%TO.C,TP5*%
X87015000Y-131350000D03*
%TD*%
%TO.C,TP4*%
X91065000Y-127300000D03*
%TD*%
%TO.C,TP3*%
X91065000Y-131350000D03*
%TD*%
%TO.C,TP2*%
X82965000Y-127300000D03*
%TD*%
%TO.C,TP1*%
X82965000Y-131350000D03*
%TD*%
D18*
%TO.C,R5*%
X200435000Y-63390000D03*
X201455000Y-63390000D03*
%TD*%
%TO.C,R4*%
X195985000Y-67440000D03*
X197005000Y-67440000D03*
%TD*%
D19*
%TO.C,R3*%
X82232500Y-120690000D03*
X84057500Y-120690000D03*
%TD*%
D18*
%TO.C,R2*%
X106065000Y-108810000D03*
X107085000Y-108810000D03*
%TD*%
%TO.C,R1*%
X108975000Y-108810000D03*
X109995000Y-108810000D03*
%TD*%
D15*
%TO.C,Q2*%
X82815000Y-109560000D03*
D16*
X89115000Y-111840000D03*
D15*
X82815000Y-114120000D03*
%TD*%
D14*
%TO.C,Q1*%
X88097500Y-117140000D03*
X88097500Y-119040000D03*
X89972500Y-118090000D03*
%TD*%
D20*
%TO.C,J3*%
X192715000Y-64720000D03*
D21*
X192715000Y-67260000D03*
%TD*%
D20*
%TO.C,J2*%
X171885000Y-72770000D03*
D21*
X171885000Y-75310000D03*
%TD*%
D20*
%TO.C,J1*%
X95415000Y-110140000D03*
D21*
X95415000Y-112680000D03*
%TD*%
D22*
%TO.C,C4*%
X82290000Y-117540000D03*
X85240000Y-117540000D03*
%TD*%
D23*
%TO.C,C3*%
X102340000Y-113520000D03*
X103890000Y-113520000D03*
%TD*%
%TO.C,C2*%
X94320000Y-116270000D03*
X95870000Y-116270000D03*
%TD*%
%TO.C,C1*%
X98330000Y-116270000D03*
X99880000Y-116270000D03*
%TD*%
D24*
%TO.C,BT2*%
X97650000Y-104460000D03*
D25*
X89320000Y-88460000D03*
D24*
X152850000Y-88460000D03*
D26*
X85920000Y-96460000D03*
X164580000Y-96460000D03*
%TD*%
D24*
%TO.C,BT1*%
X97650000Y-81750000D03*
D25*
X89320000Y-65750000D03*
D24*
X152850000Y-65750000D03*
D26*
X85920000Y-73750000D03*
X164580000Y-73750000D03*
%TD*%
M02*
