%TF.GenerationSoftware,KiCad,Pcbnew,(6.0.8)*%
%TF.CreationDate,2023-04-18T12:53:02+02:00*%
%TF.ProjectId,Group22_Power,47726f75-7032-4325-9f50-6f7765722e6b,rev?*%
%TF.SameCoordinates,Original*%
%TF.FileFunction,Copper,L1,Top*%
%TF.FilePolarity,Positive*%
%FSLAX46Y46*%
G04 Gerber Fmt 4.6, Leading zero omitted, Abs format (unit mm)*
G04 Created by KiCad (PCBNEW (6.0.8)) date 2023-04-18 12:53:02*
%MOMM*%
%LPD*%
G01*
G04 APERTURE LIST*
G04 Aperture macros list*
%AMRoundRect*
0 Rectangle with rounded corners*
0 $1 Rounding radius*
0 $2 $3 $4 $5 $6 $7 $8 $9 X,Y pos of 4 corners*
0 Add a 4 corners polygon primitive as box body*
4,1,4,$2,$3,$4,$5,$6,$7,$8,$9,$2,$3,0*
0 Add four circle primitives for the rounded corners*
1,1,$1+$1,$2,$3*
1,1,$1+$1,$4,$5*
1,1,$1+$1,$6,$7*
1,1,$1+$1,$8,$9*
0 Add four rect primitives between the rounded corners*
20,1,$1+$1,$2,$3,$4,$5,0*
20,1,$1+$1,$4,$5,$6,$7,0*
20,1,$1+$1,$6,$7,$8,$9,0*
20,1,$1+$1,$8,$9,$2,$3,0*%
%AMFreePoly0*
4,1,6,0.500000,-0.850000,-0.500000,-0.850000,-0.500000,0.550000,-0.200000,0.850000,0.500000,0.850000,0.500000,-0.850000,0.500000,-0.850000,$1*%
%AMFreePoly1*
4,1,9,3.862500,-0.866500,0.737500,-0.866500,0.737500,-0.450000,-0.737500,-0.450000,-0.737500,0.450000,0.737500,0.450000,0.737500,0.866500,3.862500,0.866500,3.862500,-0.866500,3.862500,-0.866500,$1*%
G04 Aperture macros list end*
%TA.AperFunction,SMDPad,CuDef*%
%ADD10R,1.250000X0.400000*%
%TD*%
%TA.AperFunction,SMDPad,CuDef*%
%ADD11R,1.350000X0.600000*%
%TD*%
%TA.AperFunction,ComponentPad*%
%ADD12C,1.300000*%
%TD*%
%TA.AperFunction,ComponentPad*%
%ADD13O,1.900000X1.070000*%
%TD*%
%TA.AperFunction,ComponentPad*%
%ADD14O,1.700000X1.700000*%
%TD*%
%TA.AperFunction,ComponentPad*%
%ADD15R,1.700000X1.700000*%
%TD*%
%TA.AperFunction,SMDPad,CuDef*%
%ADD16FreePoly0,180.000000*%
%TD*%
%TA.AperFunction,SMDPad,CuDef*%
%ADD17R,0.550000X0.250000*%
%TD*%
%TA.AperFunction,SMDPad,CuDef*%
%ADD18R,2.300000X2.300000*%
%TD*%
%TA.AperFunction,SMDPad,CuDef*%
%ADD19RoundRect,0.150000X0.825000X0.150000X-0.825000X0.150000X-0.825000X-0.150000X0.825000X-0.150000X0*%
%TD*%
%TA.AperFunction,SMDPad,CuDef*%
%ADD20RoundRect,0.135000X0.135000X0.185000X-0.135000X0.185000X-0.135000X-0.185000X0.135000X-0.185000X0*%
%TD*%
%TA.AperFunction,SMDPad,CuDef*%
%ADD21RoundRect,0.200000X-0.275000X0.200000X-0.275000X-0.200000X0.275000X-0.200000X0.275000X0.200000X0*%
%TD*%
%TA.AperFunction,SMDPad,CuDef*%
%ADD22RoundRect,0.200000X-0.200000X-0.275000X0.200000X-0.275000X0.200000X0.275000X-0.200000X0.275000X0*%
%TD*%
%TA.AperFunction,SMDPad,CuDef*%
%ADD23RoundRect,0.250000X-0.262500X-0.450000X0.262500X-0.450000X0.262500X0.450000X-0.262500X0.450000X0*%
%TD*%
%TA.AperFunction,SMDPad,CuDef*%
%ADD24RoundRect,0.218750X0.218750X0.256250X-0.218750X0.256250X-0.218750X-0.256250X0.218750X-0.256250X0*%
%TD*%
%TA.AperFunction,SMDPad,CuDef*%
%ADD25RoundRect,0.243750X0.243750X0.456250X-0.243750X0.456250X-0.243750X-0.456250X0.243750X-0.456250X0*%
%TD*%
%TA.AperFunction,SMDPad,CuDef*%
%ADD26RoundRect,0.140000X0.140000X0.170000X-0.140000X0.170000X-0.140000X-0.170000X0.140000X-0.170000X0*%
%TD*%
%TA.AperFunction,SMDPad,CuDef*%
%ADD27RoundRect,0.140000X-0.170000X0.140000X-0.170000X-0.140000X0.170000X-0.140000X0.170000X0.140000X0*%
%TD*%
%TA.AperFunction,SMDPad,CuDef*%
%ADD28RoundRect,0.225000X0.250000X-0.225000X0.250000X0.225000X-0.250000X0.225000X-0.250000X-0.225000X0*%
%TD*%
%TA.AperFunction,SMDPad,CuDef*%
%ADD29RoundRect,0.250000X0.475000X-0.250000X0.475000X0.250000X-0.475000X0.250000X-0.475000X-0.250000X0*%
%TD*%
%TA.AperFunction,SMDPad,CuDef*%
%ADD30R,7.340000X6.350000*%
%TD*%
%TA.AperFunction,SMDPad,CuDef*%
%ADD31RoundRect,0.225000X0.225000X0.250000X-0.225000X0.250000X-0.225000X-0.250000X0.225000X-0.250000X0*%
%TD*%
%TA.AperFunction,SMDPad,CuDef*%
%ADD32C,2.000000*%
%TD*%
%TA.AperFunction,SMDPad,CuDef*%
%ADD33R,1.600000X3.500000*%
%TD*%
%TA.AperFunction,SMDPad,CuDef*%
%ADD34RoundRect,0.062500X-0.350000X-0.062500X0.350000X-0.062500X0.350000X0.062500X-0.350000X0.062500X0*%
%TD*%
%TA.AperFunction,SMDPad,CuDef*%
%ADD35R,1.200000X2.000000*%
%TD*%
%TA.AperFunction,SMDPad,CuDef*%
%ADD36RoundRect,0.250000X-0.450000X0.262500X-0.450000X-0.262500X0.450000X-0.262500X0.450000X0.262500X0*%
%TD*%
%TA.AperFunction,SMDPad,CuDef*%
%ADD37R,1.300000X0.900000*%
%TD*%
%TA.AperFunction,SMDPad,CuDef*%
%ADD38FreePoly1,180.000000*%
%TD*%
%TA.AperFunction,SMDPad,CuDef*%
%ADD39R,1.200000X0.900000*%
%TD*%
%TA.AperFunction,ViaPad*%
%ADD40C,0.800000*%
%TD*%
%TA.AperFunction,Conductor*%
%ADD41C,0.200000*%
%TD*%
%TA.AperFunction,Conductor*%
%ADD42C,0.300000*%
%TD*%
%TA.AperFunction,Conductor*%
%ADD43C,0.500000*%
%TD*%
G04 APERTURE END LIST*
D10*
%TO.P,U3,1,VDD*%
%TO.N,/VoltageSupply/VUSB*%
X61975000Y-104625000D03*
%TO.P,U3,2,D-*%
%TO.N,unconnected-(U3-Pad2)*%
X61975000Y-105275000D03*
%TO.P,U3,3,D+*%
%TO.N,unconnected-(U3-Pad3)*%
X61975000Y-105925000D03*
%TO.P,U3,4,ID*%
%TO.N,GND*%
X61975000Y-106575000D03*
%TO.P,U3,5,GND*%
X61975000Y-107225000D03*
D11*
%TO.P,U3,6*%
X59325000Y-106725000D03*
D12*
X62000000Y-108350000D03*
D11*
X59325000Y-105125000D03*
D12*
X62000000Y-103500000D03*
D13*
X59300000Y-102325000D03*
X59300000Y-109525000D03*
%TD*%
D14*
%TO.P,J2,2,Pin_2*%
%TO.N,/Sensors/SDA*%
X122735000Y-113250000D03*
D15*
%TO.P,J2,1,Pin_1*%
%TO.N,/Sensors/SCL*%
X125275000Y-113250000D03*
%TD*%
D16*
%TO.P,U5,9,PGND*%
%TO.N,GND*%
X122750000Y-108500000D03*
D17*
%TO.P,U5,8,VSS*%
X121575000Y-109250000D03*
%TO.P,U5,7,R*%
X121575000Y-108750000D03*
%TO.P,U5,6,~{RESET}*%
%TO.N,unconnected-(U5-Pad6)*%
X121575000Y-108250000D03*
%TO.P,U5,5,VDD*%
%TO.N,+3V3Reg*%
X121575000Y-107750000D03*
%TO.P,U5,4,SCL*%
%TO.N,/Sensors/SCL*%
X123925000Y-107750000D03*
%TO.P,U5,3,ALERT*%
%TO.N,unconnected-(U5-Pad3)*%
X123925000Y-108250000D03*
%TO.P,U5,2,ADDR*%
%TO.N,GND*%
X123925000Y-108750000D03*
%TO.P,U5,1,SDA*%
%TO.N,/Sensors/SDA*%
X123925000Y-109250000D03*
%TD*%
D18*
%TO.P,U4,9,EP*%
%TO.N,GND*%
X74750000Y-100250000D03*
D19*
%TO.P,U4,8,CE*%
%TO.N,Net-(C8-Pad1)*%
X72275000Y-102155000D03*
%TO.P,U4,7,CHRG*%
%TO.N,Net-(R6-Pad2)*%
X72275000Y-100885000D03*
%TO.P,U4,6,STDBY*%
%TO.N,Net-(R5-Pad2)*%
X72275000Y-99615000D03*
%TO.P,U4,5,BAT*%
%TO.N,Bat+*%
X72275000Y-98345000D03*
%TO.P,U4,4,Vcc*%
%TO.N,Net-(C8-Pad1)*%
X77225000Y-98345000D03*
%TO.P,U4,3,GND*%
%TO.N,GND*%
X77225000Y-99615000D03*
%TO.P,U4,2,PROG*%
%TO.N,Net-(R7-Pad1)*%
X77225000Y-100885000D03*
%TO.P,U4,1,TEMP*%
%TO.N,GND*%
X77225000Y-102155000D03*
%TD*%
D20*
%TO.P,R9,1*%
%TO.N,+3V3Reg*%
X126010000Y-107759432D03*
%TO.P,R9,2*%
%TO.N,/Sensors/SCL*%
X124990000Y-107759432D03*
%TD*%
%TO.P,R8,2*%
%TO.N,/Sensors/SDA*%
X124978711Y-109272068D03*
%TO.P,R8,1*%
%TO.N,+3V3Reg*%
X125998711Y-109272068D03*
%TD*%
D21*
%TO.P,R7,1*%
%TO.N,Net-(R7-Pad1)*%
X79779911Y-100885117D03*
%TO.P,R7,2*%
%TO.N,GND*%
X79779911Y-102535117D03*
%TD*%
D22*
%TO.P,R6,1*%
%TO.N,Net-(D3-Pad1)*%
X68010378Y-100893191D03*
%TO.P,R6,2*%
%TO.N,Net-(R6-Pad2)*%
X69660378Y-100893191D03*
%TD*%
%TO.P,R5,1*%
%TO.N,Net-(D2-Pad1)*%
X68445763Y-97932866D03*
%TO.P,R5,2*%
%TO.N,Net-(R5-Pad2)*%
X70095763Y-97932866D03*
%TD*%
D23*
%TO.P,R4,1*%
%TO.N,/VoltageSupply/VUSB*%
X64868257Y-104608442D03*
%TO.P,R4,2*%
%TO.N,Net-(C8-Pad1)*%
X66693257Y-104608442D03*
%TD*%
D24*
%TO.P,D3,1,K*%
%TO.N,Net-(D3-Pad1)*%
X66372878Y-100877651D03*
%TO.P,D3,2,A*%
%TO.N,Net-(C8-Pad1)*%
X64797878Y-100877651D03*
%TD*%
D25*
%TO.P,D2,1,K*%
%TO.N,Net-(D2-Pad1)*%
X66668263Y-97917866D03*
%TO.P,D2,2,A*%
%TO.N,Net-(C8-Pad1)*%
X64793263Y-97917866D03*
%TD*%
D26*
%TO.P,C9,2*%
%TO.N,GND*%
X71267468Y-96250000D03*
%TO.P,C9,1*%
%TO.N,Bat+*%
X72227468Y-96250000D03*
%TD*%
D27*
%TO.P,C8,1*%
%TO.N,Net-(C8-Pad1)*%
X68331131Y-104609827D03*
%TO.P,C8,2*%
%TO.N,GND*%
X68331131Y-105569827D03*
%TD*%
D28*
%TO.P,C7,2*%
%TO.N,GND*%
X117250000Y-105225000D03*
%TO.P,C7,1*%
%TO.N,+3V3Reg*%
X117250000Y-106775000D03*
%TD*%
D29*
%TO.P,C5,2*%
%TO.N,+5VReg*%
X106750000Y-112324671D03*
%TO.P,C5,1*%
%TO.N,GND*%
X106750000Y-114224671D03*
%TD*%
D30*
%TO.P,BT1,2,-*%
%TO.N,GND*%
X146580000Y-57250000D03*
%TO.P,BT1,1,+*%
%TO.N,Bat+*%
X67920000Y-57250000D03*
%TD*%
D31*
%TO.P,C4,1*%
%TO.N,Net-(C4-Pad1)*%
X102018092Y-109892090D03*
%TO.P,C4,2*%
%TO.N,GND*%
X100468092Y-109892090D03*
%TD*%
D30*
%TO.P,BT2,1,+*%
%TO.N,Bat+*%
X67920000Y-79960000D03*
%TO.P,BT2,2,-*%
%TO.N,GND*%
X146580000Y-79960000D03*
%TD*%
D32*
%TO.P,TP1,1,1*%
%TO.N,Bat+*%
X96869044Y-98691409D03*
%TD*%
D33*
%TO.P,L1,2,2*%
%TO.N,Net-(L1-Pad2)*%
X103098936Y-106304943D03*
%TO.P,L1,1,1*%
%TO.N,Bat(Protected)*%
X99898936Y-106304943D03*
%TD*%
D31*
%TO.P,C6,1*%
%TO.N,Bat(Protected)*%
X90885850Y-110289925D03*
%TO.P,C6,2*%
%TO.N,GND*%
X89335850Y-110289925D03*
%TD*%
D32*
%TO.P,TP4,1,1*%
%TO.N,+3V3Reg*%
X108869044Y-98691409D03*
%TD*%
%TO.P,TP3,1,1*%
%TO.N,+5VReg*%
X104869044Y-98691409D03*
%TD*%
D34*
%TO.P,U1,1,GND*%
%TO.N,GND*%
X99634593Y-111250000D03*
%TO.P,U1,2,VIN*%
%TO.N,Bat(Protected)*%
X99634593Y-111750000D03*
%TO.P,U1,3,CP2*%
%TO.N,Net-(C3-Pad2)*%
X99634593Y-112250000D03*
%TO.P,U1,4,CP1*%
%TO.N,Net-(C3-Pad1)*%
X99634593Y-112750000D03*
%TO.P,U1,5,EN*%
%TO.N,Bat(Protected)*%
X99634593Y-113250000D03*
%TO.P,U1,6,SS*%
%TO.N,Net-(C2-Pad2)*%
X102059593Y-113250000D03*
%TO.P,U1,7,FB*%
%TO.N,Net-(R3-Pad1)*%
X102059593Y-112750000D03*
%TO.P,U1,8,OUT*%
%TO.N,+5VReg*%
X102059593Y-112250000D03*
%TO.P,U1,9,SW*%
%TO.N,Net-(L1-Pad2)*%
X102059593Y-111750000D03*
%TO.P,U1,10,VOUT*%
%TO.N,Net-(C4-Pad1)*%
X102059593Y-111250000D03*
D35*
%TO.P,U1,11,PGND*%
%TO.N,GND*%
X100847093Y-112250000D03*
%TD*%
D32*
%TO.P,TP5,1,1*%
%TO.N,GND*%
X112869044Y-98691409D03*
%TD*%
D28*
%TO.P,C2,1*%
%TO.N,GND*%
X102054497Y-116145610D03*
%TO.P,C2,2*%
%TO.N,Net-(C2-Pad2)*%
X102054497Y-114595610D03*
%TD*%
D36*
%TO.P,R1,1*%
%TO.N,Net-(C2-Pad2)*%
X100149074Y-114594925D03*
%TO.P,R1,2*%
%TO.N,GND*%
X100149074Y-116419925D03*
%TD*%
D15*
%TO.P,J1,1,Pin_1*%
%TO.N,Bat(Protected)*%
X90906054Y-107361467D03*
D14*
%TO.P,J1,2,Pin_2*%
%TO.N,Net-(D1-Pad1)*%
X90906054Y-104821467D03*
%TD*%
D32*
%TO.P,TP2,1,1*%
%TO.N,Bat(Protected)*%
X100869044Y-98691409D03*
%TD*%
D37*
%TO.P,U2,1,GND*%
%TO.N,GND*%
X115400000Y-109750000D03*
D38*
%TO.P,U2,2,VIN*%
%TO.N,+5VReg*%
X115312500Y-108250000D03*
D37*
%TO.P,U2,3,VOUT*%
%TO.N,+3V3Reg*%
X115400000Y-106750000D03*
%TD*%
D28*
%TO.P,C3,1*%
%TO.N,Net-(C3-Pad1)*%
X97687836Y-114302366D03*
%TO.P,C3,2*%
%TO.N,Net-(C3-Pad2)*%
X97687836Y-112752366D03*
%TD*%
D21*
%TO.P,R2,1*%
%TO.N,+5VReg*%
X104859174Y-112249484D03*
%TO.P,R2,2*%
%TO.N,Net-(R3-Pad1)*%
X104859174Y-113899484D03*
%TD*%
D39*
%TO.P,D1,1,K*%
%TO.N,Net-(D1-Pad1)*%
X90906054Y-101986467D03*
%TO.P,D1,2,A*%
%TO.N,Bat+*%
X90906054Y-98686467D03*
%TD*%
D29*
%TO.P,C1,1*%
%TO.N,Bat(Protected)*%
X97597093Y-110225329D03*
%TO.P,C1,2*%
%TO.N,GND*%
X97597093Y-108325329D03*
%TD*%
D22*
%TO.P,R3,1*%
%TO.N,Net-(R3-Pad1)*%
X104845338Y-115975280D03*
%TO.P,R3,2*%
%TO.N,GND*%
X106495338Y-115975280D03*
%TD*%
D40*
%TO.N,GND*%
X77216050Y-103467438D03*
X119750000Y-109250000D03*
%TO.N,/Sensors/SCL*%
X124999610Y-106712962D03*
%TD*%
D41*
%TO.N,GND*%
X99634593Y-110725589D02*
X100468092Y-109892090D01*
X99634593Y-111250000D02*
X99634593Y-110725589D01*
X100500000Y-111902907D02*
X100847093Y-112250000D01*
X100468092Y-109892090D02*
X100500000Y-109923998D01*
X100500000Y-109923998D02*
X100500000Y-111902907D01*
D42*
%TO.N,Bat+*%
X72275000Y-94775000D02*
X72275000Y-96937464D01*
X67920000Y-90420000D02*
X72275000Y-94775000D01*
X67920000Y-79960000D02*
X67920000Y-90420000D01*
D41*
%TO.N,GND*%
X121575000Y-109250000D02*
X119750000Y-109250000D01*
X121575000Y-108750000D02*
X121575000Y-109250000D01*
%TO.N,Bat(Protected)*%
X96750000Y-112019940D02*
X97533235Y-111236705D01*
X96750000Y-115500000D02*
X96750000Y-112019940D01*
X98500000Y-115000000D02*
X98000000Y-115500000D01*
X98500000Y-114500000D02*
X98500000Y-115000000D01*
X98000000Y-115500000D02*
X96750000Y-115500000D01*
X99634593Y-113365407D02*
X98500000Y-114500000D01*
X99634593Y-113250000D02*
X99634593Y-113365407D01*
X97533235Y-111236705D02*
X97533235Y-110289187D01*
X98046530Y-111750000D02*
X97533235Y-111236705D01*
X99634593Y-111750000D02*
X98046530Y-111750000D01*
X97533235Y-110289187D02*
X97597093Y-110225329D01*
%TO.N,GND*%
X77225000Y-99615000D02*
X75706203Y-99615000D01*
%TO.N,Bat(Protected)*%
X97825991Y-110225329D02*
X97597093Y-110225329D01*
X99898936Y-108152384D02*
X97825991Y-110225329D01*
D42*
%TO.N,+5VReg*%
X106883012Y-109366988D02*
X106883012Y-112252941D01*
X106879555Y-112249484D02*
X104859174Y-112249484D01*
X115312500Y-108250000D02*
X108000000Y-108250000D01*
X108000000Y-108250000D02*
X106883012Y-109366988D01*
X106883012Y-112252941D02*
X106879555Y-112249484D01*
D41*
%TO.N,Net-(L1-Pad2)*%
X102597093Y-111750000D02*
X102059593Y-111750000D01*
X103098936Y-111248157D02*
X102597093Y-111750000D01*
X103098936Y-106304943D02*
X103098936Y-111248157D01*
D42*
%TO.N,+5VReg*%
X104869044Y-103849304D02*
X104859174Y-103859174D01*
X104869044Y-98691409D02*
X104869044Y-103849304D01*
X104859174Y-103859174D02*
X104859174Y-112249484D01*
D41*
%TO.N,Net-(R3-Pad1)*%
X104859174Y-113899484D02*
X104859174Y-115961444D01*
X104859174Y-115961444D02*
X104845338Y-115975280D01*
%TO.N,GND*%
X121575000Y-109250000D02*
X122250000Y-109250000D01*
D42*
%TO.N,Bat+*%
X89129587Y-96910000D02*
X72302464Y-96910000D01*
X72302464Y-96910000D02*
X72275000Y-96937464D01*
X90906054Y-98686467D02*
X89129587Y-96910000D01*
X72275000Y-98345000D02*
X72275000Y-96937464D01*
X67920000Y-57250000D02*
X67920000Y-79960000D01*
D41*
%TO.N,Net-(C8-Pad1)*%
X65204116Y-102155000D02*
X72275000Y-102155000D01*
D42*
X72275000Y-104560425D02*
X72331114Y-104616539D01*
X72331114Y-104616539D02*
X79883461Y-104616539D01*
X72275000Y-102155000D02*
X72275000Y-104560425D01*
X68337843Y-104616539D02*
X72331114Y-104616539D01*
X79845000Y-98345000D02*
X77225000Y-98345000D01*
X81250000Y-103250000D02*
X81250000Y-99750000D01*
X79883461Y-104616539D02*
X81250000Y-103250000D01*
X68331131Y-104609827D02*
X68337843Y-104616539D01*
X81250000Y-99750000D02*
X79845000Y-98345000D01*
%TO.N,/VoltageSupply/VUSB*%
X64851699Y-104625000D02*
X64868257Y-104608442D01*
X61975000Y-104625000D02*
X64851699Y-104625000D01*
D41*
%TO.N,Net-(R7-Pad1)*%
X79779794Y-100885000D02*
X79779911Y-100885117D01*
X77225000Y-100885000D02*
X79779794Y-100885000D01*
%TO.N,Bat(Protected)*%
X90885850Y-110289925D02*
X97532497Y-110289925D01*
%TO.N,Bat+*%
X96869044Y-98691409D02*
X90910996Y-98691409D01*
%TO.N,Bat(Protected)*%
X99898936Y-100396736D02*
X99898936Y-106304943D01*
X99885415Y-99675038D02*
X99885415Y-100383215D01*
X100869044Y-98691409D02*
X99885415Y-99675038D01*
X99885415Y-100383215D02*
X99898936Y-100396736D01*
%TO.N,+3V3Reg*%
X108869044Y-104205703D02*
X108869044Y-98691409D01*
X111413341Y-106750000D02*
X108869044Y-104205703D01*
X115400000Y-106750000D02*
X111413341Y-106750000D01*
%TO.N,GND*%
X123925000Y-108750000D02*
X123000000Y-108750000D01*
%TO.N,+3V3Reg*%
X121200000Y-107750000D02*
X120225000Y-106775000D01*
X121575000Y-107750000D02*
X121200000Y-107750000D01*
X120225000Y-106775000D02*
X117250000Y-106775000D01*
X121250000Y-105750000D02*
X120225000Y-106775000D01*
X125250000Y-105750000D02*
X121250000Y-105750000D01*
X126010000Y-106510000D02*
X125250000Y-105750000D01*
X126010000Y-107759432D02*
X126010000Y-106510000D01*
%TO.N,/Sensors/SDA*%
X123925000Y-112060000D02*
X122735000Y-113250000D01*
X123925000Y-109250000D02*
X123925000Y-112060000D01*
%TO.N,/Sensors/SCL*%
X124990000Y-106722572D02*
X124999610Y-106712962D01*
X124990000Y-107777428D02*
X124990000Y-106722572D01*
%TO.N,+3V3Reg*%
X117243885Y-106750000D02*
X115400000Y-106750000D01*
X117246586Y-106752701D02*
X117243885Y-106750000D01*
D42*
%TO.N,Net-(C8-Pad1)*%
X68329746Y-104608442D02*
X68331131Y-104609827D01*
X66693257Y-104608442D02*
X68329746Y-104608442D01*
D41*
%TO.N,Net-(R5-Pad2)*%
X70092417Y-97936212D02*
X70095763Y-97932866D01*
X70092417Y-99014325D02*
X70092417Y-97936212D01*
X70693092Y-99615000D02*
X70092417Y-99014325D01*
X72275000Y-99615000D02*
X70693092Y-99615000D01*
%TO.N,Net-(C8-Pad1)*%
X65204116Y-102155000D02*
X64797878Y-101748762D01*
X64797878Y-101748762D02*
X64797878Y-100877651D01*
%TO.N,Net-(R6-Pad2)*%
X72266809Y-100893191D02*
X72275000Y-100885000D01*
X69660378Y-100893191D02*
X72266809Y-100893191D01*
%TO.N,Net-(C8-Pad1)*%
X64793263Y-100873036D02*
X64797878Y-100877651D01*
X64793263Y-97917866D02*
X64793263Y-100873036D01*
%TO.N,Net-(D3-Pad1)*%
X67994838Y-100877651D02*
X68010378Y-100893191D01*
X66372878Y-100877651D02*
X67994838Y-100877651D01*
%TO.N,Net-(D2-Pad1)*%
X66683263Y-97932866D02*
X66668263Y-97917866D01*
X68445763Y-97932866D02*
X66683263Y-97932866D01*
%TO.N,+3V3Reg*%
X126010000Y-107759432D02*
X126010000Y-109260779D01*
%TO.N,/Sensors/SDA*%
X123925000Y-109250000D02*
X124956643Y-109250000D01*
%TO.N,/Sensors/SCL*%
X123925000Y-107750000D02*
X124980568Y-107750000D01*
%TO.N,Net-(C3-Pad1)*%
X99024671Y-112750000D02*
X99634593Y-112750000D01*
X98750000Y-113024671D02*
X99024671Y-112750000D01*
X98750000Y-113634745D02*
X98750000Y-113024671D01*
X98082379Y-114302366D02*
X98750000Y-113634745D01*
X97687836Y-114302366D02*
X98082379Y-114302366D01*
%TO.N,Net-(C3-Pad2)*%
X98190202Y-112250000D02*
X97687836Y-112752366D01*
X99634593Y-112250000D02*
X98190202Y-112250000D01*
%TO.N,Net-(C4-Pad1)*%
X102062999Y-109892486D02*
X102062999Y-111246594D01*
X102062999Y-111246594D02*
X102059593Y-111250000D01*
D42*
%TO.N,+5VReg*%
X102059593Y-112250000D02*
X104858658Y-112250000D01*
D43*
%TO.N,Net-(D1-Pad1)*%
X90906054Y-101986467D02*
X90906054Y-104821467D01*
D41*
%TO.N,Net-(R3-Pad1)*%
X103996577Y-113899484D02*
X104859174Y-113899484D01*
D42*
%TO.N,+5VReg*%
X104858658Y-112250000D02*
X104859174Y-112249484D01*
D41*
%TO.N,Net-(R3-Pad1)*%
X102847093Y-112750000D02*
X103996577Y-113899484D01*
X102059593Y-112750000D02*
X102847093Y-112750000D01*
%TO.N,Net-(C2-Pad2)*%
X102046524Y-114594925D02*
X102050117Y-114591332D01*
X100149074Y-114594925D02*
X102046524Y-114594925D01*
X102059593Y-114581856D02*
X102050117Y-114591332D01*
X102059593Y-113250000D02*
X102059593Y-114581856D01*
D42*
%TO.N,Bat(Protected)*%
X90901521Y-107366000D02*
X90906054Y-107361467D01*
X90901521Y-110225007D02*
X90901521Y-107366000D01*
%TD*%
%TA.AperFunction,Conductor*%
%TO.N,GND*%
G36*
X156683621Y-42028502D02*
G01*
X156730114Y-42082158D01*
X156741500Y-42134500D01*
X156741500Y-140865500D01*
X156721498Y-140933621D01*
X156667842Y-140980114D01*
X156615500Y-140991500D01*
X57884500Y-140991500D01*
X57816379Y-140971498D01*
X57769886Y-140917842D01*
X57758500Y-140865500D01*
X57758500Y-116729520D01*
X98941075Y-116729520D01*
X98941412Y-116736039D01*
X98951331Y-116831631D01*
X98954223Y-116845025D01*
X99005662Y-116999209D01*
X99011835Y-117012387D01*
X99097137Y-117150232D01*
X99106173Y-117161633D01*
X99220903Y-117276164D01*
X99232314Y-117285176D01*
X99370317Y-117370241D01*
X99383498Y-117376388D01*
X99537784Y-117427563D01*
X99551160Y-117430430D01*
X99645512Y-117440097D01*
X99651928Y-117440425D01*
X99876959Y-117440425D01*
X99892198Y-117435950D01*
X99893403Y-117434560D01*
X99895074Y-117426877D01*
X99895074Y-116692040D01*
X99890599Y-116676801D01*
X99889209Y-116675596D01*
X99881526Y-116673925D01*
X98959190Y-116673925D01*
X98943951Y-116678400D01*
X98942746Y-116679790D01*
X98941075Y-116687473D01*
X98941075Y-116729520D01*
X57758500Y-116729520D01*
X57758500Y-110585363D01*
X88377850Y-110585363D01*
X88378187Y-110591878D01*
X88387744Y-110683982D01*
X88390638Y-110697381D01*
X88440231Y-110846032D01*
X88446405Y-110859211D01*
X88528638Y-110992098D01*
X88537674Y-111003499D01*
X88648279Y-111113911D01*
X88659690Y-111122923D01*
X88792730Y-111204929D01*
X88805911Y-111211076D01*
X88954664Y-111260416D01*
X88968040Y-111263283D01*
X89058947Y-111272597D01*
X89063976Y-111272854D01*
X89078974Y-111268450D01*
X89080179Y-111267060D01*
X89081850Y-111259377D01*
X89081850Y-110562040D01*
X89077375Y-110546801D01*
X89075985Y-110545596D01*
X89068302Y-110543925D01*
X88395965Y-110543925D01*
X88380726Y-110548400D01*
X88379521Y-110549790D01*
X88377850Y-110557473D01*
X88377850Y-110585363D01*
X57758500Y-110585363D01*
X57758500Y-110134542D01*
X57778502Y-110066421D01*
X57832158Y-110019928D01*
X57902432Y-110009824D01*
X57967012Y-110039318D01*
X57996161Y-110076166D01*
X58005175Y-110093408D01*
X58011892Y-110103673D01*
X58132340Y-110253480D01*
X58140918Y-110262240D01*
X58288170Y-110385799D01*
X58298284Y-110392725D01*
X58466735Y-110485331D01*
X58477999Y-110490159D01*
X58661229Y-110548283D01*
X58673218Y-110550831D01*
X58822781Y-110567607D01*
X58829805Y-110568000D01*
X59027885Y-110568000D01*
X59043124Y-110563525D01*
X59044329Y-110562135D01*
X59046000Y-110554452D01*
X59046000Y-110549885D01*
X59554000Y-110549885D01*
X59558475Y-110565124D01*
X59559865Y-110566329D01*
X59567548Y-110568000D01*
X59763390Y-110568000D01*
X59769538Y-110567699D01*
X59912434Y-110553688D01*
X59924469Y-110551305D01*
X60108480Y-110495749D01*
X60119821Y-110491075D01*
X60289534Y-110400837D01*
X60299759Y-110394043D01*
X60448715Y-110272558D01*
X60457419Y-110263914D01*
X60579943Y-110115807D01*
X60586801Y-110105639D01*
X60634291Y-110017810D01*
X88377850Y-110017810D01*
X88382325Y-110033049D01*
X88383715Y-110034254D01*
X88391398Y-110035925D01*
X89063735Y-110035925D01*
X89078974Y-110031450D01*
X89080179Y-110030060D01*
X89081850Y-110022377D01*
X89081850Y-109325040D01*
X89077375Y-109309801D01*
X89075985Y-109308596D01*
X89068302Y-109306925D01*
X89065412Y-109306925D01*
X89058897Y-109307262D01*
X88966793Y-109316819D01*
X88953394Y-109319713D01*
X88804743Y-109369306D01*
X88791564Y-109375480D01*
X88658677Y-109457713D01*
X88647276Y-109466749D01*
X88536864Y-109577354D01*
X88527852Y-109588765D01*
X88445846Y-109721805D01*
X88439699Y-109734986D01*
X88390359Y-109883739D01*
X88387492Y-109897115D01*
X88378178Y-109988022D01*
X88377850Y-109994439D01*
X88377850Y-110017810D01*
X60634291Y-110017810D01*
X60678223Y-109936560D01*
X60682979Y-109925245D01*
X60722892Y-109796308D01*
X60723098Y-109782205D01*
X60716343Y-109779000D01*
X59572115Y-109779000D01*
X59556876Y-109783475D01*
X59555671Y-109784865D01*
X59554000Y-109792548D01*
X59554000Y-110549885D01*
X59046000Y-110549885D01*
X59046000Y-109327344D01*
X61387016Y-109327344D01*
X61396898Y-109339834D01*
X61440279Y-109368820D01*
X61450389Y-109374310D01*
X61635318Y-109453762D01*
X61646261Y-109457317D01*
X61842567Y-109501737D01*
X61853975Y-109503239D01*
X62055096Y-109511140D01*
X62066580Y-109510538D01*
X62265774Y-109481657D01*
X62276957Y-109478972D01*
X62467547Y-109414276D01*
X62478060Y-109409595D01*
X62604766Y-109338635D01*
X62614631Y-109328557D01*
X62611675Y-109320885D01*
X62012812Y-108722022D01*
X61998868Y-108714408D01*
X61997035Y-108714539D01*
X61990420Y-108718790D01*
X61393212Y-109315998D01*
X61387016Y-109327344D01*
X59046000Y-109327344D01*
X59046000Y-109252885D01*
X59554000Y-109252885D01*
X59558475Y-109268124D01*
X59559865Y-109269329D01*
X59567548Y-109271000D01*
X60709411Y-109271000D01*
X60722942Y-109267027D01*
X60724062Y-109259232D01*
X60688474Y-109138314D01*
X60683875Y-109126930D01*
X60594822Y-108956588D01*
X60588108Y-108946327D01*
X60467660Y-108796520D01*
X60459082Y-108787760D01*
X60311830Y-108664201D01*
X60301716Y-108657275D01*
X60133265Y-108564669D01*
X60122001Y-108559841D01*
X59938771Y-108501717D01*
X59926782Y-108499169D01*
X59777219Y-108482393D01*
X59770195Y-108482000D01*
X59572115Y-108482000D01*
X59556876Y-108486475D01*
X59555671Y-108487865D01*
X59554000Y-108495548D01*
X59554000Y-109252885D01*
X59046000Y-109252885D01*
X59046000Y-108500115D01*
X59041525Y-108484876D01*
X59040135Y-108483671D01*
X59032452Y-108482000D01*
X58836610Y-108482000D01*
X58830462Y-108482301D01*
X58687566Y-108496312D01*
X58675531Y-108498695D01*
X58491520Y-108554251D01*
X58480179Y-108558925D01*
X58310466Y-108649163D01*
X58300241Y-108655957D01*
X58151285Y-108777442D01*
X58142581Y-108786086D01*
X58020057Y-108934193D01*
X58013199Y-108944362D01*
X57995335Y-108977399D01*
X57945340Y-109027808D01*
X57876029Y-109043185D01*
X57809407Y-109018648D01*
X57766627Y-108961988D01*
X57758500Y-108917470D01*
X57758500Y-108325323D01*
X60837816Y-108325323D01*
X60850979Y-108526159D01*
X60852780Y-108537529D01*
X60902323Y-108732604D01*
X60906164Y-108743451D01*
X60990429Y-108926238D01*
X60996177Y-108936193D01*
X61009912Y-108955628D01*
X61020501Y-108964016D01*
X61033802Y-108956988D01*
X61910905Y-108079885D01*
X61973217Y-108045859D01*
X62044032Y-108050924D01*
X62089095Y-108079885D01*
X62966971Y-108957761D01*
X62979351Y-108964521D01*
X62985931Y-108959595D01*
X63059595Y-108828060D01*
X63064276Y-108817547D01*
X63128972Y-108626957D01*
X63131657Y-108615774D01*
X63160834Y-108414539D01*
X63161464Y-108407157D01*
X63162864Y-108353704D01*
X63162621Y-108346305D01*
X63144016Y-108143824D01*
X63141918Y-108132503D01*
X63087287Y-107938797D01*
X63083163Y-107928050D01*
X63027969Y-107816130D01*
X63015779Y-107746188D01*
X63040148Y-107684837D01*
X63044786Y-107678648D01*
X63053324Y-107663054D01*
X63098478Y-107542606D01*
X63102105Y-107527351D01*
X63107631Y-107476486D01*
X63108000Y-107469672D01*
X63108000Y-107443115D01*
X63103525Y-107427876D01*
X63102135Y-107426671D01*
X63094452Y-107425000D01*
X62193115Y-107425000D01*
X62177876Y-107429475D01*
X62176671Y-107430865D01*
X62175000Y-107438548D01*
X62175000Y-107847000D01*
X62154998Y-107915121D01*
X62101342Y-107961614D01*
X62049000Y-107973000D01*
X61901000Y-107973000D01*
X61832879Y-107952998D01*
X61786386Y-107899342D01*
X61775000Y-107847000D01*
X61775000Y-107443115D01*
X61770525Y-107427876D01*
X61769135Y-107426671D01*
X61761452Y-107425000D01*
X60860116Y-107425000D01*
X60844877Y-107429475D01*
X60843672Y-107430865D01*
X60842001Y-107438548D01*
X60842001Y-107469669D01*
X60842371Y-107476490D01*
X60847895Y-107527352D01*
X60851521Y-107542604D01*
X60896676Y-107663054D01*
X60905214Y-107678648D01*
X60939356Y-107724204D01*
X60964204Y-107790710D01*
X60950038Y-107858437D01*
X60928257Y-107899836D01*
X60923848Y-107910479D01*
X60864167Y-108102684D01*
X60861773Y-108113946D01*
X60838117Y-108313821D01*
X60837816Y-108325323D01*
X57758500Y-108325323D01*
X57758500Y-107069669D01*
X58142001Y-107069669D01*
X58142371Y-107076490D01*
X58147895Y-107127352D01*
X58151521Y-107142604D01*
X58196676Y-107263054D01*
X58205214Y-107278649D01*
X58281715Y-107380724D01*
X58294276Y-107393285D01*
X58396351Y-107469786D01*
X58411946Y-107478324D01*
X58532394Y-107523478D01*
X58547649Y-107527105D01*
X58598514Y-107532631D01*
X58605328Y-107533000D01*
X59052885Y-107533000D01*
X59068124Y-107528525D01*
X59069329Y-107527135D01*
X59071000Y-107519452D01*
X59071000Y-107514884D01*
X59579000Y-107514884D01*
X59583475Y-107530123D01*
X59584865Y-107531328D01*
X59592548Y-107532999D01*
X60044669Y-107532999D01*
X60051490Y-107532629D01*
X60102352Y-107527105D01*
X60117604Y-107523479D01*
X60238054Y-107478324D01*
X60253649Y-107469786D01*
X60355724Y-107393285D01*
X60368285Y-107380724D01*
X60444786Y-107278649D01*
X60453324Y-107263054D01*
X60498478Y-107142606D01*
X60502105Y-107127351D01*
X60507631Y-107076486D01*
X60508000Y-107069672D01*
X60508000Y-106997115D01*
X60503525Y-106981876D01*
X60502135Y-106980671D01*
X60494452Y-106979000D01*
X59597115Y-106979000D01*
X59581876Y-106983475D01*
X59580671Y-106984865D01*
X59579000Y-106992548D01*
X59579000Y-107514884D01*
X59071000Y-107514884D01*
X59071000Y-106997115D01*
X59066525Y-106981876D01*
X59065135Y-106980671D01*
X59057452Y-106979000D01*
X58160116Y-106979000D01*
X58144877Y-106983475D01*
X58143672Y-106984865D01*
X58142001Y-106992548D01*
X58142001Y-107069669D01*
X57758500Y-107069669D01*
X57758500Y-106452885D01*
X58142000Y-106452885D01*
X58146475Y-106468124D01*
X58147865Y-106469329D01*
X58155548Y-106471000D01*
X59052885Y-106471000D01*
X59068124Y-106466525D01*
X59069329Y-106465135D01*
X59071000Y-106457452D01*
X59071000Y-106452885D01*
X59579000Y-106452885D01*
X59583475Y-106468124D01*
X59584865Y-106469329D01*
X59592548Y-106471000D01*
X60489884Y-106471000D01*
X60505123Y-106466525D01*
X60506328Y-106465135D01*
X60507999Y-106457452D01*
X60507999Y-106380331D01*
X60507629Y-106373510D01*
X60502105Y-106322648D01*
X60498479Y-106307396D01*
X60453324Y-106186946D01*
X60444786Y-106171351D01*
X60368285Y-106069276D01*
X60355724Y-106056715D01*
X60314509Y-106025826D01*
X60271994Y-105968967D01*
X60266968Y-105898148D01*
X60301028Y-105835855D01*
X60314509Y-105824174D01*
X60355724Y-105793285D01*
X60368285Y-105780724D01*
X60444786Y-105678649D01*
X60453324Y-105663054D01*
X60498478Y-105542606D01*
X60502105Y-105527351D01*
X60507631Y-105476486D01*
X60508000Y-105469672D01*
X60508000Y-105397115D01*
X60503525Y-105381876D01*
X60502135Y-105380671D01*
X60494452Y-105379000D01*
X59597115Y-105379000D01*
X59581876Y-105383475D01*
X59580671Y-105384865D01*
X59579000Y-105392548D01*
X59579000Y-106452885D01*
X59071000Y-106452885D01*
X59071000Y-105397115D01*
X59066525Y-105381876D01*
X59065135Y-105380671D01*
X59057452Y-105379000D01*
X58160116Y-105379000D01*
X58144877Y-105383475D01*
X58143672Y-105384865D01*
X58142001Y-105392548D01*
X58142001Y-105469669D01*
X58142371Y-105476490D01*
X58147895Y-105527352D01*
X58151521Y-105542604D01*
X58196676Y-105663054D01*
X58205214Y-105678649D01*
X58281715Y-105780724D01*
X58294276Y-105793285D01*
X58335491Y-105824174D01*
X58378006Y-105881033D01*
X58383032Y-105951852D01*
X58348972Y-106014145D01*
X58335491Y-106025826D01*
X58294276Y-106056715D01*
X58281715Y-106069276D01*
X58205214Y-106171351D01*
X58196676Y-106186946D01*
X58151522Y-106307394D01*
X58147895Y-106322649D01*
X58142369Y-106373514D01*
X58142000Y-106380328D01*
X58142000Y-106452885D01*
X57758500Y-106452885D01*
X57758500Y-104852885D01*
X58142000Y-104852885D01*
X58146475Y-104868124D01*
X58147865Y-104869329D01*
X58155548Y-104871000D01*
X59052885Y-104871000D01*
X59068124Y-104866525D01*
X59069329Y-104865135D01*
X59071000Y-104857452D01*
X59071000Y-104852885D01*
X59579000Y-104852885D01*
X59583475Y-104868124D01*
X59584865Y-104869329D01*
X59592548Y-104871000D01*
X60489884Y-104871000D01*
X60505123Y-104866525D01*
X60506328Y-104865135D01*
X60507999Y-104857452D01*
X60507999Y-104780331D01*
X60507629Y-104773510D01*
X60502105Y-104722648D01*
X60498479Y-104707396D01*
X60453324Y-104586946D01*
X60444786Y-104571351D01*
X60368285Y-104469276D01*
X60355724Y-104456715D01*
X60253649Y-104380214D01*
X60238054Y-104371676D01*
X60117606Y-104326522D01*
X60102351Y-104322895D01*
X60051486Y-104317369D01*
X60044672Y-104317000D01*
X59597115Y-104317000D01*
X59581876Y-104321475D01*
X59580671Y-104322865D01*
X59579000Y-104330548D01*
X59579000Y-104852885D01*
X59071000Y-104852885D01*
X59071000Y-104335116D01*
X59066525Y-104319877D01*
X59065135Y-104318672D01*
X59057452Y-104317001D01*
X58605331Y-104317001D01*
X58598510Y-104317371D01*
X58547648Y-104322895D01*
X58532396Y-104326521D01*
X58411946Y-104371676D01*
X58396351Y-104380214D01*
X58294276Y-104456715D01*
X58281715Y-104469276D01*
X58205214Y-104571351D01*
X58196676Y-104586946D01*
X58151522Y-104707394D01*
X58147895Y-104722649D01*
X58142369Y-104773514D01*
X58142000Y-104780328D01*
X58142000Y-104852885D01*
X57758500Y-104852885D01*
X57758500Y-103475323D01*
X60837816Y-103475323D01*
X60850979Y-103676159D01*
X60852780Y-103687529D01*
X60902323Y-103882604D01*
X60906165Y-103893455D01*
X60953439Y-103996002D01*
X60963794Y-104066239D01*
X60939839Y-104124317D01*
X60914920Y-104157567D01*
X60899385Y-104178295D01*
X60848255Y-104314684D01*
X60841500Y-104376866D01*
X60841500Y-104873134D01*
X60841869Y-104876531D01*
X60848255Y-104935316D01*
X60845826Y-104935580D01*
X60845826Y-104964420D01*
X60848255Y-104964684D01*
X60841500Y-105026866D01*
X60841500Y-105523134D01*
X60841869Y-105526531D01*
X60848255Y-105585316D01*
X60845826Y-105585580D01*
X60845826Y-105614420D01*
X60848255Y-105614684D01*
X60841500Y-105676866D01*
X60841500Y-106173134D01*
X60841869Y-106176531D01*
X60848255Y-106235316D01*
X60846116Y-106235548D01*
X60846166Y-106264512D01*
X60848748Y-106264793D01*
X60842369Y-106323514D01*
X60842000Y-106330328D01*
X60842000Y-106356885D01*
X60846475Y-106372124D01*
X60847865Y-106373329D01*
X60864991Y-106377054D01*
X60927303Y-106411078D01*
X60939035Y-106424610D01*
X60981357Y-106481080D01*
X60986739Y-106488261D01*
X61033137Y-106523034D01*
X61066681Y-106548174D01*
X61109196Y-106605033D01*
X61114222Y-106675851D01*
X61080162Y-106738145D01*
X61017831Y-106772135D01*
X60991116Y-106775000D01*
X60860116Y-106775000D01*
X60844877Y-106779475D01*
X60843672Y-106780865D01*
X60842001Y-106788548D01*
X60842001Y-106819669D01*
X60842371Y-106826490D01*
X60848748Y-106885207D01*
X60846353Y-106885467D01*
X60846351Y-106914533D01*
X60848748Y-106914793D01*
X60842369Y-106973514D01*
X60842000Y-106980328D01*
X60842000Y-107006885D01*
X60846475Y-107022124D01*
X60847865Y-107023329D01*
X60855548Y-107025000D01*
X61756885Y-107025000D01*
X61772124Y-107020525D01*
X61773329Y-107019135D01*
X61775000Y-107011452D01*
X61775000Y-106775000D01*
X61775552Y-106775000D01*
X61775553Y-106724000D01*
X61813938Y-106664275D01*
X61878519Y-106634782D01*
X61896449Y-106633500D01*
X62052372Y-106633500D01*
X62120493Y-106653502D01*
X62166986Y-106707158D01*
X62177090Y-106777432D01*
X62175492Y-106786285D01*
X62175000Y-106788547D01*
X62175000Y-107006885D01*
X62179475Y-107022124D01*
X62180865Y-107023329D01*
X62188548Y-107025000D01*
X63089884Y-107025000D01*
X63105123Y-107020525D01*
X63106328Y-107019135D01*
X63107999Y-107011452D01*
X63107999Y-106980331D01*
X63107629Y-106973510D01*
X63101252Y-106914793D01*
X63103644Y-106914533D01*
X63103652Y-106885468D01*
X63101252Y-106885207D01*
X63107631Y-106826486D01*
X63108000Y-106819672D01*
X63108000Y-106793115D01*
X63103525Y-106777876D01*
X63102135Y-106776671D01*
X63094452Y-106775000D01*
X62958884Y-106775000D01*
X62890763Y-106754998D01*
X62844270Y-106701342D01*
X62834166Y-106631068D01*
X62863660Y-106566488D01*
X62883319Y-106548174D01*
X62916864Y-106523034D01*
X62963261Y-106488261D01*
X63011242Y-106424240D01*
X63068101Y-106381725D01*
X63076570Y-106378909D01*
X63105123Y-106370525D01*
X63106328Y-106369135D01*
X63107999Y-106361452D01*
X63107999Y-106330331D01*
X63107629Y-106323510D01*
X63101252Y-106264793D01*
X63103998Y-106264495D01*
X63103940Y-106235554D01*
X63101745Y-106235316D01*
X63108131Y-106176531D01*
X63108500Y-106173134D01*
X63108500Y-105676866D01*
X63101745Y-105614684D01*
X63104174Y-105614420D01*
X63104174Y-105585580D01*
X63101745Y-105585316D01*
X63108131Y-105526531D01*
X63108500Y-105523134D01*
X63108500Y-105409500D01*
X63128502Y-105341379D01*
X63182158Y-105294886D01*
X63234500Y-105283500D01*
X63790425Y-105283500D01*
X63858546Y-105303502D01*
X63905039Y-105357158D01*
X63909947Y-105369620D01*
X63914207Y-105382388D01*
X63918058Y-105388612D01*
X63918059Y-105388613D01*
X63922592Y-105395938D01*
X64007279Y-105532790D01*
X64132454Y-105657747D01*
X64138684Y-105661587D01*
X64138685Y-105661588D01*
X64275847Y-105746136D01*
X64283019Y-105750557D01*
X64335970Y-105768120D01*
X64444368Y-105804074D01*
X64444370Y-105804074D01*
X64450896Y-105806239D01*
X64457732Y-105806939D01*
X64457735Y-105806940D01*
X64500788Y-105811351D01*
X64555357Y-105816942D01*
X65181157Y-105816942D01*
X65184403Y-105816605D01*
X65184407Y-105816605D01*
X65280065Y-105806680D01*
X65280069Y-105806679D01*
X65286923Y-105805968D01*
X65293459Y-105803787D01*
X65293461Y-105803787D01*
X65439875Y-105754939D01*
X65454703Y-105749992D01*
X65605105Y-105656920D01*
X65691541Y-105570333D01*
X65753823Y-105536254D01*
X65824643Y-105541257D01*
X65869732Y-105570178D01*
X65885161Y-105585580D01*
X65957454Y-105657747D01*
X65963684Y-105661587D01*
X65963685Y-105661588D01*
X66100847Y-105746136D01*
X66108019Y-105750557D01*
X66160970Y-105768120D01*
X66269368Y-105804074D01*
X66269370Y-105804074D01*
X66275896Y-105806239D01*
X66282732Y-105806939D01*
X66282735Y-105806940D01*
X66325788Y-105811351D01*
X66380357Y-105816942D01*
X67006157Y-105816942D01*
X67009403Y-105816605D01*
X67009407Y-105816605D01*
X67105065Y-105806680D01*
X67105069Y-105806679D01*
X67111923Y-105805968D01*
X67118459Y-105803787D01*
X67118461Y-105803787D01*
X67264875Y-105754939D01*
X67279703Y-105749992D01*
X67325382Y-105721725D01*
X67393834Y-105702887D01*
X67461604Y-105724048D01*
X67507175Y-105778489D01*
X67515634Y-105806229D01*
X67517817Y-105818180D01*
X67559488Y-105961611D01*
X67565735Y-105976047D01*
X67641007Y-106103326D01*
X67650647Y-106115753D01*
X67755205Y-106220311D01*
X67767632Y-106229951D01*
X67894911Y-106305223D01*
X67909347Y-106311470D01*
X68052772Y-106353139D01*
X68060740Y-106354595D01*
X68074162Y-106351775D01*
X68077131Y-106340314D01*
X68077131Y-106338251D01*
X68585131Y-106338251D01*
X68589475Y-106353046D01*
X68599906Y-106354890D01*
X68609490Y-106353139D01*
X68752915Y-106311470D01*
X68767351Y-106305223D01*
X68894630Y-106229951D01*
X68907057Y-106220311D01*
X69011615Y-106115753D01*
X69021255Y-106103326D01*
X69096527Y-105976047D01*
X69102774Y-105961611D01*
X69137750Y-105841222D01*
X69137710Y-105827122D01*
X69130440Y-105823827D01*
X68603246Y-105823827D01*
X68588007Y-105828302D01*
X68586802Y-105829692D01*
X68585131Y-105837375D01*
X68585131Y-106338251D01*
X68077131Y-106338251D01*
X68077131Y-105524327D01*
X68097133Y-105456206D01*
X68150789Y-105409713D01*
X68203131Y-105398327D01*
X68566615Y-105398327D01*
X68569063Y-105398134D01*
X68569071Y-105398134D01*
X68596975Y-105395938D01*
X68596980Y-105395937D01*
X68603385Y-105395433D01*
X68702136Y-105366743D01*
X68753115Y-105351933D01*
X68753117Y-105351932D01*
X68760728Y-105349721D01*
X68788371Y-105333373D01*
X68852510Y-105315827D01*
X69124689Y-105315827D01*
X69149036Y-105308678D01*
X69193437Y-105280143D01*
X69228936Y-105275039D01*
X72269372Y-105275039D01*
X72289082Y-105276590D01*
X72302436Y-105278705D01*
X72302437Y-105278705D01*
X72310266Y-105279945D01*
X72356255Y-105275598D01*
X72368110Y-105275039D01*
X79801405Y-105275039D01*
X79813261Y-105275598D01*
X79813264Y-105275598D01*
X79820998Y-105277327D01*
X79891830Y-105275101D01*
X79895788Y-105275039D01*
X79924893Y-105275039D01*
X79929293Y-105274483D01*
X79941125Y-105273551D01*
X79987292Y-105272101D01*
X80007882Y-105266119D01*
X80027243Y-105262109D01*
X80034231Y-105261227D01*
X80040665Y-105260414D01*
X80040666Y-105260414D01*
X80048525Y-105259421D01*
X80055890Y-105256505D01*
X80055894Y-105256504D01*
X80091482Y-105242413D01*
X80102692Y-105238574D01*
X80147061Y-105225684D01*
X80165526Y-105214764D01*
X80183266Y-105206073D01*
X80203217Y-105198174D01*
X80240590Y-105171021D01*
X80250509Y-105164506D01*
X80283438Y-105145032D01*
X80283442Y-105145029D01*
X80290268Y-105140992D01*
X80305432Y-105125828D01*
X80320466Y-105112987D01*
X80331404Y-105105040D01*
X80337818Y-105100380D01*
X80367264Y-105064786D01*
X80375253Y-105056007D01*
X80643098Y-104788162D01*
X89543305Y-104788162D01*
X89543602Y-104793315D01*
X89543602Y-104793318D01*
X89552899Y-104954562D01*
X89556164Y-105011182D01*
X89557301Y-105016228D01*
X89557302Y-105016234D01*
X89574889Y-105094271D01*
X89605276Y-105229106D01*
X89689320Y-105436083D01*
X89717382Y-105481876D01*
X89798605Y-105614420D01*
X89806041Y-105626555D01*
X89952304Y-105795405D01*
X89956284Y-105798709D01*
X89961035Y-105802654D01*
X90000670Y-105861557D01*
X90002167Y-105932538D01*
X89965051Y-105993060D01*
X89924779Y-106017579D01*
X89848676Y-106046109D01*
X89809349Y-106060852D01*
X89692793Y-106148206D01*
X89605439Y-106264762D01*
X89554309Y-106401151D01*
X89547554Y-106463333D01*
X89547554Y-108259601D01*
X89554309Y-108321783D01*
X89605439Y-108458172D01*
X89692793Y-108574728D01*
X89809349Y-108662082D01*
X89945738Y-108713212D01*
X90007920Y-108719967D01*
X90117021Y-108719967D01*
X90185142Y-108739969D01*
X90231635Y-108793625D01*
X90243021Y-108845967D01*
X90243021Y-109368940D01*
X90223019Y-109437061D01*
X90201628Y-109460681D01*
X90202129Y-109461181D01*
X90199561Y-109463753D01*
X90198143Y-109464529D01*
X90195278Y-109467692D01*
X90191221Y-109470907D01*
X90189788Y-109469099D01*
X90137275Y-109497827D01*
X90066455Y-109492817D01*
X90029997Y-109469426D01*
X90029167Y-109470477D01*
X90012010Y-109456927D01*
X89878970Y-109374921D01*
X89865789Y-109368774D01*
X89717036Y-109319434D01*
X89703660Y-109316567D01*
X89612753Y-109307253D01*
X89607724Y-109306996D01*
X89592726Y-109311400D01*
X89591521Y-109312790D01*
X89589850Y-109320473D01*
X89589850Y-111254810D01*
X89594325Y-111270049D01*
X89595715Y-111271254D01*
X89603398Y-111272925D01*
X89606288Y-111272925D01*
X89612803Y-111272588D01*
X89704907Y-111263031D01*
X89718306Y-111260137D01*
X89866957Y-111210544D01*
X89880136Y-111204370D01*
X90013023Y-111122137D01*
X90030161Y-111108554D01*
X90031691Y-111110484D01*
X90083730Y-111082022D01*
X90154549Y-111087038D01*
X90191467Y-111110724D01*
X90192222Y-111109768D01*
X90197968Y-111114306D01*
X90203148Y-111119477D01*
X90209378Y-111123317D01*
X90209379Y-111123318D01*
X90340870Y-111204370D01*
X90348749Y-111209227D01*
X90511093Y-111263074D01*
X90517930Y-111263774D01*
X90517932Y-111263775D01*
X90559251Y-111268008D01*
X90612118Y-111273425D01*
X91159582Y-111273425D01*
X91162828Y-111273088D01*
X91162832Y-111273088D01*
X91196933Y-111269550D01*
X91261869Y-111262812D01*
X91415576Y-111211531D01*
X91417174Y-111210998D01*
X91417176Y-111210997D01*
X91424118Y-111208681D01*
X91438113Y-111200021D01*
X91563335Y-111122531D01*
X91569563Y-111118677D01*
X91578457Y-111109768D01*
X91685231Y-111002807D01*
X91690402Y-110997627D01*
X91714638Y-110958309D01*
X91767410Y-110910816D01*
X91821898Y-110898425D01*
X96423164Y-110898425D01*
X96491285Y-110918427D01*
X96520839Y-110945191D01*
X96523615Y-110949677D01*
X96528796Y-110954849D01*
X96648790Y-111074634D01*
X96647521Y-111075905D01*
X96683183Y-111126196D01*
X96686420Y-111197118D01*
X96653126Y-111256265D01*
X96353766Y-111555625D01*
X96341375Y-111566492D01*
X96316013Y-111585953D01*
X96291526Y-111617865D01*
X96291523Y-111617868D01*
X96291517Y-111617876D01*
X96266810Y-111650075D01*
X96218476Y-111713064D01*
X96157162Y-111861089D01*
X96155145Y-111876410D01*
X96141500Y-111980055D01*
X96141500Y-111980060D01*
X96136250Y-112019940D01*
X96137328Y-112028128D01*
X96140422Y-112051630D01*
X96141500Y-112068076D01*
X96141500Y-115451857D01*
X96140422Y-115468303D01*
X96136249Y-115500000D01*
X96142010Y-115543759D01*
X96157162Y-115658850D01*
X96218476Y-115806875D01*
X96245313Y-115841849D01*
X96310984Y-115927434D01*
X96310987Y-115927437D01*
X96316013Y-115933987D01*
X96322563Y-115939013D01*
X96322564Y-115939014D01*
X96397005Y-115996135D01*
X96443124Y-116031524D01*
X96450750Y-116034683D01*
X96450752Y-116034684D01*
X96583520Y-116089678D01*
X96583523Y-116089679D01*
X96591150Y-116092838D01*
X96750000Y-116113751D01*
X96758188Y-116112673D01*
X96781697Y-116109578D01*
X96798143Y-116108500D01*
X97951864Y-116108500D01*
X97968307Y-116109578D01*
X98000000Y-116113750D01*
X98008189Y-116112672D01*
X98039874Y-116108501D01*
X98039884Y-116108500D01*
X98039885Y-116108500D01*
X98075107Y-116103863D01*
X98139457Y-116095391D01*
X98150664Y-116093916D01*
X98150666Y-116093915D01*
X98158851Y-116092838D01*
X98306876Y-116031524D01*
X98402072Y-115958477D01*
X98402075Y-115958474D01*
X98433987Y-115933987D01*
X98439017Y-115927432D01*
X98453452Y-115908621D01*
X98464319Y-115896230D01*
X98896234Y-115464315D01*
X98908625Y-115453448D01*
X98927437Y-115439013D01*
X98933987Y-115433987D01*
X98958474Y-115402075D01*
X98958478Y-115402071D01*
X98963283Y-115395809D01*
X98965191Y-115394416D01*
X98969341Y-115389684D01*
X98969345Y-115389680D01*
X98970329Y-115390664D01*
X99020624Y-115353945D01*
X99091495Y-115349728D01*
X99152259Y-115383346D01*
X99187537Y-115418563D01*
X99221616Y-115480846D01*
X99216613Y-115551666D01*
X99187692Y-115596754D01*
X99105335Y-115679254D01*
X99096323Y-115690665D01*
X99011258Y-115828668D01*
X99005111Y-115841849D01*
X98953936Y-115996135D01*
X98951069Y-116009511D01*
X98941402Y-116103863D01*
X98941074Y-116110280D01*
X98941074Y-116147810D01*
X98945549Y-116163049D01*
X98946939Y-116164254D01*
X98954622Y-116165925D01*
X100277074Y-116165925D01*
X100345195Y-116185927D01*
X100391688Y-116239583D01*
X100403074Y-116291925D01*
X100403074Y-117422309D01*
X100407549Y-117437548D01*
X100408939Y-117438753D01*
X100416622Y-117440424D01*
X100646169Y-117440424D01*
X100652688Y-117440087D01*
X100748280Y-117430168D01*
X100761674Y-117427276D01*
X100915858Y-117375837D01*
X100929036Y-117369664D01*
X101066881Y-117284362D01*
X101078282Y-117275326D01*
X101192813Y-117160596D01*
X101201825Y-117149185D01*
X101264788Y-117047040D01*
X101317560Y-116999547D01*
X101387632Y-116988123D01*
X101438163Y-117005896D01*
X101486372Y-117035612D01*
X101499558Y-117041761D01*
X101648311Y-117091101D01*
X101661687Y-117093968D01*
X101752594Y-117103282D01*
X101759010Y-117103610D01*
X101782382Y-117103610D01*
X101797621Y-117099135D01*
X101798826Y-117097745D01*
X101800497Y-117090062D01*
X101800497Y-117085495D01*
X102308497Y-117085495D01*
X102312972Y-117100734D01*
X102314362Y-117101939D01*
X102322045Y-117103610D01*
X102349935Y-117103610D01*
X102356450Y-117103273D01*
X102448554Y-117093716D01*
X102461953Y-117090822D01*
X102610604Y-117041229D01*
X102623783Y-117035055D01*
X102756670Y-116952822D01*
X102768071Y-116943786D01*
X102878483Y-116833181D01*
X102887495Y-116821770D01*
X102969501Y-116688730D01*
X102975648Y-116675549D01*
X103024988Y-116526796D01*
X103027855Y-116513420D01*
X103037169Y-116422513D01*
X103037426Y-116417484D01*
X103033022Y-116402486D01*
X103031632Y-116401281D01*
X103023949Y-116399610D01*
X102326612Y-116399610D01*
X102311373Y-116404085D01*
X102310168Y-116405475D01*
X102308497Y-116413158D01*
X102308497Y-117085495D01*
X101800497Y-117085495D01*
X101800497Y-116017610D01*
X101820499Y-115949489D01*
X101874155Y-115902996D01*
X101926497Y-115891610D01*
X103019382Y-115891610D01*
X103034621Y-115887135D01*
X103035826Y-115885745D01*
X103037497Y-115878062D01*
X103037497Y-115875172D01*
X103037160Y-115868657D01*
X103027603Y-115776553D01*
X103024709Y-115763154D01*
X102975116Y-115614503D01*
X102968942Y-115601324D01*
X102886709Y-115468437D01*
X102873126Y-115451299D01*
X102875056Y-115449769D01*
X102846594Y-115397730D01*
X102851610Y-115326911D01*
X102875296Y-115289993D01*
X102874340Y-115289238D01*
X102878878Y-115283492D01*
X102884049Y-115278312D01*
X102924420Y-115212818D01*
X102969959Y-115138941D01*
X102969960Y-115138939D01*
X102973799Y-115132711D01*
X103027646Y-114970367D01*
X103037997Y-114869342D01*
X103037997Y-114321878D01*
X103036569Y-114308109D01*
X103028292Y-114228341D01*
X103027384Y-114219591D01*
X102981742Y-114082786D01*
X102979158Y-114011839D01*
X103015341Y-113950755D01*
X103078805Y-113918930D01*
X103149401Y-113926469D01*
X103190361Y-113953817D01*
X103532262Y-114295718D01*
X103543129Y-114308109D01*
X103562590Y-114333471D01*
X103569140Y-114338497D01*
X103594498Y-114357955D01*
X103594514Y-114357969D01*
X103609206Y-114369242D01*
X103689701Y-114431008D01*
X103837726Y-114492322D01*
X103845913Y-114493400D01*
X103845914Y-114493400D01*
X103857119Y-114494875D01*
X103871635Y-114496786D01*
X103953398Y-114507550D01*
X104018325Y-114536272D01*
X104026047Y-114543377D01*
X104143793Y-114661123D01*
X104189946Y-114689074D01*
X104237851Y-114741469D01*
X104250674Y-114796849D01*
X104250674Y-115042636D01*
X104230672Y-115110757D01*
X104205695Y-115138194D01*
X104204957Y-115138641D01*
X104083699Y-115259899D01*
X103994866Y-115406581D01*
X103992595Y-115413828D01*
X103992594Y-115413830D01*
X103980852Y-115451299D01*
X103943585Y-115570218D01*
X103936838Y-115643645D01*
X103936839Y-116306914D01*
X103943585Y-116380342D01*
X103945584Y-116386720D01*
X103945584Y-116386721D01*
X103950525Y-116402486D01*
X103994866Y-116543979D01*
X104083699Y-116690661D01*
X104204957Y-116811919D01*
X104351639Y-116900752D01*
X104358886Y-116903023D01*
X104358888Y-116903024D01*
X104425174Y-116923797D01*
X104515276Y-116952033D01*
X104588703Y-116958780D01*
X104591601Y-116958780D01*
X104846003Y-116958779D01*
X105101972Y-116958779D01*
X105104830Y-116958516D01*
X105104839Y-116958516D01*
X105140342Y-116955254D01*
X105175400Y-116952033D01*
X105183368Y-116949536D01*
X105331788Y-116903024D01*
X105331790Y-116903023D01*
X105339037Y-116900752D01*
X105485719Y-116811919D01*
X105581597Y-116716041D01*
X105643909Y-116682015D01*
X105714724Y-116687080D01*
X105759787Y-116716041D01*
X105849895Y-116806149D01*
X105861764Y-116815456D01*
X105995350Y-116896359D01*
X106009095Y-116902565D01*
X106158982Y-116949536D01*
X106172032Y-116952149D01*
X106226924Y-116957193D01*
X106238462Y-116953805D01*
X106239667Y-116952415D01*
X106241338Y-116944732D01*
X106241338Y-116940164D01*
X106749338Y-116940164D01*
X106753813Y-116955403D01*
X106755203Y-116956608D01*
X106759632Y-116957571D01*
X106818653Y-116952148D01*
X106831689Y-116949537D01*
X106981581Y-116902565D01*
X106995326Y-116896359D01*
X107128912Y-116815456D01*
X107140781Y-116806149D01*
X107251207Y-116695723D01*
X107260514Y-116683854D01*
X107341417Y-116550268D01*
X107347623Y-116536523D01*
X107394594Y-116386636D01*
X107397207Y-116373586D01*
X107403072Y-116309759D01*
X107403338Y-116303971D01*
X107403338Y-116247395D01*
X107398863Y-116232156D01*
X107397473Y-116230951D01*
X107389790Y-116229280D01*
X106767453Y-116229280D01*
X106752214Y-116233755D01*
X106751009Y-116235145D01*
X106749338Y-116242828D01*
X106749338Y-116940164D01*
X106241338Y-116940164D01*
X106241338Y-115847280D01*
X106261340Y-115779159D01*
X106314996Y-115732666D01*
X106367338Y-115721280D01*
X107385222Y-115721280D01*
X107400461Y-115716805D01*
X107401666Y-115715415D01*
X107403337Y-115707732D01*
X107403337Y-115646575D01*
X107403074Y-115640826D01*
X107397206Y-115576965D01*
X107394595Y-115563929D01*
X107347623Y-115414037D01*
X107341417Y-115400292D01*
X107339795Y-115397614D01*
X107339209Y-115395402D01*
X107338289Y-115393364D01*
X107338629Y-115393211D01*
X107321616Y-115328984D01*
X107343426Y-115261421D01*
X107398302Y-115216374D01*
X107407695Y-115212818D01*
X107541784Y-115168083D01*
X107554962Y-115161910D01*
X107692807Y-115076608D01*
X107704208Y-115067572D01*
X107818739Y-114952842D01*
X107827751Y-114941431D01*
X107912816Y-114803428D01*
X107918963Y-114790247D01*
X107970138Y-114635961D01*
X107973005Y-114622585D01*
X107982672Y-114528233D01*
X107983000Y-114521817D01*
X107983000Y-114496786D01*
X107978525Y-114481547D01*
X107977135Y-114480342D01*
X107969452Y-114478671D01*
X106622000Y-114478671D01*
X106553879Y-114458669D01*
X106507386Y-114405013D01*
X106496000Y-114352671D01*
X106496000Y-114096671D01*
X106516002Y-114028550D01*
X106569658Y-113982057D01*
X106622000Y-113970671D01*
X107964884Y-113970671D01*
X107980123Y-113966196D01*
X107981328Y-113964806D01*
X107982999Y-113957123D01*
X107982999Y-113927576D01*
X107982662Y-113921057D01*
X107972743Y-113825465D01*
X107969851Y-113812071D01*
X107918412Y-113657887D01*
X107912239Y-113644709D01*
X107826937Y-113506864D01*
X107817901Y-113495463D01*
X107703172Y-113380933D01*
X107694238Y-113373877D01*
X107653177Y-113315959D01*
X107649947Y-113245036D01*
X107685574Y-113183625D01*
X107693407Y-113176825D01*
X107699348Y-113173149D01*
X107824305Y-113047974D01*
X107828146Y-113041743D01*
X107913275Y-112903639D01*
X107913276Y-112903637D01*
X107917115Y-112897409D01*
X107956288Y-112779305D01*
X107970632Y-112736060D01*
X107970632Y-112736058D01*
X107972797Y-112729532D01*
X107983500Y-112625071D01*
X107983500Y-112024271D01*
X107980982Y-112000000D01*
X107973238Y-111925363D01*
X107973237Y-111925359D01*
X107972526Y-111918505D01*
X107965486Y-111897402D01*
X107918868Y-111757673D01*
X107916550Y-111750725D01*
X107823478Y-111600323D01*
X107698303Y-111475366D01*
X107692072Y-111471525D01*
X107601396Y-111415631D01*
X107553902Y-111362858D01*
X107541512Y-111308371D01*
X107541512Y-110244669D01*
X114242001Y-110244669D01*
X114242371Y-110251490D01*
X114247895Y-110302352D01*
X114251521Y-110317604D01*
X114296676Y-110438054D01*
X114305214Y-110453649D01*
X114381715Y-110555724D01*
X114394276Y-110568285D01*
X114496351Y-110644786D01*
X114511946Y-110653324D01*
X114632394Y-110698478D01*
X114647649Y-110702105D01*
X114698514Y-110707631D01*
X114705328Y-110708000D01*
X115127885Y-110708000D01*
X115143124Y-110703525D01*
X115144329Y-110702135D01*
X115146000Y-110694452D01*
X115146000Y-110689884D01*
X115654000Y-110689884D01*
X115658475Y-110705123D01*
X115659865Y-110706328D01*
X115667548Y-110707999D01*
X116094669Y-110707999D01*
X116101490Y-110707629D01*
X116152352Y-110702105D01*
X116167604Y-110698479D01*
X116288054Y-110653324D01*
X116303649Y-110644786D01*
X116405724Y-110568285D01*
X116418285Y-110555724D01*
X116494786Y-110453649D01*
X116503324Y-110438054D01*
X116548478Y-110317606D01*
X116552105Y-110302351D01*
X116557631Y-110251486D01*
X116558000Y-110244672D01*
X116558000Y-110022115D01*
X116553525Y-110006876D01*
X116552135Y-110005671D01*
X116544452Y-110004000D01*
X115672115Y-110004000D01*
X115656876Y-110008475D01*
X115655671Y-110009865D01*
X115654000Y-110017548D01*
X115654000Y-110689884D01*
X115146000Y-110689884D01*
X115146000Y-110022115D01*
X115141525Y-110006876D01*
X115140135Y-110005671D01*
X115132452Y-110004000D01*
X114260116Y-110004000D01*
X114244877Y-110008475D01*
X114243672Y-110009865D01*
X114242001Y-110017548D01*
X114242001Y-110244669D01*
X107541512Y-110244669D01*
X107541512Y-109691938D01*
X107561514Y-109623817D01*
X107578417Y-109602843D01*
X108235855Y-108945405D01*
X108298167Y-108911379D01*
X108324950Y-108908500D01*
X110810271Y-108908500D01*
X110878392Y-108928502D01*
X110924885Y-108982158D01*
X110936271Y-109034500D01*
X110936271Y-109116500D01*
X110941500Y-109189611D01*
X110960079Y-109252885D01*
X110980046Y-109320885D01*
X110982696Y-109329911D01*
X110998197Y-109354031D01*
X111056878Y-109445341D01*
X111056880Y-109445344D01*
X111061750Y-109452921D01*
X111068560Y-109458822D01*
X111165445Y-109542774D01*
X111165448Y-109542776D01*
X111172257Y-109548676D01*
X111180454Y-109552420D01*
X111180455Y-109552420D01*
X111224435Y-109572505D01*
X111305266Y-109609419D01*
X111450000Y-109630229D01*
X114575000Y-109630229D01*
X114606986Y-109627941D01*
X114641373Y-109625482D01*
X114641374Y-109625482D01*
X114648111Y-109625000D01*
X114728260Y-109601466D01*
X114779765Y-109586343D01*
X114779767Y-109586342D01*
X114788411Y-109583804D01*
X114795989Y-109578934D01*
X114795991Y-109578933D01*
X114893913Y-109516002D01*
X114962034Y-109496000D01*
X116539884Y-109496000D01*
X116555123Y-109491525D01*
X116556328Y-109490135D01*
X116557999Y-109482452D01*
X116557999Y-109255331D01*
X116557629Y-109248510D01*
X116552105Y-109197648D01*
X116548479Y-109182396D01*
X116503323Y-109061944D01*
X116501160Y-109057993D01*
X116500205Y-109053625D01*
X116500172Y-109053538D01*
X116500185Y-109053533D01*
X116485990Y-108988637D01*
X116497065Y-108945140D01*
X116497421Y-108944362D01*
X116542919Y-108844734D01*
X116563729Y-108700000D01*
X116563729Y-107802659D01*
X116583731Y-107734538D01*
X116637387Y-107688045D01*
X116707661Y-107677941D01*
X116729396Y-107683066D01*
X116843715Y-107720984D01*
X116843717Y-107720984D01*
X116850243Y-107723149D01*
X116857080Y-107723849D01*
X116857082Y-107723850D01*
X116898401Y-107728083D01*
X116951268Y-107733500D01*
X117548732Y-107733500D01*
X117551978Y-107733163D01*
X117551982Y-107733163D01*
X117586083Y-107729625D01*
X117651019Y-107722887D01*
X117713526Y-107702033D01*
X117806324Y-107671073D01*
X117806326Y-107671072D01*
X117813268Y-107668756D01*
X117822483Y-107663054D01*
X117952485Y-107582606D01*
X117958713Y-107578752D01*
X118079552Y-107457702D01*
X118083395Y-107451468D01*
X118088379Y-107443383D01*
X118141152Y-107395890D01*
X118195638Y-107383500D01*
X119920761Y-107383500D01*
X119988882Y-107403502D01*
X120009856Y-107420405D01*
X120735685Y-108146234D01*
X120746545Y-108158616D01*
X120765464Y-108183271D01*
X120791063Y-108249489D01*
X120791500Y-108259973D01*
X120791500Y-108423134D01*
X120791869Y-108426531D01*
X120798255Y-108485316D01*
X120796116Y-108485548D01*
X120796166Y-108514512D01*
X120798748Y-108514793D01*
X120792369Y-108573514D01*
X120792000Y-108580327D01*
X120792001Y-108919668D01*
X120792371Y-108926490D01*
X120798748Y-108985207D01*
X120796353Y-108985467D01*
X120796351Y-109014533D01*
X120798748Y-109014793D01*
X120792369Y-109073514D01*
X120792000Y-109080327D01*
X120792001Y-109419668D01*
X120792371Y-109426490D01*
X120797895Y-109477352D01*
X120801521Y-109492604D01*
X120846676Y-109613054D01*
X120855214Y-109628649D01*
X120931715Y-109730724D01*
X120944276Y-109743285D01*
X121046351Y-109819786D01*
X121061946Y-109828324D01*
X121182394Y-109873478D01*
X121197649Y-109877105D01*
X121248514Y-109882631D01*
X121255328Y-109883000D01*
X121894669Y-109882999D01*
X121901490Y-109882629D01*
X121952352Y-109877105D01*
X121967604Y-109873479D01*
X122036404Y-109847687D01*
X122104752Y-109842684D01*
X122105266Y-109842919D01*
X122113497Y-109844102D01*
X122113499Y-109844103D01*
X122168348Y-109851989D01*
X122250000Y-109863729D01*
X122950000Y-109863729D01*
X122953347Y-109863369D01*
X122953350Y-109863369D01*
X122993564Y-109859046D01*
X123059201Y-109851989D01*
X123066579Y-109849237D01*
X123066588Y-109849235D01*
X123146467Y-109819441D01*
X123217283Y-109814375D01*
X123279595Y-109848400D01*
X123313620Y-109910712D01*
X123316500Y-109937496D01*
X123316500Y-111755761D01*
X123296498Y-111823882D01*
X123279595Y-111844856D01*
X123220048Y-111904403D01*
X123157736Y-111938429D01*
X123093287Y-111934358D01*
X123093087Y-111935116D01*
X123089256Y-111934104D01*
X123088895Y-111934081D01*
X123088089Y-111933796D01*
X123083212Y-111932069D01*
X123078123Y-111931162D01*
X123078121Y-111931162D01*
X122868373Y-111893800D01*
X122868367Y-111893799D01*
X122863284Y-111892894D01*
X122789452Y-111891992D01*
X122645081Y-111890228D01*
X122645079Y-111890228D01*
X122639911Y-111890165D01*
X122419091Y-111923955D01*
X122206756Y-111993357D01*
X122008607Y-112096507D01*
X122004474Y-112099610D01*
X122004471Y-112099612D01*
X121834100Y-112227530D01*
X121829965Y-112230635D01*
X121675629Y-112392138D01*
X121549743Y-112576680D01*
X121547564Y-112581375D01*
X121475762Y-112736060D01*
X121455688Y-112779305D01*
X121395989Y-112994570D01*
X121372251Y-113216695D01*
X121372548Y-113221848D01*
X121372548Y-113221851D01*
X121375139Y-113266786D01*
X121385110Y-113439715D01*
X121386247Y-113444761D01*
X121386248Y-113444767D01*
X121400243Y-113506864D01*
X121434222Y-113657639D01*
X121481691Y-113774541D01*
X121502369Y-113825465D01*
X121518266Y-113864616D01*
X121556848Y-113927576D01*
X121618725Y-114028550D01*
X121634987Y-114055088D01*
X121781250Y-114223938D01*
X121953126Y-114366632D01*
X122146000Y-114479338D01*
X122150825Y-114481180D01*
X122150826Y-114481181D01*
X122219880Y-114507550D01*
X122354692Y-114559030D01*
X122359760Y-114560061D01*
X122359763Y-114560062D01*
X122467017Y-114581883D01*
X122573597Y-114603567D01*
X122578772Y-114603757D01*
X122578774Y-114603757D01*
X122791673Y-114611564D01*
X122791677Y-114611564D01*
X122796837Y-114611753D01*
X122801957Y-114611097D01*
X122801959Y-114611097D01*
X123013288Y-114584025D01*
X123013289Y-114584025D01*
X123018416Y-114583368D01*
X123023366Y-114581883D01*
X123227429Y-114520661D01*
X123227434Y-114520659D01*
X123232384Y-114519174D01*
X123432994Y-114420896D01*
X123614860Y-114291173D01*
X123723091Y-114183319D01*
X123785462Y-114149404D01*
X123856268Y-114154592D01*
X123913030Y-114197238D01*
X123930012Y-114228341D01*
X123959916Y-114308109D01*
X123974385Y-114346705D01*
X124061739Y-114463261D01*
X124178295Y-114550615D01*
X124314684Y-114601745D01*
X124376866Y-114608500D01*
X126173134Y-114608500D01*
X126235316Y-114601745D01*
X126371705Y-114550615D01*
X126488261Y-114463261D01*
X126575615Y-114346705D01*
X126626745Y-114210316D01*
X126633500Y-114148134D01*
X126633500Y-112351866D01*
X126626745Y-112289684D01*
X126575615Y-112153295D01*
X126488261Y-112036739D01*
X126371705Y-111949385D01*
X126235316Y-111898255D01*
X126173134Y-111891500D01*
X124659500Y-111891500D01*
X124591379Y-111871498D01*
X124544886Y-111817842D01*
X124533500Y-111765500D01*
X124533500Y-110204867D01*
X124553502Y-110136746D01*
X124607158Y-110090253D01*
X124677432Y-110080149D01*
X124694650Y-110083869D01*
X124742245Y-110097697D01*
X124748652Y-110098201D01*
X124748656Y-110098202D01*
X124776267Y-110100375D01*
X124776273Y-110100375D01*
X124778722Y-110100568D01*
X124978589Y-110100568D01*
X125178699Y-110100567D01*
X125215177Y-110097697D01*
X125326530Y-110065346D01*
X125363694Y-110054549D01*
X125363696Y-110054548D01*
X125371307Y-110052337D01*
X125378132Y-110048301D01*
X125378136Y-110048299D01*
X125424572Y-110020837D01*
X125493388Y-110003377D01*
X125552850Y-110020837D01*
X125599286Y-110048299D01*
X125599290Y-110048301D01*
X125606115Y-110052337D01*
X125613726Y-110054548D01*
X125613728Y-110054549D01*
X125650892Y-110065346D01*
X125762245Y-110097697D01*
X125768652Y-110098201D01*
X125768656Y-110098202D01*
X125796267Y-110100375D01*
X125796273Y-110100375D01*
X125798722Y-110100568D01*
X125998589Y-110100568D01*
X126198699Y-110100567D01*
X126235177Y-110097697D01*
X126346530Y-110065346D01*
X126383694Y-110054549D01*
X126383696Y-110054548D01*
X126391307Y-110052337D01*
X126428976Y-110030060D01*
X126524431Y-109973608D01*
X126531252Y-109969574D01*
X126646217Y-109854609D01*
X126652430Y-109844103D01*
X126724945Y-109721487D01*
X126724945Y-109721486D01*
X126728980Y-109714664D01*
X126737186Y-109686421D01*
X126767751Y-109581212D01*
X126774340Y-109558534D01*
X126775581Y-109542774D01*
X126777018Y-109524512D01*
X126777018Y-109524506D01*
X126777211Y-109522057D01*
X126777210Y-109022080D01*
X126774340Y-108985602D01*
X126728980Y-108829472D01*
X126678108Y-108743451D01*
X126650251Y-108696348D01*
X126646217Y-108689527D01*
X126644133Y-108687443D01*
X126618994Y-108623419D01*
X126618500Y-108612276D01*
X126618500Y-108433169D01*
X126638502Y-108365048D01*
X126647346Y-108354074D01*
X126647044Y-108353839D01*
X126651900Y-108347579D01*
X126657506Y-108341973D01*
X126740269Y-108202028D01*
X126745511Y-108183987D01*
X126779541Y-108066854D01*
X126785629Y-108045898D01*
X126787024Y-108028184D01*
X126788307Y-108011876D01*
X126788307Y-108011870D01*
X126788500Y-108009421D01*
X126788499Y-107509444D01*
X126785629Y-107472966D01*
X126757505Y-107376162D01*
X126742481Y-107324449D01*
X126742480Y-107324447D01*
X126740269Y-107316836D01*
X126698511Y-107246226D01*
X126661540Y-107183712D01*
X126657506Y-107176891D01*
X126651900Y-107171285D01*
X126647044Y-107165025D01*
X126649172Y-107163375D01*
X126621379Y-107112478D01*
X126618500Y-107085695D01*
X126618500Y-106558136D01*
X126619578Y-106541690D01*
X126622672Y-106518188D01*
X126623750Y-106510000D01*
X126618500Y-106470122D01*
X126618500Y-106470115D01*
X126602838Y-106351150D01*
X126541524Y-106203125D01*
X126518511Y-106173134D01*
X126468477Y-106107928D01*
X126468474Y-106107925D01*
X126443987Y-106076013D01*
X126435597Y-106069575D01*
X126418621Y-106056548D01*
X126406230Y-106045681D01*
X125714315Y-105353766D01*
X125703448Y-105341375D01*
X125689013Y-105322563D01*
X125683987Y-105316013D01*
X125652075Y-105291526D01*
X125652069Y-105291520D01*
X125563429Y-105223504D01*
X125563427Y-105223503D01*
X125556876Y-105218476D01*
X125408851Y-105157162D01*
X125400664Y-105156084D01*
X125400663Y-105156084D01*
X125389458Y-105154609D01*
X125358262Y-105150502D01*
X125289885Y-105141500D01*
X125289882Y-105141500D01*
X125289874Y-105141499D01*
X125258189Y-105137328D01*
X125250000Y-105136250D01*
X125218307Y-105140422D01*
X125201864Y-105141500D01*
X121298136Y-105141500D01*
X121281693Y-105140422D01*
X121250000Y-105136250D01*
X121241811Y-105137328D01*
X121210126Y-105141499D01*
X121210117Y-105141500D01*
X121210115Y-105141500D01*
X121210109Y-105141501D01*
X121210107Y-105141501D01*
X121110543Y-105154609D01*
X121099336Y-105156084D01*
X121099334Y-105156085D01*
X121091149Y-105157162D01*
X120943124Y-105218476D01*
X120914778Y-105240227D01*
X120847937Y-105291515D01*
X120847921Y-105291529D01*
X120822566Y-105310984D01*
X120822563Y-105310987D01*
X120816013Y-105316013D01*
X120810983Y-105322568D01*
X120796548Y-105341379D01*
X120785681Y-105353770D01*
X120009856Y-106129595D01*
X119947544Y-106163621D01*
X119920761Y-106166500D01*
X118195499Y-106166500D01*
X118127378Y-106146498D01*
X118088356Y-106106805D01*
X118082605Y-106097512D01*
X118082601Y-106097507D01*
X118078752Y-106091287D01*
X118073574Y-106086118D01*
X118069026Y-106080380D01*
X118070832Y-106078949D01*
X118042098Y-106026425D01*
X118047108Y-105955605D01*
X118070499Y-105919147D01*
X118069448Y-105918317D01*
X118082998Y-105901160D01*
X118165004Y-105768120D01*
X118171151Y-105754939D01*
X118220491Y-105606186D01*
X118223358Y-105592810D01*
X118232672Y-105501903D01*
X118232929Y-105496874D01*
X118228525Y-105481876D01*
X118227135Y-105480671D01*
X118219452Y-105479000D01*
X116285115Y-105479000D01*
X116269876Y-105483475D01*
X116268671Y-105484865D01*
X116267000Y-105492548D01*
X116267000Y-105495438D01*
X116267337Y-105501953D01*
X116276894Y-105594057D01*
X116279788Y-105607456D01*
X116288157Y-105632541D01*
X116290741Y-105703490D01*
X116254558Y-105764574D01*
X116191094Y-105796399D01*
X116155026Y-105797680D01*
X116101533Y-105791869D01*
X116101529Y-105791869D01*
X116098134Y-105791500D01*
X114701866Y-105791500D01*
X114639684Y-105798255D01*
X114503295Y-105849385D01*
X114386739Y-105936739D01*
X114299385Y-106053295D01*
X114296233Y-106061704D01*
X114291923Y-106069575D01*
X114290259Y-106068664D01*
X114254337Y-106116490D01*
X114187776Y-106141193D01*
X114178991Y-106141500D01*
X111717580Y-106141500D01*
X111649459Y-106121498D01*
X111628485Y-106104595D01*
X110477016Y-104953126D01*
X116267071Y-104953126D01*
X116271475Y-104968124D01*
X116272865Y-104969329D01*
X116280548Y-104971000D01*
X116977885Y-104971000D01*
X116993124Y-104966525D01*
X116994329Y-104965135D01*
X116996000Y-104957452D01*
X116996000Y-104952885D01*
X117504000Y-104952885D01*
X117508475Y-104968124D01*
X117509865Y-104969329D01*
X117517548Y-104971000D01*
X118214885Y-104971000D01*
X118230124Y-104966525D01*
X118231329Y-104965135D01*
X118233000Y-104957452D01*
X118233000Y-104954562D01*
X118232663Y-104948047D01*
X118223106Y-104855943D01*
X118220212Y-104842544D01*
X118170619Y-104693893D01*
X118164445Y-104680714D01*
X118082212Y-104547827D01*
X118073176Y-104536426D01*
X117962571Y-104426014D01*
X117951160Y-104417002D01*
X117818120Y-104334996D01*
X117804939Y-104328849D01*
X117656186Y-104279509D01*
X117642810Y-104276642D01*
X117551903Y-104267328D01*
X117545486Y-104267000D01*
X117522115Y-104267000D01*
X117506876Y-104271475D01*
X117505671Y-104272865D01*
X117504000Y-104280548D01*
X117504000Y-104952885D01*
X116996000Y-104952885D01*
X116996000Y-104285115D01*
X116991525Y-104269876D01*
X116990135Y-104268671D01*
X116982452Y-104267000D01*
X116954562Y-104267000D01*
X116948047Y-104267337D01*
X116855943Y-104276894D01*
X116842544Y-104279788D01*
X116693893Y-104329381D01*
X116680714Y-104335555D01*
X116547827Y-104417788D01*
X116536426Y-104426824D01*
X116426014Y-104537429D01*
X116417002Y-104548840D01*
X116334996Y-104681880D01*
X116328849Y-104695061D01*
X116279509Y-104843814D01*
X116276642Y-104857190D01*
X116267328Y-104948097D01*
X116267071Y-104953126D01*
X110477016Y-104953126D01*
X109514449Y-103990559D01*
X109480423Y-103928247D01*
X109477544Y-103901464D01*
X109477544Y-100156340D01*
X109497546Y-100088219D01*
X109548126Y-100045952D01*
X109547024Y-100043790D01*
X109551433Y-100041544D01*
X109556007Y-100039649D01*
X109595240Y-100015607D01*
X109744600Y-99924079D01*
X112001204Y-99924079D01*
X112006931Y-99931729D01*
X112178086Y-100036614D01*
X112186881Y-100041096D01*
X112397032Y-100128143D01*
X112406417Y-100131192D01*
X112627598Y-100184294D01*
X112637345Y-100185837D01*
X112864114Y-100203684D01*
X112873974Y-100203684D01*
X113100743Y-100185837D01*
X113110490Y-100184294D01*
X113331671Y-100131192D01*
X113341056Y-100128143D01*
X113551207Y-100041096D01*
X113560002Y-100036614D01*
X113727489Y-99933977D01*
X113736951Y-99923519D01*
X113733168Y-99914743D01*
X112881856Y-99063431D01*
X112867912Y-99055817D01*
X112866079Y-99055948D01*
X112859464Y-99060199D01*
X112007964Y-99911699D01*
X112001204Y-99924079D01*
X109744600Y-99924079D01*
X109754246Y-99918168D01*
X109754252Y-99918164D01*
X109758460Y-99915585D01*
X109939013Y-99761378D01*
X110093220Y-99580825D01*
X110095799Y-99576617D01*
X110095803Y-99576611D01*
X110214698Y-99382592D01*
X110217284Y-99378372D01*
X110219273Y-99373572D01*
X110306255Y-99163576D01*
X110306256Y-99163574D01*
X110308149Y-99159003D01*
X110345482Y-99003500D01*
X110362424Y-98932933D01*
X110362425Y-98932927D01*
X110363579Y-98928120D01*
X110381821Y-98696339D01*
X111356769Y-98696339D01*
X111374616Y-98923108D01*
X111376159Y-98932855D01*
X111429261Y-99154036D01*
X111432310Y-99163421D01*
X111519357Y-99373572D01*
X111523839Y-99382367D01*
X111626476Y-99549854D01*
X111636934Y-99559316D01*
X111645710Y-99555533D01*
X112497022Y-98704221D01*
X112503400Y-98692541D01*
X113233452Y-98692541D01*
X113233583Y-98694374D01*
X113237834Y-98700989D01*
X114089334Y-99552489D01*
X114101714Y-99559249D01*
X114109364Y-99553522D01*
X114214249Y-99382367D01*
X114218731Y-99373572D01*
X114305778Y-99163421D01*
X114308827Y-99154036D01*
X114361929Y-98932855D01*
X114363472Y-98923108D01*
X114381319Y-98696339D01*
X114381319Y-98686479D01*
X114363472Y-98459710D01*
X114361929Y-98449963D01*
X114308827Y-98228782D01*
X114305778Y-98219397D01*
X114218731Y-98009246D01*
X114214249Y-98000451D01*
X114111612Y-97832964D01*
X114101154Y-97823502D01*
X114092378Y-97827285D01*
X113241066Y-98678597D01*
X113233452Y-98692541D01*
X112503400Y-98692541D01*
X112504636Y-98690277D01*
X112504505Y-98688444D01*
X112500254Y-98681829D01*
X111648754Y-97830329D01*
X111636374Y-97823569D01*
X111628724Y-97829296D01*
X111523839Y-98000451D01*
X111519357Y-98009246D01*
X111432310Y-98219397D01*
X111429261Y-98228782D01*
X111376159Y-98449963D01*
X111374616Y-98459710D01*
X111356769Y-98686479D01*
X111356769Y-98696339D01*
X110381821Y-98696339D01*
X110382209Y-98691409D01*
X110363579Y-98454698D01*
X110357014Y-98427349D01*
X110309304Y-98228627D01*
X110308149Y-98223815D01*
X110268668Y-98128498D01*
X110219179Y-98009020D01*
X110219177Y-98009016D01*
X110217284Y-98004446D01*
X110208286Y-97989762D01*
X110095803Y-97806207D01*
X110095799Y-97806201D01*
X110093220Y-97801993D01*
X109939013Y-97621440D01*
X109915353Y-97601232D01*
X109839561Y-97536500D01*
X109758460Y-97467233D01*
X109754252Y-97464654D01*
X109754246Y-97464650D01*
X109745514Y-97459299D01*
X112001137Y-97459299D01*
X112004920Y-97468075D01*
X112856232Y-98319387D01*
X112870176Y-98327001D01*
X112872009Y-98326870D01*
X112878624Y-98322619D01*
X113730124Y-97471119D01*
X113736884Y-97458739D01*
X113731157Y-97451089D01*
X113560002Y-97346204D01*
X113551207Y-97341722D01*
X113341056Y-97254675D01*
X113331671Y-97251626D01*
X113110490Y-97198524D01*
X113100743Y-97196981D01*
X112873974Y-97179134D01*
X112864114Y-97179134D01*
X112637345Y-97196981D01*
X112627598Y-97198524D01*
X112406417Y-97251626D01*
X112397032Y-97254675D01*
X112186881Y-97341722D01*
X112178086Y-97346204D01*
X112010599Y-97448841D01*
X112001137Y-97459299D01*
X109745514Y-97459299D01*
X109560227Y-97345755D01*
X109556007Y-97343169D01*
X109551437Y-97341276D01*
X109551433Y-97341274D01*
X109341211Y-97254198D01*
X109341209Y-97254197D01*
X109336638Y-97252304D01*
X109205048Y-97220712D01*
X109110568Y-97198029D01*
X109110562Y-97198028D01*
X109105755Y-97196874D01*
X108869044Y-97178244D01*
X108632333Y-97196874D01*
X108627526Y-97198028D01*
X108627520Y-97198029D01*
X108533040Y-97220712D01*
X108401450Y-97252304D01*
X108396879Y-97254197D01*
X108396877Y-97254198D01*
X108186655Y-97341274D01*
X108186651Y-97341276D01*
X108182081Y-97343169D01*
X108177861Y-97345755D01*
X107983842Y-97464650D01*
X107983836Y-97464654D01*
X107979628Y-97467233D01*
X107898527Y-97536500D01*
X107822736Y-97601232D01*
X107799075Y-97621440D01*
X107644868Y-97801993D01*
X107642289Y-97806201D01*
X107642285Y-97806207D01*
X107529802Y-97989762D01*
X107520804Y-98004446D01*
X107518911Y-98009016D01*
X107518909Y-98009020D01*
X107469420Y-98128498D01*
X107429939Y-98223815D01*
X107428784Y-98228627D01*
X107381075Y-98427349D01*
X107374509Y-98454698D01*
X107355879Y-98691409D01*
X107374509Y-98928120D01*
X107375663Y-98932927D01*
X107375664Y-98932933D01*
X107392606Y-99003500D01*
X107429939Y-99159003D01*
X107431832Y-99163574D01*
X107431833Y-99163576D01*
X107518816Y-99373572D01*
X107520804Y-99378372D01*
X107523390Y-99382592D01*
X107642285Y-99576611D01*
X107642289Y-99576617D01*
X107644868Y-99580825D01*
X107799075Y-99761378D01*
X107979628Y-99915585D01*
X107983836Y-99918164D01*
X107983842Y-99918168D01*
X108142848Y-100015607D01*
X108182081Y-100039649D01*
X108186655Y-100041544D01*
X108191064Y-100043790D01*
X108190040Y-100045799D01*
X108238036Y-100084469D01*
X108260544Y-100156340D01*
X108260544Y-104157567D01*
X108259466Y-104174010D01*
X108255294Y-104205703D01*
X108260544Y-104245583D01*
X108260544Y-104245588D01*
X108268644Y-104307112D01*
X108276206Y-104364554D01*
X108337520Y-104512579D01*
X108342547Y-104519130D01*
X108342548Y-104519132D01*
X108410564Y-104607772D01*
X108410570Y-104607778D01*
X108435057Y-104639690D01*
X108441612Y-104644720D01*
X108460423Y-104659155D01*
X108472814Y-104670022D01*
X110924426Y-107121634D01*
X110958452Y-107183946D01*
X110956497Y-107238682D01*
X110957081Y-107238766D01*
X110936271Y-107383500D01*
X110936271Y-107465500D01*
X110916269Y-107533621D01*
X110862613Y-107580114D01*
X110810271Y-107591500D01*
X108082060Y-107591500D01*
X108070203Y-107590941D01*
X108062463Y-107589211D01*
X108054538Y-107589460D01*
X108054537Y-107589460D01*
X107991599Y-107591438D01*
X107987641Y-107591500D01*
X107958568Y-107591500D01*
X107954634Y-107591997D01*
X107954632Y-107591997D01*
X107954189Y-107592053D01*
X107942354Y-107592985D01*
X107909564Y-107594016D01*
X107904089Y-107594188D01*
X107904088Y-107594188D01*
X107896169Y-107594437D01*
X107886803Y-107597158D01*
X107875571Y-107600421D01*
X107856218Y-107604429D01*
X107852743Y-107604868D01*
X107834936Y-107607118D01*
X107827568Y-107610035D01*
X107827565Y-107610036D01*
X107791982Y-107624125D01*
X107780747Y-107627971D01*
X107744016Y-107638642D01*
X107744013Y-107638643D01*
X107736400Y-107640855D01*
X107717935Y-107651775D01*
X107700195Y-107660466D01*
X107680244Y-107668365D01*
X107653157Y-107688045D01*
X107642874Y-107695516D01*
X107632952Y-107702033D01*
X107600023Y-107721507D01*
X107600019Y-107721510D01*
X107593193Y-107725547D01*
X107578029Y-107740711D01*
X107562996Y-107753551D01*
X107545643Y-107766159D01*
X107525333Y-107790710D01*
X107516198Y-107801752D01*
X107508208Y-107810532D01*
X106475407Y-108843333D01*
X106466627Y-108851323D01*
X106466625Y-108851325D01*
X106459932Y-108855572D01*
X106454506Y-108861350D01*
X106454505Y-108861351D01*
X106411408Y-108907245D01*
X106408653Y-108910087D01*
X106388085Y-108930655D01*
X106385368Y-108934158D01*
X106377660Y-108943183D01*
X106346040Y-108976855D01*
X106342219Y-108983806D01*
X106342218Y-108983807D01*
X106335709Y-108995646D01*
X106324855Y-109012170D01*
X106317169Y-109022080D01*
X106311708Y-109029120D01*
X106308561Y-109036392D01*
X106308560Y-109036394D01*
X106293358Y-109071523D01*
X106288136Y-109082183D01*
X106281100Y-109094982D01*
X106265888Y-109122651D01*
X106260553Y-109143429D01*
X106254154Y-109162119D01*
X106245632Y-109181812D01*
X106244392Y-109189643D01*
X106238406Y-109227436D01*
X106235999Y-109239059D01*
X106230820Y-109259232D01*
X106224512Y-109283800D01*
X106224512Y-109305247D01*
X106222961Y-109324957D01*
X106219606Y-109346140D01*
X106222380Y-109375480D01*
X106223953Y-109392126D01*
X106224512Y-109403984D01*
X106224512Y-111203398D01*
X106204510Y-111271519D01*
X106150854Y-111318012D01*
X106125396Y-111326464D01*
X106118834Y-111327145D01*
X105951054Y-111383121D01*
X105800652Y-111476193D01*
X105795479Y-111481375D01*
X105795474Y-111481379D01*
X105770976Y-111505920D01*
X105708694Y-111540000D01*
X105637874Y-111534997D01*
X105592708Y-111505998D01*
X105574555Y-111487845D01*
X105568056Y-111483909D01*
X105565925Y-111482238D01*
X105524662Y-111424464D01*
X105517674Y-111383086D01*
X105517674Y-103986849D01*
X105521631Y-103955521D01*
X105527544Y-103932492D01*
X105527544Y-103911046D01*
X105529095Y-103891335D01*
X105529271Y-103890227D01*
X105532450Y-103870153D01*
X105528103Y-103824168D01*
X105527544Y-103812310D01*
X105527544Y-100127655D01*
X105547546Y-100059534D01*
X105587709Y-100020223D01*
X105754237Y-99918174D01*
X105754247Y-99918167D01*
X105758460Y-99915585D01*
X105939013Y-99761378D01*
X106093220Y-99580825D01*
X106095799Y-99576617D01*
X106095803Y-99576611D01*
X106214698Y-99382592D01*
X106217284Y-99378372D01*
X106219273Y-99373572D01*
X106306255Y-99163576D01*
X106306256Y-99163574D01*
X106308149Y-99159003D01*
X106345482Y-99003500D01*
X106362424Y-98932933D01*
X106362425Y-98932927D01*
X106363579Y-98928120D01*
X106382209Y-98691409D01*
X106363579Y-98454698D01*
X106357014Y-98427349D01*
X106309304Y-98228627D01*
X106308149Y-98223815D01*
X106268668Y-98128498D01*
X106219179Y-98009020D01*
X106219177Y-98009016D01*
X106217284Y-98004446D01*
X106208286Y-97989762D01*
X106095803Y-97806207D01*
X106095799Y-97806201D01*
X106093220Y-97801993D01*
X105939013Y-97621440D01*
X105915353Y-97601232D01*
X105839561Y-97536500D01*
X105758460Y-97467233D01*
X105754252Y-97464654D01*
X105754246Y-97464650D01*
X105560227Y-97345755D01*
X105556007Y-97343169D01*
X105551437Y-97341276D01*
X105551433Y-97341274D01*
X105341211Y-97254198D01*
X105341209Y-97254197D01*
X105336638Y-97252304D01*
X105205048Y-97220712D01*
X105110568Y-97198029D01*
X105110562Y-97198028D01*
X105105755Y-97196874D01*
X104869044Y-97178244D01*
X104632333Y-97196874D01*
X104627526Y-97198028D01*
X104627520Y-97198029D01*
X104533040Y-97220712D01*
X104401450Y-97252304D01*
X104396879Y-97254197D01*
X104396877Y-97254198D01*
X104186655Y-97341274D01*
X104186651Y-97341276D01*
X104182081Y-97343169D01*
X104177861Y-97345755D01*
X103983842Y-97464650D01*
X103983836Y-97464654D01*
X103979628Y-97467233D01*
X103898527Y-97536500D01*
X103822736Y-97601232D01*
X103799075Y-97621440D01*
X103644868Y-97801993D01*
X103642289Y-97806201D01*
X103642285Y-97806207D01*
X103529802Y-97989762D01*
X103520804Y-98004446D01*
X103518911Y-98009016D01*
X103518909Y-98009020D01*
X103469420Y-98128498D01*
X103429939Y-98223815D01*
X103428784Y-98228627D01*
X103381075Y-98427349D01*
X103374509Y-98454698D01*
X103355879Y-98691409D01*
X103374509Y-98928120D01*
X103375663Y-98932927D01*
X103375664Y-98932933D01*
X103392606Y-99003500D01*
X103429939Y-99159003D01*
X103431832Y-99163574D01*
X103431833Y-99163576D01*
X103518816Y-99373572D01*
X103520804Y-99378372D01*
X103523390Y-99382592D01*
X103642285Y-99576611D01*
X103642289Y-99576617D01*
X103644868Y-99580825D01*
X103799075Y-99761378D01*
X103979628Y-99915585D01*
X103983841Y-99918167D01*
X103983851Y-99918174D01*
X104150379Y-100020223D01*
X104198010Y-100072870D01*
X104210544Y-100127655D01*
X104210544Y-103721629D01*
X104206587Y-103752957D01*
X104200674Y-103775986D01*
X104200674Y-103797433D01*
X104199123Y-103817143D01*
X104195768Y-103838326D01*
X104199954Y-103882604D01*
X104200115Y-103884312D01*
X104200674Y-103896170D01*
X104200674Y-103943161D01*
X104180672Y-104011282D01*
X104127016Y-104057775D01*
X104056742Y-104067879D01*
X104030444Y-104061142D01*
X104009252Y-104053198D01*
X103947070Y-104046443D01*
X102250802Y-104046443D01*
X102188620Y-104053198D01*
X102052231Y-104104328D01*
X101935675Y-104191682D01*
X101848321Y-104308238D01*
X101797191Y-104444627D01*
X101790436Y-104506809D01*
X101790436Y-108103077D01*
X101797191Y-108165259D01*
X101848321Y-108301648D01*
X101935675Y-108418204D01*
X102052231Y-108505558D01*
X102188620Y-108556688D01*
X102250802Y-108563443D01*
X102364436Y-108563443D01*
X102432557Y-108583445D01*
X102479050Y-108637101D01*
X102490436Y-108689443D01*
X102490436Y-108789370D01*
X102470434Y-108857491D01*
X102416778Y-108903984D01*
X102351593Y-108914714D01*
X102291824Y-108908590D01*
X101744360Y-108908590D01*
X101741114Y-108908927D01*
X101741110Y-108908927D01*
X101711832Y-108911965D01*
X101642073Y-108919203D01*
X101631777Y-108922638D01*
X101486768Y-108971017D01*
X101486766Y-108971018D01*
X101479824Y-108973334D01*
X101473600Y-108977186D01*
X101473599Y-108977186D01*
X101391795Y-109027808D01*
X101334379Y-109063338D01*
X101329206Y-109068520D01*
X101323469Y-109073067D01*
X101322037Y-109071260D01*
X101269517Y-109099992D01*
X101198697Y-109094982D01*
X101162239Y-109071591D01*
X101161409Y-109072642D01*
X101144252Y-109059092D01*
X101011212Y-108977086D01*
X100998031Y-108970939D01*
X100849278Y-108921599D01*
X100835902Y-108918732D01*
X100744995Y-108909418D01*
X100739966Y-108909161D01*
X100724968Y-108913565D01*
X100723763Y-108914955D01*
X100722092Y-108922638D01*
X100722092Y-110020090D01*
X100702090Y-110088211D01*
X100648434Y-110134704D01*
X100596092Y-110146090D01*
X99528207Y-110146090D01*
X99512968Y-110150565D01*
X99511763Y-110151955D01*
X99510092Y-110159638D01*
X99510092Y-110187528D01*
X99510429Y-110194043D01*
X99519986Y-110286147D01*
X99522880Y-110299546D01*
X99573450Y-110451124D01*
X99576034Y-110522074D01*
X99539850Y-110583157D01*
X99476386Y-110614982D01*
X99453926Y-110617000D01*
X99251321Y-110617000D01*
X99243112Y-110617538D01*
X99143851Y-110630606D01*
X99128033Y-110634844D01*
X99000819Y-110687538D01*
X98930229Y-110695127D01*
X98866742Y-110663348D01*
X98830515Y-110602289D01*
X98827257Y-110558285D01*
X98830593Y-110525729D01*
X98830593Y-110133467D01*
X98850595Y-110065346D01*
X98867498Y-110044372D01*
X99310404Y-109601466D01*
X99372716Y-109567440D01*
X99443531Y-109572505D01*
X99500367Y-109615052D01*
X99507313Y-109628929D01*
X99515957Y-109636419D01*
X99523640Y-109638090D01*
X100195977Y-109638090D01*
X100211216Y-109633615D01*
X100212421Y-109632225D01*
X100214092Y-109624542D01*
X100214092Y-108927205D01*
X100209617Y-108911965D01*
X100199539Y-108903232D01*
X100161155Y-108843506D01*
X100161155Y-108772510D01*
X100192956Y-108718913D01*
X100311521Y-108600348D01*
X100373833Y-108566322D01*
X100400616Y-108563443D01*
X100747070Y-108563443D01*
X100809252Y-108556688D01*
X100945641Y-108505558D01*
X101062197Y-108418204D01*
X101149551Y-108301648D01*
X101200681Y-108165259D01*
X101207436Y-108103077D01*
X101207436Y-104506809D01*
X101200681Y-104444627D01*
X101149551Y-104308238D01*
X101062197Y-104191682D01*
X100945641Y-104104328D01*
X100809252Y-104053198D01*
X100747070Y-104046443D01*
X100633436Y-104046443D01*
X100565315Y-104026441D01*
X100518822Y-103972785D01*
X100507436Y-103920443D01*
X100507436Y-100444880D01*
X100508514Y-100428434D01*
X100511609Y-100404924D01*
X100512687Y-100396736D01*
X100503702Y-100328488D01*
X100514641Y-100258340D01*
X100561769Y-100205241D01*
X100630123Y-100186051D01*
X100638505Y-100186430D01*
X100869044Y-100204574D01*
X101105755Y-100185944D01*
X101110562Y-100184790D01*
X101110568Y-100184789D01*
X101256652Y-100149717D01*
X101336638Y-100130514D01*
X101341211Y-100128620D01*
X101551433Y-100041544D01*
X101551437Y-100041542D01*
X101556007Y-100039649D01*
X101595240Y-100015607D01*
X101754246Y-99918168D01*
X101754252Y-99918164D01*
X101758460Y-99915585D01*
X101939013Y-99761378D01*
X102093220Y-99580825D01*
X102095799Y-99576617D01*
X102095803Y-99576611D01*
X102214698Y-99382592D01*
X102217284Y-99378372D01*
X102219273Y-99373572D01*
X102306255Y-99163576D01*
X102306256Y-99163574D01*
X102308149Y-99159003D01*
X102345482Y-99003500D01*
X102362424Y-98932933D01*
X102362425Y-98932927D01*
X102363579Y-98928120D01*
X102382209Y-98691409D01*
X102363579Y-98454698D01*
X102357014Y-98427349D01*
X102309304Y-98228627D01*
X102308149Y-98223815D01*
X102268668Y-98128498D01*
X102219179Y-98009020D01*
X102219177Y-98009016D01*
X102217284Y-98004446D01*
X102208286Y-97989762D01*
X102095803Y-97806207D01*
X102095799Y-97806201D01*
X102093220Y-97801993D01*
X101939013Y-97621440D01*
X101915353Y-97601232D01*
X101839561Y-97536500D01*
X101758460Y-97467233D01*
X101754252Y-97464654D01*
X101754246Y-97464650D01*
X101560227Y-97345755D01*
X101556007Y-97343169D01*
X101551437Y-97341276D01*
X101551433Y-97341274D01*
X101341211Y-97254198D01*
X101341209Y-97254197D01*
X101336638Y-97252304D01*
X101205048Y-97220712D01*
X101110568Y-97198029D01*
X101110562Y-97198028D01*
X101105755Y-97196874D01*
X100869044Y-97178244D01*
X100632333Y-97196874D01*
X100627526Y-97198028D01*
X100627520Y-97198029D01*
X100533040Y-97220712D01*
X100401450Y-97252304D01*
X100396879Y-97254197D01*
X100396877Y-97254198D01*
X100186655Y-97341274D01*
X100186651Y-97341276D01*
X100182081Y-97343169D01*
X100177861Y-97345755D01*
X99983842Y-97464650D01*
X99983836Y-97464654D01*
X99979628Y-97467233D01*
X99898527Y-97536500D01*
X99822736Y-97601232D01*
X99799075Y-97621440D01*
X99644868Y-97801993D01*
X99642289Y-97806201D01*
X99642285Y-97806207D01*
X99529802Y-97989762D01*
X99520804Y-98004446D01*
X99518911Y-98009016D01*
X99518909Y-98009020D01*
X99469420Y-98128498D01*
X99429939Y-98223815D01*
X99428784Y-98228627D01*
X99381075Y-98427349D01*
X99374509Y-98454698D01*
X99355879Y-98691409D01*
X99374509Y-98928120D01*
X99375663Y-98932927D01*
X99375664Y-98932933D01*
X99428784Y-99154194D01*
X99429939Y-99159003D01*
X99431832Y-99163574D01*
X99433362Y-99168281D01*
X99432283Y-99168632D01*
X99439293Y-99233861D01*
X99415260Y-99288186D01*
X99353891Y-99368162D01*
X99292577Y-99516187D01*
X99292577Y-99516188D01*
X99290829Y-99529464D01*
X99283526Y-99584936D01*
X99276915Y-99635153D01*
X99276915Y-99635158D01*
X99271665Y-99675038D01*
X99273942Y-99692330D01*
X99275837Y-99706728D01*
X99276915Y-99723174D01*
X99276915Y-100335079D01*
X99275837Y-100351522D01*
X99271665Y-100383215D01*
X99272743Y-100391404D01*
X99276915Y-100423095D01*
X99276915Y-100423100D01*
X99283474Y-100472920D01*
X99289358Y-100517615D01*
X99290436Y-100534061D01*
X99290436Y-103920443D01*
X99270434Y-103988564D01*
X99216778Y-104035057D01*
X99164436Y-104046443D01*
X99050802Y-104046443D01*
X98988620Y-104053198D01*
X98852231Y-104104328D01*
X98735675Y-104191682D01*
X98648321Y-104308238D01*
X98597191Y-104444627D01*
X98590436Y-104506809D01*
X98590436Y-107278693D01*
X98570434Y-107346814D01*
X98516778Y-107393307D01*
X98446504Y-107403411D01*
X98408016Y-107389465D01*
X98407484Y-107390606D01*
X98387669Y-107381366D01*
X98233383Y-107330191D01*
X98220007Y-107327324D01*
X98125655Y-107317657D01*
X98119238Y-107317329D01*
X97869208Y-107317329D01*
X97853969Y-107321804D01*
X97852764Y-107323194D01*
X97851093Y-107330877D01*
X97851093Y-108453329D01*
X97831091Y-108521450D01*
X97777435Y-108567943D01*
X97725093Y-108579329D01*
X96382209Y-108579329D01*
X96366970Y-108583804D01*
X96365765Y-108585194D01*
X96364094Y-108592877D01*
X96364094Y-108622424D01*
X96364431Y-108628943D01*
X96374350Y-108724535D01*
X96377242Y-108737929D01*
X96428681Y-108892113D01*
X96434854Y-108905291D01*
X96520156Y-109043136D01*
X96529192Y-109054537D01*
X96643921Y-109169067D01*
X96652855Y-109176123D01*
X96693916Y-109234041D01*
X96697146Y-109304964D01*
X96661519Y-109366375D01*
X96653686Y-109373175D01*
X96647745Y-109376851D01*
X96522788Y-109502026D01*
X96518948Y-109508256D01*
X96518947Y-109508257D01*
X96510441Y-109522057D01*
X96453118Y-109615052D01*
X96449118Y-109621541D01*
X96396346Y-109669034D01*
X96341858Y-109681425D01*
X91821818Y-109681425D01*
X91753697Y-109661423D01*
X91714674Y-109621728D01*
X91709307Y-109613054D01*
X91689602Y-109581212D01*
X91671770Y-109563411D01*
X91597003Y-109488774D01*
X91562924Y-109426491D01*
X91560021Y-109399601D01*
X91560021Y-108845967D01*
X91580023Y-108777846D01*
X91633679Y-108731353D01*
X91686021Y-108719967D01*
X91804188Y-108719967D01*
X91866370Y-108713212D01*
X92002759Y-108662082D01*
X92119315Y-108574728D01*
X92206669Y-108458172D01*
X92257799Y-108321783D01*
X92264554Y-108259601D01*
X92264554Y-108053214D01*
X96364093Y-108053214D01*
X96368568Y-108068453D01*
X96369958Y-108069658D01*
X96377641Y-108071329D01*
X97324978Y-108071329D01*
X97340217Y-108066854D01*
X97341422Y-108065464D01*
X97343093Y-108057781D01*
X97343093Y-107335445D01*
X97338618Y-107320206D01*
X97337228Y-107319001D01*
X97329545Y-107317330D01*
X97074998Y-107317330D01*
X97068479Y-107317667D01*
X96972887Y-107327586D01*
X96959493Y-107330478D01*
X96805309Y-107381917D01*
X96792131Y-107388090D01*
X96654286Y-107473392D01*
X96642885Y-107482428D01*
X96528354Y-107597158D01*
X96519342Y-107608569D01*
X96434277Y-107746572D01*
X96428130Y-107759753D01*
X96376955Y-107914039D01*
X96374088Y-107927415D01*
X96364421Y-108021767D01*
X96364093Y-108028184D01*
X96364093Y-108053214D01*
X92264554Y-108053214D01*
X92264554Y-106463333D01*
X92257799Y-106401151D01*
X92206669Y-106264762D01*
X92119315Y-106148206D01*
X92002759Y-106060852D01*
X91963432Y-106046109D01*
X91884257Y-106016427D01*
X91827493Y-105973785D01*
X91802793Y-105907223D01*
X91818001Y-105837875D01*
X91839547Y-105809194D01*
X91868117Y-105780724D01*
X91944150Y-105704956D01*
X91963054Y-105678649D01*
X92071489Y-105527744D01*
X92074507Y-105523544D01*
X92095101Y-105481876D01*
X92171190Y-105327920D01*
X92171191Y-105327918D01*
X92173484Y-105323278D01*
X92224730Y-105154609D01*
X92236919Y-105114490D01*
X92236919Y-105114488D01*
X92238424Y-105109536D01*
X92267583Y-104888057D01*
X92268368Y-104855943D01*
X92269128Y-104824832D01*
X92269128Y-104824828D01*
X92269210Y-104821467D01*
X92250906Y-104598828D01*
X92196485Y-104382169D01*
X92107408Y-104177307D01*
X92032644Y-104061739D01*
X91988876Y-103994084D01*
X91988874Y-103994081D01*
X91986068Y-103989744D01*
X91835724Y-103824518D01*
X91809923Y-103804141D01*
X91712461Y-103727170D01*
X91671399Y-103669252D01*
X91664554Y-103628288D01*
X91664554Y-103007476D01*
X91684556Y-102939355D01*
X91738212Y-102892862D01*
X91743748Y-102890564D01*
X91744350Y-102890235D01*
X91752759Y-102887082D01*
X91869315Y-102799728D01*
X91956669Y-102683172D01*
X92007799Y-102546783D01*
X92014554Y-102484601D01*
X92014554Y-101488333D01*
X92007799Y-101426151D01*
X91956669Y-101289762D01*
X91869315Y-101173206D01*
X91752759Y-101085852D01*
X91616370Y-101034722D01*
X91554188Y-101027967D01*
X90257920Y-101027967D01*
X90195738Y-101034722D01*
X90059349Y-101085852D01*
X89942793Y-101173206D01*
X89855439Y-101289762D01*
X89804309Y-101426151D01*
X89797554Y-101488333D01*
X89797554Y-102484601D01*
X89804309Y-102546783D01*
X89855439Y-102683172D01*
X89942793Y-102799728D01*
X90059349Y-102887082D01*
X90067758Y-102890234D01*
X90075629Y-102894544D01*
X90074718Y-102896208D01*
X90122544Y-102932130D01*
X90147247Y-102998691D01*
X90147554Y-103007476D01*
X90147554Y-103629122D01*
X90127552Y-103697243D01*
X90097207Y-103729882D01*
X90005154Y-103798997D01*
X90001019Y-103802102D01*
X89985583Y-103818255D01*
X89883991Y-103924565D01*
X89846683Y-103963605D01*
X89843769Y-103967877D01*
X89843768Y-103967878D01*
X89776671Y-104066239D01*
X89720797Y-104148147D01*
X89706803Y-104178295D01*
X89636130Y-104330548D01*
X89626742Y-104350772D01*
X89567043Y-104566037D01*
X89543305Y-104788162D01*
X80643098Y-104788162D01*
X81657605Y-103773655D01*
X81666385Y-103765665D01*
X81666387Y-103765663D01*
X81673080Y-103761416D01*
X81721605Y-103709742D01*
X81724359Y-103706901D01*
X81744927Y-103686333D01*
X81747647Y-103682826D01*
X81755353Y-103673804D01*
X81759628Y-103669252D01*
X81786972Y-103640133D01*
X81790794Y-103633181D01*
X81797303Y-103621342D01*
X81808157Y-103604818D01*
X81816445Y-103594132D01*
X81821304Y-103587868D01*
X81824452Y-103580594D01*
X81839654Y-103545465D01*
X81844876Y-103534805D01*
X81863305Y-103501284D01*
X81863306Y-103501282D01*
X81867124Y-103494337D01*
X81872459Y-103473559D01*
X81878858Y-103454869D01*
X81887380Y-103435176D01*
X81894606Y-103389552D01*
X81897013Y-103377929D01*
X81906528Y-103340868D01*
X81908500Y-103333188D01*
X81908500Y-103311741D01*
X81910051Y-103292031D01*
X81910217Y-103290986D01*
X81913406Y-103270848D01*
X81909059Y-103224859D01*
X81908500Y-103213004D01*
X81908500Y-99832056D01*
X81909059Y-99820200D01*
X81909059Y-99820197D01*
X81910788Y-99812463D01*
X81908562Y-99741631D01*
X81908500Y-99737673D01*
X81908500Y-99708568D01*
X81907944Y-99704168D01*
X81907012Y-99692330D01*
X81905811Y-99654094D01*
X81905562Y-99646169D01*
X81899580Y-99625579D01*
X81895570Y-99606216D01*
X81893875Y-99592796D01*
X81893875Y-99592795D01*
X81892882Y-99584936D01*
X81889966Y-99577571D01*
X81889965Y-99577567D01*
X81875874Y-99541979D01*
X81872035Y-99530769D01*
X81859145Y-99486400D01*
X81848225Y-99467935D01*
X81839534Y-99450195D01*
X81831635Y-99430244D01*
X81804482Y-99392871D01*
X81797967Y-99382952D01*
X81778493Y-99350023D01*
X81778490Y-99350019D01*
X81774453Y-99343193D01*
X81759289Y-99328029D01*
X81746448Y-99312995D01*
X81738501Y-99302057D01*
X81733841Y-99295643D01*
X81698247Y-99266197D01*
X81689468Y-99258208D01*
X80368655Y-97937395D01*
X80360665Y-97928615D01*
X80360663Y-97928613D01*
X80356416Y-97921920D01*
X80304742Y-97873395D01*
X80301901Y-97870641D01*
X80281333Y-97850073D01*
X80277826Y-97847353D01*
X80268804Y-97839647D01*
X80255640Y-97827285D01*
X80235133Y-97808028D01*
X80228184Y-97804208D01*
X80221773Y-97799550D01*
X80222771Y-97798177D01*
X80179413Y-97754573D01*
X80164517Y-97685157D01*
X80189515Y-97618707D01*
X80246471Y-97576321D01*
X80290170Y-97568500D01*
X88804637Y-97568500D01*
X88872758Y-97588502D01*
X88893732Y-97605405D01*
X89760649Y-98472322D01*
X89794675Y-98534634D01*
X89797554Y-98561417D01*
X89797554Y-99184601D01*
X89804309Y-99246783D01*
X89855439Y-99383172D01*
X89942793Y-99499728D01*
X90059349Y-99587082D01*
X90195738Y-99638212D01*
X90257920Y-99644967D01*
X91554188Y-99644967D01*
X91616370Y-99638212D01*
X91752759Y-99587082D01*
X91869315Y-99499728D01*
X91956669Y-99383172D01*
X91959821Y-99374764D01*
X91964131Y-99366892D01*
X91967109Y-99368522D01*
X91999888Y-99324902D01*
X92066454Y-99300214D01*
X92075211Y-99299909D01*
X95404113Y-99299909D01*
X95472234Y-99319911D01*
X95514501Y-99370491D01*
X95516663Y-99369389D01*
X95518909Y-99373798D01*
X95520804Y-99378372D01*
X95523390Y-99382592D01*
X95642285Y-99576611D01*
X95642289Y-99576617D01*
X95644868Y-99580825D01*
X95799075Y-99761378D01*
X95979628Y-99915585D01*
X95983836Y-99918164D01*
X95983842Y-99918168D01*
X96142848Y-100015607D01*
X96182081Y-100039649D01*
X96186651Y-100041542D01*
X96186655Y-100041544D01*
X96396877Y-100128620D01*
X96401450Y-100130514D01*
X96481436Y-100149717D01*
X96627520Y-100184789D01*
X96627526Y-100184790D01*
X96632333Y-100185944D01*
X96869044Y-100204574D01*
X97105755Y-100185944D01*
X97110562Y-100184790D01*
X97110568Y-100184789D01*
X97256652Y-100149717D01*
X97336638Y-100130514D01*
X97341211Y-100128620D01*
X97551433Y-100041544D01*
X97551437Y-100041542D01*
X97556007Y-100039649D01*
X97595240Y-100015607D01*
X97754246Y-99918168D01*
X97754252Y-99918164D01*
X97758460Y-99915585D01*
X97939013Y-99761378D01*
X98093220Y-99580825D01*
X98095799Y-99576617D01*
X98095803Y-99576611D01*
X98214698Y-99382592D01*
X98217284Y-99378372D01*
X98219273Y-99373572D01*
X98306255Y-99163576D01*
X98306256Y-99163574D01*
X98308149Y-99159003D01*
X98345482Y-99003500D01*
X98362424Y-98932933D01*
X98362425Y-98932927D01*
X98363579Y-98928120D01*
X98382209Y-98691409D01*
X98363579Y-98454698D01*
X98357014Y-98427349D01*
X98309304Y-98228627D01*
X98308149Y-98223815D01*
X98268668Y-98128498D01*
X98219179Y-98009020D01*
X98219177Y-98009016D01*
X98217284Y-98004446D01*
X98208286Y-97989762D01*
X98095803Y-97806207D01*
X98095799Y-97806201D01*
X98093220Y-97801993D01*
X97939013Y-97621440D01*
X97915353Y-97601232D01*
X97839561Y-97536500D01*
X97758460Y-97467233D01*
X97754252Y-97464654D01*
X97754246Y-97464650D01*
X97560227Y-97345755D01*
X97556007Y-97343169D01*
X97551437Y-97341276D01*
X97551433Y-97341274D01*
X97341211Y-97254198D01*
X97341209Y-97254197D01*
X97336638Y-97252304D01*
X97205048Y-97220712D01*
X97110568Y-97198029D01*
X97110562Y-97198028D01*
X97105755Y-97196874D01*
X96869044Y-97178244D01*
X96632333Y-97196874D01*
X96627526Y-97198028D01*
X96627520Y-97198029D01*
X96533040Y-97220712D01*
X96401450Y-97252304D01*
X96396879Y-97254197D01*
X96396877Y-97254198D01*
X96186655Y-97341274D01*
X96186651Y-97341276D01*
X96182081Y-97343169D01*
X96177861Y-97345755D01*
X95983842Y-97464650D01*
X95983836Y-97464654D01*
X95979628Y-97467233D01*
X95898527Y-97536500D01*
X95822736Y-97601232D01*
X95799075Y-97621440D01*
X95644868Y-97801993D01*
X95642289Y-97806201D01*
X95642285Y-97806207D01*
X95529802Y-97989762D01*
X95520804Y-98004446D01*
X95518909Y-98009020D01*
X95516663Y-98013429D01*
X95514654Y-98012405D01*
X95475984Y-98060401D01*
X95404113Y-98082909D01*
X92078916Y-98082909D01*
X92010795Y-98062907D01*
X91964302Y-98009251D01*
X91960935Y-98001141D01*
X91959820Y-97998166D01*
X91959818Y-97998163D01*
X91956669Y-97989762D01*
X91951289Y-97982583D01*
X91951287Y-97982580D01*
X91874696Y-97880386D01*
X91869315Y-97873206D01*
X91752759Y-97785852D01*
X91616370Y-97734722D01*
X91554188Y-97727967D01*
X90931004Y-97727967D01*
X90862883Y-97707965D01*
X90841909Y-97691062D01*
X89653242Y-96502395D01*
X89645252Y-96493615D01*
X89645250Y-96493613D01*
X89641003Y-96486920D01*
X89589329Y-96438395D01*
X89586488Y-96435641D01*
X89565920Y-96415073D01*
X89562413Y-96412353D01*
X89553391Y-96404647D01*
X89525500Y-96378456D01*
X89519720Y-96373028D01*
X89512768Y-96369206D01*
X89500929Y-96362697D01*
X89484405Y-96351843D01*
X89473719Y-96343555D01*
X89467455Y-96338696D01*
X89460183Y-96335549D01*
X89460181Y-96335548D01*
X89425052Y-96320346D01*
X89414392Y-96315124D01*
X89380871Y-96296695D01*
X89380869Y-96296694D01*
X89373924Y-96292876D01*
X89353146Y-96287541D01*
X89334456Y-96281142D01*
X89314763Y-96272620D01*
X89269139Y-96265394D01*
X89257516Y-96262987D01*
X89229515Y-96255798D01*
X89212775Y-96251500D01*
X89191328Y-96251500D01*
X89171618Y-96249949D01*
X89158264Y-96247834D01*
X89150435Y-96246594D01*
X89104446Y-96250941D01*
X89092591Y-96251500D01*
X73141968Y-96251500D01*
X73073847Y-96231498D01*
X73027354Y-96177842D01*
X73015968Y-96125500D01*
X73015968Y-96014516D01*
X73014277Y-95993031D01*
X73013579Y-95984156D01*
X73013578Y-95984151D01*
X73013074Y-95977746D01*
X72967362Y-95820403D01*
X72951046Y-95792814D01*
X72933500Y-95728675D01*
X72933500Y-94857056D01*
X72934059Y-94845200D01*
X72934059Y-94845197D01*
X72935788Y-94837463D01*
X72933562Y-94766631D01*
X72933500Y-94762673D01*
X72933500Y-94733568D01*
X72932944Y-94729168D01*
X72932012Y-94717330D01*
X72930811Y-94679094D01*
X72930562Y-94671169D01*
X72924580Y-94650579D01*
X72920570Y-94631216D01*
X72918875Y-94617796D01*
X72918875Y-94617795D01*
X72917882Y-94609936D01*
X72914966Y-94602571D01*
X72914965Y-94602567D01*
X72900874Y-94566979D01*
X72897035Y-94555769D01*
X72884145Y-94511400D01*
X72873225Y-94492935D01*
X72864534Y-94475195D01*
X72856635Y-94455244D01*
X72829482Y-94417871D01*
X72822967Y-94407952D01*
X72803493Y-94375023D01*
X72803490Y-94375019D01*
X72799453Y-94368193D01*
X72784289Y-94353029D01*
X72771448Y-94337995D01*
X72763501Y-94327057D01*
X72758841Y-94320643D01*
X72723247Y-94291197D01*
X72714468Y-94283208D01*
X68615405Y-90184145D01*
X68581379Y-90121833D01*
X68578500Y-90095050D01*
X68578500Y-88006880D01*
X77411992Y-88006880D01*
X77412355Y-88011028D01*
X77412355Y-88011032D01*
X77437487Y-88298293D01*
X77437488Y-88298301D01*
X77437852Y-88302459D01*
X77502577Y-88592021D01*
X77504019Y-88595941D01*
X77504021Y-88595947D01*
X77574619Y-88787827D01*
X77605029Y-88870480D01*
X77743410Y-89132942D01*
X77915288Y-89374797D01*
X78117642Y-89591796D01*
X78346918Y-89780125D01*
X78599088Y-89936477D01*
X78869722Y-90058105D01*
X78993652Y-90095050D01*
X79150065Y-90141679D01*
X79150067Y-90141679D01*
X79154064Y-90142871D01*
X79158184Y-90143524D01*
X79158186Y-90143524D01*
X79277106Y-90162359D01*
X79447119Y-90189286D01*
X79492146Y-90191331D01*
X79538497Y-90193436D01*
X79538516Y-90193436D01*
X79539916Y-90193500D01*
X79725264Y-90193500D01*
X79946056Y-90178835D01*
X80236910Y-90120188D01*
X80517453Y-90023590D01*
X80521196Y-90021716D01*
X80521200Y-90021714D01*
X80779012Y-89892611D01*
X80779014Y-89892610D01*
X80782756Y-89890736D01*
X81028158Y-89723961D01*
X81249346Y-89526196D01*
X81442436Y-89300914D01*
X81444711Y-89297411D01*
X81601763Y-89055572D01*
X81601765Y-89055569D01*
X81604035Y-89052073D01*
X81731304Y-88784046D01*
X81791696Y-88595947D01*
X81820726Y-88505530D01*
X81820727Y-88505524D01*
X81822006Y-88501542D01*
X81857091Y-88306548D01*
X81873809Y-88213632D01*
X81873810Y-88213627D01*
X81874548Y-88209523D01*
X81883751Y-88006880D01*
X81887819Y-87917290D01*
X81887819Y-87917285D01*
X81888008Y-87913120D01*
X81887645Y-87908968D01*
X81862513Y-87621707D01*
X81862512Y-87621699D01*
X81862148Y-87617541D01*
X81797423Y-87327979D01*
X81726773Y-87135954D01*
X81696418Y-87053452D01*
X81696416Y-87053448D01*
X81694971Y-87049520D01*
X81556590Y-86787058D01*
X81384712Y-86545203D01*
X81182358Y-86328204D01*
X80953082Y-86139875D01*
X80700912Y-85983523D01*
X80430278Y-85861895D01*
X80257610Y-85810420D01*
X80149935Y-85778321D01*
X80149933Y-85778321D01*
X80145936Y-85777129D01*
X80141816Y-85776476D01*
X80141814Y-85776476D01*
X80022894Y-85757641D01*
X79852881Y-85730714D01*
X79807854Y-85728669D01*
X79761503Y-85726564D01*
X79761484Y-85726564D01*
X79760084Y-85726500D01*
X79574736Y-85726500D01*
X79353944Y-85741165D01*
X79063090Y-85799812D01*
X78782547Y-85896410D01*
X78778804Y-85898284D01*
X78778800Y-85898286D01*
X78604179Y-85985730D01*
X78517244Y-86029264D01*
X78271842Y-86196039D01*
X78050654Y-86393804D01*
X77857564Y-86619086D01*
X77855290Y-86622588D01*
X77855289Y-86622589D01*
X77750698Y-86783646D01*
X77695965Y-86867927D01*
X77568696Y-87135954D01*
X77567417Y-87139937D01*
X77567416Y-87139940D01*
X77507044Y-87327979D01*
X77477994Y-87418458D01*
X77477253Y-87422577D01*
X77442174Y-87617541D01*
X77425452Y-87710477D01*
X77425263Y-87714644D01*
X77425262Y-87714651D01*
X77416060Y-87917290D01*
X77411992Y-88006880D01*
X68578500Y-88006880D01*
X68578500Y-83769500D01*
X68598502Y-83701379D01*
X68652158Y-83654886D01*
X68704500Y-83643500D01*
X71638134Y-83643500D01*
X71700316Y-83636745D01*
X71836705Y-83585615D01*
X71953261Y-83498261D01*
X72040615Y-83381705D01*
X72091745Y-83245316D01*
X72098500Y-83183134D01*
X72098500Y-83179669D01*
X142402001Y-83179669D01*
X142402371Y-83186490D01*
X142407895Y-83237352D01*
X142411521Y-83252604D01*
X142456676Y-83373054D01*
X142465214Y-83388649D01*
X142541715Y-83490724D01*
X142554276Y-83503285D01*
X142656351Y-83579786D01*
X142671946Y-83588324D01*
X142792394Y-83633478D01*
X142807649Y-83637105D01*
X142858514Y-83642631D01*
X142865328Y-83643000D01*
X146307885Y-83643000D01*
X146323124Y-83638525D01*
X146324329Y-83637135D01*
X146326000Y-83629452D01*
X146326000Y-83624884D01*
X146834000Y-83624884D01*
X146838475Y-83640123D01*
X146839865Y-83641328D01*
X146847548Y-83642999D01*
X150294669Y-83642999D01*
X150301490Y-83642629D01*
X150352352Y-83637105D01*
X150367604Y-83633479D01*
X150488054Y-83588324D01*
X150503649Y-83579786D01*
X150605724Y-83503285D01*
X150618285Y-83490724D01*
X150694786Y-83388649D01*
X150703324Y-83373054D01*
X150748478Y-83252606D01*
X150752105Y-83237351D01*
X150757631Y-83186486D01*
X150758000Y-83179672D01*
X150758000Y-80232115D01*
X150753525Y-80216876D01*
X150752135Y-80215671D01*
X150744452Y-80214000D01*
X146852115Y-80214000D01*
X146836876Y-80218475D01*
X146835671Y-80219865D01*
X146834000Y-80227548D01*
X146834000Y-83624884D01*
X146326000Y-83624884D01*
X146326000Y-80232115D01*
X146321525Y-80216876D01*
X146320135Y-80215671D01*
X146312452Y-80214000D01*
X142420116Y-80214000D01*
X142404877Y-80218475D01*
X142403672Y-80219865D01*
X142402001Y-80227548D01*
X142402001Y-83179669D01*
X72098500Y-83179669D01*
X72098500Y-79687885D01*
X142402000Y-79687885D01*
X142406475Y-79703124D01*
X142407865Y-79704329D01*
X142415548Y-79706000D01*
X146307885Y-79706000D01*
X146323124Y-79701525D01*
X146324329Y-79700135D01*
X146326000Y-79692452D01*
X146326000Y-79687885D01*
X146834000Y-79687885D01*
X146838475Y-79703124D01*
X146839865Y-79704329D01*
X146847548Y-79706000D01*
X150739884Y-79706000D01*
X150755123Y-79701525D01*
X150756328Y-79700135D01*
X150757999Y-79692452D01*
X150757999Y-76740331D01*
X150757629Y-76733510D01*
X150752105Y-76682648D01*
X150748479Y-76667396D01*
X150703324Y-76546946D01*
X150694786Y-76531351D01*
X150618285Y-76429276D01*
X150605724Y-76416715D01*
X150503649Y-76340214D01*
X150488054Y-76331676D01*
X150367606Y-76286522D01*
X150352351Y-76282895D01*
X150301486Y-76277369D01*
X150294672Y-76277000D01*
X146852115Y-76277000D01*
X146836876Y-76281475D01*
X146835671Y-76282865D01*
X146834000Y-76290548D01*
X146834000Y-79687885D01*
X146326000Y-79687885D01*
X146326000Y-76295116D01*
X146321525Y-76279877D01*
X146320135Y-76278672D01*
X146312452Y-76277001D01*
X142865331Y-76277001D01*
X142858510Y-76277371D01*
X142807648Y-76282895D01*
X142792396Y-76286521D01*
X142671946Y-76331676D01*
X142656351Y-76340214D01*
X142554276Y-76416715D01*
X142541715Y-76429276D01*
X142465214Y-76531351D01*
X142456676Y-76546946D01*
X142411522Y-76667394D01*
X142407895Y-76682649D01*
X142402369Y-76733514D01*
X142402000Y-76740328D01*
X142402000Y-79687885D01*
X72098500Y-79687885D01*
X72098500Y-76736866D01*
X72091745Y-76674684D01*
X72040615Y-76538295D01*
X71953261Y-76421739D01*
X71836705Y-76334385D01*
X71700316Y-76283255D01*
X71638134Y-76276500D01*
X68704500Y-76276500D01*
X68636379Y-76256498D01*
X68589886Y-76202842D01*
X68578500Y-76150500D01*
X68578500Y-71870583D01*
X69613828Y-71870583D01*
X69619935Y-72129689D01*
X69665163Y-72384890D01*
X69748473Y-72630313D01*
X69750674Y-72634549D01*
X69750676Y-72634555D01*
X69808210Y-72745312D01*
X69867947Y-72860311D01*
X69870762Y-72864165D01*
X69870765Y-72864169D01*
X69972307Y-73003161D01*
X70020837Y-73069590D01*
X70024209Y-73072980D01*
X70024211Y-73072982D01*
X70200248Y-73249945D01*
X70200253Y-73249949D01*
X70203622Y-73253336D01*
X70412099Y-73407319D01*
X70416337Y-73409549D01*
X70416339Y-73409550D01*
X70637232Y-73525768D01*
X70637239Y-73525771D01*
X70641468Y-73527996D01*
X70645984Y-73529555D01*
X70645990Y-73529558D01*
X70772565Y-73573264D01*
X70886451Y-73612590D01*
X71004193Y-73634093D01*
X71137441Y-73658429D01*
X71137445Y-73658429D01*
X71141412Y-73659154D01*
X71224342Y-73663500D01*
X71385903Y-73663500D01*
X71388282Y-73663319D01*
X71388283Y-73663319D01*
X71573664Y-73649218D01*
X71573669Y-73649217D01*
X71578431Y-73648855D01*
X71583084Y-73647776D01*
X71583087Y-73647776D01*
X71826251Y-73591413D01*
X71826250Y-73591413D01*
X71830915Y-73590332D01*
X72071642Y-73494292D01*
X72295072Y-73362944D01*
X72298783Y-73359923D01*
X72298787Y-73359920D01*
X72492351Y-73202334D01*
X72496063Y-73199312D01*
X72499272Y-73195767D01*
X72499277Y-73195762D01*
X72666774Y-73010713D01*
X72669990Y-73007160D01*
X72812851Y-72790910D01*
X72816016Y-72784046D01*
X72919352Y-72559892D01*
X72919353Y-72559889D01*
X72921358Y-72555540D01*
X72993015Y-72306465D01*
X72994070Y-72298293D01*
X73025561Y-72054154D01*
X73026172Y-72049417D01*
X73025169Y-72006880D01*
X132611992Y-72006880D01*
X132612355Y-72011028D01*
X132612355Y-72011032D01*
X132637487Y-72298293D01*
X132637488Y-72298301D01*
X132637852Y-72302459D01*
X132638766Y-72306548D01*
X132694423Y-72555540D01*
X132702577Y-72592021D01*
X132704019Y-72595941D01*
X132704021Y-72595947D01*
X132802707Y-72864169D01*
X132805029Y-72870480D01*
X132806980Y-72874180D01*
X132806982Y-72874185D01*
X132941457Y-73129238D01*
X132943410Y-73132942D01*
X133115288Y-73374797D01*
X133317642Y-73591796D01*
X133546918Y-73780125D01*
X133799088Y-73936477D01*
X134069722Y-74058105D01*
X134242390Y-74109580D01*
X134350065Y-74141679D01*
X134350067Y-74141679D01*
X134354064Y-74142871D01*
X134358184Y-74143524D01*
X134358186Y-74143524D01*
X134477106Y-74162359D01*
X134647119Y-74189286D01*
X134692146Y-74191331D01*
X134738497Y-74193436D01*
X134738516Y-74193436D01*
X134739916Y-74193500D01*
X134925264Y-74193500D01*
X135146056Y-74178835D01*
X135436910Y-74120188D01*
X135717453Y-74023590D01*
X135721196Y-74021716D01*
X135721200Y-74021714D01*
X135979012Y-73892611D01*
X135979014Y-73892610D01*
X135982756Y-73890736D01*
X136228158Y-73723961D01*
X136449346Y-73526196D01*
X136642436Y-73300914D01*
X136671485Y-73256182D01*
X136801763Y-73055572D01*
X136801765Y-73055569D01*
X136804035Y-73052073D01*
X136825362Y-73007160D01*
X136852629Y-72949734D01*
X136931304Y-72784046D01*
X136932584Y-72780060D01*
X137020726Y-72505530D01*
X137020727Y-72505524D01*
X137022006Y-72501542D01*
X137057106Y-72306465D01*
X137073809Y-72213632D01*
X137073810Y-72213627D01*
X137074548Y-72209523D01*
X137078174Y-72129689D01*
X137087819Y-71917290D01*
X137087819Y-71917285D01*
X137088008Y-71913120D01*
X137087645Y-71908968D01*
X137062513Y-71621707D01*
X137062512Y-71621699D01*
X137062148Y-71617541D01*
X137006606Y-71369062D01*
X136998336Y-71332063D01*
X136998336Y-71332061D01*
X136997423Y-71327979D01*
X136985001Y-71294215D01*
X136896418Y-71053452D01*
X136896416Y-71053448D01*
X136894971Y-71049520D01*
X136821035Y-70909287D01*
X136758543Y-70790762D01*
X136758542Y-70790761D01*
X136756590Y-70787058D01*
X136584712Y-70545203D01*
X136382358Y-70328204D01*
X136153082Y-70139875D01*
X135900912Y-69983523D01*
X135630278Y-69861895D01*
X135457610Y-69810420D01*
X135349935Y-69778321D01*
X135349933Y-69778321D01*
X135345936Y-69777129D01*
X135341816Y-69776476D01*
X135341814Y-69776476D01*
X135222894Y-69757641D01*
X135052881Y-69730714D01*
X135007854Y-69728669D01*
X134961503Y-69726564D01*
X134961484Y-69726564D01*
X134960084Y-69726500D01*
X134774736Y-69726500D01*
X134553944Y-69741165D01*
X134263090Y-69799812D01*
X133982547Y-69896410D01*
X133978804Y-69898284D01*
X133978800Y-69898286D01*
X133804179Y-69985730D01*
X133717244Y-70029264D01*
X133471842Y-70196039D01*
X133250654Y-70393804D01*
X133057564Y-70619086D01*
X133055290Y-70622588D01*
X133055289Y-70622589D01*
X132907341Y-70850410D01*
X132895965Y-70867927D01*
X132894177Y-70871693D01*
X132894174Y-70871698D01*
X132872740Y-70916839D01*
X132768696Y-71135954D01*
X132767417Y-71139937D01*
X132767416Y-71139940D01*
X132695331Y-71364460D01*
X132677994Y-71418458D01*
X132677253Y-71422577D01*
X132642174Y-71617541D01*
X132625452Y-71710477D01*
X132625263Y-71714644D01*
X132625262Y-71714651D01*
X132616060Y-71917290D01*
X132611992Y-72006880D01*
X73025169Y-72006880D01*
X73020065Y-71790311D01*
X72974837Y-71535110D01*
X72891527Y-71289687D01*
X72889326Y-71285451D01*
X72889324Y-71285445D01*
X72808104Y-71129090D01*
X72772053Y-71059689D01*
X72761918Y-71045815D01*
X72621986Y-70854274D01*
X72621985Y-70854273D01*
X72619163Y-70850410D01*
X72559827Y-70790762D01*
X72439752Y-70670055D01*
X72439747Y-70670051D01*
X72436378Y-70666664D01*
X72227901Y-70512681D01*
X72223661Y-70510450D01*
X72002768Y-70394232D01*
X72002761Y-70394229D01*
X71998532Y-70392004D01*
X71994016Y-70390445D01*
X71994010Y-70390442D01*
X71823148Y-70331443D01*
X71753549Y-70307410D01*
X71635807Y-70285907D01*
X71502559Y-70261571D01*
X71502555Y-70261571D01*
X71498588Y-70260846D01*
X71415658Y-70256500D01*
X71254097Y-70256500D01*
X71251718Y-70256681D01*
X71251717Y-70256681D01*
X71066336Y-70270782D01*
X71066331Y-70270783D01*
X71061569Y-70271145D01*
X71056916Y-70272224D01*
X71056913Y-70272224D01*
X70908822Y-70306550D01*
X70809085Y-70329668D01*
X70568358Y-70425708D01*
X70344928Y-70557056D01*
X70341217Y-70560077D01*
X70341213Y-70560080D01*
X70268736Y-70619086D01*
X70143937Y-70720688D01*
X70140728Y-70724233D01*
X70140723Y-70724238D01*
X70023021Y-70854274D01*
X69970010Y-70912840D01*
X69827149Y-71129090D01*
X69825148Y-71133430D01*
X69825146Y-71133434D01*
X69751025Y-71294215D01*
X69718642Y-71364460D01*
X69646985Y-71613535D01*
X69646374Y-71618270D01*
X69646373Y-71618276D01*
X69635010Y-71706368D01*
X69613828Y-71870583D01*
X68578500Y-71870583D01*
X68578500Y-65296880D01*
X77411992Y-65296880D01*
X77412355Y-65301028D01*
X77412355Y-65301032D01*
X77437487Y-65588293D01*
X77437488Y-65588301D01*
X77437852Y-65592459D01*
X77502577Y-65882021D01*
X77504019Y-65885941D01*
X77504021Y-65885947D01*
X77574619Y-66077827D01*
X77605029Y-66160480D01*
X77743410Y-66422942D01*
X77915288Y-66664797D01*
X78117642Y-66881796D01*
X78346918Y-67070125D01*
X78599088Y-67226477D01*
X78869722Y-67348105D01*
X79042390Y-67399580D01*
X79150065Y-67431679D01*
X79150067Y-67431679D01*
X79154064Y-67432871D01*
X79158184Y-67433524D01*
X79158186Y-67433524D01*
X79277106Y-67452359D01*
X79447119Y-67479286D01*
X79492146Y-67481331D01*
X79538497Y-67483436D01*
X79538516Y-67483436D01*
X79539916Y-67483500D01*
X79725264Y-67483500D01*
X79946056Y-67468835D01*
X80236910Y-67410188D01*
X80517453Y-67313590D01*
X80521196Y-67311716D01*
X80521200Y-67311714D01*
X80779012Y-67182611D01*
X80779014Y-67182610D01*
X80782756Y-67180736D01*
X81028158Y-67013961D01*
X81249346Y-66816196D01*
X81442436Y-66590914D01*
X81444711Y-66587411D01*
X81601763Y-66345572D01*
X81601765Y-66345569D01*
X81604035Y-66342073D01*
X81731304Y-66074046D01*
X81791696Y-65885947D01*
X81820726Y-65795530D01*
X81820727Y-65795524D01*
X81822006Y-65791542D01*
X81857091Y-65596548D01*
X81873809Y-65503632D01*
X81873810Y-65503627D01*
X81874548Y-65499523D01*
X81883751Y-65296880D01*
X81887819Y-65207290D01*
X81887819Y-65207285D01*
X81888008Y-65203120D01*
X81887645Y-65198968D01*
X81862513Y-64911707D01*
X81862512Y-64911699D01*
X81862148Y-64907541D01*
X81797423Y-64617979D01*
X81726773Y-64425954D01*
X81696418Y-64343452D01*
X81696416Y-64343448D01*
X81694971Y-64339520D01*
X81556590Y-64077058D01*
X81384712Y-63835203D01*
X81182358Y-63618204D01*
X80953082Y-63429875D01*
X80700912Y-63273523D01*
X80430278Y-63151895D01*
X80257610Y-63100420D01*
X80149935Y-63068321D01*
X80149933Y-63068321D01*
X80145936Y-63067129D01*
X80141816Y-63066476D01*
X80141814Y-63066476D01*
X80022894Y-63047641D01*
X79852881Y-63020714D01*
X79807854Y-63018669D01*
X79761503Y-63016564D01*
X79761484Y-63016564D01*
X79760084Y-63016500D01*
X79574736Y-63016500D01*
X79353944Y-63031165D01*
X79063090Y-63089812D01*
X78782547Y-63186410D01*
X78778804Y-63188284D01*
X78778800Y-63188286D01*
X78604179Y-63275730D01*
X78517244Y-63319264D01*
X78271842Y-63486039D01*
X78050654Y-63683804D01*
X77857564Y-63909086D01*
X77855290Y-63912588D01*
X77855289Y-63912589D01*
X77750698Y-64073646D01*
X77695965Y-64157927D01*
X77568696Y-64425954D01*
X77567417Y-64429937D01*
X77567416Y-64429940D01*
X77507044Y-64617979D01*
X77477994Y-64708458D01*
X77477253Y-64712577D01*
X77442174Y-64907541D01*
X77425452Y-65000477D01*
X77425263Y-65004644D01*
X77425262Y-65004651D01*
X77416060Y-65207290D01*
X77411992Y-65296880D01*
X68578500Y-65296880D01*
X68578500Y-61059500D01*
X68598502Y-60991379D01*
X68652158Y-60944886D01*
X68704500Y-60933500D01*
X71638134Y-60933500D01*
X71700316Y-60926745D01*
X71836705Y-60875615D01*
X71953261Y-60788261D01*
X72040615Y-60671705D01*
X72091745Y-60535316D01*
X72098500Y-60473134D01*
X72098500Y-60469669D01*
X142402001Y-60469669D01*
X142402371Y-60476490D01*
X142407895Y-60527352D01*
X142411521Y-60542604D01*
X142456676Y-60663054D01*
X142465214Y-60678649D01*
X142541715Y-60780724D01*
X142554276Y-60793285D01*
X142656351Y-60869786D01*
X142671946Y-60878324D01*
X142792394Y-60923478D01*
X142807649Y-60927105D01*
X142858514Y-60932631D01*
X142865328Y-60933000D01*
X146307885Y-60933000D01*
X146323124Y-60928525D01*
X146324329Y-60927135D01*
X146326000Y-60919452D01*
X146326000Y-60914884D01*
X146834000Y-60914884D01*
X146838475Y-60930123D01*
X146839865Y-60931328D01*
X146847548Y-60932999D01*
X150294669Y-60932999D01*
X150301490Y-60932629D01*
X150352352Y-60927105D01*
X150367604Y-60923479D01*
X150488054Y-60878324D01*
X150503649Y-60869786D01*
X150605724Y-60793285D01*
X150618285Y-60780724D01*
X150694786Y-60678649D01*
X150703324Y-60663054D01*
X150748478Y-60542606D01*
X150752105Y-60527351D01*
X150757631Y-60476486D01*
X150758000Y-60469672D01*
X150758000Y-57522115D01*
X150753525Y-57506876D01*
X150752135Y-57505671D01*
X150744452Y-57504000D01*
X146852115Y-57504000D01*
X146836876Y-57508475D01*
X146835671Y-57509865D01*
X146834000Y-57517548D01*
X146834000Y-60914884D01*
X146326000Y-60914884D01*
X146326000Y-57522115D01*
X146321525Y-57506876D01*
X146320135Y-57505671D01*
X146312452Y-57504000D01*
X142420116Y-57504000D01*
X142404877Y-57508475D01*
X142403672Y-57509865D01*
X142402001Y-57517548D01*
X142402001Y-60469669D01*
X72098500Y-60469669D01*
X72098500Y-56977885D01*
X142402000Y-56977885D01*
X142406475Y-56993124D01*
X142407865Y-56994329D01*
X142415548Y-56996000D01*
X146307885Y-56996000D01*
X146323124Y-56991525D01*
X146324329Y-56990135D01*
X146326000Y-56982452D01*
X146326000Y-56977885D01*
X146834000Y-56977885D01*
X146838475Y-56993124D01*
X146839865Y-56994329D01*
X146847548Y-56996000D01*
X150739884Y-56996000D01*
X150755123Y-56991525D01*
X150756328Y-56990135D01*
X150757999Y-56982452D01*
X150757999Y-54030331D01*
X150757629Y-54023510D01*
X150752105Y-53972648D01*
X150748479Y-53957396D01*
X150703324Y-53836946D01*
X150694786Y-53821351D01*
X150618285Y-53719276D01*
X150605724Y-53706715D01*
X150503649Y-53630214D01*
X150488054Y-53621676D01*
X150367606Y-53576522D01*
X150352351Y-53572895D01*
X150301486Y-53567369D01*
X150294672Y-53567000D01*
X146852115Y-53567000D01*
X146836876Y-53571475D01*
X146835671Y-53572865D01*
X146834000Y-53580548D01*
X146834000Y-56977885D01*
X146326000Y-56977885D01*
X146326000Y-53585116D01*
X146321525Y-53569877D01*
X146320135Y-53568672D01*
X146312452Y-53567001D01*
X142865331Y-53567001D01*
X142858510Y-53567371D01*
X142807648Y-53572895D01*
X142792396Y-53576521D01*
X142671946Y-53621676D01*
X142656351Y-53630214D01*
X142554276Y-53706715D01*
X142541715Y-53719276D01*
X142465214Y-53821351D01*
X142456676Y-53836946D01*
X142411522Y-53957394D01*
X142407895Y-53972649D01*
X142402369Y-54023514D01*
X142402000Y-54030328D01*
X142402000Y-56977885D01*
X72098500Y-56977885D01*
X72098500Y-54026866D01*
X72091745Y-53964684D01*
X72040615Y-53828295D01*
X71953261Y-53711739D01*
X71836705Y-53624385D01*
X71700316Y-53573255D01*
X71638134Y-53566500D01*
X64201866Y-53566500D01*
X64139684Y-53573255D01*
X64003295Y-53624385D01*
X63886739Y-53711739D01*
X63799385Y-53828295D01*
X63748255Y-53964684D01*
X63741500Y-54026866D01*
X63741500Y-60473134D01*
X63748255Y-60535316D01*
X63799385Y-60671705D01*
X63886739Y-60788261D01*
X64003295Y-60875615D01*
X64139684Y-60926745D01*
X64201866Y-60933500D01*
X67135500Y-60933500D01*
X67203621Y-60953502D01*
X67250114Y-61007158D01*
X67261500Y-61059500D01*
X67261500Y-76150500D01*
X67241498Y-76218621D01*
X67187842Y-76265114D01*
X67135500Y-76276500D01*
X64201866Y-76276500D01*
X64139684Y-76283255D01*
X64003295Y-76334385D01*
X63886739Y-76421739D01*
X63799385Y-76538295D01*
X63748255Y-76674684D01*
X63741500Y-76736866D01*
X63741500Y-83183134D01*
X63748255Y-83245316D01*
X63799385Y-83381705D01*
X63886739Y-83498261D01*
X64003295Y-83585615D01*
X64139684Y-83636745D01*
X64201866Y-83643500D01*
X67135500Y-83643500D01*
X67203621Y-83663502D01*
X67250114Y-83717158D01*
X67261500Y-83769500D01*
X67261500Y-90337944D01*
X67260941Y-90349800D01*
X67259212Y-90357537D01*
X67259461Y-90365459D01*
X67261438Y-90428369D01*
X67261500Y-90432327D01*
X67261500Y-90461432D01*
X67262056Y-90465832D01*
X67262988Y-90477664D01*
X67264438Y-90523831D01*
X67266650Y-90531444D01*
X67266650Y-90531445D01*
X67270419Y-90544416D01*
X67274430Y-90563782D01*
X67277118Y-90585064D01*
X67280034Y-90592429D01*
X67280035Y-90592433D01*
X67294126Y-90628021D01*
X67297965Y-90639231D01*
X67310855Y-90683600D01*
X67321775Y-90702065D01*
X67330466Y-90719805D01*
X67338365Y-90739756D01*
X67365516Y-90777126D01*
X67372033Y-90787048D01*
X67391507Y-90819977D01*
X67391510Y-90819981D01*
X67395547Y-90826807D01*
X67410711Y-90841971D01*
X67423551Y-90857004D01*
X67436159Y-90874357D01*
X67471752Y-90903802D01*
X67480532Y-90911792D01*
X71579595Y-95010855D01*
X71613621Y-95073167D01*
X71616500Y-95099950D01*
X71616500Y-95317519D01*
X71596498Y-95385640D01*
X71553669Y-95422751D01*
X71554047Y-95423336D01*
X71549897Y-95426020D01*
X71542842Y-95432133D01*
X71539216Y-95432927D01*
X71525498Y-95441799D01*
X71521468Y-95450691D01*
X71521468Y-95728621D01*
X71503922Y-95792760D01*
X71487574Y-95820403D01*
X71441862Y-95977746D01*
X71441358Y-95984151D01*
X71441357Y-95984156D01*
X71440659Y-95993031D01*
X71438968Y-96014516D01*
X71438968Y-96485484D01*
X71439161Y-96487932D01*
X71439161Y-96487940D01*
X71440652Y-96506876D01*
X71441862Y-96522254D01*
X71487574Y-96679597D01*
X71491609Y-96686419D01*
X71491609Y-96686420D01*
X71503922Y-96707240D01*
X71521468Y-96771379D01*
X71521468Y-97043558D01*
X71525943Y-97058797D01*
X71535318Y-97066921D01*
X71573012Y-97084135D01*
X71611396Y-97143861D01*
X71616500Y-97179360D01*
X71616500Y-97410500D01*
X71596498Y-97478621D01*
X71542842Y-97525114D01*
X71490500Y-97536500D01*
X71383498Y-97536500D01*
X71381050Y-97536693D01*
X71381042Y-97536693D01*
X71352579Y-97538933D01*
X71352574Y-97538934D01*
X71346169Y-97539438D01*
X71246231Y-97568472D01*
X71194012Y-97583643D01*
X71194010Y-97583644D01*
X71186399Y-97585855D01*
X71179571Y-97589893D01*
X71179222Y-97590099D01*
X71178913Y-97590177D01*
X71172303Y-97593038D01*
X71171841Y-97591971D01*
X71110404Y-97607554D01*
X71043075Y-97585032D01*
X70998610Y-97529684D01*
X70994857Y-97519320D01*
X70948507Y-97371416D01*
X70948506Y-97371414D01*
X70946235Y-97364167D01*
X70875837Y-97247924D01*
X70857658Y-97179297D01*
X70879468Y-97111733D01*
X70934344Y-97066687D01*
X70983252Y-97056656D01*
X71010173Y-97056579D01*
X71013468Y-97049309D01*
X71013468Y-96522115D01*
X71008993Y-96506876D01*
X71007603Y-96505671D01*
X70999920Y-96504000D01*
X70499044Y-96504000D01*
X70484249Y-96508344D01*
X70482405Y-96518775D01*
X70484156Y-96528359D01*
X70525825Y-96671784D01*
X70532072Y-96686220D01*
X70585080Y-96775852D01*
X70602539Y-96844668D01*
X70580022Y-96912000D01*
X70524678Y-96956469D01*
X70454077Y-96963957D01*
X70438955Y-96960228D01*
X70425825Y-96956113D01*
X70352398Y-96949366D01*
X70349500Y-96949366D01*
X70095098Y-96949367D01*
X69839129Y-96949367D01*
X69836271Y-96949630D01*
X69836262Y-96949630D01*
X69800759Y-96952892D01*
X69765701Y-96956113D01*
X69759323Y-96958112D01*
X69759322Y-96958112D01*
X69609313Y-97005122D01*
X69609311Y-97005123D01*
X69602064Y-97007394D01*
X69455382Y-97096227D01*
X69359858Y-97191751D01*
X69297546Y-97225777D01*
X69226731Y-97220712D01*
X69181668Y-97191751D01*
X69086144Y-97096227D01*
X68939462Y-97007394D01*
X68932215Y-97005123D01*
X68932213Y-97005122D01*
X68865927Y-96984349D01*
X68775825Y-96956113D01*
X68702398Y-96949366D01*
X68699500Y-96949366D01*
X68445098Y-96949367D01*
X68189129Y-96949367D01*
X68186271Y-96949630D01*
X68186262Y-96949630D01*
X68150759Y-96952892D01*
X68115701Y-96956113D01*
X68109323Y-96958112D01*
X68109322Y-96958112D01*
X67959313Y-97005122D01*
X67959311Y-97005123D01*
X67952064Y-97007394D01*
X67805382Y-97096227D01*
X67772840Y-97128769D01*
X67710528Y-97162795D01*
X67639713Y-97157730D01*
X67582877Y-97115183D01*
X67576601Y-97105977D01*
X67509414Y-96997405D01*
X67505560Y-96991177D01*
X67381416Y-96867249D01*
X67232092Y-96775205D01*
X67220557Y-96771379D01*
X67072129Y-96722147D01*
X67072127Y-96722147D01*
X67065598Y-96719981D01*
X66961994Y-96709366D01*
X66670529Y-96709366D01*
X66374533Y-96709367D01*
X66269634Y-96720250D01*
X66263103Y-96722429D01*
X66263098Y-96722430D01*
X66116381Y-96771379D01*
X66103237Y-96775764D01*
X65954074Y-96868069D01*
X65830146Y-96992213D01*
X65828344Y-96995136D01*
X65771734Y-97035274D01*
X65700811Y-97038508D01*
X65639399Y-97002884D01*
X65633847Y-96996488D01*
X65630560Y-96991177D01*
X65506416Y-96867249D01*
X65357092Y-96775205D01*
X65345557Y-96771379D01*
X65197129Y-96722147D01*
X65197127Y-96722147D01*
X65190598Y-96719981D01*
X65086994Y-96709366D01*
X64795529Y-96709366D01*
X64499533Y-96709367D01*
X64394634Y-96720250D01*
X64388103Y-96722429D01*
X64388098Y-96722430D01*
X64241381Y-96771379D01*
X64228237Y-96775764D01*
X64079074Y-96868069D01*
X63955146Y-96992213D01*
X63863102Y-97141537D01*
X63860797Y-97148485D01*
X63860797Y-97148486D01*
X63825576Y-97254675D01*
X63807878Y-97308031D01*
X63797263Y-97411635D01*
X63797264Y-98424096D01*
X63808147Y-98528995D01*
X63810326Y-98535526D01*
X63810327Y-98535531D01*
X63831446Y-98598831D01*
X63863661Y-98695392D01*
X63955966Y-98844555D01*
X64080110Y-98968483D01*
X64086340Y-98972323D01*
X64086341Y-98972324D01*
X64124879Y-98996079D01*
X64172372Y-99048851D01*
X64184763Y-99103339D01*
X64184763Y-99939976D01*
X64164761Y-100008097D01*
X64134907Y-100037442D01*
X64136285Y-100039181D01*
X64130549Y-100043727D01*
X64124323Y-100047580D01*
X64004514Y-100167598D01*
X63915529Y-100311959D01*
X63913224Y-100318907D01*
X63913224Y-100318908D01*
X63871441Y-100444880D01*
X63862140Y-100472920D01*
X63851878Y-100573079D01*
X63851878Y-101182223D01*
X63862400Y-101283633D01*
X63916070Y-101444500D01*
X64005307Y-101588706D01*
X64125325Y-101708515D01*
X64131552Y-101712353D01*
X64131554Y-101712355D01*
X64132077Y-101712677D01*
X64132562Y-101712976D01*
X64133104Y-101713579D01*
X64137301Y-101716893D01*
X64136734Y-101717611D01*
X64180057Y-101765745D01*
X64191372Y-101803793D01*
X64198923Y-101861151D01*
X64205040Y-101907613D01*
X64266354Y-102055638D01*
X64271381Y-102062189D01*
X64271382Y-102062191D01*
X64339398Y-102150831D01*
X64339404Y-102150837D01*
X64363891Y-102182749D01*
X64370446Y-102187779D01*
X64389257Y-102202214D01*
X64401648Y-102213081D01*
X64739801Y-102551234D01*
X64750668Y-102563625D01*
X64770129Y-102588987D01*
X64802041Y-102613474D01*
X64802044Y-102613477D01*
X64817721Y-102625506D01*
X64897241Y-102686524D01*
X65045266Y-102747838D01*
X65164231Y-102763500D01*
X65164236Y-102763500D01*
X65164245Y-102763501D01*
X65195928Y-102767672D01*
X65204116Y-102768750D01*
X65235809Y-102764578D01*
X65252252Y-102763500D01*
X70925050Y-102763500D01*
X70993171Y-102783502D01*
X71014145Y-102800405D01*
X71043193Y-102829453D01*
X71050017Y-102833489D01*
X71050020Y-102833491D01*
X71151335Y-102893408D01*
X71186399Y-102914145D01*
X71194010Y-102916356D01*
X71194012Y-102916357D01*
X71246231Y-102931528D01*
X71346169Y-102960562D01*
X71352574Y-102961066D01*
X71352579Y-102961067D01*
X71381042Y-102963307D01*
X71381050Y-102963307D01*
X71383498Y-102963500D01*
X71490500Y-102963500D01*
X71558621Y-102983502D01*
X71605114Y-103037158D01*
X71616500Y-103089500D01*
X71616500Y-103832039D01*
X71596498Y-103900160D01*
X71542842Y-103946653D01*
X71490500Y-103958039D01*
X68944178Y-103958039D01*
X68880039Y-103940493D01*
X68767551Y-103873968D01*
X68767550Y-103873968D01*
X68760728Y-103869933D01*
X68753117Y-103867722D01*
X68753115Y-103867721D01*
X68666815Y-103842649D01*
X68603385Y-103824221D01*
X68596980Y-103823717D01*
X68596975Y-103823716D01*
X68569071Y-103821520D01*
X68569063Y-103821520D01*
X68566615Y-103821327D01*
X68095647Y-103821327D01*
X68093199Y-103821520D01*
X68093191Y-103821520D01*
X68065287Y-103823716D01*
X68065282Y-103823717D01*
X68058877Y-103824221D01*
X67995447Y-103842649D01*
X67909147Y-103867721D01*
X67909145Y-103867722D01*
X67901534Y-103869933D01*
X67894711Y-103873968D01*
X67894709Y-103873969D01*
X67833365Y-103910248D01*
X67764548Y-103927708D01*
X67697217Y-103905192D01*
X67652748Y-103849847D01*
X67649703Y-103841675D01*
X67649628Y-103841451D01*
X67649626Y-103841446D01*
X67647307Y-103834496D01*
X67554235Y-103684094D01*
X67429060Y-103559137D01*
X67406880Y-103545465D01*
X67284725Y-103470167D01*
X67284723Y-103470166D01*
X67278495Y-103466327D01*
X67182156Y-103434373D01*
X67117146Y-103412810D01*
X67117144Y-103412810D01*
X67110618Y-103410645D01*
X67103782Y-103409945D01*
X67103779Y-103409944D01*
X67060726Y-103405533D01*
X67006157Y-103399942D01*
X66380357Y-103399942D01*
X66377111Y-103400279D01*
X66377107Y-103400279D01*
X66281449Y-103410204D01*
X66281445Y-103410205D01*
X66274591Y-103410916D01*
X66268055Y-103413097D01*
X66268053Y-103413097D01*
X66192904Y-103438169D01*
X66106811Y-103466892D01*
X65956409Y-103559964D01*
X65887372Y-103629122D01*
X65869973Y-103646551D01*
X65807691Y-103680630D01*
X65736871Y-103675627D01*
X65691782Y-103646706D01*
X65609240Y-103564308D01*
X65604060Y-103559137D01*
X65581880Y-103545465D01*
X65459725Y-103470167D01*
X65459723Y-103470166D01*
X65453495Y-103466327D01*
X65357156Y-103434373D01*
X65292146Y-103412810D01*
X65292144Y-103412810D01*
X65285618Y-103410645D01*
X65278782Y-103409945D01*
X65278779Y-103409944D01*
X65235726Y-103405533D01*
X65181157Y-103399942D01*
X64555357Y-103399942D01*
X64552111Y-103400279D01*
X64552107Y-103400279D01*
X64456449Y-103410204D01*
X64456445Y-103410205D01*
X64449591Y-103410916D01*
X64443055Y-103413097D01*
X64443053Y-103413097D01*
X64367904Y-103438169D01*
X64281811Y-103466892D01*
X64131409Y-103559964D01*
X64126236Y-103565146D01*
X64086633Y-103604818D01*
X64006452Y-103685139D01*
X64002612Y-103691369D01*
X64002611Y-103691370D01*
X63921032Y-103823716D01*
X63913642Y-103835704D01*
X63900950Y-103873969D01*
X63898894Y-103880168D01*
X63858463Y-103938528D01*
X63792898Y-103965764D01*
X63779301Y-103966500D01*
X63240463Y-103966500D01*
X63172342Y-103946498D01*
X63125849Y-103892842D01*
X63115745Y-103822568D01*
X63121150Y-103799999D01*
X63128972Y-103776957D01*
X63131657Y-103765774D01*
X63160834Y-103564539D01*
X63161464Y-103557157D01*
X63162864Y-103503704D01*
X63162621Y-103496305D01*
X63144016Y-103293824D01*
X63141918Y-103282503D01*
X63087287Y-103088797D01*
X63083163Y-103078050D01*
X62994141Y-102897534D01*
X62990617Y-102891784D01*
X62980595Y-102884262D01*
X62968176Y-102891034D01*
X62089095Y-103770115D01*
X62026783Y-103804141D01*
X61955968Y-103799076D01*
X61910905Y-103770115D01*
X61031520Y-102890730D01*
X61019140Y-102883970D01*
X61013174Y-102888436D01*
X60928257Y-103049836D01*
X60923848Y-103060479D01*
X60864167Y-103252684D01*
X60861773Y-103263946D01*
X60838117Y-103463821D01*
X60837816Y-103475323D01*
X57758500Y-103475323D01*
X57758500Y-102934542D01*
X57778502Y-102866421D01*
X57832158Y-102819928D01*
X57902432Y-102809824D01*
X57967012Y-102839318D01*
X57996161Y-102876166D01*
X58005175Y-102893408D01*
X58011892Y-102903673D01*
X58132340Y-103053480D01*
X58140918Y-103062240D01*
X58288170Y-103185799D01*
X58298284Y-103192725D01*
X58466735Y-103285331D01*
X58477999Y-103290159D01*
X58661229Y-103348283D01*
X58673218Y-103350831D01*
X58822781Y-103367607D01*
X58829805Y-103368000D01*
X59027885Y-103368000D01*
X59043124Y-103363525D01*
X59044329Y-103362135D01*
X59046000Y-103354452D01*
X59046000Y-103349885D01*
X59554000Y-103349885D01*
X59558475Y-103365124D01*
X59559865Y-103366329D01*
X59567548Y-103368000D01*
X59763390Y-103368000D01*
X59769538Y-103367699D01*
X59912434Y-103353688D01*
X59924469Y-103351305D01*
X60108480Y-103295749D01*
X60119821Y-103291075D01*
X60289534Y-103200837D01*
X60299759Y-103194043D01*
X60448715Y-103072558D01*
X60457419Y-103063914D01*
X60579943Y-102915807D01*
X60586801Y-102905639D01*
X60678223Y-102736560D01*
X60682979Y-102725245D01*
X60722892Y-102596308D01*
X60723098Y-102582205D01*
X60716343Y-102579000D01*
X59572115Y-102579000D01*
X59556876Y-102583475D01*
X59555671Y-102584865D01*
X59554000Y-102592548D01*
X59554000Y-103349885D01*
X59046000Y-103349885D01*
X59046000Y-102522196D01*
X61386307Y-102522196D01*
X61389793Y-102530583D01*
X61987188Y-103127978D01*
X62001132Y-103135592D01*
X62002965Y-103135461D01*
X62009580Y-103131210D01*
X62606533Y-102534257D01*
X62613293Y-102521877D01*
X62607263Y-102513822D01*
X62532857Y-102466875D01*
X62522609Y-102461654D01*
X62335663Y-102387070D01*
X62324635Y-102383803D01*
X62127230Y-102344537D01*
X62115784Y-102343334D01*
X61914537Y-102340700D01*
X61903057Y-102341603D01*
X61704701Y-102375687D01*
X61693581Y-102378667D01*
X61504748Y-102448331D01*
X61494370Y-102453281D01*
X61395906Y-102511861D01*
X61386307Y-102522196D01*
X59046000Y-102522196D01*
X59046000Y-102052885D01*
X59554000Y-102052885D01*
X59558475Y-102068124D01*
X59559865Y-102069329D01*
X59567548Y-102071000D01*
X60709411Y-102071000D01*
X60722942Y-102067027D01*
X60724062Y-102059232D01*
X60688474Y-101938314D01*
X60683875Y-101926930D01*
X60594822Y-101756588D01*
X60588108Y-101746327D01*
X60467660Y-101596520D01*
X60459082Y-101587760D01*
X60311830Y-101464201D01*
X60301716Y-101457275D01*
X60133265Y-101364669D01*
X60122001Y-101359841D01*
X59938771Y-101301717D01*
X59926782Y-101299169D01*
X59777219Y-101282393D01*
X59770195Y-101282000D01*
X59572115Y-101282000D01*
X59556876Y-101286475D01*
X59555671Y-101287865D01*
X59554000Y-101295548D01*
X59554000Y-102052885D01*
X59046000Y-102052885D01*
X59046000Y-101300115D01*
X59041525Y-101284876D01*
X59040135Y-101283671D01*
X59032452Y-101282000D01*
X58836610Y-101282000D01*
X58830462Y-101282301D01*
X58687566Y-101296312D01*
X58675531Y-101298695D01*
X58491520Y-101354251D01*
X58480179Y-101358925D01*
X58310466Y-101449163D01*
X58300241Y-101455957D01*
X58151285Y-101577442D01*
X58142581Y-101586086D01*
X58020057Y-101734193D01*
X58013199Y-101744362D01*
X57995335Y-101777399D01*
X57945340Y-101827808D01*
X57876029Y-101843185D01*
X57809407Y-101818648D01*
X57766627Y-101761988D01*
X57758500Y-101717470D01*
X57758500Y-95979609D01*
X70482700Y-95979609D01*
X70485520Y-95993031D01*
X70496981Y-95996000D01*
X70995353Y-95996000D01*
X71010592Y-95991525D01*
X71011797Y-95990135D01*
X71013468Y-95982452D01*
X71013468Y-95456442D01*
X71009495Y-95442911D01*
X71001597Y-95441776D01*
X70875684Y-95478357D01*
X70861248Y-95484604D01*
X70733969Y-95559876D01*
X70721542Y-95569516D01*
X70616984Y-95674074D01*
X70607344Y-95686501D01*
X70532072Y-95813780D01*
X70525825Y-95828216D01*
X70484156Y-95971641D01*
X70482700Y-95979609D01*
X57758500Y-95979609D01*
X57758500Y-49160583D01*
X69613828Y-49160583D01*
X69619935Y-49419689D01*
X69665163Y-49674890D01*
X69748473Y-49920313D01*
X69750674Y-49924549D01*
X69750676Y-49924555D01*
X69808210Y-50035312D01*
X69867947Y-50150311D01*
X69870762Y-50154165D01*
X69870765Y-50154169D01*
X69972307Y-50293161D01*
X70020837Y-50359590D01*
X70024209Y-50362980D01*
X70024211Y-50362982D01*
X70200248Y-50539945D01*
X70200253Y-50539949D01*
X70203622Y-50543336D01*
X70412099Y-50697319D01*
X70416337Y-50699549D01*
X70416339Y-50699550D01*
X70637232Y-50815768D01*
X70637239Y-50815771D01*
X70641468Y-50817996D01*
X70645984Y-50819555D01*
X70645990Y-50819558D01*
X70772565Y-50863264D01*
X70886451Y-50902590D01*
X71004193Y-50924093D01*
X71137441Y-50948429D01*
X71137445Y-50948429D01*
X71141412Y-50949154D01*
X71224342Y-50953500D01*
X71385903Y-50953500D01*
X71388282Y-50953319D01*
X71388283Y-50953319D01*
X71573664Y-50939218D01*
X71573669Y-50939217D01*
X71578431Y-50938855D01*
X71583084Y-50937776D01*
X71583087Y-50937776D01*
X71826251Y-50881413D01*
X71826250Y-50881413D01*
X71830915Y-50880332D01*
X72071642Y-50784292D01*
X72295072Y-50652944D01*
X72298783Y-50649923D01*
X72298787Y-50649920D01*
X72492351Y-50492334D01*
X72496063Y-50489312D01*
X72499272Y-50485767D01*
X72499277Y-50485762D01*
X72666774Y-50300713D01*
X72669990Y-50297160D01*
X72812851Y-50080910D01*
X72816016Y-50074046D01*
X72919352Y-49849892D01*
X72919353Y-49849889D01*
X72921358Y-49845540D01*
X72993015Y-49596465D01*
X72994070Y-49588293D01*
X73025561Y-49344154D01*
X73026172Y-49339417D01*
X73025169Y-49296880D01*
X132611992Y-49296880D01*
X132612355Y-49301028D01*
X132612355Y-49301032D01*
X132637487Y-49588293D01*
X132637488Y-49588301D01*
X132637852Y-49592459D01*
X132638766Y-49596548D01*
X132694423Y-49845540D01*
X132702577Y-49882021D01*
X132704019Y-49885941D01*
X132704021Y-49885947D01*
X132802707Y-50154169D01*
X132805029Y-50160480D01*
X132806980Y-50164180D01*
X132806982Y-50164185D01*
X132941457Y-50419238D01*
X132943410Y-50422942D01*
X133115288Y-50664797D01*
X133317642Y-50881796D01*
X133546918Y-51070125D01*
X133799088Y-51226477D01*
X134069722Y-51348105D01*
X134242390Y-51399580D01*
X134350065Y-51431679D01*
X134350067Y-51431679D01*
X134354064Y-51432871D01*
X134358184Y-51433524D01*
X134358186Y-51433524D01*
X134477106Y-51452359D01*
X134647119Y-51479286D01*
X134692146Y-51481331D01*
X134738497Y-51483436D01*
X134738516Y-51483436D01*
X134739916Y-51483500D01*
X134925264Y-51483500D01*
X135146056Y-51468835D01*
X135436910Y-51410188D01*
X135717453Y-51313590D01*
X135721196Y-51311716D01*
X135721200Y-51311714D01*
X135979012Y-51182611D01*
X135979014Y-51182610D01*
X135982756Y-51180736D01*
X136228158Y-51013961D01*
X136449346Y-50816196D01*
X136642436Y-50590914D01*
X136671485Y-50546182D01*
X136801763Y-50345572D01*
X136801765Y-50345569D01*
X136804035Y-50342073D01*
X136825362Y-50297160D01*
X136852629Y-50239734D01*
X136931304Y-50074046D01*
X136932584Y-50070060D01*
X137020726Y-49795530D01*
X137020727Y-49795524D01*
X137022006Y-49791542D01*
X137057106Y-49596465D01*
X137073809Y-49503632D01*
X137073810Y-49503627D01*
X137074548Y-49499523D01*
X137078174Y-49419689D01*
X137087819Y-49207290D01*
X137087819Y-49207285D01*
X137088008Y-49203120D01*
X137087645Y-49198968D01*
X137062513Y-48911707D01*
X137062512Y-48911699D01*
X137062148Y-48907541D01*
X137006606Y-48659062D01*
X136998336Y-48622063D01*
X136998336Y-48622061D01*
X136997423Y-48617979D01*
X136985001Y-48584215D01*
X136896418Y-48343452D01*
X136896416Y-48343448D01*
X136894971Y-48339520D01*
X136821035Y-48199287D01*
X136758543Y-48080762D01*
X136758542Y-48080761D01*
X136756590Y-48077058D01*
X136584712Y-47835203D01*
X136382358Y-47618204D01*
X136153082Y-47429875D01*
X135900912Y-47273523D01*
X135630278Y-47151895D01*
X135457610Y-47100420D01*
X135349935Y-47068321D01*
X135349933Y-47068321D01*
X135345936Y-47067129D01*
X135341816Y-47066476D01*
X135341814Y-47066476D01*
X135222894Y-47047641D01*
X135052881Y-47020714D01*
X135007854Y-47018669D01*
X134961503Y-47016564D01*
X134961484Y-47016564D01*
X134960084Y-47016500D01*
X134774736Y-47016500D01*
X134553944Y-47031165D01*
X134263090Y-47089812D01*
X133982547Y-47186410D01*
X133978804Y-47188284D01*
X133978800Y-47188286D01*
X133804179Y-47275730D01*
X133717244Y-47319264D01*
X133471842Y-47486039D01*
X133250654Y-47683804D01*
X133057564Y-47909086D01*
X133055290Y-47912588D01*
X133055289Y-47912589D01*
X132907341Y-48140410D01*
X132895965Y-48157927D01*
X132894177Y-48161693D01*
X132894174Y-48161698D01*
X132872740Y-48206839D01*
X132768696Y-48425954D01*
X132767417Y-48429937D01*
X132767416Y-48429940D01*
X132695331Y-48654460D01*
X132677994Y-48708458D01*
X132677253Y-48712577D01*
X132642174Y-48907541D01*
X132625452Y-49000477D01*
X132625263Y-49004644D01*
X132625262Y-49004651D01*
X132616060Y-49207290D01*
X132611992Y-49296880D01*
X73025169Y-49296880D01*
X73020065Y-49080311D01*
X72974837Y-48825110D01*
X72891527Y-48579687D01*
X72889326Y-48575451D01*
X72889324Y-48575445D01*
X72808104Y-48419090D01*
X72772053Y-48349689D01*
X72761918Y-48335815D01*
X72621986Y-48144274D01*
X72621985Y-48144273D01*
X72619163Y-48140410D01*
X72559827Y-48080762D01*
X72439752Y-47960055D01*
X72439747Y-47960051D01*
X72436378Y-47956664D01*
X72227901Y-47802681D01*
X72223661Y-47800450D01*
X72002768Y-47684232D01*
X72002761Y-47684229D01*
X71998532Y-47682004D01*
X71994016Y-47680445D01*
X71994010Y-47680442D01*
X71823148Y-47621443D01*
X71753549Y-47597410D01*
X71635807Y-47575907D01*
X71502559Y-47551571D01*
X71502555Y-47551571D01*
X71498588Y-47550846D01*
X71415658Y-47546500D01*
X71254097Y-47546500D01*
X71251718Y-47546681D01*
X71251717Y-47546681D01*
X71066336Y-47560782D01*
X71066331Y-47560783D01*
X71061569Y-47561145D01*
X71056916Y-47562224D01*
X71056913Y-47562224D01*
X70908822Y-47596550D01*
X70809085Y-47619668D01*
X70568358Y-47715708D01*
X70344928Y-47847056D01*
X70341217Y-47850077D01*
X70341213Y-47850080D01*
X70268736Y-47909086D01*
X70143937Y-48010688D01*
X70140728Y-48014233D01*
X70140723Y-48014238D01*
X70023021Y-48144274D01*
X69970010Y-48202840D01*
X69827149Y-48419090D01*
X69825148Y-48423430D01*
X69825146Y-48423434D01*
X69751025Y-48584215D01*
X69718642Y-48654460D01*
X69646985Y-48903535D01*
X69646374Y-48908270D01*
X69646373Y-48908276D01*
X69635010Y-48996368D01*
X69613828Y-49160583D01*
X57758500Y-49160583D01*
X57758500Y-42134500D01*
X57778502Y-42066379D01*
X57832158Y-42019886D01*
X57884500Y-42008500D01*
X156615500Y-42008500D01*
X156683621Y-42028502D01*
G37*
%TD.AperFunction*%
%TA.AperFunction,Conductor*%
G36*
X75859171Y-97588502D02*
G01*
X75905664Y-97642158D01*
X75915768Y-97712432D01*
X75886274Y-97777012D01*
X75881504Y-97782135D01*
X75881155Y-97782585D01*
X75875547Y-97788193D01*
X75871511Y-97795017D01*
X75871509Y-97795020D01*
X75826787Y-97870641D01*
X75790855Y-97931399D01*
X75744438Y-98091169D01*
X75741500Y-98128498D01*
X75741500Y-98466000D01*
X75721498Y-98534121D01*
X75667842Y-98580614D01*
X75615500Y-98592000D01*
X75022115Y-98592000D01*
X75006876Y-98596475D01*
X75005671Y-98597865D01*
X75004000Y-98605548D01*
X75004000Y-101889884D01*
X75008475Y-101905123D01*
X75009865Y-101906328D01*
X75017548Y-101907999D01*
X75683886Y-101907999D01*
X75690340Y-101906104D01*
X75725837Y-101901000D01*
X77353000Y-101901000D01*
X77421121Y-101921002D01*
X77467614Y-101974658D01*
X77479000Y-102027000D01*
X77479000Y-102944884D01*
X77483475Y-102960123D01*
X77484865Y-102961328D01*
X77492548Y-102962999D01*
X78113984Y-102962999D01*
X78118920Y-102962805D01*
X78147336Y-102960570D01*
X78159931Y-102958270D01*
X78305790Y-102915893D01*
X78320221Y-102909648D01*
X78449678Y-102833089D01*
X78462104Y-102823449D01*
X78568446Y-102717107D01*
X78571355Y-102713357D01*
X78628913Y-102671793D01*
X78699805Y-102667944D01*
X78761524Y-102703034D01*
X78794474Y-102765922D01*
X78796454Y-102785955D01*
X78796780Y-102785940D01*
X78797175Y-102794571D01*
X78803043Y-102858432D01*
X78805654Y-102871468D01*
X78852626Y-103021360D01*
X78858832Y-103035105D01*
X78939735Y-103168691D01*
X78949042Y-103180560D01*
X79059468Y-103290986D01*
X79071337Y-103300293D01*
X79204923Y-103381196D01*
X79218668Y-103387402D01*
X79368555Y-103434373D01*
X79381605Y-103436986D01*
X79445432Y-103442851D01*
X79451220Y-103443117D01*
X79507796Y-103443117D01*
X79523035Y-103438642D01*
X79524240Y-103437252D01*
X79525911Y-103429569D01*
X79525911Y-102407117D01*
X79545913Y-102338996D01*
X79599569Y-102292503D01*
X79651911Y-102281117D01*
X79907911Y-102281117D01*
X79976032Y-102301119D01*
X80022525Y-102354775D01*
X80033911Y-102407117D01*
X80033911Y-103424999D01*
X80037778Y-103438169D01*
X80037778Y-103509166D01*
X80005977Y-103562763D01*
X79647606Y-103921134D01*
X79585294Y-103955160D01*
X79558511Y-103958039D01*
X73059500Y-103958039D01*
X72991379Y-103938037D01*
X72944886Y-103884381D01*
X72933500Y-103832039D01*
X72933500Y-103089500D01*
X72953502Y-103021379D01*
X73007158Y-102974886D01*
X73059500Y-102963500D01*
X73166502Y-102963500D01*
X73168950Y-102963307D01*
X73168958Y-102963307D01*
X73197421Y-102961067D01*
X73197426Y-102961066D01*
X73203831Y-102960562D01*
X73303769Y-102931528D01*
X73355988Y-102916357D01*
X73355990Y-102916356D01*
X73363601Y-102914145D01*
X73398665Y-102893408D01*
X73499980Y-102833491D01*
X73499983Y-102833489D01*
X73506807Y-102829453D01*
X73624453Y-102711807D01*
X73628489Y-102704983D01*
X73628491Y-102704980D01*
X73699526Y-102584865D01*
X73709145Y-102568601D01*
X73711415Y-102560790D01*
X73738699Y-102466875D01*
X73752064Y-102420871D01*
X75748456Y-102420871D01*
X75789107Y-102560790D01*
X75795352Y-102575221D01*
X75871911Y-102704678D01*
X75881551Y-102717104D01*
X75987896Y-102823449D01*
X76000322Y-102833089D01*
X76129779Y-102909648D01*
X76144210Y-102915893D01*
X76290065Y-102958269D01*
X76302667Y-102960570D01*
X76331084Y-102962807D01*
X76336014Y-102963000D01*
X76952885Y-102963000D01*
X76968124Y-102958525D01*
X76969329Y-102957135D01*
X76971000Y-102949452D01*
X76971000Y-102427115D01*
X76966525Y-102411876D01*
X76965135Y-102410671D01*
X76957452Y-102409000D01*
X75763122Y-102409000D01*
X75749591Y-102412973D01*
X75748456Y-102420871D01*
X73752064Y-102420871D01*
X73755562Y-102408831D01*
X73758500Y-102371502D01*
X73758500Y-102034000D01*
X73778502Y-101965879D01*
X73832158Y-101919386D01*
X73884500Y-101908000D01*
X74477885Y-101908000D01*
X74493124Y-101903525D01*
X74494329Y-101902135D01*
X74496000Y-101894452D01*
X74496000Y-98610116D01*
X74491525Y-98594877D01*
X74490135Y-98593672D01*
X74482452Y-98592001D01*
X73884500Y-98592001D01*
X73816379Y-98571999D01*
X73769886Y-98518343D01*
X73758500Y-98466001D01*
X73758500Y-98128498D01*
X73755562Y-98091169D01*
X73709145Y-97931399D01*
X73673213Y-97870641D01*
X73628491Y-97795020D01*
X73628489Y-97795017D01*
X73624453Y-97788193D01*
X73618845Y-97782585D01*
X73613989Y-97776325D01*
X73615321Y-97775292D01*
X73585829Y-97721283D01*
X73590894Y-97650468D01*
X73633441Y-97593632D01*
X73699961Y-97568821D01*
X73708950Y-97568500D01*
X75791050Y-97568500D01*
X75859171Y-97588502D01*
G37*
%TD.AperFunction*%
%TA.AperFunction,Conductor*%
G36*
X79588171Y-99023502D02*
G01*
X79609145Y-99040405D01*
X80356937Y-99788197D01*
X80390963Y-99850509D01*
X80385898Y-99921324D01*
X80343351Y-99978160D01*
X80276831Y-100002971D01*
X80230165Y-99997526D01*
X80184973Y-99983364D01*
X80111546Y-99976617D01*
X80108648Y-99976617D01*
X79779051Y-99976618D01*
X79448277Y-99976618D01*
X79445419Y-99976881D01*
X79445410Y-99976881D01*
X79409907Y-99980143D01*
X79374849Y-99983364D01*
X79368471Y-99985363D01*
X79368470Y-99985363D01*
X79218461Y-100032373D01*
X79218459Y-100032374D01*
X79211212Y-100034645D01*
X79064530Y-100123478D01*
X78948413Y-100239595D01*
X78886101Y-100273621D01*
X78859318Y-100276500D01*
X78732858Y-100276500D01*
X78664737Y-100256498D01*
X78618244Y-100202842D01*
X78608140Y-100132568D01*
X78624404Y-100086361D01*
X78654648Y-100035221D01*
X78660893Y-100020790D01*
X78699939Y-99886395D01*
X78699899Y-99872294D01*
X78692630Y-99869000D01*
X77097000Y-99869000D01*
X77028879Y-99848998D01*
X76982386Y-99795342D01*
X76971000Y-99743000D01*
X76971000Y-99487000D01*
X76991002Y-99418879D01*
X77044658Y-99372386D01*
X77097000Y-99361000D01*
X78686878Y-99361000D01*
X78700409Y-99357027D01*
X78701544Y-99349129D01*
X78660893Y-99209210D01*
X78654646Y-99194775D01*
X78653974Y-99193638D01*
X78653719Y-99192631D01*
X78651499Y-99187502D01*
X78652326Y-99187144D01*
X78636515Y-99124822D01*
X78659033Y-99057490D01*
X78714377Y-99013022D01*
X78762428Y-99003500D01*
X79520050Y-99003500D01*
X79588171Y-99023502D01*
G37*
%TD.AperFunction*%
%TD*%
M02*
