%TF.GenerationSoftware,KiCad,Pcbnew,(6.0.8)*%
%TF.CreationDate,2023-04-18T12:53:02+02:00*%
%TF.ProjectId,Group22_Power,47726f75-7032-4325-9f50-6f7765722e6b,rev?*%
%TF.SameCoordinates,Original*%
%TF.FileFunction,Paste,Top*%
%TF.FilePolarity,Positive*%
%FSLAX46Y46*%
G04 Gerber Fmt 4.6, Leading zero omitted, Abs format (unit mm)*
G04 Created by KiCad (PCBNEW (6.0.8)) date 2023-04-18 12:53:02*
%MOMM*%
%LPD*%
G01*
G04 APERTURE LIST*
G04 Aperture macros list*
%AMRoundRect*
0 Rectangle with rounded corners*
0 $1 Rounding radius*
0 $2 $3 $4 $5 $6 $7 $8 $9 X,Y pos of 4 corners*
0 Add a 4 corners polygon primitive as box body*
4,1,4,$2,$3,$4,$5,$6,$7,$8,$9,$2,$3,0*
0 Add four circle primitives for the rounded corners*
1,1,$1+$1,$2,$3*
1,1,$1+$1,$4,$5*
1,1,$1+$1,$6,$7*
1,1,$1+$1,$8,$9*
0 Add four rect primitives between the rounded corners*
20,1,$1+$1,$2,$3,$4,$5,0*
20,1,$1+$1,$4,$5,$6,$7,0*
20,1,$1+$1,$6,$7,$8,$9,0*
20,1,$1+$1,$8,$9,$2,$3,0*%
%AMFreePoly0*
4,1,6,0.450000,-0.800000,-0.450000,-0.800000,-0.450000,0.530000,-0.180000,0.800000,0.450000,0.800000,0.450000,-0.800000,0.450000,-0.800000,$1*%
%AMFreePoly1*
4,1,9,3.862500,-0.866500,0.737500,-0.866500,0.737500,-0.450000,-0.737500,-0.450000,-0.737500,0.450000,0.737500,0.450000,0.737500,0.866500,3.862500,0.866500,3.862500,-0.866500,3.862500,-0.866500,$1*%
G04 Aperture macros list end*
%ADD10R,1.250000X0.400000*%
%ADD11R,1.350000X0.600000*%
%ADD12R,0.550000X0.250000*%
%ADD13FreePoly0,180.000000*%
%ADD14RoundRect,0.150000X0.825000X0.150000X-0.825000X0.150000X-0.825000X-0.150000X0.825000X-0.150000X0*%
%ADD15RoundRect,0.232500X0.232500X0.232500X-0.232500X0.232500X-0.232500X-0.232500X0.232500X-0.232500X0*%
%ADD16RoundRect,0.135000X0.135000X0.185000X-0.135000X0.185000X-0.135000X-0.185000X0.135000X-0.185000X0*%
%ADD17RoundRect,0.200000X-0.275000X0.200000X-0.275000X-0.200000X0.275000X-0.200000X0.275000X0.200000X0*%
%ADD18RoundRect,0.200000X-0.200000X-0.275000X0.200000X-0.275000X0.200000X0.275000X-0.200000X0.275000X0*%
%ADD19RoundRect,0.250000X-0.262500X-0.450000X0.262500X-0.450000X0.262500X0.450000X-0.262500X0.450000X0*%
%ADD20RoundRect,0.218750X0.218750X0.256250X-0.218750X0.256250X-0.218750X-0.256250X0.218750X-0.256250X0*%
%ADD21RoundRect,0.243750X0.243750X0.456250X-0.243750X0.456250X-0.243750X-0.456250X0.243750X-0.456250X0*%
%ADD22RoundRect,0.140000X0.140000X0.170000X-0.140000X0.170000X-0.140000X-0.170000X0.140000X-0.170000X0*%
%ADD23RoundRect,0.140000X-0.170000X0.140000X-0.170000X-0.140000X0.170000X-0.140000X0.170000X0.140000X0*%
%ADD24RoundRect,0.225000X0.250000X-0.225000X0.250000X0.225000X-0.250000X0.225000X-0.250000X-0.225000X0*%
%ADD25RoundRect,0.250000X0.475000X-0.250000X0.475000X0.250000X-0.475000X0.250000X-0.475000X-0.250000X0*%
%ADD26R,7.340000X6.350000*%
%ADD27RoundRect,0.225000X0.225000X0.250000X-0.225000X0.250000X-0.225000X-0.250000X0.225000X-0.250000X0*%
%ADD28R,1.600000X3.500000*%
%ADD29RoundRect,0.120000X-0.120000X-0.285000X0.120000X-0.285000X0.120000X0.285000X-0.120000X0.285000X0*%
%ADD30RoundRect,0.062500X-0.350000X-0.062500X0.350000X-0.062500X0.350000X0.062500X-0.350000X0.062500X0*%
%ADD31RoundRect,0.250000X-0.450000X0.262500X-0.450000X-0.262500X0.450000X-0.262500X0.450000X0.262500X0*%
%ADD32R,1.300000X0.900000*%
%ADD33FreePoly1,180.000000*%
%ADD34R,1.200000X0.900000*%
G04 APERTURE END LIST*
D10*
%TO.C,U3*%
X61975000Y-104625000D03*
X61975000Y-105275000D03*
X61975000Y-105925000D03*
X61975000Y-106575000D03*
X61975000Y-107225000D03*
D11*
X59325000Y-106725000D03*
X59325000Y-105125000D03*
%TD*%
D12*
%TO.C,U5*%
X121575000Y-109250000D03*
X121575000Y-108750000D03*
X121575000Y-108250000D03*
X121575000Y-107750000D03*
X123925000Y-107750000D03*
X123925000Y-108250000D03*
X123925000Y-108750000D03*
X123925000Y-109250000D03*
D13*
X122750000Y-108500000D03*
%TD*%
D14*
%TO.C,U4*%
X72275000Y-102155000D03*
X72275000Y-100885000D03*
X72275000Y-99615000D03*
X72275000Y-98345000D03*
X77225000Y-98345000D03*
X77225000Y-99615000D03*
X77225000Y-100885000D03*
X77225000Y-102155000D03*
D15*
X74175000Y-100825000D03*
X75325000Y-100825000D03*
X74175000Y-99675000D03*
X75325000Y-99675000D03*
%TD*%
D16*
%TO.C,R9*%
X126010000Y-107759432D03*
X124990000Y-107759432D03*
%TD*%
%TO.C,R8*%
X124978711Y-109272068D03*
X125998711Y-109272068D03*
%TD*%
D17*
%TO.C,R7*%
X79779911Y-100885117D03*
X79779911Y-102535117D03*
%TD*%
D18*
%TO.C,R6*%
X68010378Y-100893191D03*
X69660378Y-100893191D03*
%TD*%
%TO.C,R5*%
X68445763Y-97932866D03*
X70095763Y-97932866D03*
%TD*%
D19*
%TO.C,R4*%
X64868257Y-104608442D03*
X66693257Y-104608442D03*
%TD*%
D20*
%TO.C,D3*%
X66372878Y-100877651D03*
X64797878Y-100877651D03*
%TD*%
D21*
%TO.C,D2*%
X66668263Y-97917866D03*
X64793263Y-97917866D03*
%TD*%
D22*
%TO.C,C9*%
X71267468Y-96250000D03*
X72227468Y-96250000D03*
%TD*%
D23*
%TO.C,C8*%
X68331131Y-104609827D03*
X68331131Y-105569827D03*
%TD*%
D24*
%TO.C,C7*%
X117250000Y-105225000D03*
X117250000Y-106775000D03*
%TD*%
D25*
%TO.C,C5*%
X106750000Y-112324671D03*
X106750000Y-114224671D03*
%TD*%
D26*
%TO.C,BT1*%
X146580000Y-57250000D03*
X67920000Y-57250000D03*
%TD*%
D27*
%TO.C,C4*%
X102018092Y-109892090D03*
X100468092Y-109892090D03*
%TD*%
D26*
%TO.C,BT2*%
X67920000Y-79960000D03*
X146580000Y-79960000D03*
%TD*%
D28*
%TO.C,L1*%
X103098936Y-106304943D03*
X99898936Y-106304943D03*
%TD*%
D27*
%TO.C,C6*%
X90885850Y-110289925D03*
X89335850Y-110289925D03*
%TD*%
D29*
%TO.C,U1*%
X100547093Y-112750000D03*
X101147093Y-112750000D03*
X100547093Y-111750000D03*
X101147093Y-111750000D03*
D30*
X99634593Y-111250000D03*
X99634593Y-111750000D03*
X99634593Y-112250000D03*
X99634593Y-112750000D03*
X99634593Y-113250000D03*
X102059593Y-113250000D03*
X102059593Y-112750000D03*
X102059593Y-112250000D03*
X102059593Y-111750000D03*
X102059593Y-111250000D03*
%TD*%
D24*
%TO.C,C2*%
X102054497Y-116145610D03*
X102054497Y-114595610D03*
%TD*%
D31*
%TO.C,R1*%
X100149074Y-114594925D03*
X100149074Y-116419925D03*
%TD*%
D32*
%TO.C,U2*%
X115400000Y-109750000D03*
D33*
X115312500Y-108250000D03*
D32*
X115400000Y-106750000D03*
%TD*%
D24*
%TO.C,C3*%
X97687836Y-114302366D03*
X97687836Y-112752366D03*
%TD*%
D17*
%TO.C,R2*%
X104859174Y-112249484D03*
X104859174Y-113899484D03*
%TD*%
D34*
%TO.C,D1*%
X90906054Y-101986467D03*
X90906054Y-98686467D03*
%TD*%
D25*
%TO.C,C1*%
X97597093Y-110225329D03*
X97597093Y-108325329D03*
%TD*%
D18*
%TO.C,R3*%
X104845338Y-115975280D03*
X106495338Y-115975280D03*
%TD*%
M02*
