%TF.GenerationSoftware,KiCad,Pcbnew,(6.0.8)*%
%TF.CreationDate,2023-04-18T12:53:02+02:00*%
%TF.ProjectId,Group22_Power,47726f75-7032-4325-9f50-6f7765722e6b,rev?*%
%TF.SameCoordinates,Original*%
%TF.FileFunction,Legend,Top*%
%TF.FilePolarity,Positive*%
%FSLAX46Y46*%
G04 Gerber Fmt 4.6, Leading zero omitted, Abs format (unit mm)*
G04 Created by KiCad (PCBNEW (6.0.8)) date 2023-04-18 12:53:02*
%MOMM*%
%LPD*%
G01*
G04 APERTURE LIST*
G04 Aperture macros list*
%AMRoundRect*
0 Rectangle with rounded corners*
0 $1 Rounding radius*
0 $2 $3 $4 $5 $6 $7 $8 $9 X,Y pos of 4 corners*
0 Add a 4 corners polygon primitive as box body*
4,1,4,$2,$3,$4,$5,$6,$7,$8,$9,$2,$3,0*
0 Add four circle primitives for the rounded corners*
1,1,$1+$1,$2,$3*
1,1,$1+$1,$4,$5*
1,1,$1+$1,$6,$7*
1,1,$1+$1,$8,$9*
0 Add four rect primitives between the rounded corners*
20,1,$1+$1,$2,$3,$4,$5,0*
20,1,$1+$1,$4,$5,$6,$7,0*
20,1,$1+$1,$6,$7,$8,$9,0*
20,1,$1+$1,$8,$9,$2,$3,0*%
%AMFreePoly0*
4,1,6,0.500000,-0.850000,-0.500000,-0.850000,-0.500000,0.550000,-0.200000,0.850000,0.500000,0.850000,0.500000,-0.850000,0.500000,-0.850000,$1*%
%AMFreePoly1*
4,1,9,3.862500,-0.866500,0.737500,-0.866500,0.737500,-0.450000,-0.737500,-0.450000,-0.737500,0.450000,0.737500,0.450000,0.737500,0.866500,3.862500,0.866500,3.862500,-0.866500,3.862500,-0.866500,$1*%
G04 Aperture macros list end*
%ADD10C,0.150000*%
%ADD11C,0.120000*%
%ADD12C,0.152000*%
%ADD13R,1.250000X0.400000*%
%ADD14R,1.350000X0.600000*%
%ADD15C,1.300000*%
%ADD16O,1.900000X1.070000*%
%ADD17O,1.700000X1.700000*%
%ADD18R,1.700000X1.700000*%
%ADD19FreePoly0,180.000000*%
%ADD20R,0.550000X0.250000*%
%ADD21R,2.300000X2.300000*%
%ADD22RoundRect,0.150000X0.825000X0.150000X-0.825000X0.150000X-0.825000X-0.150000X0.825000X-0.150000X0*%
%ADD23RoundRect,0.135000X0.135000X0.185000X-0.135000X0.185000X-0.135000X-0.185000X0.135000X-0.185000X0*%
%ADD24RoundRect,0.200000X-0.275000X0.200000X-0.275000X-0.200000X0.275000X-0.200000X0.275000X0.200000X0*%
%ADD25RoundRect,0.200000X-0.200000X-0.275000X0.200000X-0.275000X0.200000X0.275000X-0.200000X0.275000X0*%
%ADD26RoundRect,0.250000X-0.262500X-0.450000X0.262500X-0.450000X0.262500X0.450000X-0.262500X0.450000X0*%
%ADD27RoundRect,0.218750X0.218750X0.256250X-0.218750X0.256250X-0.218750X-0.256250X0.218750X-0.256250X0*%
%ADD28RoundRect,0.243750X0.243750X0.456250X-0.243750X0.456250X-0.243750X-0.456250X0.243750X-0.456250X0*%
%ADD29RoundRect,0.140000X0.140000X0.170000X-0.140000X0.170000X-0.140000X-0.170000X0.140000X-0.170000X0*%
%ADD30RoundRect,0.140000X-0.170000X0.140000X-0.170000X-0.140000X0.170000X-0.140000X0.170000X0.140000X0*%
%ADD31RoundRect,0.225000X0.250000X-0.225000X0.250000X0.225000X-0.250000X0.225000X-0.250000X-0.225000X0*%
%ADD32RoundRect,0.250000X0.475000X-0.250000X0.475000X0.250000X-0.475000X0.250000X-0.475000X-0.250000X0*%
%ADD33R,7.340000X6.350000*%
%ADD34C,2.390000*%
%ADD35C,3.450000*%
%ADD36RoundRect,0.225000X0.225000X0.250000X-0.225000X0.250000X-0.225000X-0.250000X0.225000X-0.250000X0*%
%ADD37C,2.000000*%
%ADD38R,1.600000X3.500000*%
%ADD39RoundRect,0.062500X-0.350000X-0.062500X0.350000X-0.062500X0.350000X0.062500X-0.350000X0.062500X0*%
%ADD40R,1.200000X2.000000*%
%ADD41RoundRect,0.250000X-0.450000X0.262500X-0.450000X-0.262500X0.450000X-0.262500X0.450000X0.262500X0*%
%ADD42R,1.300000X0.900000*%
%ADD43FreePoly1,180.000000*%
%ADD44R,1.200000X0.900000*%
G04 APERTURE END LIST*
D10*
X82760951Y-111474919D02*
X81960951Y-111474919D01*
X82532380Y-111208252D01*
X81960951Y-110941586D01*
X82760951Y-110941586D01*
X82760951Y-110560633D02*
X82227618Y-110560633D01*
X81960951Y-110560633D02*
X81999047Y-110598728D01*
X82037142Y-110560633D01*
X81999047Y-110522538D01*
X81960951Y-110560633D01*
X82037142Y-110560633D01*
X82722856Y-109836824D02*
X82760951Y-109913014D01*
X82760951Y-110065395D01*
X82722856Y-110141586D01*
X82684761Y-110179681D01*
X82608570Y-110217776D01*
X82379999Y-110217776D01*
X82303808Y-110179681D01*
X82265713Y-110141586D01*
X82227618Y-110065395D01*
X82227618Y-109913014D01*
X82265713Y-109836824D01*
X82760951Y-109493966D02*
X82227618Y-109493966D01*
X82379999Y-109493966D02*
X82303808Y-109455871D01*
X82265713Y-109417776D01*
X82227618Y-109341586D01*
X82227618Y-109265395D01*
X82760951Y-108884443D02*
X82722856Y-108960633D01*
X82684761Y-108998728D01*
X82608570Y-109036824D01*
X82379999Y-109036824D01*
X82303808Y-108998728D01*
X82265713Y-108960633D01*
X82227618Y-108884443D01*
X82227618Y-108770157D01*
X82265713Y-108693966D01*
X82303808Y-108655871D01*
X82379999Y-108617776D01*
X82608570Y-108617776D01*
X82684761Y-108655871D01*
X82722856Y-108693966D01*
X82760951Y-108770157D01*
X82760951Y-108884443D01*
X82456189Y-108274919D02*
X82456189Y-107665395D01*
X81960951Y-107284443D02*
X82608570Y-107284443D01*
X82684761Y-107246347D01*
X82722856Y-107208252D01*
X82760951Y-107132062D01*
X82760951Y-106979681D01*
X82722856Y-106903490D01*
X82684761Y-106865395D01*
X82608570Y-106827300D01*
X81960951Y-106827300D01*
X82722856Y-106484443D02*
X82760951Y-106370157D01*
X82760951Y-106179681D01*
X82722856Y-106103490D01*
X82684761Y-106065395D01*
X82608570Y-106027300D01*
X82532380Y-106027300D01*
X82456189Y-106065395D01*
X82418094Y-106103490D01*
X82379999Y-106179681D01*
X82341904Y-106332062D01*
X82303808Y-106408252D01*
X82265713Y-106446347D01*
X82189523Y-106484443D01*
X82113332Y-106484443D01*
X82037142Y-106446347D01*
X81999047Y-106408252D01*
X81960951Y-106332062D01*
X81960951Y-106141586D01*
X81999047Y-106027300D01*
X82341904Y-105417776D02*
X82379999Y-105303490D01*
X82418094Y-105265395D01*
X82494285Y-105227300D01*
X82608570Y-105227300D01*
X82684761Y-105265395D01*
X82722856Y-105303490D01*
X82760951Y-105379681D01*
X82760951Y-105684443D01*
X81960951Y-105684443D01*
X81960951Y-105417776D01*
X81999047Y-105341586D01*
X82037142Y-105303490D01*
X82113332Y-105265395D01*
X82189523Y-105265395D01*
X82265713Y-105303490D01*
X82303808Y-105341586D01*
X82341904Y-105417776D01*
X82341904Y-105684443D01*
X82684761Y-103817776D02*
X82722856Y-103855871D01*
X82760951Y-103970157D01*
X82760951Y-104046347D01*
X82722856Y-104160633D01*
X82646666Y-104236824D01*
X82570475Y-104274919D01*
X82418094Y-104313014D01*
X82303808Y-104313014D01*
X82151427Y-104274919D01*
X82075237Y-104236824D01*
X81999047Y-104160633D01*
X81960951Y-104046347D01*
X81960951Y-103970157D01*
X81999047Y-103855871D01*
X82037142Y-103817776D01*
X82760951Y-103474919D02*
X81960951Y-103474919D01*
X82760951Y-103132062D02*
X82341904Y-103132062D01*
X82265713Y-103170157D01*
X82227618Y-103246347D01*
X82227618Y-103360633D01*
X82265713Y-103436824D01*
X82303808Y-103474919D01*
X82760951Y-102408252D02*
X82341904Y-102408252D01*
X82265713Y-102446347D01*
X82227618Y-102522538D01*
X82227618Y-102674919D01*
X82265713Y-102751109D01*
X82722856Y-102408252D02*
X82760951Y-102484443D01*
X82760951Y-102674919D01*
X82722856Y-102751109D01*
X82646666Y-102789205D01*
X82570475Y-102789205D01*
X82494285Y-102751109D01*
X82456189Y-102674919D01*
X82456189Y-102484443D01*
X82418094Y-102408252D01*
X82760951Y-102027300D02*
X82227618Y-102027300D01*
X82379999Y-102027300D02*
X82303808Y-101989205D01*
X82265713Y-101951109D01*
X82227618Y-101874919D01*
X82227618Y-101798728D01*
X82227618Y-101189205D02*
X82875237Y-101189205D01*
X82951427Y-101227300D01*
X82989523Y-101265395D01*
X83027618Y-101341586D01*
X83027618Y-101455871D01*
X82989523Y-101532062D01*
X82722856Y-101189205D02*
X82760951Y-101265395D01*
X82760951Y-101417776D01*
X82722856Y-101493966D01*
X82684761Y-101532062D01*
X82608570Y-101570157D01*
X82379999Y-101570157D01*
X82303808Y-101532062D01*
X82265713Y-101493966D01*
X82227618Y-101417776D01*
X82227618Y-101265395D01*
X82265713Y-101189205D01*
X82722856Y-100503490D02*
X82760951Y-100579681D01*
X82760951Y-100732062D01*
X82722856Y-100808252D01*
X82646666Y-100846347D01*
X82341904Y-100846347D01*
X82265713Y-100808252D01*
X82227618Y-100732062D01*
X82227618Y-100579681D01*
X82265713Y-100503490D01*
X82341904Y-100465395D01*
X82418094Y-100465395D01*
X82494285Y-100846347D01*
X82760951Y-100122538D02*
X82227618Y-100122538D01*
X82379999Y-100122538D02*
X82303808Y-100084443D01*
X82265713Y-100046347D01*
X82227618Y-99970157D01*
X82227618Y-99893966D01*
X83250000Y-94000000D02*
X57377905Y-94000000D01*
X57377905Y-94000000D02*
X57377905Y-112251784D01*
X57377905Y-112251784D02*
X83250000Y-112251784D01*
X83250000Y-112251784D02*
X83250000Y-94000000D01*
D11*
X109000000Y-102500000D02*
X119000000Y-102500000D01*
X119000000Y-102500000D02*
X119000000Y-119000000D01*
X119000000Y-119000000D02*
X109000000Y-119000000D01*
X109000000Y-119000000D02*
X109000000Y-102500000D01*
X119000000Y-102500000D02*
X127750000Y-102500000D01*
X127750000Y-102500000D02*
X127750000Y-119000000D01*
X127750000Y-119000000D02*
X119000000Y-119000000D01*
X119000000Y-119000000D02*
X119000000Y-102500000D01*
D10*
X119311904Y-118540476D02*
X119311904Y-118083333D01*
X120111904Y-118311904D02*
X119311904Y-118311904D01*
X120073809Y-117511904D02*
X120111904Y-117588095D01*
X120111904Y-117740476D01*
X120073809Y-117816666D01*
X119997619Y-117854761D01*
X119692857Y-117854761D01*
X119616666Y-117816666D01*
X119578571Y-117740476D01*
X119578571Y-117588095D01*
X119616666Y-117511904D01*
X119692857Y-117473809D01*
X119769047Y-117473809D01*
X119845238Y-117854761D01*
X120111904Y-117130952D02*
X119578571Y-117130952D01*
X119654761Y-117130952D02*
X119616666Y-117092857D01*
X119578571Y-117016666D01*
X119578571Y-116902380D01*
X119616666Y-116826190D01*
X119692857Y-116788095D01*
X120111904Y-116788095D01*
X119692857Y-116788095D02*
X119616666Y-116750000D01*
X119578571Y-116673809D01*
X119578571Y-116559523D01*
X119616666Y-116483333D01*
X119692857Y-116445238D01*
X120111904Y-116445238D01*
X119578571Y-116064285D02*
X120378571Y-116064285D01*
X119616666Y-116064285D02*
X119578571Y-115988095D01*
X119578571Y-115835714D01*
X119616666Y-115759523D01*
X119654761Y-115721428D01*
X119730952Y-115683333D01*
X119959523Y-115683333D01*
X120035714Y-115721428D01*
X120073809Y-115759523D01*
X120111904Y-115835714D01*
X120111904Y-115988095D01*
X120073809Y-116064285D01*
X120073809Y-114769047D02*
X120111904Y-114654761D01*
X120111904Y-114464285D01*
X120073809Y-114388095D01*
X120035714Y-114350000D01*
X119959523Y-114311904D01*
X119883333Y-114311904D01*
X119807142Y-114350000D01*
X119769047Y-114388095D01*
X119730952Y-114464285D01*
X119692857Y-114616666D01*
X119654761Y-114692857D01*
X119616666Y-114730952D01*
X119540476Y-114769047D01*
X119464285Y-114769047D01*
X119388095Y-114730952D01*
X119350000Y-114692857D01*
X119311904Y-114616666D01*
X119311904Y-114426190D01*
X119350000Y-114311904D01*
X120073809Y-113664285D02*
X120111904Y-113740476D01*
X120111904Y-113892857D01*
X120073809Y-113969047D01*
X119997619Y-114007142D01*
X119692857Y-114007142D01*
X119616666Y-113969047D01*
X119578571Y-113892857D01*
X119578571Y-113740476D01*
X119616666Y-113664285D01*
X119692857Y-113626190D01*
X119769047Y-113626190D01*
X119845238Y-114007142D01*
X119578571Y-113283333D02*
X120111904Y-113283333D01*
X119654761Y-113283333D02*
X119616666Y-113245238D01*
X119578571Y-113169047D01*
X119578571Y-113054761D01*
X119616666Y-112978571D01*
X119692857Y-112940476D01*
X120111904Y-112940476D01*
X120073809Y-112597619D02*
X120111904Y-112521428D01*
X120111904Y-112369047D01*
X120073809Y-112292857D01*
X119997619Y-112254761D01*
X119959523Y-112254761D01*
X119883333Y-112292857D01*
X119845238Y-112369047D01*
X119845238Y-112483333D01*
X119807142Y-112559523D01*
X119730952Y-112597619D01*
X119692857Y-112597619D01*
X119616666Y-112559523D01*
X119578571Y-112483333D01*
X119578571Y-112369047D01*
X119616666Y-112292857D01*
X120111904Y-111797619D02*
X120073809Y-111873809D01*
X120035714Y-111911904D01*
X119959523Y-111950000D01*
X119730952Y-111950000D01*
X119654761Y-111911904D01*
X119616666Y-111873809D01*
X119578571Y-111797619D01*
X119578571Y-111683333D01*
X119616666Y-111607142D01*
X119654761Y-111569047D01*
X119730952Y-111530952D01*
X119959523Y-111530952D01*
X120035714Y-111569047D01*
X120073809Y-111607142D01*
X120111904Y-111683333D01*
X120111904Y-111797619D01*
X120111904Y-111188095D02*
X119578571Y-111188095D01*
X119730952Y-111188095D02*
X119654761Y-111150000D01*
X119616666Y-111111904D01*
X119578571Y-111035714D01*
X119578571Y-110959523D01*
X124837619Y-115823809D02*
X124951904Y-115861904D01*
X125142380Y-115861904D01*
X125218571Y-115823809D01*
X125256666Y-115785714D01*
X125294761Y-115709523D01*
X125294761Y-115633333D01*
X125256666Y-115557142D01*
X125218571Y-115519047D01*
X125142380Y-115480952D01*
X124990000Y-115442857D01*
X124913809Y-115404761D01*
X124875714Y-115366666D01*
X124837619Y-115290476D01*
X124837619Y-115214285D01*
X124875714Y-115138095D01*
X124913809Y-115100000D01*
X124990000Y-115061904D01*
X125180476Y-115061904D01*
X125294761Y-115100000D01*
X126094761Y-115785714D02*
X126056666Y-115823809D01*
X125942380Y-115861904D01*
X125866190Y-115861904D01*
X125751904Y-115823809D01*
X125675714Y-115747619D01*
X125637619Y-115671428D01*
X125599523Y-115519047D01*
X125599523Y-115404761D01*
X125637619Y-115252380D01*
X125675714Y-115176190D01*
X125751904Y-115100000D01*
X125866190Y-115061904D01*
X125942380Y-115061904D01*
X126056666Y-115100000D01*
X126094761Y-115138095D01*
X126818571Y-115861904D02*
X126437619Y-115861904D01*
X126437619Y-115061904D01*
X95061904Y-118064285D02*
X95061904Y-118445238D01*
X95442857Y-118483333D01*
X95404761Y-118445238D01*
X95366666Y-118369047D01*
X95366666Y-118178571D01*
X95404761Y-118102380D01*
X95442857Y-118064285D01*
X95519047Y-118026190D01*
X95709523Y-118026190D01*
X95785714Y-118064285D01*
X95823809Y-118102380D01*
X95861904Y-118178571D01*
X95861904Y-118369047D01*
X95823809Y-118445238D01*
X95785714Y-118483333D01*
X95061904Y-117797619D02*
X95861904Y-117530952D01*
X95061904Y-117264285D01*
X95442857Y-116121428D02*
X95480952Y-116007142D01*
X95519047Y-115969047D01*
X95595238Y-115930952D01*
X95709523Y-115930952D01*
X95785714Y-115969047D01*
X95823809Y-116007142D01*
X95861904Y-116083333D01*
X95861904Y-116388095D01*
X95061904Y-116388095D01*
X95061904Y-116121428D01*
X95100000Y-116045238D01*
X95138095Y-116007142D01*
X95214285Y-115969047D01*
X95290476Y-115969047D01*
X95366666Y-116007142D01*
X95404761Y-116045238D01*
X95442857Y-116121428D01*
X95442857Y-116388095D01*
X95861904Y-115473809D02*
X95823809Y-115550000D01*
X95785714Y-115588095D01*
X95709523Y-115626190D01*
X95480952Y-115626190D01*
X95404761Y-115588095D01*
X95366666Y-115550000D01*
X95328571Y-115473809D01*
X95328571Y-115359523D01*
X95366666Y-115283333D01*
X95404761Y-115245238D01*
X95480952Y-115207142D01*
X95709523Y-115207142D01*
X95785714Y-115245238D01*
X95823809Y-115283333D01*
X95861904Y-115359523D01*
X95861904Y-115473809D01*
X95861904Y-114750000D02*
X95823809Y-114826190D01*
X95785714Y-114864285D01*
X95709523Y-114902380D01*
X95480952Y-114902380D01*
X95404761Y-114864285D01*
X95366666Y-114826190D01*
X95328571Y-114750000D01*
X95328571Y-114635714D01*
X95366666Y-114559523D01*
X95404761Y-114521428D01*
X95480952Y-114483333D01*
X95709523Y-114483333D01*
X95785714Y-114521428D01*
X95823809Y-114559523D01*
X95861904Y-114635714D01*
X95861904Y-114750000D01*
X95823809Y-114178571D02*
X95861904Y-114102380D01*
X95861904Y-113950000D01*
X95823809Y-113873809D01*
X95747619Y-113835714D01*
X95709523Y-113835714D01*
X95633333Y-113873809D01*
X95595238Y-113950000D01*
X95595238Y-114064285D01*
X95557142Y-114140476D01*
X95480952Y-114178571D01*
X95442857Y-114178571D01*
X95366666Y-114140476D01*
X95328571Y-114064285D01*
X95328571Y-113950000D01*
X95366666Y-113873809D01*
X95328571Y-113607142D02*
X95328571Y-113302380D01*
X95061904Y-113492857D02*
X95747619Y-113492857D01*
X95823809Y-113454761D01*
X95861904Y-113378571D01*
X95861904Y-113302380D01*
X95861904Y-111969047D02*
X95480952Y-112235714D01*
X95861904Y-112426190D02*
X95061904Y-112426190D01*
X95061904Y-112121428D01*
X95100000Y-112045238D01*
X95138095Y-112007142D01*
X95214285Y-111969047D01*
X95328571Y-111969047D01*
X95404761Y-112007142D01*
X95442857Y-112045238D01*
X95480952Y-112121428D01*
X95480952Y-112426190D01*
X95823809Y-111321428D02*
X95861904Y-111397619D01*
X95861904Y-111550000D01*
X95823809Y-111626190D01*
X95747619Y-111664285D01*
X95442857Y-111664285D01*
X95366666Y-111626190D01*
X95328571Y-111550000D01*
X95328571Y-111397619D01*
X95366666Y-111321428D01*
X95442857Y-111283333D01*
X95519047Y-111283333D01*
X95595238Y-111664285D01*
X95328571Y-110597619D02*
X95976190Y-110597619D01*
X96052380Y-110635714D01*
X96090476Y-110673809D01*
X96128571Y-110750000D01*
X96128571Y-110864285D01*
X96090476Y-110940476D01*
X95823809Y-110597619D02*
X95861904Y-110673809D01*
X95861904Y-110826190D01*
X95823809Y-110902380D01*
X95785714Y-110940476D01*
X95709523Y-110978571D01*
X95480952Y-110978571D01*
X95404761Y-110940476D01*
X95366666Y-110902380D01*
X95328571Y-110826190D01*
X95328571Y-110673809D01*
X95366666Y-110597619D01*
X95328571Y-109873809D02*
X95861904Y-109873809D01*
X95328571Y-110216666D02*
X95747619Y-110216666D01*
X95823809Y-110178571D01*
X95861904Y-110102380D01*
X95861904Y-109988095D01*
X95823809Y-109911904D01*
X95785714Y-109873809D01*
X95861904Y-109378571D02*
X95823809Y-109454761D01*
X95747619Y-109492857D01*
X95061904Y-109492857D01*
X95861904Y-108730952D02*
X95442857Y-108730952D01*
X95366666Y-108769047D01*
X95328571Y-108845238D01*
X95328571Y-108997619D01*
X95366666Y-109073809D01*
X95823809Y-108730952D02*
X95861904Y-108807142D01*
X95861904Y-108997619D01*
X95823809Y-109073809D01*
X95747619Y-109111904D01*
X95671428Y-109111904D01*
X95595238Y-109073809D01*
X95557142Y-108997619D01*
X95557142Y-108807142D01*
X95519047Y-108730952D01*
X95328571Y-108464285D02*
X95328571Y-108159523D01*
X95061904Y-108350000D02*
X95747619Y-108350000D01*
X95823809Y-108311904D01*
X95861904Y-108235714D01*
X95861904Y-108159523D01*
X95861904Y-107778571D02*
X95823809Y-107854761D01*
X95785714Y-107892857D01*
X95709523Y-107930952D01*
X95480952Y-107930952D01*
X95404761Y-107892857D01*
X95366666Y-107854761D01*
X95328571Y-107778571D01*
X95328571Y-107664285D01*
X95366666Y-107588095D01*
X95404761Y-107550000D01*
X95480952Y-107511904D01*
X95709523Y-107511904D01*
X95785714Y-107550000D01*
X95823809Y-107588095D01*
X95861904Y-107664285D01*
X95861904Y-107778571D01*
X95861904Y-107169047D02*
X95328571Y-107169047D01*
X95480952Y-107169047D02*
X95404761Y-107130952D01*
X95366666Y-107092857D01*
X95328571Y-107016666D01*
X95328571Y-106940476D01*
X121568571Y-115823809D02*
X121682857Y-115861904D01*
X121873333Y-115861904D01*
X121949523Y-115823809D01*
X121987619Y-115785714D01*
X122025714Y-115709523D01*
X122025714Y-115633333D01*
X121987619Y-115557142D01*
X121949523Y-115519047D01*
X121873333Y-115480952D01*
X121720952Y-115442857D01*
X121644761Y-115404761D01*
X121606666Y-115366666D01*
X121568571Y-115290476D01*
X121568571Y-115214285D01*
X121606666Y-115138095D01*
X121644761Y-115100000D01*
X121720952Y-115061904D01*
X121911428Y-115061904D01*
X122025714Y-115100000D01*
X122368571Y-115861904D02*
X122368571Y-115061904D01*
X122559047Y-115061904D01*
X122673333Y-115100000D01*
X122749523Y-115176190D01*
X122787619Y-115252380D01*
X122825714Y-115404761D01*
X122825714Y-115519047D01*
X122787619Y-115671428D01*
X122749523Y-115747619D01*
X122673333Y-115823809D01*
X122559047Y-115861904D01*
X122368571Y-115861904D01*
X123130476Y-115633333D02*
X123511428Y-115633333D01*
X123054285Y-115861904D02*
X123320952Y-115061904D01*
X123587619Y-115861904D01*
X109561904Y-118476190D02*
X109561904Y-117980952D01*
X109866666Y-118247619D01*
X109866666Y-118133333D01*
X109904761Y-118057142D01*
X109942857Y-118019047D01*
X110019047Y-117980952D01*
X110209523Y-117980952D01*
X110285714Y-118019047D01*
X110323809Y-118057142D01*
X110361904Y-118133333D01*
X110361904Y-118361904D01*
X110323809Y-118438095D01*
X110285714Y-118476190D01*
X109561904Y-117752380D02*
X110361904Y-117485714D01*
X109561904Y-117219047D01*
X109561904Y-117028571D02*
X109561904Y-116533333D01*
X109866666Y-116800000D01*
X109866666Y-116685714D01*
X109904761Y-116609523D01*
X109942857Y-116571428D01*
X110019047Y-116533333D01*
X110209523Y-116533333D01*
X110285714Y-116571428D01*
X110323809Y-116609523D01*
X110361904Y-116685714D01*
X110361904Y-116914285D01*
X110323809Y-116990476D01*
X110285714Y-117028571D01*
X110361904Y-115123809D02*
X109980952Y-115390476D01*
X110361904Y-115580952D02*
X109561904Y-115580952D01*
X109561904Y-115276190D01*
X109600000Y-115200000D01*
X109638095Y-115161904D01*
X109714285Y-115123809D01*
X109828571Y-115123809D01*
X109904761Y-115161904D01*
X109942857Y-115200000D01*
X109980952Y-115276190D01*
X109980952Y-115580952D01*
X110323809Y-114476190D02*
X110361904Y-114552380D01*
X110361904Y-114704761D01*
X110323809Y-114780952D01*
X110247619Y-114819047D01*
X109942857Y-114819047D01*
X109866666Y-114780952D01*
X109828571Y-114704761D01*
X109828571Y-114552380D01*
X109866666Y-114476190D01*
X109942857Y-114438095D01*
X110019047Y-114438095D01*
X110095238Y-114819047D01*
X109828571Y-113752380D02*
X110476190Y-113752380D01*
X110552380Y-113790476D01*
X110590476Y-113828571D01*
X110628571Y-113904761D01*
X110628571Y-114019047D01*
X110590476Y-114095238D01*
X110323809Y-113752380D02*
X110361904Y-113828571D01*
X110361904Y-113980952D01*
X110323809Y-114057142D01*
X110285714Y-114095238D01*
X110209523Y-114133333D01*
X109980952Y-114133333D01*
X109904761Y-114095238D01*
X109866666Y-114057142D01*
X109828571Y-113980952D01*
X109828571Y-113828571D01*
X109866666Y-113752380D01*
X109828571Y-113028571D02*
X110361904Y-113028571D01*
X109828571Y-113371428D02*
X110247619Y-113371428D01*
X110323809Y-113333333D01*
X110361904Y-113257142D01*
X110361904Y-113142857D01*
X110323809Y-113066666D01*
X110285714Y-113028571D01*
X110361904Y-112533333D02*
X110323809Y-112609523D01*
X110247619Y-112647619D01*
X109561904Y-112647619D01*
X110361904Y-111885714D02*
X109942857Y-111885714D01*
X109866666Y-111923809D01*
X109828571Y-112000000D01*
X109828571Y-112152380D01*
X109866666Y-112228571D01*
X110323809Y-111885714D02*
X110361904Y-111961904D01*
X110361904Y-112152380D01*
X110323809Y-112228571D01*
X110247619Y-112266666D01*
X110171428Y-112266666D01*
X110095238Y-112228571D01*
X110057142Y-112152380D01*
X110057142Y-111961904D01*
X110019047Y-111885714D01*
X109828571Y-111619047D02*
X109828571Y-111314285D01*
X109561904Y-111504761D02*
X110247619Y-111504761D01*
X110323809Y-111466666D01*
X110361904Y-111390476D01*
X110361904Y-111314285D01*
X110361904Y-111047619D02*
X109828571Y-111047619D01*
X109561904Y-111047619D02*
X109600000Y-111085714D01*
X109638095Y-111047619D01*
X109600000Y-111009523D01*
X109561904Y-111047619D01*
X109638095Y-111047619D01*
X110361904Y-110552380D02*
X110323809Y-110628571D01*
X110285714Y-110666666D01*
X110209523Y-110704761D01*
X109980952Y-110704761D01*
X109904761Y-110666666D01*
X109866666Y-110628571D01*
X109828571Y-110552380D01*
X109828571Y-110438095D01*
X109866666Y-110361904D01*
X109904761Y-110323809D01*
X109980952Y-110285714D01*
X110209523Y-110285714D01*
X110285714Y-110323809D01*
X110323809Y-110361904D01*
X110361904Y-110438095D01*
X110361904Y-110552380D01*
X109828571Y-109942857D02*
X110361904Y-109942857D01*
X109904761Y-109942857D02*
X109866666Y-109904761D01*
X109828571Y-109828571D01*
X109828571Y-109714285D01*
X109866666Y-109638095D01*
X109942857Y-109600000D01*
X110361904Y-109600000D01*
X94500000Y-102500000D02*
X109000000Y-102500000D01*
X109000000Y-102500000D02*
X109000000Y-119000000D01*
X109000000Y-119000000D02*
X94500000Y-119000000D01*
X94500000Y-119000000D02*
X94500000Y-102500000D01*
%TO.C,U3*%
X57988095Y-100202380D02*
X57988095Y-101011904D01*
X58035714Y-101107142D01*
X58083333Y-101154761D01*
X58178571Y-101202380D01*
X58369047Y-101202380D01*
X58464285Y-101154761D01*
X58511904Y-101107142D01*
X58559523Y-101011904D01*
X58559523Y-100202380D01*
X58940476Y-100202380D02*
X59559523Y-100202380D01*
X59226190Y-100583333D01*
X59369047Y-100583333D01*
X59464285Y-100630952D01*
X59511904Y-100678571D01*
X59559523Y-100773809D01*
X59559523Y-101011904D01*
X59511904Y-101107142D01*
X59464285Y-101154761D01*
X59369047Y-101202380D01*
X59083333Y-101202380D01*
X58988095Y-101154761D01*
X58940476Y-101107142D01*
%TO.C,J2*%
X125916666Y-110202380D02*
X125916666Y-110916666D01*
X125869047Y-111059523D01*
X125773809Y-111154761D01*
X125630952Y-111202380D01*
X125535714Y-111202380D01*
X126345238Y-110297619D02*
X126392857Y-110250000D01*
X126488095Y-110202380D01*
X126726190Y-110202380D01*
X126821428Y-110250000D01*
X126869047Y-110297619D01*
X126916666Y-110392857D01*
X126916666Y-110488095D01*
X126869047Y-110630952D01*
X126297619Y-111202380D01*
X126916666Y-111202380D01*
%TO.C,U5*%
X121288340Y-105887542D02*
X121288340Y-106535161D01*
X121326435Y-106611352D01*
X121364530Y-106649447D01*
X121440721Y-106687542D01*
X121593102Y-106687542D01*
X121669292Y-106649447D01*
X121707387Y-106611352D01*
X121745483Y-106535161D01*
X121745483Y-105887542D01*
X122507387Y-105887542D02*
X122126435Y-105887542D01*
X122088340Y-106268495D01*
X122126435Y-106230399D01*
X122202625Y-106192304D01*
X122393102Y-106192304D01*
X122469292Y-106230399D01*
X122507387Y-106268495D01*
X122545483Y-106344685D01*
X122545483Y-106535161D01*
X122507387Y-106611352D01*
X122469292Y-106649447D01*
X122393102Y-106687542D01*
X122202625Y-106687542D01*
X122126435Y-106649447D01*
X122088340Y-106611352D01*
%TO.C,U4*%
X74140476Y-103211904D02*
X74140476Y-103859523D01*
X74178571Y-103935714D01*
X74216666Y-103973809D01*
X74292857Y-104011904D01*
X74445238Y-104011904D01*
X74521428Y-103973809D01*
X74559523Y-103935714D01*
X74597619Y-103859523D01*
X74597619Y-103211904D01*
X75321428Y-103478571D02*
X75321428Y-104011904D01*
X75130952Y-103173809D02*
X74940476Y-103745238D01*
X75435714Y-103745238D01*
%TO.C,R9*%
X127444788Y-107711666D02*
X127063836Y-107978333D01*
X127444788Y-108168809D02*
X126644788Y-108168809D01*
X126644788Y-107864047D01*
X126682884Y-107787856D01*
X126720979Y-107749761D01*
X126797169Y-107711666D01*
X126911455Y-107711666D01*
X126987645Y-107749761D01*
X127025741Y-107787856D01*
X127063836Y-107864047D01*
X127063836Y-108168809D01*
X127444788Y-107330713D02*
X127444788Y-107178333D01*
X127406693Y-107102142D01*
X127368598Y-107064047D01*
X127254312Y-106987856D01*
X127101931Y-106949761D01*
X126797169Y-106949761D01*
X126720979Y-106987856D01*
X126682884Y-107025952D01*
X126644788Y-107102142D01*
X126644788Y-107254523D01*
X126682884Y-107330713D01*
X126720979Y-107368809D01*
X126797169Y-107406904D01*
X126987645Y-107406904D01*
X127063836Y-107368809D01*
X127101931Y-107330713D01*
X127140026Y-107254523D01*
X127140026Y-107102142D01*
X127101931Y-107025952D01*
X127063836Y-106987856D01*
X126987645Y-106949761D01*
%TO.C,R8*%
X127444788Y-109286465D02*
X127063836Y-109553132D01*
X127444788Y-109743608D02*
X126644788Y-109743608D01*
X126644788Y-109438846D01*
X126682884Y-109362655D01*
X126720979Y-109324560D01*
X126797169Y-109286465D01*
X126911455Y-109286465D01*
X126987645Y-109324560D01*
X127025741Y-109362655D01*
X127063836Y-109438846D01*
X127063836Y-109743608D01*
X126987645Y-108829322D02*
X126949550Y-108905512D01*
X126911455Y-108943608D01*
X126835264Y-108981703D01*
X126797169Y-108981703D01*
X126720979Y-108943608D01*
X126682884Y-108905512D01*
X126644788Y-108829322D01*
X126644788Y-108676941D01*
X126682884Y-108600751D01*
X126720979Y-108562655D01*
X126797169Y-108524560D01*
X126835264Y-108524560D01*
X126911455Y-108562655D01*
X126949550Y-108600751D01*
X126987645Y-108676941D01*
X126987645Y-108829322D01*
X127025741Y-108905512D01*
X127063836Y-108943608D01*
X127140026Y-108981703D01*
X127292407Y-108981703D01*
X127368598Y-108943608D01*
X127406693Y-108905512D01*
X127444788Y-108829322D01*
X127444788Y-108676941D01*
X127406693Y-108600751D01*
X127368598Y-108562655D01*
X127292407Y-108524560D01*
X127140026Y-108524560D01*
X127063836Y-108562655D01*
X127025741Y-108600751D01*
X126987645Y-108676941D01*
%TO.C,R7*%
X79616666Y-100111904D02*
X79350000Y-99730952D01*
X79159523Y-100111904D02*
X79159523Y-99311904D01*
X79464285Y-99311904D01*
X79540476Y-99350000D01*
X79578571Y-99388095D01*
X79616666Y-99464285D01*
X79616666Y-99578571D01*
X79578571Y-99654761D01*
X79540476Y-99692857D01*
X79464285Y-99730952D01*
X79159523Y-99730952D01*
X79883333Y-99311904D02*
X80416666Y-99311904D01*
X80073809Y-100111904D01*
%TO.C,R6*%
X67952044Y-100005095D02*
X67685378Y-99624143D01*
X67494901Y-100005095D02*
X67494901Y-99205095D01*
X67799663Y-99205095D01*
X67875854Y-99243191D01*
X67913949Y-99281286D01*
X67952044Y-99357476D01*
X67952044Y-99471762D01*
X67913949Y-99547952D01*
X67875854Y-99586048D01*
X67799663Y-99624143D01*
X67494901Y-99624143D01*
X68637758Y-99205095D02*
X68485378Y-99205095D01*
X68409187Y-99243191D01*
X68371092Y-99281286D01*
X68294901Y-99395571D01*
X68256806Y-99547952D01*
X68256806Y-99852714D01*
X68294901Y-99928905D01*
X68332997Y-99967000D01*
X68409187Y-100005095D01*
X68561568Y-100005095D01*
X68637758Y-99967000D01*
X68675854Y-99928905D01*
X68713949Y-99852714D01*
X68713949Y-99662238D01*
X68675854Y-99586048D01*
X68637758Y-99547952D01*
X68561568Y-99509857D01*
X68409187Y-99509857D01*
X68332997Y-99547952D01*
X68294901Y-99586048D01*
X68256806Y-99662238D01*
%TO.C,R5*%
X68284929Y-96779770D02*
X68018263Y-96398818D01*
X67827786Y-96779770D02*
X67827786Y-95979770D01*
X68132548Y-95979770D01*
X68208739Y-96017866D01*
X68246834Y-96055961D01*
X68284929Y-96132151D01*
X68284929Y-96246437D01*
X68246834Y-96322627D01*
X68208739Y-96360723D01*
X68132548Y-96398818D01*
X67827786Y-96398818D01*
X69008739Y-95979770D02*
X68627786Y-95979770D01*
X68589691Y-96360723D01*
X68627786Y-96322627D01*
X68703977Y-96284532D01*
X68894453Y-96284532D01*
X68970643Y-96322627D01*
X69008739Y-96360723D01*
X69046834Y-96436913D01*
X69046834Y-96627389D01*
X69008739Y-96703580D01*
X68970643Y-96741675D01*
X68894453Y-96779770D01*
X68703977Y-96779770D01*
X68627786Y-96741675D01*
X68589691Y-96703580D01*
%TO.C,R4*%
X64834420Y-106524843D02*
X64567754Y-106143891D01*
X64377277Y-106524843D02*
X64377277Y-105724843D01*
X64682039Y-105724843D01*
X64758230Y-105762939D01*
X64796325Y-105801034D01*
X64834420Y-105877224D01*
X64834420Y-105991510D01*
X64796325Y-106067700D01*
X64758230Y-106105796D01*
X64682039Y-106143891D01*
X64377277Y-106143891D01*
X65520134Y-105991510D02*
X65520134Y-106524843D01*
X65329658Y-105686748D02*
X65139182Y-106258177D01*
X65634420Y-106258177D01*
%TO.C,D3*%
X64123471Y-99919096D02*
X64123471Y-99119096D01*
X64313948Y-99119096D01*
X64428233Y-99157192D01*
X64504424Y-99233382D01*
X64542519Y-99309572D01*
X64580614Y-99461953D01*
X64580614Y-99576239D01*
X64542519Y-99728620D01*
X64504424Y-99804811D01*
X64428233Y-99881001D01*
X64313948Y-99919096D01*
X64123471Y-99919096D01*
X64847281Y-99119096D02*
X65342519Y-99119096D01*
X65075852Y-99423858D01*
X65190138Y-99423858D01*
X65266328Y-99461953D01*
X65304424Y-99500049D01*
X65342519Y-99576239D01*
X65342519Y-99766715D01*
X65304424Y-99842906D01*
X65266328Y-99881001D01*
X65190138Y-99919096D01*
X64961567Y-99919096D01*
X64885376Y-99881001D01*
X64847281Y-99842906D01*
%TO.C,D2*%
X64077786Y-96529770D02*
X64077786Y-95729770D01*
X64268263Y-95729770D01*
X64382548Y-95767866D01*
X64458739Y-95844056D01*
X64496834Y-95920246D01*
X64534929Y-96072627D01*
X64534929Y-96186913D01*
X64496834Y-96339294D01*
X64458739Y-96415485D01*
X64382548Y-96491675D01*
X64268263Y-96529770D01*
X64077786Y-96529770D01*
X64839691Y-95805961D02*
X64877786Y-95767866D01*
X64953977Y-95729770D01*
X65144453Y-95729770D01*
X65220643Y-95767866D01*
X65258739Y-95805961D01*
X65296834Y-95882151D01*
X65296834Y-95958342D01*
X65258739Y-96072627D01*
X64801596Y-96529770D01*
X65296834Y-96529770D01*
%TO.C,C9*%
X71344926Y-95458883D02*
X71306831Y-95496978D01*
X71192545Y-95535073D01*
X71116355Y-95535073D01*
X71002069Y-95496978D01*
X70925879Y-95420788D01*
X70887783Y-95344597D01*
X70849688Y-95192216D01*
X70849688Y-95077930D01*
X70887783Y-94925549D01*
X70925879Y-94849359D01*
X71002069Y-94773169D01*
X71116355Y-94735073D01*
X71192545Y-94735073D01*
X71306831Y-94773169D01*
X71344926Y-94811264D01*
X71725879Y-95535073D02*
X71878260Y-95535073D01*
X71954450Y-95496978D01*
X71992545Y-95458883D01*
X72068736Y-95344597D01*
X72106831Y-95192216D01*
X72106831Y-94887454D01*
X72068736Y-94811264D01*
X72030640Y-94773169D01*
X71954450Y-94735073D01*
X71802069Y-94735073D01*
X71725879Y-94773169D01*
X71687783Y-94811264D01*
X71649688Y-94887454D01*
X71649688Y-95077930D01*
X71687783Y-95154121D01*
X71725879Y-95192216D01*
X71802069Y-95230311D01*
X71954450Y-95230311D01*
X72030640Y-95192216D01*
X72068736Y-95154121D01*
X72106831Y-95077930D01*
%TO.C,C8*%
X68116666Y-103785714D02*
X68078571Y-103823809D01*
X67964285Y-103861904D01*
X67888095Y-103861904D01*
X67773809Y-103823809D01*
X67697619Y-103747619D01*
X67659523Y-103671428D01*
X67621428Y-103519047D01*
X67621428Y-103404761D01*
X67659523Y-103252380D01*
X67697619Y-103176190D01*
X67773809Y-103100000D01*
X67888095Y-103061904D01*
X67964285Y-103061904D01*
X68078571Y-103100000D01*
X68116666Y-103138095D01*
X68573809Y-103404761D02*
X68497619Y-103366666D01*
X68459523Y-103328571D01*
X68421428Y-103252380D01*
X68421428Y-103214285D01*
X68459523Y-103138095D01*
X68497619Y-103100000D01*
X68573809Y-103061904D01*
X68726190Y-103061904D01*
X68802380Y-103100000D01*
X68840476Y-103138095D01*
X68878571Y-103214285D01*
X68878571Y-103252380D01*
X68840476Y-103328571D01*
X68802380Y-103366666D01*
X68726190Y-103404761D01*
X68573809Y-103404761D01*
X68497619Y-103442857D01*
X68459523Y-103480952D01*
X68421428Y-103557142D01*
X68421428Y-103709523D01*
X68459523Y-103785714D01*
X68497619Y-103823809D01*
X68573809Y-103861904D01*
X68726190Y-103861904D01*
X68802380Y-103823809D01*
X68840476Y-103785714D01*
X68878571Y-103709523D01*
X68878571Y-103557142D01*
X68840476Y-103480952D01*
X68802380Y-103442857D01*
X68726190Y-103404761D01*
%TO.C,C7*%
X117083333Y-104107142D02*
X117035714Y-104154761D01*
X116892857Y-104202380D01*
X116797619Y-104202380D01*
X116654761Y-104154761D01*
X116559523Y-104059523D01*
X116511904Y-103964285D01*
X116464285Y-103773809D01*
X116464285Y-103630952D01*
X116511904Y-103440476D01*
X116559523Y-103345238D01*
X116654761Y-103250000D01*
X116797619Y-103202380D01*
X116892857Y-103202380D01*
X117035714Y-103250000D01*
X117083333Y-103297619D01*
X117416666Y-103202380D02*
X118083333Y-103202380D01*
X117654761Y-104202380D01*
%TO.C,C5*%
X106715704Y-111286073D02*
X106668085Y-111333692D01*
X106525228Y-111381311D01*
X106429990Y-111381311D01*
X106287132Y-111333692D01*
X106191894Y-111238454D01*
X106144275Y-111143216D01*
X106096656Y-110952740D01*
X106096656Y-110809883D01*
X106144275Y-110619407D01*
X106191894Y-110524169D01*
X106287132Y-110428931D01*
X106429990Y-110381311D01*
X106525228Y-110381311D01*
X106668085Y-110428931D01*
X106715704Y-110476550D01*
X107620466Y-110381311D02*
X107144275Y-110381311D01*
X107096656Y-110857502D01*
X107144275Y-110809883D01*
X107239513Y-110762264D01*
X107477609Y-110762264D01*
X107572847Y-110809883D01*
X107620466Y-110857502D01*
X107668085Y-110952740D01*
X107668085Y-111190835D01*
X107620466Y-111286073D01*
X107572847Y-111333692D01*
X107477609Y-111381311D01*
X107239513Y-111381311D01*
X107144275Y-111333692D01*
X107096656Y-111286073D01*
%TO.C,BT1*%
X106464285Y-45678571D02*
X106607142Y-45726190D01*
X106654761Y-45773809D01*
X106702380Y-45869047D01*
X106702380Y-46011904D01*
X106654761Y-46107142D01*
X106607142Y-46154761D01*
X106511904Y-46202380D01*
X106130952Y-46202380D01*
X106130952Y-45202380D01*
X106464285Y-45202380D01*
X106559523Y-45250000D01*
X106607142Y-45297619D01*
X106654761Y-45392857D01*
X106654761Y-45488095D01*
X106607142Y-45583333D01*
X106559523Y-45630952D01*
X106464285Y-45678571D01*
X106130952Y-45678571D01*
X106988095Y-45202380D02*
X107559523Y-45202380D01*
X107273809Y-46202380D02*
X107273809Y-45202380D01*
X108416666Y-46202380D02*
X107845238Y-46202380D01*
X108130952Y-46202380D02*
X108130952Y-45202380D01*
X108035714Y-45345238D01*
X107940476Y-45440476D01*
X107845238Y-45488095D01*
%TO.C,C4*%
X104187145Y-109995719D02*
X104225240Y-110033814D01*
X104263335Y-110148100D01*
X104263335Y-110224290D01*
X104225240Y-110338576D01*
X104149050Y-110414766D01*
X104072859Y-110452862D01*
X103920478Y-110490957D01*
X103806192Y-110490957D01*
X103653811Y-110452862D01*
X103577621Y-110414766D01*
X103501431Y-110338576D01*
X103463335Y-110224290D01*
X103463335Y-110148100D01*
X103501431Y-110033814D01*
X103539526Y-109995719D01*
X103730002Y-109310005D02*
X104263335Y-109310005D01*
X103425240Y-109500481D02*
X103996669Y-109690957D01*
X103996669Y-109195719D01*
%TO.C,BT2*%
X106464285Y-68388571D02*
X106607142Y-68436190D01*
X106654761Y-68483809D01*
X106702380Y-68579047D01*
X106702380Y-68721904D01*
X106654761Y-68817142D01*
X106607142Y-68864761D01*
X106511904Y-68912380D01*
X106130952Y-68912380D01*
X106130952Y-67912380D01*
X106464285Y-67912380D01*
X106559523Y-67960000D01*
X106607142Y-68007619D01*
X106654761Y-68102857D01*
X106654761Y-68198095D01*
X106607142Y-68293333D01*
X106559523Y-68340952D01*
X106464285Y-68388571D01*
X106130952Y-68388571D01*
X106988095Y-67912380D02*
X107559523Y-67912380D01*
X107273809Y-68912380D02*
X107273809Y-67912380D01*
X107845238Y-68007619D02*
X107892857Y-67960000D01*
X107988095Y-67912380D01*
X108226190Y-67912380D01*
X108321428Y-67960000D01*
X108369047Y-68007619D01*
X108416666Y-68102857D01*
X108416666Y-68198095D01*
X108369047Y-68340952D01*
X107797619Y-68912380D01*
X108416666Y-68912380D01*
%TO.C,TP1*%
X95607139Y-95893789D02*
X96178567Y-95893789D01*
X95892853Y-96893789D02*
X95892853Y-95893789D01*
X96511901Y-96893789D02*
X96511901Y-95893789D01*
X96892853Y-95893789D01*
X96988091Y-95941409D01*
X97035710Y-95989028D01*
X97083329Y-96084266D01*
X97083329Y-96227123D01*
X97035710Y-96322361D01*
X96988091Y-96369980D01*
X96892853Y-96417599D01*
X96511901Y-96417599D01*
X98035710Y-96893789D02*
X97464282Y-96893789D01*
X97749996Y-96893789D02*
X97749996Y-95893789D01*
X97654758Y-96036647D01*
X97559520Y-96131885D01*
X97464282Y-96179504D01*
D12*
%TO.C,L1*%
X99912021Y-103952380D02*
X99435831Y-103952380D01*
X99435831Y-102952380D01*
X100769164Y-103952380D02*
X100197736Y-103952380D01*
X100483450Y-103952380D02*
X100483450Y-102952380D01*
X100388212Y-103095238D01*
X100292974Y-103190476D01*
X100197736Y-103238095D01*
D10*
%TO.C,C6*%
X88414907Y-110417576D02*
X88453002Y-110455671D01*
X88491097Y-110569957D01*
X88491097Y-110646147D01*
X88453002Y-110760433D01*
X88376812Y-110836623D01*
X88300621Y-110874719D01*
X88148240Y-110912814D01*
X88033954Y-110912814D01*
X87881573Y-110874719D01*
X87805383Y-110836623D01*
X87729193Y-110760433D01*
X87691097Y-110646147D01*
X87691097Y-110569957D01*
X87729193Y-110455671D01*
X87767288Y-110417576D01*
X87691097Y-109731862D02*
X87691097Y-109884243D01*
X87729193Y-109960433D01*
X87767288Y-109998528D01*
X87881573Y-110074719D01*
X88033954Y-110112814D01*
X88338716Y-110112814D01*
X88414907Y-110074719D01*
X88453002Y-110036623D01*
X88491097Y-109960433D01*
X88491097Y-109808052D01*
X88453002Y-109731862D01*
X88414907Y-109693766D01*
X88338716Y-109655671D01*
X88148240Y-109655671D01*
X88072050Y-109693766D01*
X88033954Y-109731862D01*
X87995859Y-109808052D01*
X87995859Y-109960433D01*
X88033954Y-110036623D01*
X88072050Y-110074719D01*
X88148240Y-110112814D01*
%TO.C,TP4*%
X107607139Y-95893789D02*
X108178567Y-95893789D01*
X107892853Y-96893789D02*
X107892853Y-95893789D01*
X108511901Y-96893789D02*
X108511901Y-95893789D01*
X108892853Y-95893789D01*
X108988091Y-95941409D01*
X109035710Y-95989028D01*
X109083329Y-96084266D01*
X109083329Y-96227123D01*
X109035710Y-96322361D01*
X108988091Y-96369980D01*
X108892853Y-96417599D01*
X108511901Y-96417599D01*
X109940472Y-96227123D02*
X109940472Y-96893789D01*
X109702377Y-95846170D02*
X109464282Y-96560456D01*
X110083329Y-96560456D01*
%TO.C,TP3*%
X103607139Y-95893789D02*
X104178567Y-95893789D01*
X103892853Y-96893789D02*
X103892853Y-95893789D01*
X104511901Y-96893789D02*
X104511901Y-95893789D01*
X104892853Y-95893789D01*
X104988091Y-95941409D01*
X105035710Y-95989028D01*
X105083329Y-96084266D01*
X105083329Y-96227123D01*
X105035710Y-96322361D01*
X104988091Y-96369980D01*
X104892853Y-96417599D01*
X104511901Y-96417599D01*
X105416663Y-95893789D02*
X106035710Y-95893789D01*
X105702377Y-96274742D01*
X105845234Y-96274742D01*
X105940472Y-96322361D01*
X105988091Y-96369980D01*
X106035710Y-96465218D01*
X106035710Y-96703313D01*
X105988091Y-96798551D01*
X105940472Y-96846170D01*
X105845234Y-96893789D01*
X105559520Y-96893789D01*
X105464282Y-96846170D01*
X105416663Y-96798551D01*
%TO.C,U1*%
X103009463Y-113513480D02*
X103657082Y-113513480D01*
X103733273Y-113475385D01*
X103771368Y-113437290D01*
X103809463Y-113361099D01*
X103809463Y-113208718D01*
X103771368Y-113132528D01*
X103733273Y-113094433D01*
X103657082Y-113056337D01*
X103009463Y-113056337D01*
X103809463Y-112256337D02*
X103809463Y-112713480D01*
X103809463Y-112484909D02*
X103009463Y-112484909D01*
X103123749Y-112561099D01*
X103199939Y-112637290D01*
X103238035Y-112713480D01*
%TO.C,TP5*%
X111607139Y-95893789D02*
X112178567Y-95893789D01*
X111892853Y-96893789D02*
X111892853Y-95893789D01*
X112511901Y-96893789D02*
X112511901Y-95893789D01*
X112892853Y-95893789D01*
X112988091Y-95941409D01*
X113035710Y-95989028D01*
X113083329Y-96084266D01*
X113083329Y-96227123D01*
X113035710Y-96322361D01*
X112988091Y-96369980D01*
X112892853Y-96417599D01*
X112511901Y-96417599D01*
X113988091Y-95893789D02*
X113511901Y-95893789D01*
X113464282Y-96369980D01*
X113511901Y-96322361D01*
X113607139Y-96274742D01*
X113845234Y-96274742D01*
X113940472Y-96322361D01*
X113988091Y-96369980D01*
X114035710Y-96465218D01*
X114035710Y-96703313D01*
X113988091Y-96798551D01*
X113940472Y-96846170D01*
X113845234Y-96893789D01*
X113607139Y-96893789D01*
X113511901Y-96846170D01*
X113464282Y-96798551D01*
%TO.C,C2*%
X101963759Y-117810385D02*
X101925664Y-117848480D01*
X101811378Y-117886575D01*
X101735188Y-117886575D01*
X101620902Y-117848480D01*
X101544712Y-117772290D01*
X101506616Y-117696099D01*
X101468521Y-117543718D01*
X101468521Y-117429432D01*
X101506616Y-117277051D01*
X101544712Y-117200861D01*
X101620902Y-117124671D01*
X101735188Y-117086575D01*
X101811378Y-117086575D01*
X101925664Y-117124671D01*
X101963759Y-117162766D01*
X102268521Y-117162766D02*
X102306616Y-117124671D01*
X102382807Y-117086575D01*
X102573283Y-117086575D01*
X102649473Y-117124671D01*
X102687569Y-117162766D01*
X102725664Y-117238956D01*
X102725664Y-117315147D01*
X102687569Y-117429432D01*
X102230426Y-117886575D01*
X102725664Y-117886575D01*
%TO.C,R1*%
X99877066Y-118259253D02*
X99610400Y-117878301D01*
X99419923Y-118259253D02*
X99419923Y-117459253D01*
X99724685Y-117459253D01*
X99800876Y-117497349D01*
X99838971Y-117535444D01*
X99877066Y-117611634D01*
X99877066Y-117725920D01*
X99838971Y-117802110D01*
X99800876Y-117840206D01*
X99724685Y-117878301D01*
X99419923Y-117878301D01*
X100638971Y-118259253D02*
X100181828Y-118259253D01*
X100410400Y-118259253D02*
X100410400Y-117459253D01*
X100334209Y-117573539D01*
X100258019Y-117649729D01*
X100181828Y-117687825D01*
%TO.C,J1*%
X87702380Y-104083333D02*
X88416666Y-104083333D01*
X88559523Y-104130952D01*
X88654761Y-104226190D01*
X88702380Y-104369047D01*
X88702380Y-104464285D01*
X88702380Y-103083333D02*
X88702380Y-103654761D01*
X88702380Y-103369047D02*
X87702380Y-103369047D01*
X87845238Y-103464285D01*
X87940476Y-103559523D01*
X87988095Y-103654761D01*
%TO.C,TP2*%
X99607139Y-95893789D02*
X100178567Y-95893789D01*
X99892853Y-96893789D02*
X99892853Y-95893789D01*
X100511901Y-96893789D02*
X100511901Y-95893789D01*
X100892853Y-95893789D01*
X100988091Y-95941409D01*
X101035710Y-95989028D01*
X101083329Y-96084266D01*
X101083329Y-96227123D01*
X101035710Y-96322361D01*
X100988091Y-96369980D01*
X100892853Y-96417599D01*
X100511901Y-96417599D01*
X101464282Y-95989028D02*
X101511901Y-95941409D01*
X101607139Y-95893789D01*
X101845234Y-95893789D01*
X101940472Y-95941409D01*
X101988091Y-95989028D01*
X102035710Y-96084266D01*
X102035710Y-96179504D01*
X101988091Y-96322361D01*
X101416663Y-96893789D01*
X102035710Y-96893789D01*
%TO.C,U2*%
X111390476Y-104561904D02*
X111390476Y-105209523D01*
X111428571Y-105285714D01*
X111466666Y-105323809D01*
X111542857Y-105361904D01*
X111695238Y-105361904D01*
X111771428Y-105323809D01*
X111809523Y-105285714D01*
X111847619Y-105209523D01*
X111847619Y-104561904D01*
X112190476Y-104638095D02*
X112228571Y-104600000D01*
X112304761Y-104561904D01*
X112495238Y-104561904D01*
X112571428Y-104600000D01*
X112609523Y-104638095D01*
X112647619Y-104714285D01*
X112647619Y-104790476D01*
X112609523Y-104904761D01*
X112152380Y-105361904D01*
X112647619Y-105361904D01*
%TO.C,C3*%
X97445192Y-116136194D02*
X97397573Y-116183813D01*
X97254716Y-116231432D01*
X97159478Y-116231432D01*
X97016620Y-116183813D01*
X96921382Y-116088575D01*
X96873763Y-115993337D01*
X96826144Y-115802861D01*
X96826144Y-115660004D01*
X96873763Y-115469528D01*
X96921382Y-115374290D01*
X97016620Y-115279052D01*
X97159478Y-115231432D01*
X97254716Y-115231432D01*
X97397573Y-115279052D01*
X97445192Y-115326671D01*
X97778525Y-115231432D02*
X98397573Y-115231432D01*
X98064239Y-115612385D01*
X98207097Y-115612385D01*
X98302335Y-115660004D01*
X98349954Y-115707623D01*
X98397573Y-115802861D01*
X98397573Y-116040956D01*
X98349954Y-116136194D01*
X98302335Y-116183813D01*
X98207097Y-116231432D01*
X97921382Y-116231432D01*
X97826144Y-116183813D01*
X97778525Y-116136194D01*
%TO.C,R2*%
X104767854Y-111294272D02*
X104501188Y-110913320D01*
X104310711Y-111294272D02*
X104310711Y-110494272D01*
X104615473Y-110494272D01*
X104691664Y-110532368D01*
X104729759Y-110570463D01*
X104767854Y-110646653D01*
X104767854Y-110760939D01*
X104729759Y-110837129D01*
X104691664Y-110875225D01*
X104615473Y-110913320D01*
X104310711Y-110913320D01*
X105072616Y-110570463D02*
X105110711Y-110532368D01*
X105186902Y-110494272D01*
X105377378Y-110494272D01*
X105453568Y-110532368D01*
X105491664Y-110570463D01*
X105529759Y-110646653D01*
X105529759Y-110722844D01*
X105491664Y-110837129D01*
X105034521Y-111294272D01*
X105529759Y-111294272D01*
%TO.C,D1*%
X90261904Y-97702380D02*
X90261904Y-96702380D01*
X90500000Y-96702380D01*
X90642857Y-96750000D01*
X90738095Y-96845238D01*
X90785714Y-96940476D01*
X90833333Y-97130952D01*
X90833333Y-97273809D01*
X90785714Y-97464285D01*
X90738095Y-97559523D01*
X90642857Y-97654761D01*
X90500000Y-97702380D01*
X90261904Y-97702380D01*
X91785714Y-97702380D02*
X91214285Y-97702380D01*
X91500000Y-97702380D02*
X91500000Y-96702380D01*
X91404761Y-96845238D01*
X91309523Y-96940476D01*
X91214285Y-96988095D01*
%TO.C,C1*%
X97456589Y-107230404D02*
X97418494Y-107268499D01*
X97304208Y-107306594D01*
X97228018Y-107306594D01*
X97113732Y-107268499D01*
X97037542Y-107192309D01*
X96999446Y-107116118D01*
X96961351Y-106963737D01*
X96961351Y-106849451D01*
X96999446Y-106697070D01*
X97037542Y-106620880D01*
X97113732Y-106544690D01*
X97228018Y-106506594D01*
X97304208Y-106506594D01*
X97418494Y-106544690D01*
X97456589Y-106582785D01*
X98218494Y-107306594D02*
X97761351Y-107306594D01*
X97989923Y-107306594D02*
X97989923Y-106506594D01*
X97913732Y-106620880D01*
X97837542Y-106697070D01*
X97761351Y-106735166D01*
%TO.C,R3*%
X104695729Y-117733699D02*
X104429063Y-117352747D01*
X104238586Y-117733699D02*
X104238586Y-116933699D01*
X104543348Y-116933699D01*
X104619539Y-116971795D01*
X104657634Y-117009890D01*
X104695729Y-117086080D01*
X104695729Y-117200366D01*
X104657634Y-117276556D01*
X104619539Y-117314652D01*
X104543348Y-117352747D01*
X104238586Y-117352747D01*
X104962396Y-116933699D02*
X105457634Y-116933699D01*
X105190967Y-117238461D01*
X105305253Y-117238461D01*
X105381443Y-117276556D01*
X105419539Y-117314652D01*
X105457634Y-117390842D01*
X105457634Y-117581318D01*
X105419539Y-117657509D01*
X105381443Y-117695604D01*
X105305253Y-117733699D01*
X105076682Y-117733699D01*
X105000491Y-117695604D01*
X104962396Y-117657509D01*
D11*
%TO.C,U3*%
X57560518Y-110202233D02*
X62742606Y-110202233D01*
X62742606Y-110202233D02*
X62742606Y-101683867D01*
X62742606Y-101683867D02*
X57560518Y-101683867D01*
X57560518Y-101683867D02*
X57560518Y-110202233D01*
%TO.C,J2*%
X124005000Y-114580000D02*
X121405000Y-114580000D01*
X126605000Y-111920000D02*
X126605000Y-113250000D01*
X124005000Y-111920000D02*
X124005000Y-114580000D01*
X124005000Y-111920000D02*
X121405000Y-111920000D01*
X121405000Y-111920000D02*
X121405000Y-114580000D01*
X125275000Y-111920000D02*
X126605000Y-111920000D01*
%TO.C,U5*%
X123840000Y-109910000D02*
X122100000Y-109910000D01*
X123400000Y-107090000D02*
X122100000Y-107090000D01*
%TO.C,U4*%
X74750000Y-97690000D02*
X72800000Y-97690000D01*
X74750000Y-97690000D02*
X76700000Y-97690000D01*
X74750000Y-102810000D02*
X78200000Y-102810000D01*
X74750000Y-102810000D02*
X72800000Y-102810000D01*
%TO.C,R9*%
X125653641Y-108139432D02*
X125346359Y-108139432D01*
X125653641Y-107379432D02*
X125346359Y-107379432D01*
%TO.C,R8*%
X125642352Y-108892068D02*
X125335070Y-108892068D01*
X125642352Y-109652068D02*
X125335070Y-109652068D01*
%TO.C,R7*%
X79257411Y-101472859D02*
X79257411Y-101947375D01*
X80302411Y-101472859D02*
X80302411Y-101947375D01*
%TO.C,R6*%
X68598120Y-101415691D02*
X69072636Y-101415691D01*
X68598120Y-100370691D02*
X69072636Y-100370691D01*
%TO.C,R5*%
X69033505Y-98455366D02*
X69508021Y-98455366D01*
X69033505Y-97410366D02*
X69508021Y-97410366D01*
%TO.C,R4*%
X65553693Y-103873442D02*
X66007821Y-103873442D01*
X65553693Y-105343442D02*
X66007821Y-105343442D01*
%TO.C,D3*%
X67070378Y-100142651D02*
X64785378Y-100142651D01*
X67070378Y-101612651D02*
X67070378Y-100142651D01*
X64785378Y-101612651D02*
X67070378Y-101612651D01*
%TO.C,D2*%
X67415763Y-96957866D02*
X64730763Y-96957866D01*
X67415763Y-98877866D02*
X67415763Y-96957866D01*
X64730763Y-98877866D02*
X67415763Y-98877866D01*
%TO.C,C9*%
X71855304Y-96610000D02*
X71639632Y-96610000D01*
X71855304Y-95890000D02*
X71639632Y-95890000D01*
%TO.C,C8*%
X67971131Y-104981991D02*
X67971131Y-105197663D01*
X68691131Y-104981991D02*
X68691131Y-105197663D01*
%TO.C,C7*%
X116740000Y-106140580D02*
X116740000Y-105859420D01*
X117760000Y-106140580D02*
X117760000Y-105859420D01*
%TO.C,C5*%
X106015000Y-113535923D02*
X106015000Y-113013419D01*
X107485000Y-113535923D02*
X107485000Y-113013419D01*
%TO.C,BT1*%
X68610000Y-53810000D02*
X64250000Y-53810000D01*
X145890000Y-46810000D02*
X68610000Y-46810000D01*
X151000000Y-51250000D02*
X148500000Y-51250000D01*
X68610000Y-46810000D02*
X68610000Y-53810000D01*
X64750000Y-52500000D02*
X64750000Y-50000000D01*
X145890000Y-60690000D02*
X145890000Y-67690000D01*
X145890000Y-67690000D02*
X68610000Y-67690000D01*
X63500000Y-51250000D02*
X66000000Y-51250000D01*
X145890000Y-53810000D02*
X145890000Y-46830000D01*
X68610000Y-67690000D02*
X68610000Y-60690000D01*
%TO.C,C4*%
X101383672Y-110402090D02*
X101102512Y-110402090D01*
X101383672Y-109382090D02*
X101102512Y-109382090D01*
%TO.C,BT2*%
X151000000Y-73960000D02*
X148500000Y-73960000D01*
X68610000Y-76520000D02*
X64250000Y-76520000D01*
X145890000Y-83400000D02*
X145890000Y-90400000D01*
X63500000Y-73960000D02*
X66000000Y-73960000D01*
X145890000Y-69520000D02*
X68610000Y-69520000D01*
X145890000Y-76520000D02*
X145890000Y-69540000D01*
X68610000Y-69520000D02*
X68610000Y-76520000D01*
X64750000Y-75210000D02*
X64750000Y-72710000D01*
X68610000Y-90400000D02*
X68610000Y-83400000D01*
X145890000Y-90400000D02*
X68610000Y-90400000D01*
%TO.C,TP1*%
X98069044Y-98691409D02*
G75*
G03*
X98069044Y-98691409I-1200000J0D01*
G01*
D10*
%TO.C,L1*%
X99415936Y-104209943D02*
X99418936Y-104424943D01*
X103568936Y-104404943D02*
X103568936Y-104209943D01*
X103568936Y-104209943D02*
X99415936Y-104209943D01*
X103580936Y-108400943D02*
X103578936Y-108204943D01*
X99428936Y-108400943D02*
X103580936Y-108400943D01*
X99428936Y-108194943D02*
X99428936Y-108400943D01*
D11*
%TO.C,C6*%
X90251430Y-110799925D02*
X89970270Y-110799925D01*
X90251430Y-109779925D02*
X89970270Y-109779925D01*
%TO.C,TP4*%
X110069044Y-98691409D02*
G75*
G03*
X110069044Y-98691409I-1200000J0D01*
G01*
%TO.C,TP3*%
X106069044Y-98691409D02*
G75*
G03*
X106069044Y-98691409I-1200000J0D01*
G01*
%TO.C,U1*%
X100847093Y-110890000D02*
X102097093Y-110890000D01*
X99597093Y-113610000D02*
X102097093Y-113610000D01*
%TO.C,TP5*%
X114069044Y-98691409D02*
G75*
G03*
X114069044Y-98691409I-1200000J0D01*
G01*
%TO.C,C2*%
X101544497Y-115511190D02*
X101544497Y-115230030D01*
X102564497Y-115511190D02*
X102564497Y-115230030D01*
%TO.C,R1*%
X99414074Y-115280361D02*
X99414074Y-115734489D01*
X100884074Y-115280361D02*
X100884074Y-115734489D01*
%TO.C,J1*%
X92236054Y-106091467D02*
X89576054Y-106091467D01*
X92236054Y-103491467D02*
X89576054Y-103491467D01*
X92236054Y-107361467D02*
X92236054Y-108691467D01*
X92236054Y-108691467D02*
X90906054Y-108691467D01*
X92236054Y-106091467D02*
X92236054Y-103491467D01*
X89576054Y-106091467D02*
X89576054Y-103491467D01*
%TO.C,TP2*%
X102069044Y-98691409D02*
G75*
G03*
X102069044Y-98691409I-1200000J0D01*
G01*
%TO.C,U2*%
X112090000Y-105890000D02*
X114810000Y-105890000D01*
X112090000Y-107200000D02*
X112090000Y-105890000D01*
X114810000Y-110610000D02*
X112090000Y-110610000D01*
X112090000Y-110610000D02*
X112090000Y-109300000D01*
X114810000Y-110610000D02*
X114810000Y-110380000D01*
X115950000Y-110380000D02*
X114810000Y-110380000D01*
X114810000Y-105890000D02*
X114810000Y-106120000D01*
%TO.C,C3*%
X97177836Y-113667946D02*
X97177836Y-113386786D01*
X98197836Y-113667946D02*
X98197836Y-113386786D01*
%TO.C,R2*%
X104336674Y-112837226D02*
X104336674Y-113311742D01*
X105381674Y-112837226D02*
X105381674Y-113311742D01*
%TO.C,D1*%
X89906054Y-102586467D02*
X91906054Y-102586467D01*
X89906054Y-102586467D02*
X89906054Y-98686467D01*
X91906054Y-102586467D02*
X91906054Y-98686467D01*
%TO.C,C1*%
X96862093Y-109536581D02*
X96862093Y-109014077D01*
X98332093Y-109536581D02*
X98332093Y-109014077D01*
%TO.C,R3*%
X105433080Y-116497780D02*
X105907596Y-116497780D01*
X105433080Y-115452780D02*
X105907596Y-115452780D01*
%TD*%
%LPC*%
D13*
%TO.C,U3*%
X61975000Y-104625000D03*
X61975000Y-105275000D03*
X61975000Y-105925000D03*
X61975000Y-106575000D03*
X61975000Y-107225000D03*
D14*
X59325000Y-106725000D03*
D15*
X62000000Y-108350000D03*
D14*
X59325000Y-105125000D03*
D15*
X62000000Y-103500000D03*
D16*
X59300000Y-102325000D03*
X59300000Y-109525000D03*
%TD*%
D17*
%TO.C,J2*%
X122735000Y-113250000D03*
D18*
X125275000Y-113250000D03*
%TD*%
D19*
%TO.C,U5*%
X122750000Y-108500000D03*
D20*
X121575000Y-109250000D03*
X121575000Y-108750000D03*
X121575000Y-108250000D03*
X121575000Y-107750000D03*
X123925000Y-107750000D03*
X123925000Y-108250000D03*
X123925000Y-108750000D03*
X123925000Y-109250000D03*
%TD*%
D21*
%TO.C,U4*%
X74750000Y-100250000D03*
D22*
X72275000Y-102155000D03*
X72275000Y-100885000D03*
X72275000Y-99615000D03*
X72275000Y-98345000D03*
X77225000Y-98345000D03*
X77225000Y-99615000D03*
X77225000Y-100885000D03*
X77225000Y-102155000D03*
%TD*%
D23*
%TO.C,R9*%
X126010000Y-107759432D03*
X124990000Y-107759432D03*
%TD*%
%TO.C,R8*%
X124978711Y-109272068D03*
X125998711Y-109272068D03*
%TD*%
D24*
%TO.C,R7*%
X79779911Y-100885117D03*
X79779911Y-102535117D03*
%TD*%
D25*
%TO.C,R6*%
X68010378Y-100893191D03*
X69660378Y-100893191D03*
%TD*%
%TO.C,R5*%
X68445763Y-97932866D03*
X70095763Y-97932866D03*
%TD*%
D26*
%TO.C,R4*%
X64868257Y-104608442D03*
X66693257Y-104608442D03*
%TD*%
D27*
%TO.C,D3*%
X66372878Y-100877651D03*
X64797878Y-100877651D03*
%TD*%
D28*
%TO.C,D2*%
X66668263Y-97917866D03*
X64793263Y-97917866D03*
%TD*%
D29*
%TO.C,C9*%
X71267468Y-96250000D03*
X72227468Y-96250000D03*
%TD*%
D30*
%TO.C,C8*%
X68331131Y-104609827D03*
X68331131Y-105569827D03*
%TD*%
D31*
%TO.C,C7*%
X117250000Y-105225000D03*
X117250000Y-106775000D03*
%TD*%
D32*
%TO.C,C5*%
X106750000Y-112324671D03*
X106750000Y-114224671D03*
%TD*%
D33*
%TO.C,BT1*%
X146580000Y-57250000D03*
X67920000Y-57250000D03*
D34*
X71320000Y-49250000D03*
D35*
X134850000Y-49250000D03*
X79650000Y-65250000D03*
%TD*%
D36*
%TO.C,C4*%
X102018092Y-109892090D03*
X100468092Y-109892090D03*
%TD*%
D35*
%TO.C,BT2*%
X134850000Y-71960000D03*
D34*
X71320000Y-71960000D03*
D35*
X79650000Y-87960000D03*
D33*
X67920000Y-79960000D03*
X146580000Y-79960000D03*
%TD*%
D37*
%TO.C,TP1*%
X96869044Y-98691409D03*
%TD*%
D38*
%TO.C,L1*%
X103098936Y-106304943D03*
X99898936Y-106304943D03*
%TD*%
D36*
%TO.C,C6*%
X90885850Y-110289925D03*
X89335850Y-110289925D03*
%TD*%
D37*
%TO.C,TP4*%
X108869044Y-98691409D03*
%TD*%
%TO.C,TP3*%
X104869044Y-98691409D03*
%TD*%
D39*
%TO.C,U1*%
X99634593Y-111250000D03*
X99634593Y-111750000D03*
X99634593Y-112250000D03*
X99634593Y-112750000D03*
X99634593Y-113250000D03*
X102059593Y-113250000D03*
X102059593Y-112750000D03*
X102059593Y-112250000D03*
X102059593Y-111750000D03*
X102059593Y-111250000D03*
D40*
X100847093Y-112250000D03*
%TD*%
D37*
%TO.C,TP5*%
X112869044Y-98691409D03*
%TD*%
D31*
%TO.C,C2*%
X102054497Y-116145610D03*
X102054497Y-114595610D03*
%TD*%
D41*
%TO.C,R1*%
X100149074Y-114594925D03*
X100149074Y-116419925D03*
%TD*%
D18*
%TO.C,J1*%
X90906054Y-107361467D03*
D17*
X90906054Y-104821467D03*
%TD*%
D37*
%TO.C,TP2*%
X100869044Y-98691409D03*
%TD*%
D42*
%TO.C,U2*%
X115400000Y-109750000D03*
D43*
X115312500Y-108250000D03*
D42*
X115400000Y-106750000D03*
%TD*%
D31*
%TO.C,C3*%
X97687836Y-114302366D03*
X97687836Y-112752366D03*
%TD*%
D24*
%TO.C,R2*%
X104859174Y-112249484D03*
X104859174Y-113899484D03*
%TD*%
D44*
%TO.C,D1*%
X90906054Y-101986467D03*
X90906054Y-98686467D03*
%TD*%
D32*
%TO.C,C1*%
X97597093Y-110225329D03*
X97597093Y-108325329D03*
%TD*%
D25*
%TO.C,R3*%
X104845338Y-115975280D03*
X106495338Y-115975280D03*
%TD*%
M02*
