%TF.GenerationSoftware,KiCad,Pcbnew,(6.0.8)*%
%TF.CreationDate,2023-04-17T13:42:39+02:00*%
%TF.ProjectId,Group22_Power,47726f75-7032-4325-9f50-6f7765722e6b,rev?*%
%TF.SameCoordinates,Original*%
%TF.FileFunction,Copper,L1,Top*%
%TF.FilePolarity,Positive*%
%FSLAX46Y46*%
G04 Gerber Fmt 4.6, Leading zero omitted, Abs format (unit mm)*
G04 Created by KiCad (PCBNEW (6.0.8)) date 2023-04-17 13:42:39*
%MOMM*%
%LPD*%
G01*
G04 APERTURE LIST*
G04 Aperture macros list*
%AMRoundRect*
0 Rectangle with rounded corners*
0 $1 Rounding radius*
0 $2 $3 $4 $5 $6 $7 $8 $9 X,Y pos of 4 corners*
0 Add a 4 corners polygon primitive as box body*
4,1,4,$2,$3,$4,$5,$6,$7,$8,$9,$2,$3,0*
0 Add four circle primitives for the rounded corners*
1,1,$1+$1,$2,$3*
1,1,$1+$1,$4,$5*
1,1,$1+$1,$6,$7*
1,1,$1+$1,$8,$9*
0 Add four rect primitives between the rounded corners*
20,1,$1+$1,$2,$3,$4,$5,0*
20,1,$1+$1,$4,$5,$6,$7,0*
20,1,$1+$1,$6,$7,$8,$9,0*
20,1,$1+$1,$8,$9,$2,$3,0*%
%AMFreePoly0*
4,1,6,0.500000,-0.850000,-0.500000,-0.850000,-0.500000,0.550000,-0.200000,0.850000,0.500000,0.850000,0.500000,-0.850000,0.500000,-0.850000,$1*%
G04 Aperture macros list end*
%TA.AperFunction,SMDPad,CuDef*%
%ADD10R,0.550000X0.250000*%
%TD*%
%TA.AperFunction,SMDPad,CuDef*%
%ADD11FreePoly0,0.000000*%
%TD*%
%TA.AperFunction,SMDPad,CuDef*%
%ADD12RoundRect,0.150000X-0.587500X-0.150000X0.587500X-0.150000X0.587500X0.150000X-0.587500X0.150000X0*%
%TD*%
%TA.AperFunction,SMDPad,CuDef*%
%ADD13R,2.200000X1.200000*%
%TD*%
%TA.AperFunction,SMDPad,CuDef*%
%ADD14R,6.400000X5.800000*%
%TD*%
%TA.AperFunction,SMDPad,CuDef*%
%ADD15C,2.000000*%
%TD*%
%TA.AperFunction,SMDPad,CuDef*%
%ADD16RoundRect,0.135000X-0.135000X-0.185000X0.135000X-0.185000X0.135000X0.185000X-0.135000X0.185000X0*%
%TD*%
%TA.AperFunction,SMDPad,CuDef*%
%ADD17RoundRect,0.250000X-0.262500X-0.450000X0.262500X-0.450000X0.262500X0.450000X-0.262500X0.450000X0*%
%TD*%
%TA.AperFunction,ComponentPad*%
%ADD18R,1.700000X1.700000*%
%TD*%
%TA.AperFunction,ComponentPad*%
%ADD19O,1.700000X1.700000*%
%TD*%
%TA.AperFunction,SMDPad,CuDef*%
%ADD20RoundRect,0.250000X-0.325000X-0.650000X0.325000X-0.650000X0.325000X0.650000X-0.325000X0.650000X0*%
%TD*%
%TA.AperFunction,SMDPad,CuDef*%
%ADD21RoundRect,0.225000X-0.225000X-0.250000X0.225000X-0.250000X0.225000X0.250000X-0.225000X0.250000X0*%
%TD*%
%TA.AperFunction,SMDPad,CuDef*%
%ADD22R,7.340000X6.350000*%
%TD*%
G04 APERTURE END LIST*
D10*
%TO.P,U4,1,SDA*%
%TO.N,/Sensors/SDA*%
X196090000Y-63670000D03*
%TO.P,U4,2,ADDR*%
%TO.N,GND*%
X196090000Y-64170000D03*
%TO.P,U4,3,ALERT*%
%TO.N,unconnected-(U4-Pad3)*%
X196090000Y-64670000D03*
%TO.P,U4,4,SCL*%
%TO.N,/Sensors/SCL*%
X196090000Y-65170000D03*
%TO.P,U4,5,VDD*%
%TO.N,+3V3REG*%
X198440000Y-65170000D03*
%TO.P,U4,6,~{RESET}*%
%TO.N,unconnected-(U4-Pad6)*%
X198440000Y-64670000D03*
%TO.P,U4,7,R*%
%TO.N,GND*%
X198440000Y-64170000D03*
%TO.P,U4,8,VSS*%
X198440000Y-63670000D03*
D11*
%TO.P,U4,9,VSS*%
X197265000Y-64420000D03*
%TD*%
D12*
%TO.P,U3,1,VOUT*%
%TO.N,Net-(J2-Pad1)*%
X99247500Y-109090000D03*
%TO.P,U3,2,GND*%
%TO.N,GND*%
X99247500Y-110990000D03*
%TO.P,U3,3,VIN*%
%TO.N,+5VREG*%
X101122500Y-110040000D03*
%TD*%
%TO.P,U2,1,GND*%
%TO.N,GND*%
X183217500Y-63670000D03*
%TO.P,U2,2,Vout*%
%TO.N,+3V3REG*%
X183217500Y-65570000D03*
%TO.P,U2,3,Vin*%
%TO.N,+5VREG(Protected)*%
X185092500Y-64620000D03*
%TD*%
D13*
%TO.P,U1,1,Vin*%
%TO.N,Bat (Protected)*%
X171435000Y-64140000D03*
D14*
%TO.P,U1,2,GND*%
%TO.N,GND*%
X177735000Y-66420000D03*
D13*
%TO.P,U1,3,Vout*%
%TO.N,+5VREG*%
X171435000Y-68700000D03*
%TD*%
D15*
%TO.P,TP6,1,1*%
%TO.N,/Bat+*%
X87015000Y-127300000D03*
%TD*%
%TO.P,TP5,1,1*%
%TO.N,+5VREG*%
X87015000Y-131350000D03*
%TD*%
%TO.P,TP4,1,1*%
%TO.N,+5VREG(Protected)*%
X91065000Y-127300000D03*
%TD*%
%TO.P,TP3,1,1*%
%TO.N,+3V3REG*%
X91065000Y-131350000D03*
%TD*%
%TO.P,TP2,1,1*%
%TO.N,Bat (Protected)*%
X82965000Y-127300000D03*
%TD*%
%TO.P,TP1,1,1*%
%TO.N,GND*%
X82965000Y-131350000D03*
%TD*%
D16*
%TO.P,R5,1*%
%TO.N,+3V3REG*%
X200435000Y-63390000D03*
%TO.P,R5,2*%
%TO.N,/Sensors/SCL*%
X201455000Y-63390000D03*
%TD*%
%TO.P,R4,1*%
%TO.N,+3V3REG*%
X195985000Y-67440000D03*
%TO.P,R4,2*%
%TO.N,/Sensors/SDA*%
X197005000Y-67440000D03*
%TD*%
D17*
%TO.P,R3,1*%
%TO.N,Net-(Q2-Pad1)*%
X82232500Y-120690000D03*
%TO.P,R3,2*%
%TO.N,Net-(Q1-Pad3)*%
X84057500Y-120690000D03*
%TD*%
D16*
%TO.P,R2,1*%
%TO.N,Net-(J2-Pad1)*%
X106065000Y-108810000D03*
%TO.P,R2,2*%
%TO.N,GND*%
X107085000Y-108810000D03*
%TD*%
%TO.P,R1,1*%
%TO.N,+5VREG*%
X108975000Y-108810000D03*
%TO.P,R1,2*%
%TO.N,Net-(Q2-Pad1)*%
X109995000Y-108810000D03*
%TD*%
D13*
%TO.P,Q2,1,G*%
%TO.N,Net-(Q2-Pad1)*%
X82815000Y-109560000D03*
D14*
%TO.P,Q2,2,D*%
%TO.N,+5VREG(Protected)*%
X89115000Y-111840000D03*
D13*
%TO.P,Q2,3,S*%
%TO.N,+5VREG*%
X82815000Y-114120000D03*
%TD*%
D12*
%TO.P,Q1,1,G*%
%TO.N,Net-(J2-Pad1)*%
X88097500Y-117140000D03*
%TO.P,Q1,2,S*%
%TO.N,GND*%
X88097500Y-119040000D03*
%TO.P,Q1,3,D*%
%TO.N,Net-(Q1-Pad3)*%
X89972500Y-118090000D03*
%TD*%
D18*
%TO.P,J3,1,Pin_1*%
%TO.N,/Sensors/SCL*%
X192715000Y-64720000D03*
D19*
%TO.P,J3,2,Pin_2*%
%TO.N,/Sensors/SDA*%
X192715000Y-67260000D03*
%TD*%
D18*
%TO.P,J2,1,Pin_1*%
%TO.N,Net-(J2-Pad1)*%
X171885000Y-72770000D03*
D19*
%TO.P,J2,2,Pin_2*%
%TO.N,+5VREG*%
X171885000Y-75310000D03*
%TD*%
D18*
%TO.P,J1,1,Pin_1*%
%TO.N,Bat (Protected)*%
X95415000Y-110140000D03*
D19*
%TO.P,J1,2,Pin_2*%
%TO.N,Net-(D1-Pad1)*%
X95415000Y-112680000D03*
%TD*%
D20*
%TO.P,C4,1*%
%TO.N,+5VREG(Protected)*%
X82290000Y-117540000D03*
%TO.P,C4,2*%
%TO.N,GND*%
X85240000Y-117540000D03*
%TD*%
D21*
%TO.P,C3,1*%
%TO.N,Bat (Protected)*%
X102340000Y-113520000D03*
%TO.P,C3,2*%
%TO.N,GND*%
X103890000Y-113520000D03*
%TD*%
%TO.P,C2,1*%
%TO.N,+3V3REG*%
X94320000Y-116270000D03*
%TO.P,C2,2*%
%TO.N,GND*%
X95870000Y-116270000D03*
%TD*%
%TO.P,C1,1*%
%TO.N,+5VREG*%
X98330000Y-116270000D03*
%TO.P,C1,2*%
%TO.N,GND*%
X99880000Y-116270000D03*
%TD*%
D22*
%TO.P,BT2,1,+*%
%TO.N,Net-(BT1-Pad2)*%
X85920000Y-96460000D03*
%TO.P,BT2,2,-*%
%TO.N,GND*%
X164580000Y-96460000D03*
%TD*%
%TO.P,BT1,1,+*%
%TO.N,Bat+*%
X85920000Y-73750000D03*
%TO.P,BT1,2,-*%
%TO.N,Net-(BT1-Pad2)*%
X164580000Y-73750000D03*
%TD*%
M02*
