%TF.GenerationSoftware,KiCad,Pcbnew,(6.0.8)*%
%TF.CreationDate,2023-04-19T11:33:21+02:00*%
%TF.ProjectId,Group22_Power,47726f75-7032-4325-9f50-6f7765722e6b,rev?*%
%TF.SameCoordinates,Original*%
%TF.FileFunction,Legend,Bot*%
%TF.FilePolarity,Positive*%
%FSLAX46Y46*%
G04 Gerber Fmt 4.6, Leading zero omitted, Abs format (unit mm)*
G04 Created by KiCad (PCBNEW (6.0.8)) date 2023-04-19 11:33:21*
%MOMM*%
%LPD*%
G01*
G04 APERTURE LIST*
%ADD10C,0.150000*%
%ADD11C,0.120000*%
%ADD12R,1.700000X1.700000*%
%ADD13O,1.700000X1.700000*%
%ADD14C,3.450000*%
%ADD15C,2.390000*%
%ADD16C,0.700000*%
%ADD17O,1.600000X1.000000*%
%ADD18C,0.650000*%
%ADD19O,1.900000X1.070000*%
%ADD20C,1.300000*%
G04 APERTURE END LIST*
D10*
X67261904Y-137250000D02*
X67357142Y-137202380D01*
X67500000Y-137202380D01*
X67642857Y-137250000D01*
X67738095Y-137345238D01*
X67785714Y-137440476D01*
X67833333Y-137630952D01*
X67833333Y-137773809D01*
X67785714Y-137964285D01*
X67738095Y-138059523D01*
X67642857Y-138154761D01*
X67500000Y-138202380D01*
X67404761Y-138202380D01*
X67261904Y-138154761D01*
X67214285Y-138107142D01*
X67214285Y-137773809D01*
X67404761Y-137773809D01*
X66785714Y-138202380D02*
X66785714Y-137202380D01*
X66214285Y-138202380D01*
X66214285Y-137202380D01*
X65738095Y-138202380D02*
X65738095Y-137202380D01*
X65500000Y-137202380D01*
X65357142Y-137250000D01*
X65261904Y-137345238D01*
X65214285Y-137440476D01*
X65166666Y-137630952D01*
X65166666Y-137773809D01*
X65214285Y-137964285D01*
X65261904Y-138059523D01*
X65357142Y-138154761D01*
X65500000Y-138202380D01*
X65738095Y-138202380D01*
X97535714Y-120071428D02*
X96773809Y-120071428D01*
X97154761Y-120452380D02*
X97154761Y-119690476D01*
X95821428Y-119452380D02*
X96297619Y-119452380D01*
X96345238Y-119928571D01*
X96297619Y-119880952D01*
X96202380Y-119833333D01*
X95964285Y-119833333D01*
X95869047Y-119880952D01*
X95821428Y-119928571D01*
X95773809Y-120023809D01*
X95773809Y-120261904D01*
X95821428Y-120357142D01*
X95869047Y-120404761D01*
X95964285Y-120452380D01*
X96202380Y-120452380D01*
X96297619Y-120404761D01*
X96345238Y-120357142D01*
X95488095Y-119452380D02*
X95154761Y-120452380D01*
X94821428Y-119452380D01*
X151285714Y-140071428D02*
X150523809Y-140071428D01*
X150904761Y-140452380D02*
X150904761Y-139690476D01*
X149571428Y-139452380D02*
X150047619Y-139452380D01*
X150095238Y-139928571D01*
X150047619Y-139880952D01*
X149952380Y-139833333D01*
X149714285Y-139833333D01*
X149619047Y-139880952D01*
X149571428Y-139928571D01*
X149523809Y-140023809D01*
X149523809Y-140261904D01*
X149571428Y-140357142D01*
X149619047Y-140404761D01*
X149714285Y-140452380D01*
X149952380Y-140452380D01*
X150047619Y-140404761D01*
X150095238Y-140357142D01*
X149238095Y-139452380D02*
X148904761Y-140452380D01*
X148571428Y-139452380D01*
X66692857Y-125530952D02*
X66692857Y-125797619D01*
X67111904Y-125911904D02*
X67111904Y-125530952D01*
X66311904Y-125530952D01*
X66311904Y-125911904D01*
X67073809Y-126216666D02*
X67111904Y-126330952D01*
X67111904Y-126521428D01*
X67073809Y-126597619D01*
X67035714Y-126635714D01*
X66959523Y-126673809D01*
X66883333Y-126673809D01*
X66807142Y-126635714D01*
X66769047Y-126597619D01*
X66730952Y-126521428D01*
X66692857Y-126369047D01*
X66654761Y-126292857D01*
X66616666Y-126254761D01*
X66540476Y-126216666D01*
X66464285Y-126216666D01*
X66388095Y-126254761D01*
X66350000Y-126292857D01*
X66311904Y-126369047D01*
X66311904Y-126559523D01*
X66350000Y-126673809D01*
X67111904Y-127016666D02*
X66311904Y-127016666D01*
X66311904Y-127321428D01*
X66350000Y-127397619D01*
X66388095Y-127435714D01*
X66464285Y-127473809D01*
X66578571Y-127473809D01*
X66654761Y-127435714D01*
X66692857Y-127397619D01*
X66730952Y-127321428D01*
X66730952Y-127016666D01*
X66311904Y-127740476D02*
X66311904Y-128235714D01*
X66616666Y-127969047D01*
X66616666Y-128083333D01*
X66654761Y-128159523D01*
X66692857Y-128197619D01*
X66769047Y-128235714D01*
X66959523Y-128235714D01*
X67035714Y-128197619D01*
X67073809Y-128159523D01*
X67111904Y-128083333D01*
X67111904Y-127854761D01*
X67073809Y-127778571D01*
X67035714Y-127740476D01*
X66388095Y-128540476D02*
X66350000Y-128578571D01*
X66311904Y-128654761D01*
X66311904Y-128845238D01*
X66350000Y-128921428D01*
X66388095Y-128959523D01*
X66464285Y-128997619D01*
X66540476Y-128997619D01*
X66654761Y-128959523D01*
X67111904Y-128502380D01*
X67111904Y-128997619D01*
X67035714Y-130407142D02*
X67073809Y-130369047D01*
X67111904Y-130254761D01*
X67111904Y-130178571D01*
X67073809Y-130064285D01*
X66997619Y-129988095D01*
X66921428Y-129950000D01*
X66769047Y-129911904D01*
X66654761Y-129911904D01*
X66502380Y-129950000D01*
X66426190Y-129988095D01*
X66350000Y-130064285D01*
X66311904Y-130178571D01*
X66311904Y-130254761D01*
X66350000Y-130369047D01*
X66388095Y-130407142D01*
X66883333Y-130711904D02*
X66883333Y-131092857D01*
X67111904Y-130635714D02*
X66311904Y-130902380D01*
X67111904Y-131169047D01*
X67111904Y-131435714D02*
X66311904Y-131435714D01*
X66883333Y-131702380D01*
X66311904Y-131969047D01*
X67111904Y-131969047D01*
X111850000Y-133361904D02*
X112116666Y-132980952D01*
X112307142Y-133361904D02*
X112307142Y-132561904D01*
X112002380Y-132561904D01*
X111926190Y-132600000D01*
X111888095Y-132638095D01*
X111850000Y-132714285D01*
X111850000Y-132828571D01*
X111888095Y-132904761D01*
X111926190Y-132942857D01*
X112002380Y-132980952D01*
X112307142Y-132980952D01*
X111164285Y-133361904D02*
X111164285Y-132942857D01*
X111202380Y-132866666D01*
X111278571Y-132828571D01*
X111430952Y-132828571D01*
X111507142Y-132866666D01*
X111164285Y-133323809D02*
X111240476Y-133361904D01*
X111430952Y-133361904D01*
X111507142Y-133323809D01*
X111545238Y-133247619D01*
X111545238Y-133171428D01*
X111507142Y-133095238D01*
X111430952Y-133057142D01*
X111240476Y-133057142D01*
X111164285Y-133019047D01*
X110821428Y-133323809D02*
X110745238Y-133361904D01*
X110592857Y-133361904D01*
X110516666Y-133323809D01*
X110478571Y-133247619D01*
X110478571Y-133209523D01*
X110516666Y-133133333D01*
X110592857Y-133095238D01*
X110707142Y-133095238D01*
X110783333Y-133057142D01*
X110821428Y-132980952D01*
X110821428Y-132942857D01*
X110783333Y-132866666D01*
X110707142Y-132828571D01*
X110592857Y-132828571D01*
X110516666Y-132866666D01*
X110135714Y-132828571D02*
X110135714Y-133628571D01*
X110135714Y-132866666D02*
X110059523Y-132828571D01*
X109907142Y-132828571D01*
X109830952Y-132866666D01*
X109792857Y-132904761D01*
X109754761Y-132980952D01*
X109754761Y-133209523D01*
X109792857Y-133285714D01*
X109830952Y-133323809D01*
X109907142Y-133361904D01*
X110059523Y-133361904D01*
X110135714Y-133323809D01*
X109411904Y-133361904D02*
X109411904Y-132561904D01*
X109411904Y-132866666D02*
X109335714Y-132828571D01*
X109183333Y-132828571D01*
X109107142Y-132866666D01*
X109069047Y-132904761D01*
X109030952Y-132980952D01*
X109030952Y-133209523D01*
X109069047Y-133285714D01*
X109107142Y-133323809D01*
X109183333Y-133361904D01*
X109335714Y-133361904D01*
X109411904Y-133323809D01*
X108383333Y-133323809D02*
X108459523Y-133361904D01*
X108611904Y-133361904D01*
X108688095Y-133323809D01*
X108726190Y-133247619D01*
X108726190Y-132942857D01*
X108688095Y-132866666D01*
X108611904Y-132828571D01*
X108459523Y-132828571D01*
X108383333Y-132866666D01*
X108345238Y-132942857D01*
X108345238Y-133019047D01*
X108726190Y-133095238D01*
X108002380Y-133361904D02*
X108002380Y-132828571D01*
X108002380Y-132980952D02*
X107964285Y-132904761D01*
X107926190Y-132866666D01*
X107850000Y-132828571D01*
X107773809Y-132828571D01*
X107507142Y-133361904D02*
X107507142Y-132828571D01*
X107507142Y-132980952D02*
X107469047Y-132904761D01*
X107430952Y-132866666D01*
X107354761Y-132828571D01*
X107278571Y-132828571D01*
X107088095Y-132828571D02*
X106897619Y-133361904D01*
X106707142Y-132828571D02*
X106897619Y-133361904D01*
X106973809Y-133552380D01*
X107011904Y-133590476D01*
X107088095Y-133628571D01*
X105792857Y-133361904D02*
X105792857Y-132561904D01*
X105488095Y-132561904D01*
X105411904Y-132600000D01*
X105373809Y-132638095D01*
X105335714Y-132714285D01*
X105335714Y-132828571D01*
X105373809Y-132904761D01*
X105411904Y-132942857D01*
X105488095Y-132980952D01*
X105792857Y-132980952D01*
X104992857Y-133361904D02*
X104992857Y-132828571D01*
X104992857Y-132561904D02*
X105030952Y-132600000D01*
X104992857Y-132638095D01*
X104954761Y-132600000D01*
X104992857Y-132561904D01*
X104992857Y-132638095D01*
X104078571Y-132561904D02*
X103545238Y-132561904D01*
X104078571Y-133361904D01*
X103545238Y-133361904D01*
X102935714Y-133323809D02*
X103011904Y-133361904D01*
X103164285Y-133361904D01*
X103240476Y-133323809D01*
X103278571Y-133247619D01*
X103278571Y-132942857D01*
X103240476Y-132866666D01*
X103164285Y-132828571D01*
X103011904Y-132828571D01*
X102935714Y-132866666D01*
X102897619Y-132942857D01*
X102897619Y-133019047D01*
X103278571Y-133095238D01*
X102554761Y-133361904D02*
X102554761Y-132828571D01*
X102554761Y-132980952D02*
X102516666Y-132904761D01*
X102478571Y-132866666D01*
X102402380Y-132828571D01*
X102326190Y-132828571D01*
X101945238Y-133361904D02*
X102021428Y-133323809D01*
X102059523Y-133285714D01*
X102097619Y-133209523D01*
X102097619Y-132980952D01*
X102059523Y-132904761D01*
X102021428Y-132866666D01*
X101945238Y-132828571D01*
X101830952Y-132828571D01*
X101754761Y-132866666D01*
X101716666Y-132904761D01*
X101678571Y-132980952D01*
X101678571Y-133209523D01*
X101716666Y-133285714D01*
X101754761Y-133323809D01*
X101830952Y-133361904D01*
X101945238Y-133361904D01*
X100802380Y-132561904D02*
X100611904Y-133361904D01*
X100459523Y-132790476D01*
X100307142Y-133361904D01*
X100116666Y-132561904D01*
%TO.C,J4*%
X93058333Y-116557380D02*
X93058333Y-117271666D01*
X93105952Y-117414523D01*
X93201190Y-117509761D01*
X93344047Y-117557380D01*
X93439285Y-117557380D01*
X92153571Y-116890714D02*
X92153571Y-117557380D01*
X92391666Y-116509761D02*
X92629761Y-117224047D01*
X92010714Y-117224047D01*
%TO.C,J7*%
X151762380Y-136146666D02*
X152476666Y-136146666D01*
X152619523Y-136099047D01*
X152714761Y-136003809D01*
X152762380Y-135860952D01*
X152762380Y-135765714D01*
X151762380Y-136527619D02*
X151762380Y-137194285D01*
X152762380Y-136765714D01*
%TO.C,J5*%
X70192798Y-116557380D02*
X70192798Y-117271666D01*
X70240417Y-117414523D01*
X70335655Y-117509761D01*
X70478512Y-117557380D01*
X70573750Y-117557380D01*
X69240417Y-116557380D02*
X69716607Y-116557380D01*
X69764226Y-117033571D01*
X69716607Y-116985952D01*
X69621369Y-116938333D01*
X69383274Y-116938333D01*
X69288036Y-116985952D01*
X69240417Y-117033571D01*
X69192798Y-117128809D01*
X69192798Y-117366904D01*
X69240417Y-117462142D01*
X69288036Y-117509761D01*
X69383274Y-117557380D01*
X69621369Y-117557380D01*
X69716607Y-117509761D01*
X69764226Y-117462142D01*
D11*
%TO.C,J4*%
X94055000Y-121145000D02*
X91395000Y-121145000D01*
X92725000Y-118545000D02*
X91395000Y-118545000D01*
X94055000Y-138985000D02*
X91395000Y-138985000D01*
X91395000Y-118545000D02*
X91395000Y-119875000D01*
X91395000Y-121145000D02*
X91395000Y-138985000D01*
X94055000Y-121145000D02*
X94055000Y-138985000D01*
%TO.C,J7*%
X99950000Y-139080000D02*
X99950000Y-133880000D01*
X148270000Y-136480000D02*
X148270000Y-133880000D01*
X148270000Y-133880000D02*
X99950000Y-133880000D01*
X150870000Y-139080000D02*
X99950000Y-139080000D01*
X150870000Y-136480000D02*
X148270000Y-136480000D01*
X150870000Y-135210000D02*
X150870000Y-133880000D01*
X150870000Y-133880000D02*
X149540000Y-133880000D01*
X150870000Y-139080000D02*
X150870000Y-136480000D01*
%TO.C,G\u002A\u002A\u002A*%
G36*
X126042520Y-64921646D02*
G01*
X126070487Y-64933931D01*
X126290191Y-65069730D01*
X126469561Y-65239511D01*
X126571859Y-65401309D01*
X126560347Y-65513158D01*
X126553487Y-65517918D01*
X126418311Y-65560574D01*
X126163898Y-65613495D01*
X125838891Y-65666352D01*
X125777911Y-65675414D01*
X125308728Y-65777624D01*
X124981052Y-65927791D01*
X124765259Y-66145116D01*
X124631725Y-66448802D01*
X124566453Y-66631205D01*
X124423626Y-66937050D01*
X124251581Y-67244290D01*
X124081919Y-67497880D01*
X123946244Y-67642774D01*
X123771380Y-67716706D01*
X123662153Y-67656090D01*
X123657394Y-67456556D01*
X123670383Y-67357907D01*
X123629471Y-67109117D01*
X123489730Y-66958246D01*
X123277886Y-66941561D01*
X123114648Y-66947863D01*
X122889871Y-66871473D01*
X122824100Y-66837245D01*
X122585233Y-66800946D01*
X122248780Y-66852436D01*
X121798461Y-66995234D01*
X121217996Y-67232860D01*
X121082236Y-67291476D01*
X120786124Y-67410994D01*
X120572073Y-67485439D01*
X120479235Y-67500621D01*
X120468562Y-67435619D01*
X120556862Y-67274824D01*
X120743028Y-67059692D01*
X120998483Y-66816754D01*
X121294651Y-66572540D01*
X121602953Y-66353581D01*
X121894813Y-66186407D01*
X122056361Y-66113975D01*
X122255400Y-66059969D01*
X122478319Y-66061075D01*
X122798730Y-66111166D01*
X123052329Y-66153806D01*
X123359569Y-66195028D01*
X123570363Y-66210965D01*
X123803345Y-66176345D01*
X124178792Y-66018968D01*
X124550355Y-65763797D01*
X124863422Y-65443254D01*
X125050174Y-65224808D01*
X125381290Y-64957968D01*
X125708342Y-64858564D01*
X126042520Y-64921646D01*
G37*
G36*
X120484516Y-76697896D02*
G01*
X120537758Y-76732928D01*
X120730116Y-76899055D01*
X120829831Y-77050468D01*
X120837062Y-77090800D01*
X120812335Y-77164563D01*
X120705422Y-77224275D01*
X120485546Y-77283150D01*
X120121926Y-77354404D01*
X119945646Y-77389059D01*
X119500446Y-77511139D01*
X119196461Y-77667190D01*
X119007299Y-77874496D01*
X118906572Y-78150339D01*
X118869407Y-78276031D01*
X118722976Y-78593751D01*
X118508850Y-78950507D01*
X118261410Y-79285791D01*
X118183836Y-79367381D01*
X118025891Y-79447181D01*
X117928985Y-79372390D01*
X117920178Y-79153500D01*
X117927399Y-78965347D01*
X117858224Y-78742498D01*
X117715244Y-78628403D01*
X117524845Y-78656249D01*
X117367443Y-78700027D01*
X117198273Y-78609314D01*
X117073785Y-78527504D01*
X116866638Y-78469993D01*
X116760554Y-78481235D01*
X116468625Y-78554010D01*
X116089861Y-78680690D01*
X115670247Y-78845241D01*
X115255770Y-79031630D01*
X115048270Y-79131971D01*
X114851944Y-79222152D01*
X114755599Y-79250045D01*
X114723787Y-79223530D01*
X114721061Y-79150487D01*
X114722153Y-79137159D01*
X114805730Y-78981307D01*
X114997214Y-78764179D01*
X115261101Y-78517032D01*
X115561891Y-78271124D01*
X115864082Y-78057713D01*
X116132172Y-77908057D01*
X116317765Y-77826289D01*
X116520131Y-77754762D01*
X116701823Y-77734681D01*
X116927122Y-77761678D01*
X117260311Y-77831383D01*
X117486695Y-77880062D01*
X117743395Y-77923413D01*
X117927112Y-77922065D01*
X118098608Y-77872582D01*
X118318645Y-77771528D01*
X118561053Y-77623165D01*
X118874469Y-77374395D01*
X119157025Y-77097483D01*
X119209341Y-77039979D01*
X119552602Y-76724797D01*
X119863654Y-76567508D01*
X120166344Y-76560934D01*
X120484516Y-76697896D01*
G37*
G36*
X130874933Y-60353743D02*
G01*
X131093828Y-60526467D01*
X131099077Y-60531304D01*
X131347686Y-60724317D01*
X131605490Y-60876289D01*
X131659961Y-60900353D01*
X131946471Y-61010631D01*
X132345869Y-61149650D01*
X132813595Y-61303335D01*
X133305092Y-61457611D01*
X133775800Y-61598403D01*
X134181161Y-61711635D01*
X134476616Y-61783232D01*
X134844143Y-61856794D01*
X135597176Y-61997245D01*
X136261686Y-62106824D01*
X136817021Y-62182559D01*
X137242531Y-62221481D01*
X137517564Y-62220620D01*
X137640537Y-62210041D01*
X137819246Y-62212735D01*
X137870772Y-62244367D01*
X137863935Y-62253453D01*
X137721393Y-62329989D01*
X137467233Y-62400137D01*
X137159245Y-62453575D01*
X136855217Y-62479980D01*
X136612941Y-62469032D01*
X136465283Y-62447906D01*
X136128777Y-62414235D01*
X135777484Y-62392287D01*
X135607148Y-62388515D01*
X135353022Y-62406642D01*
X135270450Y-62461138D01*
X135359999Y-62551785D01*
X135387831Y-62576011D01*
X135398891Y-62689281D01*
X135339758Y-62741115D01*
X135138945Y-62774042D01*
X134861495Y-62733935D01*
X134553505Y-62636955D01*
X134261073Y-62499260D01*
X134030296Y-62337012D01*
X133907272Y-62166371D01*
X133886109Y-62128709D01*
X133736260Y-61994292D01*
X133494600Y-61838358D01*
X133215021Y-61690428D01*
X132951414Y-61580022D01*
X132757673Y-61536659D01*
X132706399Y-61531253D01*
X132494169Y-61471945D01*
X132237318Y-61368269D01*
X132170094Y-61337446D01*
X131853446Y-61199539D01*
X131570988Y-61085837D01*
X131414717Y-61012582D01*
X131165722Y-60856712D01*
X130929610Y-60674556D01*
X130753436Y-60503516D01*
X130684255Y-60380995D01*
X130732481Y-60305328D01*
X130874933Y-60353743D01*
G37*
G36*
X143981907Y-66222863D02*
G01*
X144255367Y-66328732D01*
X144471015Y-66483987D01*
X144590715Y-66659459D01*
X144576332Y-66825977D01*
X144508826Y-66861584D01*
X144306413Y-66912022D01*
X144024830Y-66955269D01*
X143861239Y-66975506D01*
X143415150Y-67053491D01*
X143100955Y-67165314D01*
X142884394Y-67334828D01*
X142731208Y-67585887D01*
X142607139Y-67942343D01*
X142581338Y-68023240D01*
X142476401Y-68265376D01*
X142369613Y-68416163D01*
X142298707Y-68489614D01*
X142237727Y-68618118D01*
X142205020Y-68712444D01*
X142091767Y-68871902D01*
X141967481Y-68971300D01*
X141785291Y-69033187D01*
X141722089Y-69027118D01*
X141659265Y-68956720D01*
X141677649Y-68768823D01*
X141688872Y-68695418D01*
X141658095Y-68440984D01*
X141519354Y-68292510D01*
X141295792Y-68279643D01*
X141124923Y-68283948D01*
X140877619Y-68191754D01*
X140726683Y-68126223D01*
X140496793Y-68114061D01*
X140189247Y-68178436D01*
X139779925Y-68324765D01*
X139244709Y-68558465D01*
X139150420Y-68601152D01*
X138847637Y-68727825D01*
X138615277Y-68809474D01*
X138497454Y-68830064D01*
X138488397Y-68825089D01*
X138504540Y-68737486D01*
X138625892Y-68572478D01*
X138823922Y-68357738D01*
X139070098Y-68120937D01*
X139335891Y-67889748D01*
X139592768Y-67691843D01*
X139812200Y-67554893D01*
X139879513Y-67520902D01*
X140107569Y-67418312D01*
X140298740Y-67374844D01*
X140522995Y-67382229D01*
X140850302Y-67432197D01*
X141163670Y-67481065D01*
X141465054Y-67519255D01*
X141661059Y-67533882D01*
X141842395Y-67504496D01*
X142187118Y-67344024D01*
X142577693Y-67058916D01*
X142987897Y-66666320D01*
X143196601Y-66451395D01*
X143391198Y-66288856D01*
X143559986Y-66212417D01*
X143749241Y-66193326D01*
X143981907Y-66222863D01*
G37*
G36*
X81383463Y-65791301D02*
G01*
X81498351Y-65888479D01*
X81509287Y-65908558D01*
X81655533Y-66031253D01*
X81934994Y-66188757D01*
X82317770Y-66369037D01*
X82773963Y-66560063D01*
X83273676Y-66749801D01*
X83787010Y-66926220D01*
X84284067Y-67077289D01*
X84734950Y-67190975D01*
X84816637Y-67208564D01*
X85287185Y-67301443D01*
X85675787Y-67363766D01*
X85952735Y-67391382D01*
X86088324Y-67380138D01*
X86177879Y-67374263D01*
X86352908Y-67432393D01*
X86413051Y-67457415D01*
X86678080Y-67526821D01*
X87037987Y-67589026D01*
X87432708Y-67636310D01*
X87802180Y-67660951D01*
X88086338Y-67655229D01*
X88395019Y-67622506D01*
X88091852Y-67761583D01*
X87971960Y-67808572D01*
X87662814Y-67863210D01*
X87254005Y-67848902D01*
X87179518Y-67842076D01*
X86795342Y-67816891D01*
X86412663Y-67805477D01*
X86075077Y-67807727D01*
X85826182Y-67823529D01*
X85709574Y-67852776D01*
X85703717Y-67883859D01*
X85785087Y-67969789D01*
X85835464Y-68018329D01*
X85843474Y-68141382D01*
X85810123Y-68177987D01*
X85629573Y-68228656D01*
X85366878Y-68200031D01*
X85068748Y-68108992D01*
X84781893Y-67972418D01*
X84553020Y-67807188D01*
X84428841Y-67630180D01*
X84327958Y-67489179D01*
X84138176Y-67353369D01*
X83941052Y-67245148D01*
X83764811Y-67129933D01*
X83741816Y-67114247D01*
X83547092Y-67031224D01*
X83289826Y-66965548D01*
X83262680Y-66960345D01*
X82937765Y-66866184D01*
X82629674Y-66733891D01*
X82565724Y-66700778D01*
X82344498Y-66603057D01*
X82198913Y-66563743D01*
X82148884Y-66555314D01*
X81951338Y-66467912D01*
X81699610Y-66314893D01*
X81450210Y-66132711D01*
X81259649Y-65957821D01*
X81153857Y-65833002D01*
X81150930Y-65778341D01*
X81272261Y-65769993D01*
X81383463Y-65791301D01*
G37*
G36*
X141892621Y-56562464D02*
G01*
X141973144Y-56602236D01*
X141967129Y-56630252D01*
X141869294Y-56685965D01*
X141777919Y-56703250D01*
X141543272Y-56772554D01*
X141218331Y-56880955D01*
X140845137Y-57013432D01*
X140465735Y-57154962D01*
X140122167Y-57290527D01*
X139856477Y-57405103D01*
X139827947Y-57418396D01*
X139412814Y-57614457D01*
X139122758Y-57759616D01*
X138923564Y-57873297D01*
X138781018Y-57974930D01*
X138660906Y-58083939D01*
X138497352Y-58284110D01*
X138393590Y-58480814D01*
X138345714Y-58606802D01*
X138249873Y-58777585D01*
X138191707Y-58824407D01*
X138012094Y-58874338D01*
X137804074Y-58870283D01*
X137634563Y-58817708D01*
X137570475Y-58722079D01*
X137580806Y-58583656D01*
X137564252Y-58345846D01*
X137470330Y-58218118D01*
X137276790Y-58157718D01*
X137140638Y-58131168D01*
X136833246Y-58057921D01*
X136505088Y-57968052D01*
X136147665Y-57879778D01*
X135634807Y-57782328D01*
X135055659Y-57693879D01*
X134468050Y-57623168D01*
X133929811Y-57578934D01*
X133817993Y-57554412D01*
X133819568Y-57487914D01*
X133887927Y-57461108D01*
X134106531Y-57420771D01*
X134430993Y-57382493D01*
X134820153Y-57351871D01*
X135094622Y-57331986D01*
X135459854Y-57295195D01*
X135738768Y-57254566D01*
X135886412Y-57215835D01*
X136038824Y-57194609D01*
X136352452Y-57239274D01*
X136821695Y-57356878D01*
X137224683Y-57458490D01*
X137755330Y-57534096D01*
X138235185Y-57508169D01*
X138724423Y-57375152D01*
X139283213Y-57129486D01*
X139397355Y-57073092D01*
X139775116Y-56890537D01*
X140047888Y-56770556D01*
X140257066Y-56698232D01*
X140444047Y-56658648D01*
X140650227Y-56636886D01*
X140795069Y-56625116D01*
X141120865Y-56596986D01*
X141466026Y-56565715D01*
X141677496Y-56552820D01*
X141892621Y-56562464D01*
G37*
G36*
X107136859Y-70733291D02*
G01*
X107251128Y-70827367D01*
X107260970Y-70845782D01*
X107404458Y-70967416D01*
X107681052Y-71124382D01*
X108060534Y-71304425D01*
X108512684Y-71495293D01*
X109007287Y-71684732D01*
X109514124Y-71860489D01*
X110002978Y-72010310D01*
X110443630Y-72121941D01*
X110738856Y-72185588D01*
X110993434Y-72238068D01*
X111242211Y-72285333D01*
X111530196Y-72335548D01*
X111902402Y-72396875D01*
X112403838Y-72477480D01*
X112844186Y-72541710D01*
X113296090Y-72592445D01*
X113646216Y-72613980D01*
X113859047Y-72603243D01*
X113965530Y-72583153D01*
X114077032Y-72583241D01*
X114050295Y-72644765D01*
X113984275Y-72686582D01*
X113763198Y-72756735D01*
X113462192Y-72814310D01*
X113143008Y-72850947D01*
X112867397Y-72858287D01*
X112697111Y-72827968D01*
X112599069Y-72798034D01*
X112354353Y-72766430D01*
X112051369Y-72756014D01*
X111771785Y-72762782D01*
X111626309Y-72788667D01*
X111581986Y-72851568D01*
X111600947Y-72969429D01*
X111603656Y-72980350D01*
X111616908Y-73112184D01*
X111539518Y-73167252D01*
X111328792Y-73178326D01*
X111152105Y-73156970D01*
X110848502Y-73059131D01*
X110548031Y-72908899D01*
X110307115Y-72736166D01*
X110182177Y-72570828D01*
X110148949Y-72511337D01*
X109974847Y-72353205D01*
X109704508Y-72185767D01*
X109388307Y-72037847D01*
X109076616Y-71938267D01*
X108887390Y-71889228D01*
X108414232Y-71724434D01*
X107933349Y-71509481D01*
X107504913Y-71272901D01*
X107189096Y-71043228D01*
X107061125Y-70925182D01*
X106935848Y-70791498D01*
X106925530Y-70729243D01*
X107016660Y-70712499D01*
X107136859Y-70733291D01*
G37*
G36*
X92407866Y-61954300D02*
G01*
X92399883Y-61980259D01*
X92338831Y-62033268D01*
X92198912Y-62104386D01*
X91958026Y-62203080D01*
X91594072Y-62338819D01*
X91084950Y-62521071D01*
X90930024Y-62576763D01*
X90607743Y-62698219D01*
X90365656Y-62797214D01*
X90247102Y-62856400D01*
X90140882Y-62916158D01*
X89939579Y-62993648D01*
X89514156Y-63197366D01*
X89139297Y-63509578D01*
X88878093Y-63877935D01*
X88813512Y-63997669D01*
X88668506Y-64197801D01*
X88544135Y-64290681D01*
X88440656Y-64302009D01*
X88215078Y-64289397D01*
X88131107Y-64263992D01*
X88064841Y-64167229D01*
X88070387Y-63955261D01*
X88074026Y-63919458D01*
X88071293Y-63726646D01*
X88029842Y-63642070D01*
X87958139Y-63632558D01*
X87773956Y-63610895D01*
X87650273Y-63585896D01*
X87421178Y-63499781D01*
X87283904Y-63446562D01*
X86995427Y-63365718D01*
X86632575Y-63281613D01*
X86251671Y-63206127D01*
X85909035Y-63151138D01*
X85660991Y-63128527D01*
X85624647Y-63127922D01*
X85257278Y-63110908D01*
X84898649Y-63077826D01*
X84590638Y-63034452D01*
X84375122Y-62986563D01*
X84293977Y-62939937D01*
X84306447Y-62919307D01*
X84437389Y-62876584D01*
X84664954Y-62859576D01*
X84765272Y-62856210D01*
X85078117Y-62828935D01*
X85473819Y-62780203D01*
X85890617Y-62717188D01*
X86260226Y-62658287D01*
X86554454Y-62623731D01*
X86771974Y-62622348D01*
X86963771Y-62654228D01*
X87180833Y-62719459D01*
X87714409Y-62874037D01*
X88245885Y-62954937D01*
X88730568Y-62925529D01*
X89220359Y-62781806D01*
X89767161Y-62519760D01*
X89827619Y-62487157D01*
X90264686Y-62278312D01*
X90669550Y-62148164D01*
X91134175Y-62066199D01*
X91183986Y-62059721D01*
X91559203Y-62009549D01*
X91894060Y-61962659D01*
X92121234Y-61928446D01*
X92147636Y-61924425D01*
X92332274Y-61917524D01*
X92407866Y-61954300D01*
G37*
G36*
X94585047Y-71671187D02*
G01*
X94914531Y-71905229D01*
X94973678Y-71968838D01*
X95051752Y-72113895D01*
X94993426Y-72223411D01*
X94785379Y-72310219D01*
X94414290Y-72387152D01*
X94224057Y-72420857D01*
X93800775Y-72521113D01*
X93511356Y-72643406D01*
X93324492Y-72804166D01*
X93208877Y-73019827D01*
X93133831Y-73212551D01*
X92960995Y-73593110D01*
X92773304Y-73944553D01*
X92596016Y-74221408D01*
X92454388Y-74378202D01*
X92367855Y-74436058D01*
X92226040Y-74488495D01*
X92159709Y-74402231D01*
X92143283Y-74159264D01*
X92141854Y-74099077D01*
X92082049Y-73820498D01*
X91946421Y-73671781D01*
X91751637Y-73673593D01*
X91603741Y-73683733D01*
X91392503Y-73618695D01*
X91290191Y-73575574D01*
X91047610Y-73545884D01*
X90733164Y-73596010D01*
X90321456Y-73731306D01*
X89787089Y-73957125D01*
X89577587Y-74047949D01*
X89279464Y-74161980D01*
X89068281Y-74222853D01*
X88980033Y-74218894D01*
X88985199Y-74162805D01*
X89088730Y-73997692D01*
X89286432Y-73777505D01*
X89545761Y-73532137D01*
X89834173Y-73291484D01*
X90119124Y-73085438D01*
X90368068Y-72943894D01*
X90571676Y-72854134D01*
X90761756Y-72790028D01*
X90939863Y-72774980D01*
X91167378Y-72805423D01*
X91505680Y-72877790D01*
X92169549Y-73025487D01*
X92641485Y-72786523D01*
X92853455Y-72672723D01*
X93041139Y-72555808D01*
X93113422Y-72487210D01*
X93149477Y-72423830D01*
X93280311Y-72264420D01*
X93473866Y-72055498D01*
X93505521Y-72023431D01*
X93880556Y-71730287D01*
X94240393Y-71612873D01*
X94585047Y-71671187D01*
G37*
G36*
X76523063Y-70334318D02*
G01*
X76756267Y-70484639D01*
X76815346Y-70530564D01*
X76995968Y-70697840D01*
X77044748Y-70823276D01*
X76950716Y-70921155D01*
X76702900Y-71005766D01*
X76290331Y-71091393D01*
X75946052Y-71160209D01*
X75653361Y-71241893D01*
X75458897Y-71336593D01*
X75320193Y-71460467D01*
X75309140Y-71473402D01*
X75176428Y-71669265D01*
X75121755Y-71827543D01*
X75108279Y-71898094D01*
X75021943Y-72113436D01*
X74881174Y-72391732D01*
X74715834Y-72679355D01*
X74555788Y-72922681D01*
X74430900Y-73068083D01*
X74359439Y-73121225D01*
X74199110Y-73180545D01*
X74122095Y-73085406D01*
X74126358Y-72834242D01*
X74141978Y-72664462D01*
X74112868Y-72497332D01*
X74002970Y-72399424D01*
X73881827Y-72360025D01*
X73717251Y-72380493D01*
X73572837Y-72394147D01*
X73353557Y-72310243D01*
X73180313Y-72243904D01*
X72926604Y-72233582D01*
X72596797Y-72302051D01*
X72166697Y-72454681D01*
X71612109Y-72696844D01*
X71503717Y-72746199D01*
X71213370Y-72870505D01*
X71002713Y-72948888D01*
X70911394Y-72966114D01*
X70909286Y-72863230D01*
X71023154Y-72683254D01*
X71228919Y-72455963D01*
X71498289Y-72207352D01*
X71802975Y-71963415D01*
X72114687Y-71750148D01*
X72405136Y-71593545D01*
X72534590Y-71537785D01*
X72716716Y-71477127D01*
X72892902Y-71461980D01*
X73122391Y-71490518D01*
X73464422Y-71560916D01*
X73732899Y-71617845D01*
X73979603Y-71657123D01*
X74157622Y-71652236D01*
X74325908Y-71599623D01*
X74543414Y-71495721D01*
X74767121Y-71357368D01*
X75080130Y-71106303D01*
X75357438Y-70828102D01*
X75410296Y-70767626D01*
X75655856Y-70519040D01*
X75869397Y-70378451D01*
X76102068Y-70310288D01*
X76313701Y-70288779D01*
X76523063Y-70334318D01*
G37*
G36*
X118200331Y-66924859D02*
G01*
X118216065Y-66977881D01*
X118095293Y-67004715D01*
X117975370Y-67020730D01*
X117853982Y-67089644D01*
X117850716Y-67094378D01*
X117727550Y-67177401D01*
X117518047Y-67258767D01*
X117099545Y-67390658D01*
X116429849Y-67635248D01*
X115834741Y-67894699D01*
X115338838Y-68156759D01*
X114966755Y-68409179D01*
X114743109Y-68639709D01*
X114704260Y-68701454D01*
X114590450Y-68918775D01*
X114544672Y-69069581D01*
X114521501Y-69141568D01*
X114390331Y-69231517D01*
X114271977Y-69249702D01*
X114037616Y-69260033D01*
X113922390Y-69239316D01*
X113855079Y-69143521D01*
X113839178Y-68922944D01*
X113819672Y-68709389D01*
X113731824Y-68589494D01*
X113548911Y-68582962D01*
X113460474Y-68566718D01*
X113286403Y-68491419D01*
X113214182Y-68454793D01*
X113055741Y-68389329D01*
X112859639Y-68330974D01*
X112602890Y-68275700D01*
X112262514Y-68219481D01*
X111815524Y-68158288D01*
X111238940Y-68088095D01*
X110509776Y-68004875D01*
X110330004Y-67979668D01*
X110126114Y-67933504D01*
X110046755Y-67888749D01*
X110059320Y-67876047D01*
X110197408Y-67838575D01*
X110455588Y-67800059D01*
X110793381Y-67767097D01*
X110854881Y-67762175D01*
X111273269Y-67720349D01*
X111673846Y-67668218D01*
X111977462Y-67615890D01*
X112054583Y-67600102D01*
X112280252Y-67570518D01*
X112499774Y-67581944D01*
X112770321Y-67641164D01*
X113149064Y-67754968D01*
X113164903Y-67759975D01*
X113685329Y-67897398D01*
X114132886Y-67943942D01*
X114559310Y-67893675D01*
X115016340Y-67740664D01*
X115555712Y-67478974D01*
X115702927Y-67401757D01*
X116061027Y-67231113D01*
X116384125Y-67116016D01*
X116742587Y-67034554D01*
X117206778Y-66964814D01*
X117420653Y-66938633D01*
X117805520Y-66904241D01*
X118075120Y-66899259D01*
X118200331Y-66924859D01*
G37*
G36*
X102339490Y-75319815D02*
G01*
X102566266Y-75468681D01*
X102743352Y-75636800D01*
X102814811Y-75779155D01*
X102762209Y-75842250D01*
X102579454Y-75927670D01*
X102314833Y-76007191D01*
X102019933Y-76065864D01*
X101746338Y-76088743D01*
X101744162Y-76088747D01*
X101442761Y-76159216D01*
X101163840Y-76338817D01*
X100958163Y-76583230D01*
X100876494Y-76848137D01*
X100869870Y-76900874D01*
X100791654Y-77116349D01*
X100654047Y-77359172D01*
X100594902Y-77449242D01*
X100479436Y-77647487D01*
X100433561Y-77763353D01*
X100382908Y-77851873D01*
X100237548Y-77979922D01*
X100110487Y-78060893D01*
X99949642Y-78105926D01*
X99870183Y-78003754D01*
X99852685Y-77742389D01*
X99854132Y-77625552D01*
X99836355Y-77449274D01*
X99761450Y-77379042D01*
X99595713Y-77365416D01*
X99371182Y-77335407D01*
X99123406Y-77247100D01*
X99001918Y-77196815D01*
X98763417Y-77174729D01*
X98450435Y-77230131D01*
X98037959Y-77368382D01*
X97500975Y-77594845D01*
X97301046Y-77683728D01*
X96996289Y-77815977D01*
X96776784Y-77906968D01*
X96680190Y-77940826D01*
X96676668Y-77940011D01*
X96691736Y-77862835D01*
X96778745Y-77698291D01*
X96894275Y-77541405D01*
X97176997Y-77251257D01*
X97528942Y-76956681D01*
X97894671Y-76702518D01*
X98218748Y-76533606D01*
X98277065Y-76511188D01*
X98479875Y-76447315D01*
X98670982Y-76427331D01*
X98911509Y-76450121D01*
X99262579Y-76514571D01*
X99922086Y-76645800D01*
X100376261Y-76409558D01*
X100546718Y-76308359D01*
X100857392Y-76071336D01*
X101095019Y-75826772D01*
X101247820Y-75650821D01*
X101557124Y-75399231D01*
X101871292Y-75254588D01*
X102146497Y-75241294D01*
X102339490Y-75319815D01*
G37*
%TO.C,J5*%
X71189465Y-138985000D02*
X68529465Y-138985000D01*
X69859465Y-118545000D02*
X68529465Y-118545000D01*
X71189465Y-121145000D02*
X68529465Y-121145000D01*
X71189465Y-121145000D02*
X71189465Y-138985000D01*
X68529465Y-121145000D02*
X68529465Y-138985000D01*
X68529465Y-118545000D02*
X68529465Y-119875000D01*
%TD*%
%LPC*%
D12*
%TO.C,J12*%
X128525000Y-121156142D03*
D13*
X125985000Y-121156142D03*
%TD*%
D14*
%TO.C,BT1*%
X79650000Y-61790000D03*
X134850000Y-45790000D03*
D15*
X71320000Y-45790000D03*
%TD*%
D16*
%TO.C,J8*%
X65700000Y-106021315D03*
D17*
X60060000Y-114186315D03*
X64450000Y-113826315D03*
X64450000Y-105566315D03*
X60060000Y-105206315D03*
D18*
X65050000Y-112496315D03*
X64350000Y-112096315D03*
X64350000Y-111296315D03*
X65050000Y-110896315D03*
X64350000Y-110496315D03*
X65050000Y-110096315D03*
X65050000Y-109296315D03*
X64350000Y-108896315D03*
X65050000Y-108496315D03*
X64350000Y-108096315D03*
X64350000Y-107296315D03*
X65050000Y-106896315D03*
%TD*%
D19*
%TO.C,J3*%
X59275636Y-95161938D03*
D20*
X61975636Y-101186938D03*
X61975636Y-96336938D03*
D19*
X59275636Y-102361938D03*
%TD*%
D14*
%TO.C,BT2*%
X134850000Y-68500000D03*
D15*
X71320000Y-68500000D03*
D14*
X79650000Y-84500000D03*
%TD*%
D12*
%TO.C,J15*%
X141025000Y-117106142D03*
D13*
X138485000Y-117106142D03*
%TD*%
D12*
%TO.C,J2*%
X141525000Y-99500000D03*
D13*
X138985000Y-99500000D03*
%TD*%
D12*
%TO.C,J14*%
X141025000Y-113306142D03*
D13*
X138485000Y-113306142D03*
%TD*%
D12*
%TO.C,J16*%
X141012716Y-120906142D03*
D13*
X138472716Y-120906142D03*
%TD*%
D12*
%TO.C,J11*%
X128525000Y-117356142D03*
D13*
X125985000Y-117356142D03*
%TD*%
D12*
%TO.C,J13*%
X141025000Y-109506142D03*
D13*
X138485000Y-109506142D03*
%TD*%
D12*
%TO.C,J9*%
X128525000Y-109756142D03*
D13*
X125985000Y-109756142D03*
%TD*%
D12*
%TO.C,J10*%
X128525000Y-113556142D03*
D13*
X125985000Y-113556142D03*
%TD*%
D12*
%TO.C,J4*%
X92725000Y-119875000D03*
D13*
X92725000Y-122415000D03*
X92725000Y-124955000D03*
X92725000Y-127495000D03*
X92725000Y-130035000D03*
X92725000Y-132575000D03*
X92725000Y-135115000D03*
X92725000Y-137655000D03*
%TD*%
D12*
%TO.C,J7*%
X149540000Y-135210000D03*
D13*
X149540000Y-137750000D03*
X147000000Y-135210000D03*
X147000000Y-137750000D03*
X144460000Y-135210000D03*
X144460000Y-137750000D03*
X141920000Y-135210000D03*
X141920000Y-137750000D03*
X139380000Y-135210000D03*
X139380000Y-137750000D03*
X136840000Y-135210000D03*
X136840000Y-137750000D03*
X134300000Y-135210000D03*
X134300000Y-137750000D03*
X131760000Y-135210000D03*
X131760000Y-137750000D03*
X129220000Y-135210000D03*
X129220000Y-137750000D03*
X126680000Y-135210000D03*
X126680000Y-137750000D03*
X124140000Y-135210000D03*
X124140000Y-137750000D03*
X121600000Y-135210000D03*
X121600000Y-137750000D03*
X119060000Y-135210000D03*
X119060000Y-137750000D03*
X116520000Y-135210000D03*
X116520000Y-137750000D03*
X113980000Y-135210000D03*
X113980000Y-137750000D03*
X111440000Y-135210000D03*
X111440000Y-137750000D03*
X108900000Y-135210000D03*
X108900000Y-137750000D03*
X106360000Y-135210000D03*
X106360000Y-137750000D03*
X103820000Y-135210000D03*
X103820000Y-137750000D03*
X101280000Y-135210000D03*
X101280000Y-137750000D03*
%TD*%
D12*
%TO.C,J5*%
X69859465Y-119875000D03*
D13*
X69859465Y-122415000D03*
X69859465Y-124955000D03*
X69859465Y-127495000D03*
X69859465Y-130035000D03*
X69859465Y-132575000D03*
X69859465Y-135115000D03*
X69859465Y-137655000D03*
%TD*%
M02*
