%TF.GenerationSoftware,KiCad,Pcbnew,(6.0.8)*%
%TF.CreationDate,2023-04-17T13:42:39+02:00*%
%TF.ProjectId,Group22_Power,47726f75-7032-4325-9f50-6f7765722e6b,rev?*%
%TF.SameCoordinates,Original*%
%TF.FileFunction,Soldermask,Top*%
%TF.FilePolarity,Negative*%
%FSLAX46Y46*%
G04 Gerber Fmt 4.6, Leading zero omitted, Abs format (unit mm)*
G04 Created by KiCad (PCBNEW (6.0.8)) date 2023-04-17 13:42:39*
%MOMM*%
%LPD*%
G01*
G04 APERTURE LIST*
G04 Aperture macros list*
%AMRoundRect*
0 Rectangle with rounded corners*
0 $1 Rounding radius*
0 $2 $3 $4 $5 $6 $7 $8 $9 X,Y pos of 4 corners*
0 Add a 4 corners polygon primitive as box body*
4,1,4,$2,$3,$4,$5,$6,$7,$8,$9,$2,$3,0*
0 Add four circle primitives for the rounded corners*
1,1,$1+$1,$2,$3*
1,1,$1+$1,$4,$5*
1,1,$1+$1,$6,$7*
1,1,$1+$1,$8,$9*
0 Add four rect primitives between the rounded corners*
20,1,$1+$1,$2,$3,$4,$5,0*
20,1,$1+$1,$4,$5,$6,$7,0*
20,1,$1+$1,$6,$7,$8,$9,0*
20,1,$1+$1,$8,$9,$2,$3,0*%
%AMFreePoly0*
4,1,6,0.500000,-0.850000,-0.500000,-0.850000,-0.500000,0.550000,-0.200000,0.850000,0.500000,0.850000,0.500000,-0.850000,0.500000,-0.850000,$1*%
G04 Aperture macros list end*
%ADD10R,0.550000X0.250000*%
%ADD11FreePoly0,0.000000*%
%ADD12RoundRect,0.150000X-0.587500X-0.150000X0.587500X-0.150000X0.587500X0.150000X-0.587500X0.150000X0*%
%ADD13R,2.200000X1.200000*%
%ADD14R,6.400000X5.800000*%
%ADD15C,2.000000*%
%ADD16RoundRect,0.135000X-0.135000X-0.185000X0.135000X-0.185000X0.135000X0.185000X-0.135000X0.185000X0*%
%ADD17RoundRect,0.250000X-0.262500X-0.450000X0.262500X-0.450000X0.262500X0.450000X-0.262500X0.450000X0*%
%ADD18R,1.700000X1.700000*%
%ADD19O,1.700000X1.700000*%
%ADD20RoundRect,0.250000X-0.325000X-0.650000X0.325000X-0.650000X0.325000X0.650000X-0.325000X0.650000X0*%
%ADD21RoundRect,0.225000X-0.225000X-0.250000X0.225000X-0.250000X0.225000X0.250000X-0.225000X0.250000X0*%
%ADD22C,3.450000*%
%ADD23C,2.390000*%
%ADD24R,7.340000X6.350000*%
G04 APERTURE END LIST*
D10*
%TO.C,U4*%
X196090000Y-63670000D03*
X196090000Y-64170000D03*
X196090000Y-64670000D03*
X196090000Y-65170000D03*
X198440000Y-65170000D03*
X198440000Y-64670000D03*
X198440000Y-64170000D03*
X198440000Y-63670000D03*
D11*
X197265000Y-64420000D03*
%TD*%
D12*
%TO.C,U3*%
X99247500Y-109090000D03*
X99247500Y-110990000D03*
X101122500Y-110040000D03*
%TD*%
%TO.C,U2*%
X183217500Y-63670000D03*
X183217500Y-65570000D03*
X185092500Y-64620000D03*
%TD*%
D13*
%TO.C,U1*%
X171435000Y-64140000D03*
D14*
X177735000Y-66420000D03*
D13*
X171435000Y-68700000D03*
%TD*%
D15*
%TO.C,TP6*%
X87015000Y-127300000D03*
%TD*%
%TO.C,TP5*%
X87015000Y-131350000D03*
%TD*%
%TO.C,TP4*%
X91065000Y-127300000D03*
%TD*%
%TO.C,TP3*%
X91065000Y-131350000D03*
%TD*%
%TO.C,TP2*%
X82965000Y-127300000D03*
%TD*%
%TO.C,TP1*%
X82965000Y-131350000D03*
%TD*%
D16*
%TO.C,R5*%
X200435000Y-63390000D03*
X201455000Y-63390000D03*
%TD*%
%TO.C,R4*%
X195985000Y-67440000D03*
X197005000Y-67440000D03*
%TD*%
D17*
%TO.C,R3*%
X82232500Y-120690000D03*
X84057500Y-120690000D03*
%TD*%
D16*
%TO.C,R2*%
X106065000Y-108810000D03*
X107085000Y-108810000D03*
%TD*%
%TO.C,R1*%
X108975000Y-108810000D03*
X109995000Y-108810000D03*
%TD*%
D13*
%TO.C,Q2*%
X82815000Y-109560000D03*
D14*
X89115000Y-111840000D03*
D13*
X82815000Y-114120000D03*
%TD*%
D12*
%TO.C,Q1*%
X88097500Y-117140000D03*
X88097500Y-119040000D03*
X89972500Y-118090000D03*
%TD*%
D18*
%TO.C,J3*%
X192715000Y-64720000D03*
D19*
X192715000Y-67260000D03*
%TD*%
D18*
%TO.C,J2*%
X171885000Y-72770000D03*
D19*
X171885000Y-75310000D03*
%TD*%
D18*
%TO.C,J1*%
X95415000Y-110140000D03*
D19*
X95415000Y-112680000D03*
%TD*%
D20*
%TO.C,C4*%
X82290000Y-117540000D03*
X85240000Y-117540000D03*
%TD*%
D21*
%TO.C,C3*%
X102340000Y-113520000D03*
X103890000Y-113520000D03*
%TD*%
%TO.C,C2*%
X94320000Y-116270000D03*
X95870000Y-116270000D03*
%TD*%
%TO.C,C1*%
X98330000Y-116270000D03*
X99880000Y-116270000D03*
%TD*%
D22*
%TO.C,BT2*%
X97650000Y-104460000D03*
D23*
X89320000Y-88460000D03*
D22*
X152850000Y-88460000D03*
D24*
X85920000Y-96460000D03*
X164580000Y-96460000D03*
%TD*%
D22*
%TO.C,BT1*%
X97650000Y-81750000D03*
D23*
X89320000Y-65750000D03*
D22*
X152850000Y-65750000D03*
D24*
X85920000Y-73750000D03*
X164580000Y-73750000D03*
%TD*%
M02*
