%TF.GenerationSoftware,KiCad,Pcbnew,(6.0.8)*%
%TF.CreationDate,2023-04-18T12:53:02+02:00*%
%TF.ProjectId,Group22_Power,47726f75-7032-4325-9f50-6f7765722e6b,rev?*%
%TF.SameCoordinates,Original*%
%TF.FileFunction,Copper,L2,Bot*%
%TF.FilePolarity,Positive*%
%FSLAX46Y46*%
G04 Gerber Fmt 4.6, Leading zero omitted, Abs format (unit mm)*
G04 Created by KiCad (PCBNEW (6.0.8)) date 2023-04-18 12:53:02*
%MOMM*%
%LPD*%
G01*
G04 APERTURE LIST*
%TA.AperFunction,ComponentPad*%
%ADD10C,1.300000*%
%TD*%
%TA.AperFunction,ComponentPad*%
%ADD11O,1.900000X1.070000*%
%TD*%
%TA.AperFunction,ComponentPad*%
%ADD12O,1.700000X1.700000*%
%TD*%
%TA.AperFunction,ComponentPad*%
%ADD13R,1.700000X1.700000*%
%TD*%
%TA.AperFunction,ViaPad*%
%ADD14C,0.800000*%
%TD*%
%TA.AperFunction,Conductor*%
%ADD15C,0.200000*%
%TD*%
G04 APERTURE END LIST*
D10*
%TO.P,U3,6*%
%TO.N,GND*%
X62000000Y-108350000D03*
X62000000Y-103500000D03*
D11*
X59300000Y-102325000D03*
X59300000Y-109525000D03*
%TD*%
D12*
%TO.P,J2,2,Pin_2*%
%TO.N,/Sensors/SDA*%
X122735000Y-113250000D03*
D13*
%TO.P,J2,1,Pin_1*%
%TO.N,/Sensors/SCL*%
X125275000Y-113250000D03*
%TD*%
%TO.P,J1,1,Pin_1*%
%TO.N,Bat(Protected)*%
X90906054Y-107361467D03*
D12*
%TO.P,J1,2,Pin_2*%
%TO.N,Net-(D1-Pad1)*%
X90906054Y-104821467D03*
%TD*%
D14*
%TO.N,GND*%
X77216050Y-103467438D03*
X119750000Y-109250000D03*
%TO.N,/Sensors/SCL*%
X124999610Y-106712962D03*
%TD*%
D15*
%TO.N,/Sensors/SCL*%
X125275000Y-110525000D02*
X125275000Y-113250000D01*
X124999610Y-110249610D02*
X125275000Y-110525000D01*
X124999610Y-106712962D02*
X124999610Y-110249610D01*
%TD*%
%TA.AperFunction,Conductor*%
%TO.N,GND*%
G36*
X156683621Y-42028502D02*
G01*
X156730114Y-42082158D01*
X156741500Y-42134500D01*
X156741500Y-140865500D01*
X156721498Y-140933621D01*
X156667842Y-140980114D01*
X156615500Y-140991500D01*
X57884500Y-140991500D01*
X57816379Y-140971498D01*
X57769886Y-140917842D01*
X57758500Y-140865500D01*
X57758500Y-113216695D01*
X121372251Y-113216695D01*
X121385110Y-113439715D01*
X121386247Y-113444761D01*
X121386248Y-113444767D01*
X121410304Y-113551508D01*
X121434222Y-113657639D01*
X121518266Y-113864616D01*
X121634987Y-114055088D01*
X121781250Y-114223938D01*
X121953126Y-114366632D01*
X122146000Y-114479338D01*
X122354692Y-114559030D01*
X122359760Y-114560061D01*
X122359763Y-114560062D01*
X122467017Y-114581883D01*
X122573597Y-114603567D01*
X122578772Y-114603757D01*
X122578774Y-114603757D01*
X122791673Y-114611564D01*
X122791677Y-114611564D01*
X122796837Y-114611753D01*
X122801957Y-114611097D01*
X122801959Y-114611097D01*
X123013288Y-114584025D01*
X123013289Y-114584025D01*
X123018416Y-114583368D01*
X123023366Y-114581883D01*
X123227429Y-114520661D01*
X123227434Y-114520659D01*
X123232384Y-114519174D01*
X123432994Y-114420896D01*
X123614860Y-114291173D01*
X123723091Y-114183319D01*
X123785462Y-114149404D01*
X123856268Y-114154592D01*
X123913030Y-114197238D01*
X123930012Y-114228341D01*
X123974385Y-114346705D01*
X124061739Y-114463261D01*
X124178295Y-114550615D01*
X124314684Y-114601745D01*
X124376866Y-114608500D01*
X126173134Y-114608500D01*
X126235316Y-114601745D01*
X126371705Y-114550615D01*
X126488261Y-114463261D01*
X126575615Y-114346705D01*
X126626745Y-114210316D01*
X126633500Y-114148134D01*
X126633500Y-112351866D01*
X126626745Y-112289684D01*
X126575615Y-112153295D01*
X126488261Y-112036739D01*
X126371705Y-111949385D01*
X126235316Y-111898255D01*
X126173134Y-111891500D01*
X126009500Y-111891500D01*
X125941379Y-111871498D01*
X125894886Y-111817842D01*
X125883500Y-111765500D01*
X125883500Y-110573136D01*
X125884578Y-110556690D01*
X125887672Y-110533188D01*
X125888750Y-110525000D01*
X125883500Y-110485122D01*
X125883500Y-110485115D01*
X125872405Y-110400837D01*
X125868916Y-110374338D01*
X125867838Y-110366150D01*
X125806524Y-110218125D01*
X125801497Y-110211574D01*
X125801495Y-110211570D01*
X125786722Y-110192318D01*
X125733483Y-110122936D01*
X125733477Y-110122928D01*
X125733474Y-110122925D01*
X125708987Y-110091013D01*
X125702432Y-110085983D01*
X125683621Y-110071548D01*
X125671230Y-110060681D01*
X125645015Y-110034466D01*
X125610989Y-109972154D01*
X125608110Y-109945371D01*
X125608110Y-107443252D01*
X125628112Y-107375131D01*
X125640474Y-107358942D01*
X125734231Y-107254814D01*
X125734232Y-107254813D01*
X125738650Y-107249906D01*
X125834137Y-107084518D01*
X125893152Y-106902890D01*
X125913114Y-106712962D01*
X125893152Y-106523034D01*
X125834137Y-106341406D01*
X125738650Y-106176018D01*
X125610863Y-106034096D01*
X125456362Y-105921844D01*
X125450334Y-105919160D01*
X125450332Y-105919159D01*
X125287929Y-105846853D01*
X125287928Y-105846853D01*
X125281898Y-105844168D01*
X125188498Y-105824315D01*
X125101554Y-105805834D01*
X125101549Y-105805834D01*
X125095097Y-105804462D01*
X124904123Y-105804462D01*
X124897671Y-105805834D01*
X124897666Y-105805834D01*
X124810723Y-105824315D01*
X124717322Y-105844168D01*
X124711292Y-105846853D01*
X124711291Y-105846853D01*
X124548888Y-105919159D01*
X124548886Y-105919160D01*
X124542858Y-105921844D01*
X124388357Y-106034096D01*
X124260570Y-106176018D01*
X124165083Y-106341406D01*
X124106068Y-106523034D01*
X124086106Y-106712962D01*
X124106068Y-106902890D01*
X124165083Y-107084518D01*
X124260570Y-107249906D01*
X124264988Y-107254813D01*
X124264989Y-107254814D01*
X124358746Y-107358942D01*
X124389464Y-107422949D01*
X124391110Y-107443252D01*
X124391110Y-110201474D01*
X124390032Y-110217917D01*
X124385860Y-110249610D01*
X124391110Y-110289490D01*
X124391110Y-110289495D01*
X124401202Y-110366149D01*
X124406772Y-110408461D01*
X124468086Y-110556486D01*
X124473113Y-110563037D01*
X124473114Y-110563039D01*
X124541130Y-110651679D01*
X124541136Y-110651685D01*
X124565623Y-110683597D01*
X124572178Y-110688627D01*
X124590989Y-110703062D01*
X124603380Y-110713929D01*
X124629595Y-110740144D01*
X124663621Y-110802456D01*
X124666500Y-110829239D01*
X124666500Y-111765500D01*
X124646498Y-111833621D01*
X124592842Y-111880114D01*
X124540500Y-111891500D01*
X124376866Y-111891500D01*
X124314684Y-111898255D01*
X124178295Y-111949385D01*
X124061739Y-112036739D01*
X123974385Y-112153295D01*
X123971233Y-112161703D01*
X123929919Y-112271907D01*
X123887277Y-112328671D01*
X123820716Y-112353371D01*
X123751367Y-112338163D01*
X123718743Y-112312476D01*
X123668151Y-112256875D01*
X123668142Y-112256866D01*
X123664670Y-112253051D01*
X123660619Y-112249852D01*
X123660615Y-112249848D01*
X123493414Y-112117800D01*
X123493410Y-112117798D01*
X123489359Y-112114598D01*
X123293789Y-112006638D01*
X123288920Y-112004914D01*
X123288916Y-112004912D01*
X123088087Y-111933795D01*
X123088083Y-111933794D01*
X123083212Y-111932069D01*
X123078119Y-111931162D01*
X123078116Y-111931161D01*
X122868373Y-111893800D01*
X122868367Y-111893799D01*
X122863284Y-111892894D01*
X122789452Y-111891992D01*
X122645081Y-111890228D01*
X122645079Y-111890228D01*
X122639911Y-111890165D01*
X122419091Y-111923955D01*
X122206756Y-111993357D01*
X122008607Y-112096507D01*
X122004474Y-112099610D01*
X122004471Y-112099612D01*
X121834100Y-112227530D01*
X121829965Y-112230635D01*
X121790525Y-112271907D01*
X121736280Y-112328671D01*
X121675629Y-112392138D01*
X121549743Y-112576680D01*
X121455688Y-112779305D01*
X121395989Y-112994570D01*
X121372251Y-113216695D01*
X57758500Y-113216695D01*
X57758500Y-110134542D01*
X57778502Y-110066421D01*
X57832158Y-110019928D01*
X57902432Y-110009824D01*
X57967012Y-110039318D01*
X57996161Y-110076166D01*
X58005175Y-110093408D01*
X58011892Y-110103673D01*
X58132340Y-110253480D01*
X58140918Y-110262240D01*
X58288170Y-110385799D01*
X58298284Y-110392725D01*
X58466735Y-110485331D01*
X58477999Y-110490159D01*
X58661229Y-110548283D01*
X58673218Y-110550831D01*
X58822781Y-110567607D01*
X58829805Y-110568000D01*
X59027885Y-110568000D01*
X59043124Y-110563525D01*
X59044329Y-110562135D01*
X59046000Y-110554452D01*
X59046000Y-110549885D01*
X59554000Y-110549885D01*
X59558475Y-110565124D01*
X59559865Y-110566329D01*
X59567548Y-110568000D01*
X59763390Y-110568000D01*
X59769538Y-110567699D01*
X59912434Y-110553688D01*
X59924469Y-110551305D01*
X60108480Y-110495749D01*
X60119821Y-110491075D01*
X60289534Y-110400837D01*
X60299759Y-110394043D01*
X60448715Y-110272558D01*
X60457419Y-110263914D01*
X60579943Y-110115807D01*
X60586801Y-110105639D01*
X60678223Y-109936560D01*
X60682979Y-109925245D01*
X60722892Y-109796308D01*
X60723098Y-109782205D01*
X60716343Y-109779000D01*
X59572115Y-109779000D01*
X59556876Y-109783475D01*
X59555671Y-109784865D01*
X59554000Y-109792548D01*
X59554000Y-110549885D01*
X59046000Y-110549885D01*
X59046000Y-109327344D01*
X61387016Y-109327344D01*
X61396898Y-109339834D01*
X61440279Y-109368820D01*
X61450389Y-109374310D01*
X61635318Y-109453762D01*
X61646261Y-109457317D01*
X61842567Y-109501737D01*
X61853975Y-109503239D01*
X62055096Y-109511140D01*
X62066580Y-109510538D01*
X62265774Y-109481657D01*
X62276957Y-109478972D01*
X62467547Y-109414276D01*
X62478060Y-109409595D01*
X62604766Y-109338635D01*
X62614631Y-109328557D01*
X62611675Y-109320885D01*
X62012812Y-108722022D01*
X61998868Y-108714408D01*
X61997035Y-108714539D01*
X61990420Y-108718790D01*
X61393212Y-109315998D01*
X61387016Y-109327344D01*
X59046000Y-109327344D01*
X59046000Y-109252885D01*
X59554000Y-109252885D01*
X59558475Y-109268124D01*
X59559865Y-109269329D01*
X59567548Y-109271000D01*
X60709411Y-109271000D01*
X60722942Y-109267027D01*
X60724062Y-109259232D01*
X60688474Y-109138314D01*
X60683875Y-109126930D01*
X60594822Y-108956588D01*
X60588108Y-108946327D01*
X60467660Y-108796520D01*
X60459082Y-108787760D01*
X60311830Y-108664201D01*
X60301716Y-108657275D01*
X60133265Y-108564669D01*
X60122001Y-108559841D01*
X59938771Y-108501717D01*
X59926782Y-108499169D01*
X59777219Y-108482393D01*
X59770195Y-108482000D01*
X59572115Y-108482000D01*
X59556876Y-108486475D01*
X59555671Y-108487865D01*
X59554000Y-108495548D01*
X59554000Y-109252885D01*
X59046000Y-109252885D01*
X59046000Y-108500115D01*
X59041525Y-108484876D01*
X59040135Y-108483671D01*
X59032452Y-108482000D01*
X58836610Y-108482000D01*
X58830462Y-108482301D01*
X58687566Y-108496312D01*
X58675531Y-108498695D01*
X58491520Y-108554251D01*
X58480179Y-108558925D01*
X58310466Y-108649163D01*
X58300241Y-108655957D01*
X58151285Y-108777442D01*
X58142581Y-108786086D01*
X58020057Y-108934193D01*
X58013199Y-108944362D01*
X57995335Y-108977399D01*
X57945340Y-109027808D01*
X57876029Y-109043185D01*
X57809407Y-109018648D01*
X57766627Y-108961988D01*
X57758500Y-108917470D01*
X57758500Y-108325323D01*
X60837816Y-108325323D01*
X60850979Y-108526159D01*
X60852780Y-108537529D01*
X60902323Y-108732604D01*
X60906164Y-108743451D01*
X60990429Y-108926238D01*
X60996178Y-108936195D01*
X61009912Y-108955628D01*
X61020501Y-108964016D01*
X61033802Y-108956988D01*
X61627978Y-108362812D01*
X61634356Y-108351132D01*
X62364408Y-108351132D01*
X62364539Y-108352965D01*
X62368790Y-108359580D01*
X62966971Y-108957761D01*
X62979351Y-108964521D01*
X62985931Y-108959595D01*
X63059595Y-108828060D01*
X63064276Y-108817547D01*
X63128972Y-108626957D01*
X63131657Y-108615774D01*
X63160834Y-108414539D01*
X63161464Y-108407157D01*
X63162864Y-108353704D01*
X63162621Y-108346305D01*
X63144016Y-108143824D01*
X63141918Y-108132503D01*
X63087287Y-107938797D01*
X63083163Y-107928050D01*
X62994141Y-107747534D01*
X62990617Y-107741784D01*
X62980595Y-107734262D01*
X62968176Y-107741034D01*
X62372022Y-108337188D01*
X62364408Y-108351132D01*
X61634356Y-108351132D01*
X61635592Y-108348868D01*
X61635461Y-108347035D01*
X61631210Y-108340420D01*
X61031520Y-107740730D01*
X61019140Y-107733970D01*
X61013174Y-107738436D01*
X60928257Y-107899836D01*
X60923848Y-107910479D01*
X60864167Y-108102684D01*
X60861773Y-108113946D01*
X60838117Y-108313821D01*
X60837816Y-108325323D01*
X57758500Y-108325323D01*
X57758500Y-107372196D01*
X61386307Y-107372196D01*
X61389793Y-107380583D01*
X61987188Y-107977978D01*
X62001132Y-107985592D01*
X62002965Y-107985461D01*
X62009580Y-107981210D01*
X62606533Y-107384257D01*
X62613293Y-107371877D01*
X62607263Y-107363822D01*
X62532857Y-107316875D01*
X62522609Y-107311654D01*
X62335663Y-107237070D01*
X62324635Y-107233803D01*
X62127230Y-107194537D01*
X62115784Y-107193334D01*
X61914537Y-107190700D01*
X61903057Y-107191603D01*
X61704701Y-107225687D01*
X61693581Y-107228667D01*
X61504748Y-107298331D01*
X61494370Y-107303281D01*
X61395906Y-107361861D01*
X61386307Y-107372196D01*
X57758500Y-107372196D01*
X57758500Y-104788162D01*
X89543305Y-104788162D01*
X89543602Y-104793315D01*
X89543602Y-104793318D01*
X89549065Y-104888057D01*
X89556164Y-105011182D01*
X89557301Y-105016228D01*
X89557302Y-105016234D01*
X89577173Y-105104406D01*
X89605276Y-105229106D01*
X89689320Y-105436083D01*
X89806041Y-105626555D01*
X89952304Y-105795405D01*
X89956284Y-105798709D01*
X89961035Y-105802654D01*
X90000670Y-105861557D01*
X90002167Y-105932538D01*
X89965051Y-105993060D01*
X89924778Y-106017579D01*
X89809349Y-106060852D01*
X89692793Y-106148206D01*
X89605439Y-106264762D01*
X89554309Y-106401151D01*
X89547554Y-106463333D01*
X89547554Y-108259601D01*
X89554309Y-108321783D01*
X89605439Y-108458172D01*
X89692793Y-108574728D01*
X89809349Y-108662082D01*
X89945738Y-108713212D01*
X90007920Y-108719967D01*
X91804188Y-108719967D01*
X91866370Y-108713212D01*
X92002759Y-108662082D01*
X92119315Y-108574728D01*
X92206669Y-108458172D01*
X92257799Y-108321783D01*
X92264554Y-108259601D01*
X92264554Y-106463333D01*
X92257799Y-106401151D01*
X92206669Y-106264762D01*
X92119315Y-106148206D01*
X92002759Y-106060852D01*
X91931388Y-106034096D01*
X91884257Y-106016427D01*
X91827493Y-105973785D01*
X91802793Y-105907223D01*
X91818001Y-105837875D01*
X91839547Y-105809194D01*
X91940489Y-105708604D01*
X91944150Y-105704956D01*
X92003648Y-105622156D01*
X92071489Y-105527744D01*
X92074507Y-105523544D01*
X92173484Y-105323278D01*
X92238424Y-105109536D01*
X92267583Y-104888057D01*
X92269210Y-104821467D01*
X92250906Y-104598828D01*
X92196485Y-104382169D01*
X92107408Y-104177307D01*
X91986068Y-103989744D01*
X91835724Y-103824518D01*
X91831673Y-103821319D01*
X91831669Y-103821315D01*
X91664468Y-103689267D01*
X91664464Y-103689265D01*
X91660413Y-103686065D01*
X91464843Y-103578105D01*
X91459974Y-103576381D01*
X91459970Y-103576379D01*
X91259141Y-103505262D01*
X91259137Y-103505261D01*
X91254266Y-103503536D01*
X91249173Y-103502629D01*
X91249170Y-103502628D01*
X91039427Y-103465267D01*
X91039421Y-103465266D01*
X91034338Y-103464361D01*
X90960506Y-103463459D01*
X90816135Y-103461695D01*
X90816133Y-103461695D01*
X90810965Y-103461632D01*
X90590145Y-103495422D01*
X90377810Y-103564824D01*
X90179661Y-103667974D01*
X90175528Y-103671077D01*
X90175525Y-103671079D01*
X90153616Y-103687529D01*
X90001019Y-103802102D01*
X89846683Y-103963605D01*
X89720797Y-104148147D01*
X89626742Y-104350772D01*
X89567043Y-104566037D01*
X89543305Y-104788162D01*
X57758500Y-104788162D01*
X57758500Y-104477344D01*
X61387016Y-104477344D01*
X61396898Y-104489834D01*
X61440279Y-104518820D01*
X61450389Y-104524310D01*
X61635318Y-104603762D01*
X61646261Y-104607317D01*
X61842567Y-104651737D01*
X61853975Y-104653239D01*
X62055096Y-104661140D01*
X62066580Y-104660538D01*
X62265774Y-104631657D01*
X62276957Y-104628972D01*
X62467547Y-104564276D01*
X62478060Y-104559595D01*
X62604766Y-104488635D01*
X62614631Y-104478557D01*
X62611675Y-104470885D01*
X62012812Y-103872022D01*
X61998868Y-103864408D01*
X61997035Y-103864539D01*
X61990420Y-103868790D01*
X61393212Y-104465998D01*
X61387016Y-104477344D01*
X57758500Y-104477344D01*
X57758500Y-103475323D01*
X60837816Y-103475323D01*
X60850979Y-103676159D01*
X60852780Y-103687529D01*
X60902323Y-103882604D01*
X60906164Y-103893451D01*
X60990429Y-104076238D01*
X60996178Y-104086195D01*
X61009912Y-104105628D01*
X61020501Y-104114016D01*
X61033802Y-104106988D01*
X61627978Y-103512812D01*
X61634356Y-103501132D01*
X62364408Y-103501132D01*
X62364539Y-103502965D01*
X62368790Y-103509580D01*
X62966971Y-104107761D01*
X62979351Y-104114521D01*
X62985931Y-104109595D01*
X63059595Y-103978060D01*
X63064276Y-103967547D01*
X63128972Y-103776957D01*
X63131657Y-103765774D01*
X63160834Y-103564539D01*
X63161464Y-103557157D01*
X63162864Y-103503704D01*
X63162621Y-103496305D01*
X63144016Y-103293824D01*
X63141918Y-103282503D01*
X63087287Y-103088797D01*
X63083163Y-103078050D01*
X62994141Y-102897534D01*
X62990617Y-102891784D01*
X62980595Y-102884262D01*
X62968176Y-102891034D01*
X62372022Y-103487188D01*
X62364408Y-103501132D01*
X61634356Y-103501132D01*
X61635592Y-103498868D01*
X61635461Y-103497035D01*
X61631210Y-103490420D01*
X61031520Y-102890730D01*
X61019140Y-102883970D01*
X61013174Y-102888436D01*
X60928257Y-103049836D01*
X60923848Y-103060479D01*
X60864167Y-103252684D01*
X60861773Y-103263946D01*
X60838117Y-103463821D01*
X60837816Y-103475323D01*
X57758500Y-103475323D01*
X57758500Y-102934542D01*
X57778502Y-102866421D01*
X57832158Y-102819928D01*
X57902432Y-102809824D01*
X57967012Y-102839318D01*
X57996161Y-102876166D01*
X58005175Y-102893408D01*
X58011892Y-102903673D01*
X58132340Y-103053480D01*
X58140918Y-103062240D01*
X58288170Y-103185799D01*
X58298284Y-103192725D01*
X58466735Y-103285331D01*
X58477999Y-103290159D01*
X58661229Y-103348283D01*
X58673218Y-103350831D01*
X58822781Y-103367607D01*
X58829805Y-103368000D01*
X59027885Y-103368000D01*
X59043124Y-103363525D01*
X59044329Y-103362135D01*
X59046000Y-103354452D01*
X59046000Y-103349885D01*
X59554000Y-103349885D01*
X59558475Y-103365124D01*
X59559865Y-103366329D01*
X59567548Y-103368000D01*
X59763390Y-103368000D01*
X59769538Y-103367699D01*
X59912434Y-103353688D01*
X59924469Y-103351305D01*
X60108480Y-103295749D01*
X60119821Y-103291075D01*
X60289534Y-103200837D01*
X60299759Y-103194043D01*
X60448715Y-103072558D01*
X60457419Y-103063914D01*
X60579943Y-102915807D01*
X60586801Y-102905639D01*
X60678223Y-102736560D01*
X60682979Y-102725245D01*
X60722892Y-102596308D01*
X60723098Y-102582205D01*
X60716343Y-102579000D01*
X59572115Y-102579000D01*
X59556876Y-102583475D01*
X59555671Y-102584865D01*
X59554000Y-102592548D01*
X59554000Y-103349885D01*
X59046000Y-103349885D01*
X59046000Y-102522196D01*
X61386307Y-102522196D01*
X61389793Y-102530583D01*
X61987188Y-103127978D01*
X62001132Y-103135592D01*
X62002965Y-103135461D01*
X62009580Y-103131210D01*
X62606533Y-102534257D01*
X62613293Y-102521877D01*
X62607263Y-102513822D01*
X62532857Y-102466875D01*
X62522609Y-102461654D01*
X62335663Y-102387070D01*
X62324635Y-102383803D01*
X62127230Y-102344537D01*
X62115784Y-102343334D01*
X61914537Y-102340700D01*
X61903057Y-102341603D01*
X61704701Y-102375687D01*
X61693581Y-102378667D01*
X61504748Y-102448331D01*
X61494370Y-102453281D01*
X61395906Y-102511861D01*
X61386307Y-102522196D01*
X59046000Y-102522196D01*
X59046000Y-102052885D01*
X59554000Y-102052885D01*
X59558475Y-102068124D01*
X59559865Y-102069329D01*
X59567548Y-102071000D01*
X60709411Y-102071000D01*
X60722942Y-102067027D01*
X60724062Y-102059232D01*
X60688474Y-101938314D01*
X60683875Y-101926930D01*
X60594822Y-101756588D01*
X60588108Y-101746327D01*
X60467660Y-101596520D01*
X60459082Y-101587760D01*
X60311830Y-101464201D01*
X60301716Y-101457275D01*
X60133265Y-101364669D01*
X60122001Y-101359841D01*
X59938771Y-101301717D01*
X59926782Y-101299169D01*
X59777219Y-101282393D01*
X59770195Y-101282000D01*
X59572115Y-101282000D01*
X59556876Y-101286475D01*
X59555671Y-101287865D01*
X59554000Y-101295548D01*
X59554000Y-102052885D01*
X59046000Y-102052885D01*
X59046000Y-101300115D01*
X59041525Y-101284876D01*
X59040135Y-101283671D01*
X59032452Y-101282000D01*
X58836610Y-101282000D01*
X58830462Y-101282301D01*
X58687566Y-101296312D01*
X58675531Y-101298695D01*
X58491520Y-101354251D01*
X58480179Y-101358925D01*
X58310466Y-101449163D01*
X58300241Y-101455957D01*
X58151285Y-101577442D01*
X58142581Y-101586086D01*
X58020057Y-101734193D01*
X58013199Y-101744362D01*
X57995335Y-101777399D01*
X57945340Y-101827808D01*
X57876029Y-101843185D01*
X57809407Y-101818648D01*
X57766627Y-101761988D01*
X57758500Y-101717470D01*
X57758500Y-88006880D01*
X77411992Y-88006880D01*
X77412355Y-88011028D01*
X77412355Y-88011032D01*
X77437487Y-88298293D01*
X77437488Y-88298301D01*
X77437852Y-88302459D01*
X77502577Y-88592021D01*
X77504019Y-88595941D01*
X77504021Y-88595947D01*
X77574619Y-88787827D01*
X77605029Y-88870480D01*
X77743410Y-89132942D01*
X77915288Y-89374797D01*
X78117642Y-89591796D01*
X78346918Y-89780125D01*
X78599088Y-89936477D01*
X78869722Y-90058105D01*
X79042390Y-90109580D01*
X79150065Y-90141679D01*
X79150067Y-90141679D01*
X79154064Y-90142871D01*
X79158184Y-90143524D01*
X79158186Y-90143524D01*
X79277106Y-90162359D01*
X79447119Y-90189286D01*
X79492146Y-90191331D01*
X79538497Y-90193436D01*
X79538516Y-90193436D01*
X79539916Y-90193500D01*
X79725264Y-90193500D01*
X79946056Y-90178835D01*
X80236910Y-90120188D01*
X80517453Y-90023590D01*
X80521196Y-90021716D01*
X80521200Y-90021714D01*
X80779012Y-89892611D01*
X80779014Y-89892610D01*
X80782756Y-89890736D01*
X81028158Y-89723961D01*
X81249346Y-89526196D01*
X81442436Y-89300914D01*
X81444711Y-89297411D01*
X81601763Y-89055572D01*
X81601765Y-89055569D01*
X81604035Y-89052073D01*
X81731304Y-88784046D01*
X81791696Y-88595947D01*
X81820726Y-88505530D01*
X81820727Y-88505524D01*
X81822006Y-88501542D01*
X81857091Y-88306548D01*
X81873809Y-88213632D01*
X81873810Y-88213627D01*
X81874548Y-88209523D01*
X81883751Y-88006880D01*
X81887819Y-87917290D01*
X81887819Y-87917285D01*
X81888008Y-87913120D01*
X81887645Y-87908968D01*
X81862513Y-87621707D01*
X81862512Y-87621699D01*
X81862148Y-87617541D01*
X81797423Y-87327979D01*
X81726773Y-87135954D01*
X81696418Y-87053452D01*
X81696416Y-87053448D01*
X81694971Y-87049520D01*
X81556590Y-86787058D01*
X81384712Y-86545203D01*
X81182358Y-86328204D01*
X80953082Y-86139875D01*
X80700912Y-85983523D01*
X80430278Y-85861895D01*
X80257610Y-85810420D01*
X80149935Y-85778321D01*
X80149933Y-85778321D01*
X80145936Y-85777129D01*
X80141816Y-85776476D01*
X80141814Y-85776476D01*
X80022894Y-85757641D01*
X79852881Y-85730714D01*
X79807854Y-85728669D01*
X79761503Y-85726564D01*
X79761484Y-85726564D01*
X79760084Y-85726500D01*
X79574736Y-85726500D01*
X79353944Y-85741165D01*
X79063090Y-85799812D01*
X78782547Y-85896410D01*
X78778804Y-85898284D01*
X78778800Y-85898286D01*
X78604179Y-85985730D01*
X78517244Y-86029264D01*
X78271842Y-86196039D01*
X78050654Y-86393804D01*
X77857564Y-86619086D01*
X77855290Y-86622588D01*
X77855289Y-86622589D01*
X77750698Y-86783646D01*
X77695965Y-86867927D01*
X77568696Y-87135954D01*
X77567417Y-87139937D01*
X77567416Y-87139940D01*
X77507044Y-87327979D01*
X77477994Y-87418458D01*
X77477253Y-87422577D01*
X77442174Y-87617541D01*
X77425452Y-87710477D01*
X77425263Y-87714644D01*
X77425262Y-87714651D01*
X77416060Y-87917290D01*
X77411992Y-88006880D01*
X57758500Y-88006880D01*
X57758500Y-71870583D01*
X69613828Y-71870583D01*
X69619935Y-72129689D01*
X69665163Y-72384890D01*
X69748473Y-72630313D01*
X69750674Y-72634549D01*
X69750676Y-72634555D01*
X69808210Y-72745312D01*
X69867947Y-72860311D01*
X69870762Y-72864165D01*
X69870765Y-72864169D01*
X69972307Y-73003161D01*
X70020837Y-73069590D01*
X70024209Y-73072980D01*
X70024211Y-73072982D01*
X70200248Y-73249945D01*
X70200253Y-73249949D01*
X70203622Y-73253336D01*
X70412099Y-73407319D01*
X70416337Y-73409549D01*
X70416339Y-73409550D01*
X70637232Y-73525768D01*
X70637239Y-73525771D01*
X70641468Y-73527996D01*
X70645984Y-73529555D01*
X70645990Y-73529558D01*
X70772565Y-73573264D01*
X70886451Y-73612590D01*
X71004193Y-73634093D01*
X71137441Y-73658429D01*
X71137445Y-73658429D01*
X71141412Y-73659154D01*
X71224342Y-73663500D01*
X71385903Y-73663500D01*
X71388282Y-73663319D01*
X71388283Y-73663319D01*
X71573664Y-73649218D01*
X71573669Y-73649217D01*
X71578431Y-73648855D01*
X71583084Y-73647776D01*
X71583087Y-73647776D01*
X71826251Y-73591413D01*
X71826250Y-73591413D01*
X71830915Y-73590332D01*
X72071642Y-73494292D01*
X72295072Y-73362944D01*
X72298783Y-73359923D01*
X72298787Y-73359920D01*
X72492351Y-73202334D01*
X72496063Y-73199312D01*
X72499272Y-73195767D01*
X72499277Y-73195762D01*
X72666774Y-73010713D01*
X72669990Y-73007160D01*
X72812851Y-72790910D01*
X72816016Y-72784046D01*
X72919352Y-72559892D01*
X72919353Y-72559889D01*
X72921358Y-72555540D01*
X72993015Y-72306465D01*
X72994070Y-72298293D01*
X73025561Y-72054154D01*
X73026172Y-72049417D01*
X73025169Y-72006880D01*
X132611992Y-72006880D01*
X132612355Y-72011028D01*
X132612355Y-72011032D01*
X132637487Y-72298293D01*
X132637488Y-72298301D01*
X132637852Y-72302459D01*
X132638766Y-72306548D01*
X132694423Y-72555540D01*
X132702577Y-72592021D01*
X132704019Y-72595941D01*
X132704021Y-72595947D01*
X132802707Y-72864169D01*
X132805029Y-72870480D01*
X132806980Y-72874180D01*
X132806982Y-72874185D01*
X132941457Y-73129238D01*
X132943410Y-73132942D01*
X133115288Y-73374797D01*
X133317642Y-73591796D01*
X133546918Y-73780125D01*
X133799088Y-73936477D01*
X134069722Y-74058105D01*
X134242390Y-74109580D01*
X134350065Y-74141679D01*
X134350067Y-74141679D01*
X134354064Y-74142871D01*
X134358184Y-74143524D01*
X134358186Y-74143524D01*
X134477106Y-74162359D01*
X134647119Y-74189286D01*
X134692146Y-74191331D01*
X134738497Y-74193436D01*
X134738516Y-74193436D01*
X134739916Y-74193500D01*
X134925264Y-74193500D01*
X135146056Y-74178835D01*
X135436910Y-74120188D01*
X135717453Y-74023590D01*
X135721196Y-74021716D01*
X135721200Y-74021714D01*
X135979012Y-73892611D01*
X135979014Y-73892610D01*
X135982756Y-73890736D01*
X136228158Y-73723961D01*
X136449346Y-73526196D01*
X136642436Y-73300914D01*
X136671485Y-73256182D01*
X136801763Y-73055572D01*
X136801765Y-73055569D01*
X136804035Y-73052073D01*
X136825362Y-73007160D01*
X136852629Y-72949734D01*
X136931304Y-72784046D01*
X136932584Y-72780060D01*
X137020726Y-72505530D01*
X137020727Y-72505524D01*
X137022006Y-72501542D01*
X137057106Y-72306465D01*
X137073809Y-72213632D01*
X137073810Y-72213627D01*
X137074548Y-72209523D01*
X137078174Y-72129689D01*
X137087819Y-71917290D01*
X137087819Y-71917285D01*
X137088008Y-71913120D01*
X137087645Y-71908968D01*
X137062513Y-71621707D01*
X137062512Y-71621699D01*
X137062148Y-71617541D01*
X137006606Y-71369062D01*
X136998336Y-71332063D01*
X136998336Y-71332061D01*
X136997423Y-71327979D01*
X136985001Y-71294215D01*
X136896418Y-71053452D01*
X136896416Y-71053448D01*
X136894971Y-71049520D01*
X136821035Y-70909287D01*
X136758543Y-70790762D01*
X136758542Y-70790761D01*
X136756590Y-70787058D01*
X136584712Y-70545203D01*
X136382358Y-70328204D01*
X136153082Y-70139875D01*
X135900912Y-69983523D01*
X135630278Y-69861895D01*
X135457610Y-69810420D01*
X135349935Y-69778321D01*
X135349933Y-69778321D01*
X135345936Y-69777129D01*
X135341816Y-69776476D01*
X135341814Y-69776476D01*
X135222894Y-69757641D01*
X135052881Y-69730714D01*
X135007854Y-69728669D01*
X134961503Y-69726564D01*
X134961484Y-69726564D01*
X134960084Y-69726500D01*
X134774736Y-69726500D01*
X134553944Y-69741165D01*
X134263090Y-69799812D01*
X133982547Y-69896410D01*
X133978804Y-69898284D01*
X133978800Y-69898286D01*
X133804179Y-69985730D01*
X133717244Y-70029264D01*
X133471842Y-70196039D01*
X133250654Y-70393804D01*
X133057564Y-70619086D01*
X133055290Y-70622588D01*
X133055289Y-70622589D01*
X132907341Y-70850410D01*
X132895965Y-70867927D01*
X132894177Y-70871693D01*
X132894174Y-70871698D01*
X132872740Y-70916839D01*
X132768696Y-71135954D01*
X132767417Y-71139937D01*
X132767416Y-71139940D01*
X132695331Y-71364460D01*
X132677994Y-71418458D01*
X132677253Y-71422577D01*
X132642174Y-71617541D01*
X132625452Y-71710477D01*
X132625263Y-71714644D01*
X132625262Y-71714651D01*
X132616060Y-71917290D01*
X132611992Y-72006880D01*
X73025169Y-72006880D01*
X73020065Y-71790311D01*
X72974837Y-71535110D01*
X72891527Y-71289687D01*
X72889326Y-71285451D01*
X72889324Y-71285445D01*
X72808104Y-71129090D01*
X72772053Y-71059689D01*
X72761918Y-71045815D01*
X72621986Y-70854274D01*
X72621985Y-70854273D01*
X72619163Y-70850410D01*
X72559827Y-70790762D01*
X72439752Y-70670055D01*
X72439747Y-70670051D01*
X72436378Y-70666664D01*
X72227901Y-70512681D01*
X72223661Y-70510450D01*
X72002768Y-70394232D01*
X72002761Y-70394229D01*
X71998532Y-70392004D01*
X71994016Y-70390445D01*
X71994010Y-70390442D01*
X71823148Y-70331443D01*
X71753549Y-70307410D01*
X71635807Y-70285907D01*
X71502559Y-70261571D01*
X71502555Y-70261571D01*
X71498588Y-70260846D01*
X71415658Y-70256500D01*
X71254097Y-70256500D01*
X71251718Y-70256681D01*
X71251717Y-70256681D01*
X71066336Y-70270782D01*
X71066331Y-70270783D01*
X71061569Y-70271145D01*
X71056916Y-70272224D01*
X71056913Y-70272224D01*
X70908822Y-70306550D01*
X70809085Y-70329668D01*
X70568358Y-70425708D01*
X70344928Y-70557056D01*
X70341217Y-70560077D01*
X70341213Y-70560080D01*
X70268736Y-70619086D01*
X70143937Y-70720688D01*
X70140728Y-70724233D01*
X70140723Y-70724238D01*
X70023021Y-70854274D01*
X69970010Y-70912840D01*
X69827149Y-71129090D01*
X69825148Y-71133430D01*
X69825146Y-71133434D01*
X69751025Y-71294215D01*
X69718642Y-71364460D01*
X69646985Y-71613535D01*
X69646374Y-71618270D01*
X69646373Y-71618276D01*
X69635010Y-71706368D01*
X69613828Y-71870583D01*
X57758500Y-71870583D01*
X57758500Y-65296880D01*
X77411992Y-65296880D01*
X77412355Y-65301028D01*
X77412355Y-65301032D01*
X77437487Y-65588293D01*
X77437488Y-65588301D01*
X77437852Y-65592459D01*
X77502577Y-65882021D01*
X77504019Y-65885941D01*
X77504021Y-65885947D01*
X77574619Y-66077827D01*
X77605029Y-66160480D01*
X77743410Y-66422942D01*
X77915288Y-66664797D01*
X78117642Y-66881796D01*
X78346918Y-67070125D01*
X78599088Y-67226477D01*
X78869722Y-67348105D01*
X79042390Y-67399580D01*
X79150065Y-67431679D01*
X79150067Y-67431679D01*
X79154064Y-67432871D01*
X79158184Y-67433524D01*
X79158186Y-67433524D01*
X79277106Y-67452359D01*
X79447119Y-67479286D01*
X79492146Y-67481331D01*
X79538497Y-67483436D01*
X79538516Y-67483436D01*
X79539916Y-67483500D01*
X79725264Y-67483500D01*
X79946056Y-67468835D01*
X80236910Y-67410188D01*
X80517453Y-67313590D01*
X80521196Y-67311716D01*
X80521200Y-67311714D01*
X80779012Y-67182611D01*
X80779014Y-67182610D01*
X80782756Y-67180736D01*
X81028158Y-67013961D01*
X81249346Y-66816196D01*
X81442436Y-66590914D01*
X81444711Y-66587411D01*
X81601763Y-66345572D01*
X81601765Y-66345569D01*
X81604035Y-66342073D01*
X81731304Y-66074046D01*
X81791696Y-65885947D01*
X81820726Y-65795530D01*
X81820727Y-65795524D01*
X81822006Y-65791542D01*
X81857091Y-65596548D01*
X81873809Y-65503632D01*
X81873810Y-65503627D01*
X81874548Y-65499523D01*
X81883751Y-65296880D01*
X81887819Y-65207290D01*
X81887819Y-65207285D01*
X81888008Y-65203120D01*
X81887645Y-65198968D01*
X81862513Y-64911707D01*
X81862512Y-64911699D01*
X81862148Y-64907541D01*
X81797423Y-64617979D01*
X81726773Y-64425954D01*
X81696418Y-64343452D01*
X81696416Y-64343448D01*
X81694971Y-64339520D01*
X81556590Y-64077058D01*
X81384712Y-63835203D01*
X81182358Y-63618204D01*
X80953082Y-63429875D01*
X80700912Y-63273523D01*
X80430278Y-63151895D01*
X80257610Y-63100420D01*
X80149935Y-63068321D01*
X80149933Y-63068321D01*
X80145936Y-63067129D01*
X80141816Y-63066476D01*
X80141814Y-63066476D01*
X80022894Y-63047641D01*
X79852881Y-63020714D01*
X79807854Y-63018669D01*
X79761503Y-63016564D01*
X79761484Y-63016564D01*
X79760084Y-63016500D01*
X79574736Y-63016500D01*
X79353944Y-63031165D01*
X79063090Y-63089812D01*
X78782547Y-63186410D01*
X78778804Y-63188284D01*
X78778800Y-63188286D01*
X78604179Y-63275730D01*
X78517244Y-63319264D01*
X78271842Y-63486039D01*
X78050654Y-63683804D01*
X77857564Y-63909086D01*
X77855290Y-63912588D01*
X77855289Y-63912589D01*
X77750698Y-64073646D01*
X77695965Y-64157927D01*
X77568696Y-64425954D01*
X77567417Y-64429937D01*
X77567416Y-64429940D01*
X77507044Y-64617979D01*
X77477994Y-64708458D01*
X77477253Y-64712577D01*
X77442174Y-64907541D01*
X77425452Y-65000477D01*
X77425263Y-65004644D01*
X77425262Y-65004651D01*
X77416060Y-65207290D01*
X77411992Y-65296880D01*
X57758500Y-65296880D01*
X57758500Y-49160583D01*
X69613828Y-49160583D01*
X69619935Y-49419689D01*
X69665163Y-49674890D01*
X69748473Y-49920313D01*
X69750674Y-49924549D01*
X69750676Y-49924555D01*
X69808210Y-50035312D01*
X69867947Y-50150311D01*
X69870762Y-50154165D01*
X69870765Y-50154169D01*
X69972307Y-50293161D01*
X70020837Y-50359590D01*
X70024209Y-50362980D01*
X70024211Y-50362982D01*
X70200248Y-50539945D01*
X70200253Y-50539949D01*
X70203622Y-50543336D01*
X70412099Y-50697319D01*
X70416337Y-50699549D01*
X70416339Y-50699550D01*
X70637232Y-50815768D01*
X70637239Y-50815771D01*
X70641468Y-50817996D01*
X70645984Y-50819555D01*
X70645990Y-50819558D01*
X70772565Y-50863264D01*
X70886451Y-50902590D01*
X71004193Y-50924093D01*
X71137441Y-50948429D01*
X71137445Y-50948429D01*
X71141412Y-50949154D01*
X71224342Y-50953500D01*
X71385903Y-50953500D01*
X71388282Y-50953319D01*
X71388283Y-50953319D01*
X71573664Y-50939218D01*
X71573669Y-50939217D01*
X71578431Y-50938855D01*
X71583084Y-50937776D01*
X71583087Y-50937776D01*
X71826251Y-50881413D01*
X71826250Y-50881413D01*
X71830915Y-50880332D01*
X72071642Y-50784292D01*
X72295072Y-50652944D01*
X72298783Y-50649923D01*
X72298787Y-50649920D01*
X72492351Y-50492334D01*
X72496063Y-50489312D01*
X72499272Y-50485767D01*
X72499277Y-50485762D01*
X72666774Y-50300713D01*
X72669990Y-50297160D01*
X72812851Y-50080910D01*
X72816016Y-50074046D01*
X72919352Y-49849892D01*
X72919353Y-49849889D01*
X72921358Y-49845540D01*
X72993015Y-49596465D01*
X72994070Y-49588293D01*
X73025561Y-49344154D01*
X73026172Y-49339417D01*
X73025169Y-49296880D01*
X132611992Y-49296880D01*
X132612355Y-49301028D01*
X132612355Y-49301032D01*
X132637487Y-49588293D01*
X132637488Y-49588301D01*
X132637852Y-49592459D01*
X132638766Y-49596548D01*
X132694423Y-49845540D01*
X132702577Y-49882021D01*
X132704019Y-49885941D01*
X132704021Y-49885947D01*
X132802707Y-50154169D01*
X132805029Y-50160480D01*
X132806980Y-50164180D01*
X132806982Y-50164185D01*
X132941457Y-50419238D01*
X132943410Y-50422942D01*
X133115288Y-50664797D01*
X133317642Y-50881796D01*
X133546918Y-51070125D01*
X133799088Y-51226477D01*
X134069722Y-51348105D01*
X134242390Y-51399580D01*
X134350065Y-51431679D01*
X134350067Y-51431679D01*
X134354064Y-51432871D01*
X134358184Y-51433524D01*
X134358186Y-51433524D01*
X134477106Y-51452359D01*
X134647119Y-51479286D01*
X134692146Y-51481331D01*
X134738497Y-51483436D01*
X134738516Y-51483436D01*
X134739916Y-51483500D01*
X134925264Y-51483500D01*
X135146056Y-51468835D01*
X135436910Y-51410188D01*
X135717453Y-51313590D01*
X135721196Y-51311716D01*
X135721200Y-51311714D01*
X135979012Y-51182611D01*
X135979014Y-51182610D01*
X135982756Y-51180736D01*
X136228158Y-51013961D01*
X136449346Y-50816196D01*
X136642436Y-50590914D01*
X136671485Y-50546182D01*
X136801763Y-50345572D01*
X136801765Y-50345569D01*
X136804035Y-50342073D01*
X136825362Y-50297160D01*
X136852629Y-50239734D01*
X136931304Y-50074046D01*
X136932584Y-50070060D01*
X137020726Y-49795530D01*
X137020727Y-49795524D01*
X137022006Y-49791542D01*
X137057106Y-49596465D01*
X137073809Y-49503632D01*
X137073810Y-49503627D01*
X137074548Y-49499523D01*
X137078174Y-49419689D01*
X137087819Y-49207290D01*
X137087819Y-49207285D01*
X137088008Y-49203120D01*
X137087645Y-49198968D01*
X137062513Y-48911707D01*
X137062512Y-48911699D01*
X137062148Y-48907541D01*
X137006606Y-48659062D01*
X136998336Y-48622063D01*
X136998336Y-48622061D01*
X136997423Y-48617979D01*
X136985001Y-48584215D01*
X136896418Y-48343452D01*
X136896416Y-48343448D01*
X136894971Y-48339520D01*
X136821035Y-48199287D01*
X136758543Y-48080762D01*
X136758542Y-48080761D01*
X136756590Y-48077058D01*
X136584712Y-47835203D01*
X136382358Y-47618204D01*
X136153082Y-47429875D01*
X135900912Y-47273523D01*
X135630278Y-47151895D01*
X135457610Y-47100420D01*
X135349935Y-47068321D01*
X135349933Y-47068321D01*
X135345936Y-47067129D01*
X135341816Y-47066476D01*
X135341814Y-47066476D01*
X135222894Y-47047641D01*
X135052881Y-47020714D01*
X135007854Y-47018669D01*
X134961503Y-47016564D01*
X134961484Y-47016564D01*
X134960084Y-47016500D01*
X134774736Y-47016500D01*
X134553944Y-47031165D01*
X134263090Y-47089812D01*
X133982547Y-47186410D01*
X133978804Y-47188284D01*
X133978800Y-47188286D01*
X133804179Y-47275730D01*
X133717244Y-47319264D01*
X133471842Y-47486039D01*
X133250654Y-47683804D01*
X133057564Y-47909086D01*
X133055290Y-47912588D01*
X133055289Y-47912589D01*
X132907341Y-48140410D01*
X132895965Y-48157927D01*
X132894177Y-48161693D01*
X132894174Y-48161698D01*
X132872740Y-48206839D01*
X132768696Y-48425954D01*
X132767417Y-48429937D01*
X132767416Y-48429940D01*
X132695331Y-48654460D01*
X132677994Y-48708458D01*
X132677253Y-48712577D01*
X132642174Y-48907541D01*
X132625452Y-49000477D01*
X132625263Y-49004644D01*
X132625262Y-49004651D01*
X132616060Y-49207290D01*
X132611992Y-49296880D01*
X73025169Y-49296880D01*
X73020065Y-49080311D01*
X72974837Y-48825110D01*
X72891527Y-48579687D01*
X72889326Y-48575451D01*
X72889324Y-48575445D01*
X72808104Y-48419090D01*
X72772053Y-48349689D01*
X72761918Y-48335815D01*
X72621986Y-48144274D01*
X72621985Y-48144273D01*
X72619163Y-48140410D01*
X72559827Y-48080762D01*
X72439752Y-47960055D01*
X72439747Y-47960051D01*
X72436378Y-47956664D01*
X72227901Y-47802681D01*
X72223661Y-47800450D01*
X72002768Y-47684232D01*
X72002761Y-47684229D01*
X71998532Y-47682004D01*
X71994016Y-47680445D01*
X71994010Y-47680442D01*
X71823148Y-47621443D01*
X71753549Y-47597410D01*
X71635807Y-47575907D01*
X71502559Y-47551571D01*
X71502555Y-47551571D01*
X71498588Y-47550846D01*
X71415658Y-47546500D01*
X71254097Y-47546500D01*
X71251718Y-47546681D01*
X71251717Y-47546681D01*
X71066336Y-47560782D01*
X71066331Y-47560783D01*
X71061569Y-47561145D01*
X71056916Y-47562224D01*
X71056913Y-47562224D01*
X70908822Y-47596550D01*
X70809085Y-47619668D01*
X70568358Y-47715708D01*
X70344928Y-47847056D01*
X70341217Y-47850077D01*
X70341213Y-47850080D01*
X70268736Y-47909086D01*
X70143937Y-48010688D01*
X70140728Y-48014233D01*
X70140723Y-48014238D01*
X70023021Y-48144274D01*
X69970010Y-48202840D01*
X69827149Y-48419090D01*
X69825148Y-48423430D01*
X69825146Y-48423434D01*
X69751025Y-48584215D01*
X69718642Y-48654460D01*
X69646985Y-48903535D01*
X69646374Y-48908270D01*
X69646373Y-48908276D01*
X69635010Y-48996368D01*
X69613828Y-49160583D01*
X57758500Y-49160583D01*
X57758500Y-42134500D01*
X57778502Y-42066379D01*
X57832158Y-42019886D01*
X57884500Y-42008500D01*
X156615500Y-42008500D01*
X156683621Y-42028502D01*
G37*
%TD.AperFunction*%
%TD*%
M02*
