%TF.GenerationSoftware,KiCad,Pcbnew,(6.0.8)*%
%TF.CreationDate,2023-04-18T12:53:02+02:00*%
%TF.ProjectId,Group22_Power,47726f75-7032-4325-9f50-6f7765722e6b,rev?*%
%TF.SameCoordinates,Original*%
%TF.FileFunction,Other,Comment*%
%FSLAX46Y46*%
G04 Gerber Fmt 4.6, Leading zero omitted, Abs format (unit mm)*
G04 Created by KiCad (PCBNEW (6.0.8)) date 2023-04-18 12:53:02*
%MOMM*%
%LPD*%
G01*
G04 APERTURE LIST*
%ADD10C,0.150000*%
G04 APERTURE END LIST*
D10*
%TO.C,L1*%
X99879888Y-106090657D02*
X99879888Y-106900181D01*
X99832269Y-106995419D01*
X99784650Y-107043038D01*
X99689412Y-107090657D01*
X99546555Y-107090657D01*
X99451316Y-107043038D01*
X99879888Y-106709704D02*
X99784650Y-106757323D01*
X99594174Y-106757323D01*
X99498936Y-106709704D01*
X99451316Y-106662085D01*
X99403697Y-106566847D01*
X99403697Y-106281133D01*
X99451316Y-106185895D01*
X99498936Y-106138276D01*
X99594174Y-106090657D01*
X99784650Y-106090657D01*
X99879888Y-106138276D01*
X100784650Y-106090657D02*
X100784650Y-106900181D01*
X100737031Y-106995419D01*
X100689412Y-107043038D01*
X100594174Y-107090657D01*
X100451316Y-107090657D01*
X100356078Y-107043038D01*
X100784650Y-106709704D02*
X100689412Y-106757323D01*
X100498936Y-106757323D01*
X100403697Y-106709704D01*
X100356078Y-106662085D01*
X100308459Y-106566847D01*
X100308459Y-106281133D01*
X100356078Y-106185895D01*
X100403697Y-106138276D01*
X100498936Y-106090657D01*
X100689412Y-106090657D01*
X100784650Y-106138276D01*
X101641793Y-106709704D02*
X101546555Y-106757323D01*
X101356078Y-106757323D01*
X101260840Y-106709704D01*
X101213221Y-106614466D01*
X101213221Y-106233514D01*
X101260840Y-106138276D01*
X101356078Y-106090657D01*
X101546555Y-106090657D01*
X101641793Y-106138276D01*
X101689412Y-106233514D01*
X101689412Y-106328752D01*
X101213221Y-106423990D01*
X102260840Y-106185895D02*
X102165602Y-106138276D01*
X102117983Y-106090657D01*
X102070364Y-105995419D01*
X102070364Y-105947800D01*
X102117983Y-105852562D01*
X102165602Y-105804943D01*
X102260840Y-105757323D01*
X102451316Y-105757323D01*
X102546555Y-105804943D01*
X102594174Y-105852562D01*
X102641793Y-105947800D01*
X102641793Y-105995419D01*
X102594174Y-106090657D01*
X102546555Y-106138276D01*
X102451316Y-106185895D01*
X102260840Y-106185895D01*
X102165602Y-106233514D01*
X102117983Y-106281133D01*
X102070364Y-106376371D01*
X102070364Y-106566847D01*
X102117983Y-106662085D01*
X102165602Y-106709704D01*
X102260840Y-106757323D01*
X102451316Y-106757323D01*
X102546555Y-106709704D01*
X102594174Y-106662085D01*
X102641793Y-106566847D01*
X102641793Y-106376371D01*
X102594174Y-106281133D01*
X102546555Y-106233514D01*
X102451316Y-106185895D01*
X103022745Y-105852562D02*
X103070364Y-105804943D01*
X103165602Y-105757323D01*
X103403697Y-105757323D01*
X103498936Y-105804943D01*
X103546555Y-105852562D01*
X103594174Y-105947800D01*
X103594174Y-106043038D01*
X103546555Y-106185895D01*
X102975126Y-106757323D01*
X103594174Y-106757323D01*
%TD*%
M02*
